  0
SECTION
  2
HEADER
  9
$ACADVER
  1
AC1009
  9
$FILLMODE
 70
0
  9
$EXTMIN
 10
-63.5125
 20
-57.2262
 30
0.0000
  9
$EXTMAX
 10
63.5127
 20
55.8925
 30
0.0000
  0
ENDSEC
  0
SECTION
  2
TABLES
  0
TABLE
  2
LTYPE
 70
1
  0
LTYPE
  2
CONTINUOUS
 70
64
  3
Solid line
 72
65
 73
0
 40
0
  0
ENDTAB
  0
TABLE
  2
LAYER
 70
255
  0
LAYER
  2
49
 70
64
 62
253
  6
CONTINUOUS
  0
ENDTAB
  0
ENDSEC
  0
SECTION
  2
BLOCKS
  0
BLOCK
  8
0
  2
RECT
 70
64
 10
0.0000
 20
0.0000
 30
0.0000
  3
RECT
  0
SOLID
  8
0
 10
-0.5000
 20
-0.5000
 30
0.0000
 11
0.5000
 21
-0.5000
 31
0.0000
 12
-0.5000
 22
0.5000
 32
0.0000
 13
0.5000
 23
0.5000
 33
0.0000
  0
ENDBLK
  8
0
  0
BLOCK
  8
0
  2
PIE
 70
64
 10
0.0000
 20
0.0000
 30
0.0000
  3
PIE
  0
CIRCLE
  8
0
 10
0.0000
 20
0.0000
 30
0.0000
 40
0.5000
  0
ENDBLK
  8
0
  0
BLOCK
  8
0
  2
OCTAGONP
 70
64
 10
0.0000
 20
0.0000
 30
0.0000
  3
OCTAGONP
  0
POLYLINE
  8
0
 66
1
 10
0.0000
 20
0.0000
 30
0.0000
 40
0.0000
 41
0.0000
 70
1
  0
VERTEX
  8
0
 10
-0.5000
 20
-0.2071
 30
0.0000
  0
VERTEX
  8
0
 10
-0.5000
 20
0.2071
 30
0.0000
  0
VERTEX
  8
0
 10
-0.2071
 20
0.5000
 30
0.0000
  0
VERTEX
  8
0
 10
0.2071
 20
0.5000
 30
0.0000
  0
VERTEX
  8
0
 10
0.5000
 20
0.2071
 30
0.0000
  0
VERTEX
  8
0
 10
0.5000
 20
-0.2071
 30
0.0000
  0
VERTEX
  8
0
 10
0.2071
 20
-0.5000
 30
0.0000
  0
VERTEX
  8
0
 10
-0.2071
 20
-0.5000
 30
0.0000
  0
SEQEND
  8
0
  0
ENDBLK
  8
0
  0
BLOCK
  8
0
  2
SQUAREP
 70
64
 10
0.0000
 20
0.0000
 30
0.0000
  3
SQUAREP
  0
SOLID
  8
0
 10
-0.5000
 20
-0.5000
 30
0.0000
 11
0.5000
 21
-0.5000
 31
0.0000
 12
-0.5000
 22
0.5000
 32
0.0000
 13
0.5000
 23
0.5000
 33
0.0000
  0
ENDBLK
  8
0
  0
BLOCK
  8
0
  2
ROUNDP
 70
64
 10
0.0000
 20
0.0000
 30
0.0000
  3
ROUNDP
  0
CIRCLE
  8
0
 10
0.0000
 20
0.0000
 30
0.0000
 40
0.5000
  0
ENDBLK
  8
0
  0
BLOCK
  8
0
  2
ANNULUSP
 70
64
 10
0.0000
 20
0.0000
 30
0.0000
  3
ANNULUSP
  0
CIRCLE
  8
0
 10
0.0000
 20
0.0000
 30
0.0000
 40
0.5000
  0
ENDBLK
  8
0
  0
BLOCK
  8
0
  2
THERMALP
 70
64
 10
0.0000
 20
0.0000
 30
0.0000
  3
THERMALP
  0
LINE
  8
0
 10
-0.2379
 20
0.4500
 30
0.0000
 11
0.2379
 21
0.4500
 31
0.0000
  0
LINE
  8
0
 10
0.4500
 20
0.2379
 30
0.0000
 11
0.4500
 21
-0.2379
 31
0.0000
  0
LINE
  8
0
 10
0.2379
 20
-0.4500
 30
0.0000
 11
-0.2379
 21
-0.4500
 31
0.0000
  0
LINE
  8
0
 10
-0.4500
 20
-0.2379
 30
0.0000
 11
-0.4500
 21
0.2379
 31
0.0000
  0
ENDBLK
  8
0
  0
BLOCK
  8
0
  2
OCTAGONV
 70
64
 10
0.0000
 20
0.0000
 30
0.0000
  3
OCTAGONV
  0
POLYLINE
  8
0
 66
1
 10
0.0000
 20
0.0000
 30
0.0000
 40
0.0000
 41
0.0000
 70
1
  0
VERTEX
  8
0
 10
-0.5000
 20
-0.2071
 30
0.0000
  0
VERTEX
  8
0
 10
-0.5000
 20
0.2071
 30
0.0000
  0
VERTEX
  8
0
 10
-0.2071
 20
0.5000
 30
0.0000
  0
VERTEX
  8
0
 10
0.2071
 20
0.5000
 30
0.0000
  0
VERTEX
  8
0
 10
0.5000
 20
0.2071
 30
0.0000
  0
VERTEX
  8
0
 10
0.5000
 20
-0.2071
 30
0.0000
  0
VERTEX
  8
0
 10
0.2071
 20
-0.5000
 30
0.0000
  0
VERTEX
  8
0
 10
-0.2071
 20
-0.5000
 30
0.0000
  0
SEQEND
  8
0
  0
ENDBLK
  8
0
  0
BLOCK
  8
0
  2
SQUAREV
 70
64
 10
0.0000
 20
0.0000
 30
0.0000
  3
SQUAREV
  0
SOLID
  8
0
 10
-0.5000
 20
-0.5000
 30
0.0000
 11
0.5000
 21
-0.5000
 31
0.0000
 12
-0.5000
 22
0.5000
 32
0.0000
 13
0.5000
 23
0.5000
 33
0.0000
  0
ENDBLK
  8
0
  0
BLOCK
  8
0
  2
ROUNDV
 70
64
 10
0.0000
 20
0.0000
 30
0.0000
  3
ROUNDV
  0
CIRCLE
  8
0
 10
0.0000
 20
0.0000
 30
0.0000
 40
0.5000
  0
ENDBLK
  8
0
  0
BLOCK
  8
0
  2
ANNULUSV
 70
64
 10
0.0000
 20
0.0000
 30
0.0000
  3
ANNULUSV
  0
CIRCLE
  8
0
 10
0.0000
 20
0.0000
 30
0.0000
 40
0.5000
  0
ENDBLK
  8
0
  0
BLOCK
  8
0
  2
THERMALV
 70
64
 10
0.0000
 20
0.0000
 30
0.0000
  3
THERMALV
  0
LINE
  8
0
 10
-0.2379
 20
0.4500
 30
0.0000
 11
0.2379
 21
0.4500
 31
0.0000
  0
LINE
  8
0
 10
0.4500
 20
0.2379
 30
0.0000
 11
0.4500
 21
-0.2379
 31
0.0000
  0
LINE
  8
0
 10
0.2379
 20
-0.4500
 30
0.0000
 11
-0.2379
 21
-0.4500
 31
0.0000
  0
LINE
  8
0
 10
-0.4500
 20
-0.2379
 30
0.0000
 11
-0.4500
 21
0.2379
 31
0.0000
  0
ENDBLK
  8
0
  0
BLOCK
  8
0
  2
LONGP100
 70
64
 10
0.0000
 20
0.0000
 30
0.0000
  3
LONGP100
  0
POLYLINE
  8
0
 66
1
 10
0.0000
 20
0.0000
 30
0.0000
 40
0.0000
 41
0.0000
 70
1
  0
VERTEX
  8
0
 10
-0.5000
 20
-0.5000
 30
0.0000
  0
VERTEX
  8
0
 10
0.5000
 20
-0.5000
 30
0.0000
 42
1.0000
  0
VERTEX
  8
0
 10
0.5000
 20
0.5000
 30
0.0000
  0
VERTEX
  8
0
 10
-0.5000
 20
0.5000
 30
0.0000
 42
1.0000
  0
SEQEND
  8
0
  0
ENDBLK
  8
0
  0
ENDSEC
  0
SECTION
  2
ENTITIES
  0
LINE
  8
49
 10
-39.6240
 20
-19.8120
 30
0.0000
 11
-41.4020
 21
-21.5900
 31
0.0000
  0
LINE
  8
49
 10
-41.4020
 20
-21.5900
 30
0.0000
 11
-41.4020
 21
-23.6220
 31
0.0000
  0
LINE
  8
49
 10
-41.4020
 20
-23.6220
 30
0.0000
 11
-41.1480
 21
-23.8760
 31
0.0000
  0
LINE
  8
49
 10
-41.1480
 20
-23.8760
 30
0.0000
 11
-37.8460
 21
-23.8760
 31
0.0000
  0
LINE
  8
49
 10
-37.8460
 20
-23.8760
 30
0.0000
 11
-39.6240
 21
-22.0980
 31
0.0000
  0
LINE
  8
49
 10
-39.6240
 20
-22.0980
 30
0.0000
 11
-39.6240
 21
-19.8120
 31
0.0000
  0
LINE
  8
49
 10
-19.0500
 20
-20.0660
 30
0.0000
 11
-24.6380
 21
-25.6540
 31
0.0000
  0
LINE
  8
49
 10
-24.6380
 20
-25.6540
 30
0.0000
 11
-24.6380
 21
-31.2420
 31
0.0000
  0
LINE
  8
49
 10
-24.6380
 20
-31.2420
 30
0.0000
 11
-28.7020
 21
-31.2420
 31
0.0000
  0
LINE
  8
49
 10
-28.7020
 20
-31.2420
 30
0.0000
 11
-29.7180
 21
-32.2580
 31
0.0000
  0
LINE
  8
49
 10
-29.7180
 20
-32.2580
 30
0.0000
 11
-29.7180
 21
-44.1960
 31
0.0000
  0
LINE
  8
49
 10
-29.7180
 20
-44.1960
 30
0.0000
 11
-27.9400
 21
-45.9740
 31
0.0000
  0
LINE
  8
49
 10
-27.9400
 20
-45.9740
 30
0.0000
 11
-27.9400
 21
-50.5460
 31
0.0000
  0
LINE
  8
49
 10
-27.9400
 20
-50.5460
 30
0.0000
 11
-26.9240
 21
-51.5620
 31
0.0000
  0
LINE
  8
49
 10
-26.9240
 20
-51.5620
 30
0.0000
 11
-19.3040
 21
-51.5620
 31
0.0000
  0
LINE
  8
49
 10
-19.3040
 20
-51.5620
 30
0.0000
 11
-17.5260
 21
-53.3400
 31
0.0000
  0
LINE
  8
49
 10
-17.5260
 20
-53.3400
 30
0.0000
 11
-11.1760
 21
-53.3400
 31
0.0000
  0
LINE
  8
49
 10
-11.1760
 20
-53.3400
 30
0.0000
 11
-10.1600
 21
-54.3560
 31
0.0000
  0
LINE
  8
49
 10
-10.1600
 20
-54.3560
 30
0.0000
 11
-6.3500
 21
-54.3560
 31
0.0000
  0
LINE
  8
49
 10
-6.3500
 20
-54.3560
 30
0.0000
 11
-5.0800
 21
-53.0860
 31
0.0000
  0
LINE
  8
49
 10
-5.0800
 20
-53.0860
 30
0.0000
 11
-2.7940
 21
-53.0860
 31
0.0000
  0
LINE
  8
49
 10
-2.7940
 20
-53.0860
 30
0.0000
 11
-0.2540
 21
-55.6260
 31
0.0000
  0
LINE
  8
49
 10
-0.2540
 20
-55.6260
 30
0.0000
 11
-0.2540
 21
-56.6420
 31
0.0000
  0
LINE
  8
49
 10
-0.2540
 20
-56.6420
 30
0.0000
 11
0.2540
 21
-57.1500
 31
0.0000
  0
LINE
  8
49
 10
0.2540
 20
-57.1500
 30
0.0000
 11
4.5720
 21
-57.1500
 31
0.0000
  0
LINE
  8
49
 10
4.5720
 20
-57.1500
 30
0.0000
 11
9.1440
 21
-52.5780
 31
0.0000
  0
LINE
  8
49
 10
9.1440
 20
-52.5780
 30
0.0000
 11
9.9060
 21
-52.5780
 31
0.0000
  0
LINE
  8
49
 10
9.9060
 20
-52.5780
 30
0.0000
 11
9.9060
 21
-50.0380
 31
0.0000
  0
LINE
  8
49
 10
9.9060
 20
-50.0380
 30
0.0000
 11
9.1440
 21
-49.2760
 31
0.0000
  0
LINE
  8
49
 10
9.1440
 20
-49.2760
 30
0.0000
 11
11.1760
 21
-47.2440
 31
0.0000
  0
LINE
  8
49
 10
11.1760
 20
-47.2440
 30
0.0000
 11
11.6840
 21
-47.2440
 31
0.0000
  0
LINE
  8
49
 10
11.6840
 20
-47.2440
 30
0.0000
 11
18.2880
 21
-53.8480
 31
0.0000
  0
LINE
  8
49
 10
18.2880
 20
-53.8480
 30
0.0000
 11
30.7340
 21
-53.8480
 31
0.0000
  0
LINE
  8
49
 10
30.7340
 20
-53.8480
 30
0.0000
 11
49.5300
 21
-35.0520
 31
0.0000
  0
LINE
  8
49
 10
49.5300
 20
-35.0520
 30
0.0000
 11
49.5300
 21
-29.2100
 31
0.0000
  0
LINE
  8
49
 10
49.5300
 20
-29.2100
 30
0.0000
 11
48.0060
 21
-29.2100
 31
0.0000
  0
LINE
  8
49
 10
48.0060
 20
-29.2100
 30
0.0000
 11
46.9900
 21
-28.1940
 31
0.0000
  0
LINE
  8
49
 10
46.9900
 20
-28.1940
 30
0.0000
 11
46.9900
 21
-27.4320
 31
0.0000
  0
LINE
  8
49
 10
46.9900
 20
-27.4320
 30
0.0000
 11
50.0380
 21
-27.4320
 31
0.0000
  0
LINE
  8
49
 10
50.0380
 20
-27.4320
 30
0.0000
 11
50.0380
 21
-16.7640
 31
0.0000
  0
LINE
  8
49
 10
50.0380
 20
-16.7640
 30
0.0000
 11
49.7840
 21
-16.5100
 31
0.0000
  0
LINE
  8
49
 10
49.7840
 20
-16.5100
 30
0.0000
 11
49.7840
 21
-14.2240
 31
0.0000
  0
LINE
  8
49
 10
49.7840
 20
-14.2240
 30
0.0000
 11
48.0060
 21
-12.4460
 31
0.0000
  0
LINE
  8
49
 10
48.0060
 20
-12.4460
 30
0.0000
 11
44.9580
 21
-12.4460
 31
0.0000
  0
LINE
  8
49
 10
44.9580
 20
-12.4460
 30
0.0000
 11
43.6880
 21
-13.7160
 31
0.0000
  0
LINE
  8
49
 10
43.6880
 20
-13.7160
 30
0.0000
 11
42.9260
 21
-13.7160
 31
0.0000
  0
LINE
  8
49
 10
42.9260
 20
-13.7160
 30
0.0000
 11
42.6720
 21
-13.9700
 31
0.0000
  0
LINE
  8
49
 10
42.6720
 20
-13.9700
 30
0.0000
 11
41.1480
 21
-13.9700
 31
0.0000
  0
LINE
  8
49
 10
41.1480
 20
-13.9700
 30
0.0000
 11
39.3700
 21
-12.1920
 31
0.0000
  0
LINE
  8
49
 10
39.3700
 20
-12.1920
 30
0.0000
 11
30.9880
 21
-12.1920
 31
0.0000
  0
LINE
  8
49
 10
30.9880
 20
-12.1920
 30
0.0000
 11
28.1940
 21
-14.9860
 31
0.0000
  0
LINE
  8
49
 10
28.1940
 20
-14.9860
 30
0.0000
 11
28.1940
 21
-18.7960
 31
0.0000
  0
LINE
  8
49
 10
28.1940
 20
-18.7960
 30
0.0000
 11
28.9560
 21
-19.5580
 31
0.0000
  0
LINE
  8
49
 10
28.9560
 20
-19.5580
 30
0.0000
 11
27.9400
 21
-20.5740
 31
0.0000
  0
LINE
  8
49
 10
27.9400
 20
-20.5740
 30
0.0000
 11
27.4320
 21
-20.5740
 31
0.0000
  0
LINE
  8
49
 10
27.4320
 20
-20.5740
 30
0.0000
 11
25.9080
 21
-19.0500
 31
0.0000
  0
LINE
  8
49
 10
25.9080
 20
-19.0500
 30
0.0000
 11
23.1140
 21
-19.0500
 31
0.0000
  0
LINE
  8
49
 10
23.1140
 20
-19.0500
 30
0.0000
 11
22.0980
 21
-18.0340
 31
0.0000
  0
LINE
  8
49
 10
22.0980
 20
-18.0340
 30
0.0000
 11
21.3360
 21
-18.0340
 31
0.0000
  0
LINE
  8
49
 10
21.3360
 20
-18.0340
 30
0.0000
 11
18.7960
 21
-20.5740
 31
0.0000
  0
LINE
  8
49
 10
18.7960
 20
-20.5740
 30
0.0000
 11
16.0020
 21
-20.5740
 31
0.0000
  0
LINE
  8
49
 10
16.0020
 20
-20.5740
 30
0.0000
 11
13.2080
 21
-23.3680
 31
0.0000
  0
LINE
  8
49
 10
13.2080
 20
-23.3680
 30
0.0000
 11
11.1760
 21
-23.3680
 31
0.0000
  0
LINE
  8
49
 10
11.1760
 20
-23.3680
 30
0.0000
 11
7.6200
 21
-26.9240
 31
0.0000
  0
LINE
  8
49
 10
7.6200
 20
-26.9240
 30
0.0000
 11
5.5880
 21
-26.9240
 31
0.0000
  0
LINE
  8
49
 10
5.5880
 20
-26.9240
 30
0.0000
 11
4.3180
 21
-28.1940
 31
0.0000
  0
LINE
  8
49
 10
4.3180
 20
-28.1940
 30
0.0000
 11
4.3180
 21
-33.7820
 31
0.0000
  0
LINE
  8
49
 10
4.3180
 20
-33.7820
 30
0.0000
 11
3.0480
 21
-35.0520
 31
0.0000
  0
LINE
  8
49
 10
3.0480
 20
-35.0520
 30
0.0000
 11
0.5080
 21
-35.0520
 31
0.0000
  0
LINE
  8
49
 10
0.5080
 20
-35.0520
 30
0.0000
 11
-0.5080
 21
-34.0360
 31
0.0000
  0
LINE
  8
49
 10
-0.5080
 20
-34.0360
 30
0.0000
 11
-3.5560
 21
-34.0360
 31
0.0000
  0
LINE
  8
49
 10
-3.5560
 20
-34.0360
 30
0.0000
 11
-4.3180
 21
-33.2740
 31
0.0000
  0
LINE
  8
49
 10
-4.3180
 20
-33.2740
 30
0.0000
 11
-4.3180
 21
-29.2100
 31
0.0000
  0
LINE
  8
49
 10
-4.3180
 20
-29.2100
 30
0.0000
 11
-5.0800
 21
-28.4480
 31
0.0000
  0
LINE
  8
49
 10
-5.0800
 20
-28.4480
 30
0.0000
 11
-7.1120
 21
-28.4480
 31
0.0000
  0
LINE
  8
49
 10
-7.1120
 20
-28.4480
 30
0.0000
 11
-7.3660
 21
-28.1940
 31
0.0000
  0
LINE
  8
49
 10
-7.3660
 20
-28.1940
 30
0.0000
 11
-7.3660
 21
-23.1140
 31
0.0000
  0
LINE
  8
49
 10
-7.3660
 20
-23.1140
 30
0.0000
 11
-10.4140
 21
-20.0660
 31
0.0000
  0
LINE
  8
49
 10
-10.4140
 20
-20.0660
 30
0.0000
 11
-19.0500
 21
-20.0660
 31
0.0000
  0
ENDSEC
  0
EOF
