  0
SECTION
  2
HEADER
  9
$ACADVER
  1
AC1009
  9
$FILLMODE
 70
0
  9
$EXTMIN
 10
-63.5125
 20
-57.2262
 30
0.0000
  9
$EXTMAX
 10
63.5127
 20
55.8925
 30
0.0000
  0
ENDSEC
  0
SECTION
  2
TABLES
  0
TABLE
  2
LTYPE
 70
1
  0
LTYPE
  2
CONTINUOUS
 70
64
  3
Solid line
 72
65
 73
0
 40
0
  0
ENDTAB
  0
TABLE
  2
LAYER
 70
255
  0
LAYER
  2
20
 70
64
 62
31
  6
CONTINUOUS
  0
ENDTAB
  0
ENDSEC
  0
SECTION
  2
BLOCKS
  0
BLOCK
  8
0
  2
RECT
 70
64
 10
0.0000
 20
0.0000
 30
0.0000
  3
RECT
  0
SOLID
  8
0
 10
-0.5000
 20
-0.5000
 30
0.0000
 11
0.5000
 21
-0.5000
 31
0.0000
 12
-0.5000
 22
0.5000
 32
0.0000
 13
0.5000
 23
0.5000
 33
0.0000
  0
ENDBLK
  8
0
  0
BLOCK
  8
0
  2
PIE
 70
64
 10
0.0000
 20
0.0000
 30
0.0000
  3
PIE
  0
CIRCLE
  8
0
 10
0.0000
 20
0.0000
 30
0.0000
 40
0.5000
  0
ENDBLK
  8
0
  0
BLOCK
  8
0
  2
OCTAGONP
 70
64
 10
0.0000
 20
0.0000
 30
0.0000
  3
OCTAGONP
  0
POLYLINE
  8
0
 66
1
 10
0.0000
 20
0.0000
 30
0.0000
 40
0.0000
 41
0.0000
 70
1
  0
VERTEX
  8
0
 10
-0.5000
 20
-0.2071
 30
0.0000
  0
VERTEX
  8
0
 10
-0.5000
 20
0.2071
 30
0.0000
  0
VERTEX
  8
0
 10
-0.2071
 20
0.5000
 30
0.0000
  0
VERTEX
  8
0
 10
0.2071
 20
0.5000
 30
0.0000
  0
VERTEX
  8
0
 10
0.5000
 20
0.2071
 30
0.0000
  0
VERTEX
  8
0
 10
0.5000
 20
-0.2071
 30
0.0000
  0
VERTEX
  8
0
 10
0.2071
 20
-0.5000
 30
0.0000
  0
VERTEX
  8
0
 10
-0.2071
 20
-0.5000
 30
0.0000
  0
SEQEND
  8
0
  0
ENDBLK
  8
0
  0
BLOCK
  8
0
  2
SQUAREP
 70
64
 10
0.0000
 20
0.0000
 30
0.0000
  3
SQUAREP
  0
SOLID
  8
0
 10
-0.5000
 20
-0.5000
 30
0.0000
 11
0.5000
 21
-0.5000
 31
0.0000
 12
-0.5000
 22
0.5000
 32
0.0000
 13
0.5000
 23
0.5000
 33
0.0000
  0
ENDBLK
  8
0
  0
BLOCK
  8
0
  2
ROUNDP
 70
64
 10
0.0000
 20
0.0000
 30
0.0000
  3
ROUNDP
  0
CIRCLE
  8
0
 10
0.0000
 20
0.0000
 30
0.0000
 40
0.5000
  0
ENDBLK
  8
0
  0
BLOCK
  8
0
  2
ANNULUSP
 70
64
 10
0.0000
 20
0.0000
 30
0.0000
  3
ANNULUSP
  0
CIRCLE
  8
0
 10
0.0000
 20
0.0000
 30
0.0000
 40
0.5000
  0
ENDBLK
  8
0
  0
BLOCK
  8
0
  2
THERMALP
 70
64
 10
0.0000
 20
0.0000
 30
0.0000
  3
THERMALP
  0
LINE
  8
0
 10
-0.2379
 20
0.4500
 30
0.0000
 11
0.2379
 21
0.4500
 31
0.0000
  0
LINE
  8
0
 10
0.4500
 20
0.2379
 30
0.0000
 11
0.4500
 21
-0.2379
 31
0.0000
  0
LINE
  8
0
 10
0.2379
 20
-0.4500
 30
0.0000
 11
-0.2379
 21
-0.4500
 31
0.0000
  0
LINE
  8
0
 10
-0.4500
 20
-0.2379
 30
0.0000
 11
-0.4500
 21
0.2379
 31
0.0000
  0
ENDBLK
  8
0
  0
BLOCK
  8
0
  2
OCTAGONV
 70
64
 10
0.0000
 20
0.0000
 30
0.0000
  3
OCTAGONV
  0
POLYLINE
  8
0
 66
1
 10
0.0000
 20
0.0000
 30
0.0000
 40
0.0000
 41
0.0000
 70
1
  0
VERTEX
  8
0
 10
-0.5000
 20
-0.2071
 30
0.0000
  0
VERTEX
  8
0
 10
-0.5000
 20
0.2071
 30
0.0000
  0
VERTEX
  8
0
 10
-0.2071
 20
0.5000
 30
0.0000
  0
VERTEX
  8
0
 10
0.2071
 20
0.5000
 30
0.0000
  0
VERTEX
  8
0
 10
0.5000
 20
0.2071
 30
0.0000
  0
VERTEX
  8
0
 10
0.5000
 20
-0.2071
 30
0.0000
  0
VERTEX
  8
0
 10
0.2071
 20
-0.5000
 30
0.0000
  0
VERTEX
  8
0
 10
-0.2071
 20
-0.5000
 30
0.0000
  0
SEQEND
  8
0
  0
ENDBLK
  8
0
  0
BLOCK
  8
0
  2
SQUAREV
 70
64
 10
0.0000
 20
0.0000
 30
0.0000
  3
SQUAREV
  0
SOLID
  8
0
 10
-0.5000
 20
-0.5000
 30
0.0000
 11
0.5000
 21
-0.5000
 31
0.0000
 12
-0.5000
 22
0.5000
 32
0.0000
 13
0.5000
 23
0.5000
 33
0.0000
  0
ENDBLK
  8
0
  0
BLOCK
  8
0
  2
ROUNDV
 70
64
 10
0.0000
 20
0.0000
 30
0.0000
  3
ROUNDV
  0
CIRCLE
  8
0
 10
0.0000
 20
0.0000
 30
0.0000
 40
0.5000
  0
ENDBLK
  8
0
  0
BLOCK
  8
0
  2
ANNULUSV
 70
64
 10
0.0000
 20
0.0000
 30
0.0000
  3
ANNULUSV
  0
CIRCLE
  8
0
 10
0.0000
 20
0.0000
 30
0.0000
 40
0.5000
  0
ENDBLK
  8
0
  0
BLOCK
  8
0
  2
THERMALV
 70
64
 10
0.0000
 20
0.0000
 30
0.0000
  3
THERMALV
  0
LINE
  8
0
 10
-0.2379
 20
0.4500
 30
0.0000
 11
0.2379
 21
0.4500
 31
0.0000
  0
LINE
  8
0
 10
0.4500
 20
0.2379
 30
0.0000
 11
0.4500
 21
-0.2379
 31
0.0000
  0
LINE
  8
0
 10
0.2379
 20
-0.4500
 30
0.0000
 11
-0.2379
 21
-0.4500
 31
0.0000
  0
LINE
  8
0
 10
-0.4500
 20
-0.2379
 30
0.0000
 11
-0.4500
 21
0.2379
 31
0.0000
  0
ENDBLK
  8
0
  0
BLOCK
  8
0
  2
LONGP100
 70
64
 10
0.0000
 20
0.0000
 30
0.0000
  3
LONGP100
  0
POLYLINE
  8
0
 66
1
 10
0.0000
 20
0.0000
 30
0.0000
 40
0.0000
 41
0.0000
 70
1
  0
VERTEX
  8
0
 10
-0.5000
 20
-0.5000
 30
0.0000
  0
VERTEX
  8
0
 10
0.5000
 20
-0.5000
 30
0.0000
 42
1.0000
  0
VERTEX
  8
0
 10
0.5000
 20
0.5000
 30
0.0000
  0
VERTEX
  8
0
 10
-0.5000
 20
0.5000
 30
0.0000
 42
1.0000
  0
SEQEND
  8
0
  0
ENDBLK
  8
0
  0
ENDSEC
  0
SECTION
  2
ENTITIES
  0
ARC
  8
20
 10
0.5161
 20
-0.9357
 30
0.0000
 40
54.8291
 50
280.4003
 51
318.4003
  0
LINE
  8
20
 10
42.6720
 20
-37.3380
 30
0.0000
 11
41.5173
 21
-37.3380
 31
0.0000
  0
LINE
  8
20
 10
48.0060
 20
-24.8920
 30
0.0000
 11
48.0060
 21
-33.5280
 31
0.0000
  0
LINE
  8
20
 10
-28.4480
 20
-44.1960
 30
0.0000
 11
-28.4480
 21
-30.2260
 31
0.0000
  0
ARC
  8
20
 10
24.7057
 20
-14.0398
 30
0.0000
 40
5.8156
 50
213.1643
 51
353.1643
  0
ARC
  8
20
 10
0.0000
 20
-28.7020
 30
0.0000
 40
5.5880
 50
180.0000
 51
0.0000
  0
LINE
  8
20
 10
5.5880
 20
-28.7020
 30
0.0000
 11
5.5880
 21
-25.4000
 31
0.0000
  0
LINE
  8
20
 10
-5.5880
 20
-28.7020
 30
0.0000
 11
-5.5880
 21
-25.4000
 31
0.0000
  0
LINE
  8
20
 10
-12.4460
 20
-21.3360
 30
0.0000
 11
-5.5880
 21
-25.4000
 31
0.0000
  0
LINE
  8
20
 10
-33.5280
 20
-25.1460
 30
0.0000
 11
-28.4480
 21
-30.2260
 31
0.0000
  0
LINE
  8
20
 10
-26.6700
 20
-21.3360
 30
0.0000
 11
-12.4460
 21
-21.3360
 31
0.0000
  0
LINE
  8
20
 10
-15.4940
 20
-53.8480
 30
0.0000
 11
-19.5580
 21
-52.8320
 31
0.0000
  0
LINE
  8
20
 10
-19.5580
 20
-52.8320
 30
0.0000
 11
-28.4480
 21
-52.8320
 31
0.0000
  0
LINE
  8
20
 10
-27.4320
 20
-48.0060
 30
0.0000
 11
-27.4320
 21
-44.1960
 31
0.0000
  0
LINE
  8
20
 10
-27.4320
 20
-44.1960
 30
0.0000
 11
-28.4480
 21
-44.1960
 31
0.0000
  0
LINE
  8
20
 10
-1.0160
 20
-56.1340
 30
0.0000
 11
9.1440
 21
-56.1340
 31
0.0000
  0
LINE
  8
20
 10
9.1440
 20
-56.1340
 30
0.0000
 11
10.4140
 21
-54.8640
 31
0.0000
  0
LINE
  8
20
 10
-1.0160
 20
-56.1340
 30
0.0000
 11
-1.2700
 21
-55.8800
 31
0.0000
  0
ARC
  8
20
 10
2.1696
 20
18.9969
 30
0.0000
 40
74.9559
 50
256.3699
 51
267.3699
  0
LINE
  8
20
 10
30.4800
 20
-14.7320
 30
0.0000
 11
30.4800
 21
-13.4620
 31
0.0000
  0
LINE
  8
20
 10
30.4800
 20
-13.4620
 30
0.0000
 11
48.2600
 21
-13.4620
 31
0.0000
  0
LINE
  8
20
 10
46.4820
 20
-33.5280
 30
0.0000
 11
48.0060
 21
-33.5280
 31
0.0000
  0
ARC
  8
20
 10
50.2920
 20
-21.3360
 30
0.0000
 40
3.5560
 50
270.0000
 51
90.0000
  0
ARC
  8
20
 10
-30.8610
 20
-22.4790
 30
0.0000
 40
3.7717
 50
45.0000
 51
225.0000
  0
LINE
  8
20
 10
-28.1940
 20
-19.8120
 30
0.0000
 11
-26.6700
 21
-21.3360
 31
0.0000
  0
LINE
  8
20
 10
-34.7980
 20
-50.5460
 30
0.0000
 11
-34.7980
 21
-56.1340
 31
0.0000
  0
LINE
  8
20
 10
-34.7980
 20
-56.1340
 30
0.0000
 11
-30.9880
 21
-56.1340
 31
0.0000
  0
LINE
  8
20
 10
42.6720
 20
-56.1340
 30
0.0000
 11
53.8480
 21
-56.1340
 31
0.0000
  0
LINE
  8
20
 10
53.8480
 20
-56.1340
 30
0.0000
 11
53.8480
 21
-45.4660
 31
0.0000
  0
LINE
  8
20
 10
4.8260
 20
-13.4620
 30
0.0000
 11
-2.0320
 21
-13.4620
 31
0.0000
  0
LINE
  8
20
 10
-34.7980
 20
-50.5460
 30
0.0000
 11
-32.2580
 21
-48.0060
 31
0.0000
  0
LINE
  8
20
 10
-32.2580
 20
-48.0060
 30
0.0000
 11
-27.4320
 21
-48.0060
 31
0.0000
  0
LINE
  8
20
 10
-28.4480
 20
-52.8320
 30
0.0000
 11
-28.4480
 21
-53.8480
 31
0.0000
  0
LINE
  8
20
 10
-28.4480
 20
-53.8480
 30
0.0000
 11
-30.9880
 21
-56.1340
 31
0.0000
  0
LINE
  8
20
 10
42.6720
 20
-37.3380
 30
0.0000
 11
42.6720
 21
-56.1340
 31
0.0000
  0
LINE
  8
20
 10
53.8480
 20
-45.4660
 30
0.0000
 11
46.4820
 21
-38.3540
 31
0.0000
  0
LINE
  8
20
 10
46.4820
 20
-38.3540
 30
0.0000
 11
46.4820
 21
-33.5280
 31
0.0000
  0
LINE
  8
20
 10
-2.0320
 20
-13.4620
 30
0.0000
 11
-2.0320
 21
-17.7800
 31
0.0000
  0
LINE
  8
20
 10
-2.0320
 20
-17.7800
 30
0.0000
 11
5.5880
 21
-25.4000
 31
0.0000
  0
LINE
  8
20
 10
4.8260
 20
-13.4620
 30
0.0000
 11
4.8260
 21
-14.2240
 31
0.0000
  0
LINE
  8
20
 10
4.8260
 20
-14.2240
 30
0.0000
 11
12.1920
 21
-21.5900
 31
0.0000
  0
LINE
  8
20
 10
12.1920
 20
-21.5900
 30
0.0000
 11
19.8374
 21
-17.2212
 31
0.0000
  0
LINE
  8
20
 10
6.1722
 20
-24.3586
 30
0.0000
 11
10.8204
 21
-21.7170
 31
0.0000
  0
LINE
  8
20
 10
-28.1940
 20
-49.0220
 30
0.0000
 11
-28.1940
 21
-51.8160
 31
0.0000
  0
LINE
  8
20
 10
43.6880
 20
-37.5920
 30
0.0000
 11
45.4660
 21
-35.8140
 31
0.0000
  0
LINE
  8
20
 10
48.2600
 20
-17.7800
 30
0.0000
 11
48.2600
 21
-13.4620
 31
0.0000
  0
LINE
  8
20
 10
50.2920
 20
-17.7800
 30
0.0000
 11
48.2600
 21
-17.7800
 31
0.0000
  0
LINE
  8
20
 10
50.2920
 20
-24.8920
 30
0.0000
 11
48.0060
 21
-24.8920
 31
0.0000
  0
LINE
  8
20
 10
43.8508
 20
-19.2110
 30
0.0000
 11
42.8508
 21
-19.2110
 31
0.0000
  0
CIRCLE
  8
20
 10
32.9508
 20
-19.2110
 30
0.0000
 40
0.4500
  0
LINE
  8
20
 10
0.4656
 20
-50.3850
 30
0.0000
 11
1.4656
 21
-50.3850
 31
0.0000
  0
CIRCLE
  8
20
 10
7.3656
 20
-50.3850
 30
0.0000
 40
0.4500
  0
LINE
  8
20
 10
4.4928
 20
-34.5220
 30
0.0000
 11
4.9928
 21
-35.3880
 31
0.0000
  0
CIRCLE
  8
20
 10
8.9428
 20
-42.2296
 30
0.0000
 40
0.4500
  0
LINE
  8
20
 10
2.6498
 20
-38.3899
 30
0.0000
 11
3.1498
 21
-39.2559
 31
0.0000
  0
CIRCLE
  8
20
 10
7.0998
 20
-46.0975
 30
0.0000
 40
0.4500
  0
ENDSEC
  0
EOF
