  0
SECTION
  2
HEADER
  9
$ACADVER
  1
AC1009
  9
$FILLMODE
 70
1
  9
$EXTMIN
 10
-63.5163
 20
-60.4520
 30
0.0000
  9
$EXTMAX
 10
81.0260
 20
55.8925
 30
0.0000
  0
ENDSEC
  0
SECTION
  2
TABLES
  0
TABLE
  2
LTYPE
 70
1
  0
LTYPE
  2
CONTINUOUS
 70
64
  3
Solid line
 72
65
 73
0
 40
0
  0
ENDTAB
  0
TABLE
  2
LAYER
 70
255
  0
LAYER
  2
20
 70
64
 62
31
  6
CONTINUOUS
  0
ENDTAB
  0
ENDSEC
  0
SECTION
  2
BLOCKS
  0
BLOCK
  8
0
  2
RECT
 70
64
 10
0.0000
 20
0.0000
 30
0.0000
  3
RECT
  0
SOLID
  8
0
 10
-0.5000
 20
-0.5000
 30
0.0000
 11
0.5000
 21
-0.5000
 31
0.0000
 12
-0.5000
 22
0.5000
 32
0.0000
 13
0.5000
 23
0.5000
 33
0.0000
  0
ENDBLK
  8
0
  0
BLOCK
  8
0
  2
PIE
 70
64
 10
0.0000
 20
0.0000
 30
0.0000
  3
PIE
  0
POLYLINE
  8
0
 66
1
 10
0.0000
 20
0.0000
 30
0.0000
 40
0.5000
 41
0.5000
 70
0
  0
VERTEX
  8
0
 10
0.0000
 20
-0.2500
 30
0.0000
 42
1.0000
  0
VERTEX
  8
0
 10
0.0000
 20
0.2500
 30
0.0000
 42
1.0000
  0
VERTEX
  8
0
 10
0.0000
 20
-0.2500
 30
0.0000
  0
SEQEND
  8
0
  0
ENDBLK
  8
0
  0
BLOCK
  8
0
  2
OCTAGONP
 70
64
 10
0.0000
 20
0.0000
 30
0.0000
  3
OCTAGONP
  0
POLYLINE
  8
0
 66
1
 10
0.0000
 20
0.0000
 30
0.0000
 40
0.5000
 41
0.5000
 70
0
  0
VERTEX
  8
0
 10
-0.2500
 20
-0.1036
 30
0.0000
  0
VERTEX
  8
0
 10
-0.2500
 20
0.1036
 30
0.0000
  0
VERTEX
  8
0
 10
-0.1036
 20
0.2500
 30
0.0000
  0
VERTEX
  8
0
 10
0.1036
 20
0.2500
 30
0.0000
  0
VERTEX
  8
0
 10
0.2500
 20
0.1036
 30
0.0000
  0
VERTEX
  8
0
 10
0.2500
 20
-0.1036
 30
0.0000
  0
VERTEX
  8
0
 10
0.1036
 20
-0.2500
 30
0.0000
  0
VERTEX
  8
0
 10
-0.1036
 20
-0.2500
 30
0.0000
  0
VERTEX
  8
0
 10
-0.2500
 20
-0.1036
 30
0.0000
  0
VERTEX
  8
0
 10
-0.2500
 20
0.1036
 30
0.0000
  0
SEQEND
  8
0
  0
ENDBLK
  8
0
  0
BLOCK
  8
0
  2
SQUAREP
 70
64
 10
0.0000
 20
0.0000
 30
0.0000
  3
SQUAREP
  0
SOLID
  8
0
 10
-0.5000
 20
-0.5000
 30
0.0000
 11
0.5000
 21
-0.5000
 31
0.0000
 12
-0.5000
 22
0.5000
 32
0.0000
 13
0.5000
 23
0.5000
 33
0.0000
  0
ENDBLK
  8
0
  0
BLOCK
  8
0
  2
ROUNDP
 70
64
 10
0.0000
 20
0.0000
 30
0.0000
  3
ROUNDP
  0
POLYLINE
  8
0
 66
1
 10
0.0000
 20
0.0000
 30
0.0000
 40
0.5000
 41
0.5000
 70
0
  0
VERTEX
  8
0
 10
0.0000
 20
-0.2500
 30
0.0000
 42
1.0000
  0
VERTEX
  8
0
 10
0.0000
 20
0.2500
 30
0.0000
 42
1.0000
  0
VERTEX
  8
0
 10
0.0000
 20
-0.2500
 30
0.0000
  0
SEQEND
  8
0
  0
ENDBLK
  8
0
  0
BLOCK
  8
0
  2
ANNULUSP
 70
64
 10
0.0000
 20
0.0000
 30
0.0000
  3
ANNULUSP
  0
POLYLINE
  8
0
 66
1
 10
0.0000
 20
0.0000
 30
0.0000
 40
0.5000
 41
0.5000
 70
0
  0
VERTEX
  8
0
 10
0.0000
 20
-0.2500
 30
0.0000
 42
1.0000
  0
VERTEX
  8
0
 10
0.0000
 20
0.2500
 30
0.0000
 42
1.0000
  0
VERTEX
  8
0
 10
0.0000
 20
-0.2500
 30
0.0000
  0
SEQEND
  8
0
  0
ENDBLK
  8
0
  0
BLOCK
  8
0
  2
THERMALP
 70
64
 10
0.0000
 20
0.0000
 30
0.0000
  3
THERMALP
  0
POLYLINE
  8
0
 66
1
 10
0.0000
 20
0.0000
 30
0.0000
 40
0.1000
 41
0.1000
 70
0
  0
VERTEX
  8
0
 10
-0.2379
 20
0.4500
 30
0.0000
  0
VERTEX
  8
0
 10
0.2379
 20
0.4500
 30
0.0000
  0
SEQEND
  8
0
  0
POLYLINE
  8
0
 66
1
 10
0.0000
 20
0.0000
 30
0.0000
 40
0.0500
 41
0.0500
 70
0
  0
VERTEX
  8
0
 10
0.2379
 20
0.4250
 30
0.0000
 42
1.0000
  0
VERTEX
  8
0
 10
0.2379
 20
0.4750
 30
0.0000
  0
SEQEND
  8
0
  0
POLYLINE
  8
0
 66
1
 10
0.0000
 20
0.0000
 30
0.0000
 40
0.0500
 41
0.0500
 70
0
  0
VERTEX
  8
0
 10
-0.2379
 20
0.4750
 30
0.0000
 42
1.0000
  0
VERTEX
  8
0
 10
-0.2379
 20
0.4250
 30
0.0000
  0
SEQEND
  8
0
  0
POLYLINE
  8
0
 66
1
 10
0.0000
 20
0.0000
 30
0.0000
 40
0.1000
 41
0.1000
 70
0
  0
VERTEX
  8
0
 10
0.4500
 20
0.2379
 30
0.0000
  0
VERTEX
  8
0
 10
0.4500
 20
-0.2379
 30
0.0000
  0
SEQEND
  8
0
  0
POLYLINE
  8
0
 66
1
 10
0.0000
 20
0.0000
 30
0.0000
 40
0.0500
 41
0.0500
 70
0
  0
VERTEX
  8
0
 10
0.4250
 20
-0.2379
 30
0.0000
 42
1.0000
  0
VERTEX
  8
0
 10
0.4750
 20
-0.2379
 30
0.0000
  0
SEQEND
  8
0
  0
POLYLINE
  8
0
 66
1
 10
0.0000
 20
0.0000
 30
0.0000
 40
0.0500
 41
0.0500
 70
0
  0
VERTEX
  8
0
 10
0.4750
 20
0.2379
 30
0.0000
 42
1.0000
  0
VERTEX
  8
0
 10
0.4250
 20
0.2379
 30
0.0000
  0
SEQEND
  8
0
  0
POLYLINE
  8
0
 66
1
 10
0.0000
 20
0.0000
 30
0.0000
 40
0.1000
 41
0.1000
 70
0
  0
VERTEX
  8
0
 10
0.2379
 20
-0.4500
 30
0.0000
  0
VERTEX
  8
0
 10
-0.2379
 20
-0.4500
 30
0.0000
  0
SEQEND
  8
0
  0
POLYLINE
  8
0
 66
1
 10
0.0000
 20
0.0000
 30
0.0000
 40
0.0500
 41
0.0500
 70
0
  0
VERTEX
  8
0
 10
-0.2379
 20
-0.4250
 30
0.0000
 42
1.0000
  0
VERTEX
  8
0
 10
-0.2379
 20
-0.4750
 30
0.0000
  0
SEQEND
  8
0
  0
POLYLINE
  8
0
 66
1
 10
0.0000
 20
0.0000
 30
0.0000
 40
0.0500
 41
0.0500
 70
0
  0
VERTEX
  8
0
 10
0.2379
 20
-0.4750
 30
0.0000
 42
1.0000
  0
VERTEX
  8
0
 10
0.2379
 20
-0.4250
 30
0.0000
  0
SEQEND
  8
0
  0
POLYLINE
  8
0
 66
1
 10
0.0000
 20
0.0000
 30
0.0000
 40
0.1000
 41
0.1000
 70
0
  0
VERTEX
  8
0
 10
-0.4500
 20
-0.2379
 30
0.0000
  0
VERTEX
  8
0
 10
-0.4500
 20
0.2379
 30
0.0000
  0
SEQEND
  8
0
  0
POLYLINE
  8
0
 66
1
 10
0.0000
 20
0.0000
 30
0.0000
 40
0.0500
 41
0.0500
 70
0
  0
VERTEX
  8
0
 10
-0.4250
 20
0.2379
 30
0.0000
 42
1.0000
  0
VERTEX
  8
0
 10
-0.4750
 20
0.2379
 30
0.0000
  0
SEQEND
  8
0
  0
POLYLINE
  8
0
 66
1
 10
0.0000
 20
0.0000
 30
0.0000
 40
0.0500
 41
0.0500
 70
0
  0
VERTEX
  8
0
 10
-0.4750
 20
-0.2379
 30
0.0000
 42
1.0000
  0
VERTEX
  8
0
 10
-0.4250
 20
-0.2379
 30
0.0000
  0
SEQEND
  8
0
  0
ENDBLK
  8
0
  0
BLOCK
  8
0
  2
OCTAGONV
 70
64
 10
0.0000
 20
0.0000
 30
0.0000
  3
OCTAGONV
  0
POLYLINE
  8
0
 66
1
 10
0.0000
 20
0.0000
 30
0.0000
 40
0.5000
 41
0.5000
 70
0
  0
VERTEX
  8
0
 10
-0.2500
 20
-0.1036
 30
0.0000
  0
VERTEX
  8
0
 10
-0.2500
 20
0.1036
 30
0.0000
  0
VERTEX
  8
0
 10
-0.1036
 20
0.2500
 30
0.0000
  0
VERTEX
  8
0
 10
0.1036
 20
0.2500
 30
0.0000
  0
VERTEX
  8
0
 10
0.2500
 20
0.1036
 30
0.0000
  0
VERTEX
  8
0
 10
0.2500
 20
-0.1036
 30
0.0000
  0
VERTEX
  8
0
 10
0.1036
 20
-0.2500
 30
0.0000
  0
VERTEX
  8
0
 10
-0.1036
 20
-0.2500
 30
0.0000
  0
VERTEX
  8
0
 10
-0.2500
 20
-0.1036
 30
0.0000
  0
VERTEX
  8
0
 10
-0.2500
 20
0.1036
 30
0.0000
  0
SEQEND
  8
0
  0
ENDBLK
  8
0
  0
BLOCK
  8
0
  2
SQUAREV
 70
64
 10
0.0000
 20
0.0000
 30
0.0000
  3
SQUAREV
  0
SOLID
  8
0
 10
-0.5000
 20
-0.5000
 30
0.0000
 11
0.5000
 21
-0.5000
 31
0.0000
 12
-0.5000
 22
0.5000
 32
0.0000
 13
0.5000
 23
0.5000
 33
0.0000
  0
ENDBLK
  8
0
  0
BLOCK
  8
0
  2
ROUNDV
 70
64
 10
0.0000
 20
0.0000
 30
0.0000
  3
ROUNDV
  0
POLYLINE
  8
0
 66
1
 10
0.0000
 20
0.0000
 30
0.0000
 40
0.5000
 41
0.5000
 70
0
  0
VERTEX
  8
0
 10
0.0000
 20
-0.2500
 30
0.0000
 42
1.0000
  0
VERTEX
  8
0
 10
0.0000
 20
0.2500
 30
0.0000
 42
1.0000
  0
VERTEX
  8
0
 10
0.0000
 20
-0.2500
 30
0.0000
  0
SEQEND
  8
0
  0
ENDBLK
  8
0
  0
BLOCK
  8
0
  2
ANNULUSV
 70
64
 10
0.0000
 20
0.0000
 30
0.0000
  3
ANNULUSV
  0
POLYLINE
  8
0
 66
1
 10
0.0000
 20
0.0000
 30
0.0000
 40
0.5000
 41
0.5000
 70
0
  0
VERTEX
  8
0
 10
0.0000
 20
-0.2500
 30
0.0000
 42
1.0000
  0
VERTEX
  8
0
 10
0.0000
 20
0.2500
 30
0.0000
 42
1.0000
  0
VERTEX
  8
0
 10
0.0000
 20
-0.2500
 30
0.0000
  0
SEQEND
  8
0
  0
ENDBLK
  8
0
  0
BLOCK
  8
0
  2
THERMALV
 70
64
 10
0.0000
 20
0.0000
 30
0.0000
  3
THERMALV
  0
POLYLINE
  8
0
 66
1
 10
0.0000
 20
0.0000
 30
0.0000
 40
0.1000
 41
0.1000
 70
0
  0
VERTEX
  8
0
 10
-0.2379
 20
0.4500
 30
0.0000
  0
VERTEX
  8
0
 10
0.2379
 20
0.4500
 30
0.0000
  0
SEQEND
  8
0
  0
POLYLINE
  8
0
 66
1
 10
0.0000
 20
0.0000
 30
0.0000
 40
0.0500
 41
0.0500
 70
0
  0
VERTEX
  8
0
 10
0.2379
 20
0.4250
 30
0.0000
 42
1.0000
  0
VERTEX
  8
0
 10
0.2379
 20
0.4750
 30
0.0000
  0
SEQEND
  8
0
  0
POLYLINE
  8
0
 66
1
 10
0.0000
 20
0.0000
 30
0.0000
 40
0.0500
 41
0.0500
 70
0
  0
VERTEX
  8
0
 10
-0.2379
 20
0.4750
 30
0.0000
 42
1.0000
  0
VERTEX
  8
0
 10
-0.2379
 20
0.4250
 30
0.0000
  0
SEQEND
  8
0
  0
POLYLINE
  8
0
 66
1
 10
0.0000
 20
0.0000
 30
0.0000
 40
0.1000
 41
0.1000
 70
0
  0
VERTEX
  8
0
 10
0.4500
 20
0.2379
 30
0.0000
  0
VERTEX
  8
0
 10
0.4500
 20
-0.2379
 30
0.0000
  0
SEQEND
  8
0
  0
POLYLINE
  8
0
 66
1
 10
0.0000
 20
0.0000
 30
0.0000
 40
0.0500
 41
0.0500
 70
0
  0
VERTEX
  8
0
 10
0.4250
 20
-0.2379
 30
0.0000
 42
1.0000
  0
VERTEX
  8
0
 10
0.4750
 20
-0.2379
 30
0.0000
  0
SEQEND
  8
0
  0
POLYLINE
  8
0
 66
1
 10
0.0000
 20
0.0000
 30
0.0000
 40
0.0500
 41
0.0500
 70
0
  0
VERTEX
  8
0
 10
0.4750
 20
0.2379
 30
0.0000
 42
1.0000
  0
VERTEX
  8
0
 10
0.4250
 20
0.2379
 30
0.0000
  0
SEQEND
  8
0
  0
POLYLINE
  8
0
 66
1
 10
0.0000
 20
0.0000
 30
0.0000
 40
0.1000
 41
0.1000
 70
0
  0
VERTEX
  8
0
 10
0.2379
 20
-0.4500
 30
0.0000
  0
VERTEX
  8
0
 10
-0.2379
 20
-0.4500
 30
0.0000
  0
SEQEND
  8
0
  0
POLYLINE
  8
0
 66
1
 10
0.0000
 20
0.0000
 30
0.0000
 40
0.0500
 41
0.0500
 70
0
  0
VERTEX
  8
0
 10
-0.2379
 20
-0.4250
 30
0.0000
 42
1.0000
  0
VERTEX
  8
0
 10
-0.2379
 20
-0.4750
 30
0.0000
  0
SEQEND
  8
0
  0
POLYLINE
  8
0
 66
1
 10
0.0000
 20
0.0000
 30
0.0000
 40
0.0500
 41
0.0500
 70
0
  0
VERTEX
  8
0
 10
0.2379
 20
-0.4750
 30
0.0000
 42
1.0000
  0
VERTEX
  8
0
 10
0.2379
 20
-0.4250
 30
0.0000
  0
SEQEND
  8
0
  0
POLYLINE
  8
0
 66
1
 10
0.0000
 20
0.0000
 30
0.0000
 40
0.1000
 41
0.1000
 70
0
  0
VERTEX
  8
0
 10
-0.4500
 20
-0.2379
 30
0.0000
  0
VERTEX
  8
0
 10
-0.4500
 20
0.2379
 30
0.0000
  0
SEQEND
  8
0
  0
POLYLINE
  8
0
 66
1
 10
0.0000
 20
0.0000
 30
0.0000
 40
0.0500
 41
0.0500
 70
0
  0
VERTEX
  8
0
 10
-0.4250
 20
0.2379
 30
0.0000
 42
1.0000
  0
VERTEX
  8
0
 10
-0.4750
 20
0.2379
 30
0.0000
  0
SEQEND
  8
0
  0
POLYLINE
  8
0
 66
1
 10
0.0000
 20
0.0000
 30
0.0000
 40
0.0500
 41
0.0500
 70
0
  0
VERTEX
  8
0
 10
-0.4750
 20
-0.2379
 30
0.0000
 42
1.0000
  0
VERTEX
  8
0
 10
-0.4250
 20
-0.2379
 30
0.0000
  0
SEQEND
  8
0
  0
ENDBLK
  8
0
  0
BLOCK
  8
0
  2
LONGP100
 70
64
 10
0.0000
 20
0.0000
 30
0.0000
  3
LONGP100
  0
POLYLINE
  8
0
 66
1
 10
0.0000
 20
0.0000
 30
0.0000
 40
1.0000
 41
1.0000
 70
0
  0
VERTEX
  8
0
 10
-0.5000
 20
0.0000
 30
0.0000
  0
VERTEX
  8
0
 10
0.5000
 20
0.0000
 30
0.0000
  0
SEQEND
  8
0
  0
POLYLINE
  8
0
 66
1
 10
0.0000
 20
0.0000
 30
0.0000
 40
0.5000
 41
0.5000
 70
0
  0
VERTEX
  8
0
 10
0.5000
 20
-0.2500
 30
0.0000
 42
1.0000
  0
VERTEX
  8
0
 10
0.5000
 20
0.2500
 30
0.0000
  0
SEQEND
  8
0
  0
POLYLINE
  8
0
 66
1
 10
0.0000
 20
0.0000
 30
0.0000
 40
0.5000
 41
0.5000
 70
0
  0
VERTEX
  8
0
 10
-0.5000
 20
0.2500
 30
0.0000
 42
1.0000
  0
VERTEX
  8
0
 10
-0.5000
 20
-0.2500
 30
0.0000
  0
SEQEND
  8
0
  0
ENDBLK
  8
0
  0
ENDSEC
  0
SECTION
  2
ENTITIES
  0
POLYLINE
  8
20
 66
1
 10
0.0000
 20
0.0000
 30
0.0000
 40
0.0250
 41
0.0250
 70
0
  0
VERTEX
  8
20
 10
10.4140
 20
-54.8640
 30
0.0000
 42
0.1673
  0
VERTEX
  8
20
 10
41.5173
 20
-37.3380
 30
0.0000
  0
SEQEND
  8
0
  0
POLYLINE
  8
20
 66
1
 10
0.0000
 20
0.0000
 30
0.0000
 40
0.0125
 41
0.0125
 70
0
  0
VERTEX
  8
20
 10
10.4129
 20
-54.8579
 30
0.0000
 42
1.0000
  0
VERTEX
  8
20
 10
10.4151
 20
-54.8701
 30
0.0000
  0
SEQEND
  8
0
  0
POLYLINE
  8
20
 66
1
 10
0.0000
 20
0.0000
 30
0.0000
 40
0.0125
 41
0.0125
 70
0
  0
VERTEX
  8
20
 10
41.5220
 20
-37.3421
 30
0.0000
 42
1.0000
  0
VERTEX
  8
20
 10
41.5126
 20
-37.3339
 30
0.0000
  0
SEQEND
  8
0
  0
POLYLINE
  8
20
 66
1
 10
0.0000
 20
0.0000
 30
0.0000
 40
0.0250
 41
0.0250
 70
0
  0
VERTEX
  8
20
 10
42.6720
 20
-37.3380
 30
0.0000
  0
VERTEX
  8
20
 10
41.5173
 20
-37.3380
 30
0.0000
  0
SEQEND
  8
0
  0
POLYLINE
  8
20
 66
1
 10
0.0000
 20
0.0000
 30
0.0000
 40
0.0125
 41
0.0125
 70
0
  0
VERTEX
  8
20
 10
41.5173
 20
-37.3317
 30
0.0000
 42
1.0000
  0
VERTEX
  8
20
 10
41.5173
 20
-37.3443
 30
0.0000
  0
SEQEND
  8
0
  0
POLYLINE
  8
20
 66
1
 10
0.0000
 20
0.0000
 30
0.0000
 40
0.0125
 41
0.0125
 70
0
  0
VERTEX
  8
20
 10
42.6720
 20
-37.3443
 30
0.0000
 42
1.0000
  0
VERTEX
  8
20
 10
42.6720
 20
-37.3317
 30
0.0000
  0
SEQEND
  8
0
  0
POLYLINE
  8
20
 66
1
 10
0.0000
 20
0.0000
 30
0.0000
 40
0.0250
 41
0.0250
 70
0
  0
VERTEX
  8
20
 10
49.7840
 20
-25.4000
 30
0.0000
  0
VERTEX
  8
20
 10
53.8480
 20
-25.4000
 30
0.0000
  0
SEQEND
  8
0
  0
POLYLINE
  8
20
 66
1
 10
0.0000
 20
0.0000
 30
0.0000
 40
0.0125
 41
0.0125
 70
0
  0
VERTEX
  8
20
 10
53.8480
 20
-25.4063
 30
0.0000
 42
1.0000
  0
VERTEX
  8
20
 10
53.8480
 20
-25.3938
 30
0.0000
  0
SEQEND
  8
0
  0
POLYLINE
  8
20
 66
1
 10
0.0000
 20
0.0000
 30
0.0000
 40
0.0125
 41
0.0125
 70
0
  0
VERTEX
  8
20
 10
49.7840
 20
-25.3938
 30
0.0000
 42
1.0000
  0
VERTEX
  8
20
 10
49.7840
 20
-25.4063
 30
0.0000
  0
SEQEND
  8
0
  0
POLYLINE
  8
20
 66
1
 10
0.0000
 20
0.0000
 30
0.0000
 40
0.0254
 41
0.0254
 70
0
  0
VERTEX
  8
20
 10
-39.3700
 20
-56.1340
 30
0.0000
  0
VERTEX
  8
20
 10
-39.3700
 20
-13.4620
 30
0.0000
  0
SEQEND
  8
0
  0
POLYLINE
  8
20
 66
1
 10
0.0000
 20
0.0000
 30
0.0000
 40
0.0127
 41
0.0127
 70
0
  0
VERTEX
  8
20
 10
-39.3637
 20
-13.4620
 30
0.0000
 42
1.0000
  0
VERTEX
  8
20
 10
-39.3764
 20
-13.4620
 30
0.0000
  0
SEQEND
  8
0
  0
POLYLINE
  8
20
 66
1
 10
0.0000
 20
0.0000
 30
0.0000
 40
0.0127
 41
0.0127
 70
0
  0
VERTEX
  8
20
 10
-39.3764
 20
-56.1340
 30
0.0000
 42
1.0000
  0
VERTEX
  8
20
 10
-39.3637
 20
-56.1340
 30
0.0000
  0
SEQEND
  8
0
  0
POLYLINE
  8
20
 66
1
 10
0.0000
 20
0.0000
 30
0.0000
 40
0.0254
 41
0.0254
 70
0
  0
VERTEX
  8
20
 10
19.8374
 20
-17.2212
 30
0.0000
 42
0.7002
  0
VERTEX
  8
20
 10
30.4800
 20
-14.7320
 30
0.0000
  0
SEQEND
  8
0
  0
POLYLINE
  8
20
 66
1
 10
0.0000
 20
0.0000
 30
0.0000
 40
0.0127
 41
0.0127
 70
0
  0
VERTEX
  8
20
 10
19.8427
 20
-17.2177
 30
0.0000
 42
1.0000
  0
VERTEX
  8
20
 10
19.8321
 20
-17.2247
 30
0.0000
  0
SEQEND
  8
0
  0
POLYLINE
  8
20
 66
1
 10
0.0000
 20
0.0000
 30
0.0000
 40
0.0127
 41
0.0127
 70
0
  0
VERTEX
  8
20
 10
30.4863
 20
-14.7328
 30
0.0000
 42
1.0000
  0
VERTEX
  8
20
 10
30.4737
 20
-14.7312
 30
0.0000
  0
SEQEND
  8
0
  0
POLYLINE
  8
20
 66
1
 10
0.0000
 20
0.0000
 30
0.0000
 40
0.0254
 41
0.0254
 70
0
  0
VERTEX
  8
20
 10
-5.5880
 20
-28.7020
 30
0.0000
 42
1.0000
  0
VERTEX
  8
20
 10
5.5880
 20
-28.7020
 30
0.0000
  0
SEQEND
  8
0
  0
POLYLINE
  8
20
 66
1
 10
0.0000
 20
0.0000
 30
0.0000
 40
0.0127
 41
0.0127
 70
0
  0
VERTEX
  8
20
 10
-5.5816
 20
-28.7020
 30
0.0000
 42
1.0000
  0
VERTEX
  8
20
 10
-5.5944
 20
-28.7020
 30
0.0000
  0
SEQEND
  8
0
  0
POLYLINE
  8
20
 66
1
 10
0.0000
 20
0.0000
 30
0.0000
 40
0.0127
 41
0.0127
 70
0
  0
VERTEX
  8
20
 10
5.5944
 20
-28.7020
 30
0.0000
 42
1.0000
  0
VERTEX
  8
20
 10
5.5816
 20
-28.7020
 30
0.0000
  0
SEQEND
  8
0
  0
POLYLINE
  8
20
 66
1
 10
0.0000
 20
0.0000
 30
0.0000
 40
0.0254
 41
0.0254
 70
0
  0
VERTEX
  8
20
 10
5.5880
 20
-28.7020
 30
0.0000
  0
VERTEX
  8
20
 10
5.5880
 20
-25.4000
 30
0.0000
  0
SEQEND
  8
0
  0
POLYLINE
  8
20
 66
1
 10
0.0000
 20
0.0000
 30
0.0000
 40
0.0127
 41
0.0127
 70
0
  0
VERTEX
  8
20
 10
5.5944
 20
-25.4000
 30
0.0000
 42
1.0000
  0
VERTEX
  8
20
 10
5.5816
 20
-25.4000
 30
0.0000
  0
SEQEND
  8
0
  0
POLYLINE
  8
20
 66
1
 10
0.0000
 20
0.0000
 30
0.0000
 40
0.0127
 41
0.0127
 70
0
  0
VERTEX
  8
20
 10
5.5816
 20
-28.7020
 30
0.0000
 42
1.0000
  0
VERTEX
  8
20
 10
5.5944
 20
-28.7020
 30
0.0000
  0
SEQEND
  8
0
  0
POLYLINE
  8
20
 66
1
 10
0.0000
 20
0.0000
 30
0.0000
 40
0.0254
 41
0.0254
 70
0
  0
VERTEX
  8
20
 10
-5.5880
 20
-28.7020
 30
0.0000
  0
VERTEX
  8
20
 10
-5.5880
 20
-25.4000
 30
0.0000
  0
SEQEND
  8
0
  0
POLYLINE
  8
20
 66
1
 10
0.0000
 20
0.0000
 30
0.0000
 40
0.0127
 41
0.0127
 70
0
  0
VERTEX
  8
20
 10
-5.5816
 20
-25.4000
 30
0.0000
 42
1.0000
  0
VERTEX
  8
20
 10
-5.5944
 20
-25.4000
 30
0.0000
  0
SEQEND
  8
0
  0
POLYLINE
  8
20
 66
1
 10
0.0000
 20
0.0000
 30
0.0000
 40
0.0127
 41
0.0127
 70
0
  0
VERTEX
  8
20
 10
-5.5944
 20
-28.7020
 30
0.0000
 42
1.0000
  0
VERTEX
  8
20
 10
-5.5816
 20
-28.7020
 30
0.0000
  0
SEQEND
  8
0
  0
POLYLINE
  8
20
 66
1
 10
0.0000
 20
0.0000
 30
0.0000
 40
0.0254
 41
0.0254
 70
0
  0
VERTEX
  8
20
 10
-12.4460
 20
-21.3360
 30
0.0000
  0
VERTEX
  8
20
 10
-5.5880
 20
-25.4000
 30
0.0000
  0
SEQEND
  8
0
  0
POLYLINE
  8
20
 66
1
 10
0.0000
 20
0.0000
 30
0.0000
 40
0.0127
 41
0.0127
 70
0
  0
VERTEX
  8
20
 10
-5.5912
 20
-25.4055
 30
0.0000
 42
1.0000
  0
VERTEX
  8
20
 10
-5.5848
 20
-25.3945
 30
0.0000
  0
SEQEND
  8
0
  0
POLYLINE
  8
20
 66
1
 10
0.0000
 20
0.0000
 30
0.0000
 40
0.0127
 41
0.0127
 70
0
  0
VERTEX
  8
20
 10
-12.4428
 20
-21.3305
 30
0.0000
 42
1.0000
  0
VERTEX
  8
20
 10
-12.4492
 20
-21.3415
 30
0.0000
  0
SEQEND
  8
0
  0
POLYLINE
  8
20
 66
1
 10
0.0000
 20
0.0000
 30
0.0000
 40
0.0254
 41
0.0254
 70
0
  0
VERTEX
  8
20
 10
-33.2740
 20
-24.8920
 30
0.0000
  0
VERTEX
  8
20
 10
-33.0200
 20
-25.1460
 30
0.0000
  0
SEQEND
  8
0
  0
POLYLINE
  8
20
 66
1
 10
0.0000
 20
0.0000
 30
0.0000
 40
0.0127
 41
0.0127
 70
0
  0
VERTEX
  8
20
 10
-33.0245
 20
-25.1505
 30
0.0000
 42
1.0000
  0
VERTEX
  8
20
 10
-33.0155
 20
-25.1415
 30
0.0000
  0
SEQEND
  8
0
  0
POLYLINE
  8
20
 66
1
 10
0.0000
 20
0.0000
 30
0.0000
 40
0.0127
 41
0.0127
 70
0
  0
VERTEX
  8
20
 10
-33.2695
 20
-24.8875
 30
0.0000
 42
1.0000
  0
VERTEX
  8
20
 10
-33.2785
 20
-24.8965
 30
0.0000
  0
SEQEND
  8
0
  0
POLYLINE
  8
20
 66
1
 10
0.0000
 20
0.0000
 30
0.0000
 40
0.0254
 41
0.0254
 70
0
  0
VERTEX
  8
20
 10
-33.0200
 20
-25.1460
 30
0.0000
  0
VERTEX
  8
20
 10
-33.0200
 20
-25.6540
 30
0.0000
  0
SEQEND
  8
0
  0
POLYLINE
  8
20
 66
1
 10
0.0000
 20
0.0000
 30
0.0000
 40
0.0127
 41
0.0127
 70
0
  0
VERTEX
  8
20
 10
-33.0264
 20
-25.6540
 30
0.0000
 42
1.0000
  0
VERTEX
  8
20
 10
-33.0137
 20
-25.6540
 30
0.0000
  0
SEQEND
  8
0
  0
POLYLINE
  8
20
 66
1
 10
0.0000
 20
0.0000
 30
0.0000
 40
0.0127
 41
0.0127
 70
0
  0
VERTEX
  8
20
 10
-33.0137
 20
-25.1460
 30
0.0000
 42
1.0000
  0
VERTEX
  8
20
 10
-33.0264
 20
-25.1460
 30
0.0000
  0
SEQEND
  8
0
  0
POLYLINE
  8
20
 66
1
 10
0.0000
 20
0.0000
 30
0.0000
 40
0.0254
 41
0.0254
 70
0
  0
VERTEX
  8
20
 10
-33.0200
 20
-25.6540
 30
0.0000
  0
VERTEX
  8
20
 10
-33.7820
 20
-25.6540
 30
0.0000
  0
SEQEND
  8
0
  0
POLYLINE
  8
20
 66
1
 10
0.0000
 20
0.0000
 30
0.0000
 40
0.0127
 41
0.0127
 70
0
  0
VERTEX
  8
20
 10
-33.7820
 20
-25.6476
 30
0.0000
 42
1.0000
  0
VERTEX
  8
20
 10
-33.7820
 20
-25.6604
 30
0.0000
  0
SEQEND
  8
0
  0
POLYLINE
  8
20
 66
1
 10
0.0000
 20
0.0000
 30
0.0000
 40
0.0127
 41
0.0127
 70
0
  0
VERTEX
  8
20
 10
-33.0200
 20
-25.6604
 30
0.0000
 42
1.0000
  0
VERTEX
  8
20
 10
-33.0200
 20
-25.6476
 30
0.0000
  0
SEQEND
  8
0
  0
POLYLINE
  8
20
 66
1
 10
0.0000
 20
0.0000
 30
0.0000
 40
0.0254
 41
0.0254
 70
0
  0
VERTEX
  8
20
 10
-33.7820
 20
-25.6540
 30
0.0000
  0
VERTEX
  8
20
 10
-35.0520
 20
-24.3840
 30
0.0000
  0
SEQEND
  8
0
  0
POLYLINE
  8
20
 66
1
 10
0.0000
 20
0.0000
 30
0.0000
 40
0.0127
 41
0.0127
 70
0
  0
VERTEX
  8
20
 10
-35.0475
 20
-24.3795
 30
0.0000
 42
1.0000
  0
VERTEX
  8
20
 10
-35.0565
 20
-24.3885
 30
0.0000
  0
SEQEND
  8
0
  0
POLYLINE
  8
20
 66
1
 10
0.0000
 20
0.0000
 30
0.0000
 40
0.0127
 41
0.0127
 70
0
  0
VERTEX
  8
20
 10
-33.7865
 20
-25.6585
 30
0.0000
 42
1.0000
  0
VERTEX
  8
20
 10
-33.7775
 20
-25.6495
 30
0.0000
  0
SEQEND
  8
0
  0
POLYLINE
  8
20
 66
1
 10
0.0000
 20
0.0000
 30
0.0000
 40
0.0254
 41
0.0254
 70
0
  0
VERTEX
  8
20
 10
-35.0520
 20
-24.3840
 30
0.0000
  0
VERTEX
  8
20
 10
-35.0520
 20
-20.0660
 30
0.0000
  0
SEQEND
  8
0
  0
POLYLINE
  8
20
 66
1
 10
0.0000
 20
0.0000
 30
0.0000
 40
0.0127
 41
0.0127
 70
0
  0
VERTEX
  8
20
 10
-35.0457
 20
-20.0660
 30
0.0000
 42
1.0000
  0
VERTEX
  8
20
 10
-35.0583
 20
-20.0660
 30
0.0000
  0
SEQEND
  8
0
  0
POLYLINE
  8
20
 66
1
 10
0.0000
 20
0.0000
 30
0.0000
 40
0.0127
 41
0.0127
 70
0
  0
VERTEX
  8
20
 10
-35.0583
 20
-24.3840
 30
0.0000
 42
1.0000
  0
VERTEX
  8
20
 10
-35.0457
 20
-24.3840
 30
0.0000
  0
SEQEND
  8
0
  0
POLYLINE
  8
20
 66
1
 10
0.0000
 20
0.0000
 30
0.0000
 40
0.0254
 41
0.0254
 70
0
  0
VERTEX
  8
20
 10
-35.0520
 20
-20.0660
 30
0.0000
  0
VERTEX
  8
20
 10
-32.5120
 20
-18.2880
 30
0.0000
  0
SEQEND
  8
0
  0
POLYLINE
  8
20
 66
1
 10
0.0000
 20
0.0000
 30
0.0000
 40
0.0127
 41
0.0127
 70
0
  0
VERTEX
  8
20
 10
-32.5084
 20
-18.2932
 30
0.0000
 42
1.0000
  0
VERTEX
  8
20
 10
-32.5156
 20
-18.2828
 30
0.0000
  0
SEQEND
  8
0
  0
POLYLINE
  8
20
 66
1
 10
0.0000
 20
0.0000
 30
0.0000
 40
0.0127
 41
0.0127
 70
0
  0
VERTEX
  8
20
 10
-35.0556
 20
-20.0608
 30
0.0000
 42
1.0000
  0
VERTEX
  8
20
 10
-35.0484
 20
-20.0712
 30
0.0000
  0
SEQEND
  8
0
  0
POLYLINE
  8
20
 66
1
 10
0.0000
 20
0.0000
 30
0.0000
 40
0.0254
 41
0.0254
 70
0
  0
VERTEX
  8
20
 10
-32.5120
 20
-18.2880
 30
0.0000
  0
VERTEX
  8
20
 10
-32.5120
 20
-13.4620
 30
0.0000
  0
SEQEND
  8
0
  0
POLYLINE
  8
20
 66
1
 10
0.0000
 20
0.0000
 30
0.0000
 40
0.0127
 41
0.0127
 70
0
  0
VERTEX
  8
20
 10
-32.5057
 20
-13.4620
 30
0.0000
 42
1.0000
  0
VERTEX
  8
20
 10
-32.5183
 20
-13.4620
 30
0.0000
  0
SEQEND
  8
0
  0
POLYLINE
  8
20
 66
1
 10
0.0000
 20
0.0000
 30
0.0000
 40
0.0127
 41
0.0127
 70
0
  0
VERTEX
  8
20
 10
-32.5183
 20
-18.2880
 30
0.0000
 42
1.0000
  0
VERTEX
  8
20
 10
-32.5057
 20
-18.2880
 30
0.0000
  0
SEQEND
  8
0
  0
POLYLINE
  8
20
 66
1
 10
0.0000
 20
0.0000
 30
0.0000
 40
0.0254
 41
0.0254
 70
0
  0
VERTEX
  8
20
 10
-32.5120
 20
-13.4620
 30
0.0000
  0
VERTEX
  8
20
 10
-39.3700
 20
-13.4620
 30
0.0000
  0
SEQEND
  8
0
  0
POLYLINE
  8
20
 66
1
 10
0.0000
 20
0.0000
 30
0.0000
 40
0.0127
 41
0.0127
 70
0
  0
VERTEX
  8
20
 10
-39.3700
 20
-13.4557
 30
0.0000
 42
1.0000
  0
VERTEX
  8
20
 10
-39.3700
 20
-13.4684
 30
0.0000
  0
SEQEND
  8
0
  0
POLYLINE
  8
20
 66
1
 10
0.0000
 20
0.0000
 30
0.0000
 40
0.0127
 41
0.0127
 70
0
  0
VERTEX
  8
20
 10
-32.5120
 20
-13.4684
 30
0.0000
 42
1.0000
  0
VERTEX
  8
20
 10
-32.5120
 20
-13.4557
 30
0.0000
  0
SEQEND
  8
0
  0
POLYLINE
  8
20
 66
1
 10
0.0000
 20
0.0000
 30
0.0000
 40
0.0254
 41
0.0254
 70
0
  0
VERTEX
  8
20
 10
-26.6700
 20
-21.3360
 30
0.0000
  0
VERTEX
  8
20
 10
-12.4460
 20
-21.3360
 30
0.0000
  0
SEQEND
  8
0
  0
POLYLINE
  8
20
 66
1
 10
0.0000
 20
0.0000
 30
0.0000
 40
0.0127
 41
0.0127
 70
0
  0
VERTEX
  8
20
 10
-12.4460
 20
-21.3424
 30
0.0000
 42
1.0000
  0
VERTEX
  8
20
 10
-12.4460
 20
-21.3297
 30
0.0000
  0
SEQEND
  8
0
  0
POLYLINE
  8
20
 66
1
 10
0.0000
 20
0.0000
 30
0.0000
 40
0.0127
 41
0.0127
 70
0
  0
VERTEX
  8
20
 10
-26.6700
 20
-21.3297
 30
0.0000
 42
1.0000
  0
VERTEX
  8
20
 10
-26.6700
 20
-21.3424
 30
0.0000
  0
SEQEND
  8
0
  0
POLYLINE
  8
20
 66
1
 10
0.0000
 20
0.0000
 30
0.0000
 40
0.0254
 41
0.0254
 70
0
  0
VERTEX
  8
20
 10
-15.4940
 20
-53.8480
 30
0.0000
  0
VERTEX
  8
20
 10
-19.5580
 20
-52.8320
 30
0.0000
  0
SEQEND
  8
0
  0
POLYLINE
  8
20
 66
1
 10
0.0000
 20
0.0000
 30
0.0000
 40
0.0127
 41
0.0127
 70
0
  0
VERTEX
  8
20
 10
-19.5565
 20
-52.8258
 30
0.0000
 42
1.0000
  0
VERTEX
  8
20
 10
-19.5595
 20
-52.8382
 30
0.0000
  0
SEQEND
  8
0
  0
POLYLINE
  8
20
 66
1
 10
0.0000
 20
0.0000
 30
0.0000
 40
0.0127
 41
0.0127
 70
0
  0
VERTEX
  8
20
 10
-15.4955
 20
-53.8542
 30
0.0000
 42
1.0000
  0
VERTEX
  8
20
 10
-15.4925
 20
-53.8418
 30
0.0000
  0
SEQEND
  8
0
  0
POLYLINE
  8
20
 66
1
 10
0.0000
 20
0.0000
 30
0.0000
 40
0.0254
 41
0.0254
 70
0
  0
VERTEX
  8
20
 10
-19.5580
 20
-52.8320
 30
0.0000
  0
VERTEX
  8
20
 10
-28.4480
 20
-52.8320
 30
0.0000
  0
SEQEND
  8
0
  0
POLYLINE
  8
20
 66
1
 10
0.0000
 20
0.0000
 30
0.0000
 40
0.0127
 41
0.0127
 70
0
  0
VERTEX
  8
20
 10
-28.4480
 20
-52.8257
 30
0.0000
 42
1.0000
  0
VERTEX
  8
20
 10
-28.4480
 20
-52.8383
 30
0.0000
  0
SEQEND
  8
0
  0
POLYLINE
  8
20
 66
1
 10
0.0000
 20
0.0000
 30
0.0000
 40
0.0127
 41
0.0127
 70
0
  0
VERTEX
  8
20
 10
-19.5580
 20
-52.8383
 30
0.0000
 42
1.0000
  0
VERTEX
  8
20
 10
-19.5580
 20
-52.8257
 30
0.0000
  0
SEQEND
  8
0
  0
POLYLINE
  8
20
 66
1
 10
0.0000
 20
0.0000
 30
0.0000
 40
0.0254
 41
0.0254
 70
0
  0
VERTEX
  8
20
 10
-1.0160
 20
-56.1340
 30
0.0000
  0
VERTEX
  8
20
 10
9.1440
 20
-56.1340
 30
0.0000
  0
SEQEND
  8
0
  0
POLYLINE
  8
20
 66
1
 10
0.0000
 20
0.0000
 30
0.0000
 40
0.0127
 41
0.0127
 70
0
  0
VERTEX
  8
20
 10
9.1440
 20
-56.1403
 30
0.0000
 42
1.0000
  0
VERTEX
  8
20
 10
9.1440
 20
-56.1277
 30
0.0000
  0
SEQEND
  8
0
  0
POLYLINE
  8
20
 66
1
 10
0.0000
 20
0.0000
 30
0.0000
 40
0.0127
 41
0.0127
 70
0
  0
VERTEX
  8
20
 10
-1.0160
 20
-56.1277
 30
0.0000
 42
1.0000
  0
VERTEX
  8
20
 10
-1.0160
 20
-56.1403
 30
0.0000
  0
SEQEND
  8
0
  0
POLYLINE
  8
20
 66
1
 10
0.0000
 20
0.0000
 30
0.0000
 40
0.0254
 41
0.0254
 70
0
  0
VERTEX
  8
20
 10
9.1440
 20
-56.1340
 30
0.0000
  0
VERTEX
  8
20
 10
10.4140
 20
-54.8640
 30
0.0000
  0
SEQEND
  8
0
  0
POLYLINE
  8
20
 66
1
 10
0.0000
 20
0.0000
 30
0.0000
 40
0.0127
 41
0.0127
 70
0
  0
VERTEX
  8
20
 10
10.4185
 20
-54.8685
 30
0.0000
 42
1.0000
  0
VERTEX
  8
20
 10
10.4095
 20
-54.8595
 30
0.0000
  0
SEQEND
  8
0
  0
POLYLINE
  8
20
 66
1
 10
0.0000
 20
0.0000
 30
0.0000
 40
0.0127
 41
0.0127
 70
0
  0
VERTEX
  8
20
 10
9.1395
 20
-56.1295
 30
0.0000
 42
1.0000
  0
VERTEX
  8
20
 10
9.1485
 20
-56.1385
 30
0.0000
  0
SEQEND
  8
0
  0
POLYLINE
  8
20
 66
1
 10
0.0000
 20
0.0000
 30
0.0000
 40
0.0254
 41
0.0254
 70
0
  0
VERTEX
  8
20
 10
-1.0160
 20
-56.1340
 30
0.0000
  0
VERTEX
  8
20
 10
-1.2700
 20
-55.8800
 30
0.0000
  0
SEQEND
  8
0
  0
POLYLINE
  8
20
 66
1
 10
0.0000
 20
0.0000
 30
0.0000
 40
0.0127
 41
0.0127
 70
0
  0
VERTEX
  8
20
 10
-1.2655
 20
-55.8755
 30
0.0000
 42
1.0000
  0
VERTEX
  8
20
 10
-1.2745
 20
-55.8845
 30
0.0000
  0
SEQEND
  8
0
  0
POLYLINE
  8
20
 66
1
 10
0.0000
 20
0.0000
 30
0.0000
 40
0.0127
 41
0.0127
 70
0
  0
VERTEX
  8
20
 10
-1.0205
 20
-56.1385
 30
0.0000
 42
1.0000
  0
VERTEX
  8
20
 10
-1.0115
 20
-56.1295
 30
0.0000
  0
SEQEND
  8
0
  0
POLYLINE
  8
20
 66
1
 10
0.0000
 20
0.0000
 30
0.0000
 40
0.0254
 41
0.0254
 70
0
  0
VERTEX
  8
20
 10
-15.4940
 20
-53.8480
 30
0.0000
 42
0.0480
  0
VERTEX
  8
20
 10
-1.2700
 20
-55.8800
 30
0.0000
  0
SEQEND
  8
0
  0
POLYLINE
  8
20
 66
1
 10
0.0000
 20
0.0000
 30
0.0000
 40
0.0127
 41
0.0127
 70
0
  0
VERTEX
  8
20
 10
-15.4925
 20
-53.8418
 30
0.0000
 42
1.0000
  0
VERTEX
  8
20
 10
-15.4955
 20
-53.8542
 30
0.0000
  0
SEQEND
  8
0
  0
POLYLINE
  8
20
 66
1
 10
0.0000
 20
0.0000
 30
0.0000
 40
0.0127
 41
0.0127
 70
0
  0
VERTEX
  8
20
 10
-1.2703
 20
-55.8863
 30
0.0000
 42
1.0000
  0
VERTEX
  8
20
 10
-1.2697
 20
-55.8737
 30
0.0000
  0
SEQEND
  8
0
  0
POLYLINE
  8
20
 66
1
 10
0.0000
 20
0.0000
 30
0.0000
 40
0.0254
 41
0.0254
 70
0
  0
VERTEX
  8
20
 10
30.4800
 20
-14.7320
 30
0.0000
  0
VERTEX
  8
20
 10
30.4800
 20
-13.4620
 30
0.0000
  0
SEQEND
  8
0
  0
POLYLINE
  8
20
 66
1
 10
0.0000
 20
0.0000
 30
0.0000
 40
0.0127
 41
0.0127
 70
0
  0
VERTEX
  8
20
 10
30.4864
 20
-13.4620
 30
0.0000
 42
1.0000
  0
VERTEX
  8
20
 10
30.4736
 20
-13.4620
 30
0.0000
  0
SEQEND
  8
0
  0
POLYLINE
  8
20
 66
1
 10
0.0000
 20
0.0000
 30
0.0000
 40
0.0127
 41
0.0127
 70
0
  0
VERTEX
  8
20
 10
30.4736
 20
-14.7320
 30
0.0000
 42
1.0000
  0
VERTEX
  8
20
 10
30.4864
 20
-14.7320
 30
0.0000
  0
SEQEND
  8
0
  0
POLYLINE
  8
20
 66
1
 10
0.0000
 20
0.0000
 30
0.0000
 40
0.0254
 41
0.0254
 70
0
  0
VERTEX
  8
20
 10
30.4800
 20
-13.4620
 30
0.0000
  0
VERTEX
  8
20
 10
48.2600
 20
-13.4620
 30
0.0000
  0
SEQEND
  8
0
  0
POLYLINE
  8
20
 66
1
 10
0.0000
 20
0.0000
 30
0.0000
 40
0.0127
 41
0.0127
 70
0
  0
VERTEX
  8
20
 10
48.2600
 20
-13.4684
 30
0.0000
 42
1.0000
  0
VERTEX
  8
20
 10
48.2600
 20
-13.4557
 30
0.0000
  0
SEQEND
  8
0
  0
POLYLINE
  8
20
 66
1
 10
0.0000
 20
0.0000
 30
0.0000
 40
0.0127
 41
0.0127
 70
0
  0
VERTEX
  8
20
 10
30.4800
 20
-13.4557
 30
0.0000
 42
1.0000
  0
VERTEX
  8
20
 10
30.4800
 20
-13.4684
 30
0.0000
  0
SEQEND
  8
0
  0
POLYLINE
  8
20
 66
1
 10
0.0000
 20
0.0000
 30
0.0000
 40
0.0254
 41
0.0254
 70
0
  0
VERTEX
  8
20
 10
50.2920
 20
-24.8920
 30
0.0000
 42
1.0000
  0
VERTEX
  8
20
 10
50.2920
 20
-17.7800
 30
0.0000
  0
SEQEND
  8
0
  0
POLYLINE
  8
20
 66
1
 10
0.0000
 20
0.0000
 30
0.0000
 40
0.0127
 41
0.0127
 70
0
  0
VERTEX
  8
20
 10
50.2920
 20
-24.8856
 30
0.0000
 42
1.0000
  0
VERTEX
  8
20
 10
50.2920
 20
-24.8984
 30
0.0000
  0
SEQEND
  8
0
  0
POLYLINE
  8
20
 66
1
 10
0.0000
 20
0.0000
 30
0.0000
 40
0.0127
 41
0.0127
 70
0
  0
VERTEX
  8
20
 10
50.2920
 20
-17.7736
 30
0.0000
 42
1.0000
  0
VERTEX
  8
20
 10
50.2920
 20
-17.7864
 30
0.0000
  0
SEQEND
  8
0
  0
POLYLINE
  8
20
 66
1
 10
0.0000
 20
0.0000
 30
0.0000
 40
0.0254
 41
0.0254
 70
0
  0
VERTEX
  8
20
 10
-28.1940
 20
-19.8120
 30
0.0000
 42
1.0000
  0
VERTEX
  8
20
 10
-33.2740
 20
-24.8920
 30
0.0000
  0
SEQEND
  8
0
  0
POLYLINE
  8
20
 66
1
 10
0.0000
 20
0.0000
 30
0.0000
 40
0.0127
 41
0.0127
 70
0
  0
VERTEX
  8
20
 10
-28.1985
 20
-19.8165
 30
0.0000
 42
1.0000
  0
VERTEX
  8
20
 10
-28.1895
 20
-19.8075
 30
0.0000
  0
SEQEND
  8
0
  0
POLYLINE
  8
20
 66
1
 10
0.0000
 20
0.0000
 30
0.0000
 40
0.0127
 41
0.0127
 70
0
  0
VERTEX
  8
20
 10
-33.2785
 20
-24.8965
 30
0.0000
 42
1.0000
  0
VERTEX
  8
20
 10
-33.2695
 20
-24.8875
 30
0.0000
  0
SEQEND
  8
0
  0
POLYLINE
  8
20
 66
1
 10
0.0000
 20
0.0000
 30
0.0000
 40
0.0254
 41
0.0254
 70
0
  0
VERTEX
  8
20
 10
-28.1940
 20
-19.8120
 30
0.0000
  0
VERTEX
  8
20
 10
-26.6700
 20
-21.3360
 30
0.0000
  0
SEQEND
  8
0
  0
POLYLINE
  8
20
 66
1
 10
0.0000
 20
0.0000
 30
0.0000
 40
0.0127
 41
0.0127
 70
0
  0
VERTEX
  8
20
 10
-26.6745
 20
-21.3405
 30
0.0000
 42
1.0000
  0
VERTEX
  8
20
 10
-26.6655
 20
-21.3315
 30
0.0000
  0
SEQEND
  8
0
  0
POLYLINE
  8
20
 66
1
 10
0.0000
 20
0.0000
 30
0.0000
 40
0.0127
 41
0.0127
 70
0
  0
VERTEX
  8
20
 10
-28.1895
 20
-19.8075
 30
0.0000
 42
1.0000
  0
VERTEX
  8
20
 10
-28.1985
 20
-19.8165
 30
0.0000
  0
SEQEND
  8
0
  0
POLYLINE
  8
20
 66
1
 10
0.0000
 20
0.0000
 30
0.0000
 40
0.0254
 41
0.0254
 70
0
  0
VERTEX
  8
20
 10
-39.3700
 20
-56.1340
 30
0.0000
  0
VERTEX
  8
20
 10
-28.4480
 20
-56.1340
 30
0.0000
  0
SEQEND
  8
0
  0
POLYLINE
  8
20
 66
1
 10
0.0000
 20
0.0000
 30
0.0000
 40
0.0127
 41
0.0127
 70
0
  0
VERTEX
  8
20
 10
-28.4480
 20
-56.1403
 30
0.0000
 42
1.0000
  0
VERTEX
  8
20
 10
-28.4480
 20
-56.1277
 30
0.0000
  0
SEQEND
  8
0
  0
POLYLINE
  8
20
 66
1
 10
0.0000
 20
0.0000
 30
0.0000
 40
0.0127
 41
0.0127
 70
0
  0
VERTEX
  8
20
 10
-39.3700
 20
-56.1277
 30
0.0000
 42
1.0000
  0
VERTEX
  8
20
 10
-39.3700
 20
-56.1403
 30
0.0000
  0
SEQEND
  8
0
  0
POLYLINE
  8
20
 66
1
 10
0.0000
 20
0.0000
 30
0.0000
 40
0.0254
 41
0.0254
 70
0
  0
VERTEX
  8
20
 10
42.6720
 20
-56.1340
 30
0.0000
  0
VERTEX
  8
20
 10
53.8480
 20
-56.1340
 30
0.0000
  0
SEQEND
  8
0
  0
POLYLINE
  8
20
 66
1
 10
0.0000
 20
0.0000
 30
0.0000
 40
0.0127
 41
0.0127
 70
0
  0
VERTEX
  8
20
 10
53.8480
 20
-56.1403
 30
0.0000
 42
1.0000
  0
VERTEX
  8
20
 10
53.8480
 20
-56.1277
 30
0.0000
  0
SEQEND
  8
0
  0
POLYLINE
  8
20
 66
1
 10
0.0000
 20
0.0000
 30
0.0000
 40
0.0127
 41
0.0127
 70
0
  0
VERTEX
  8
20
 10
42.6720
 20
-56.1277
 30
0.0000
 42
1.0000
  0
VERTEX
  8
20
 10
42.6720
 20
-56.1403
 30
0.0000
  0
SEQEND
  8
0
  0
POLYLINE
  8
20
 66
1
 10
0.0000
 20
0.0000
 30
0.0000
 40
0.0254
 41
0.0254
 70
0
  0
VERTEX
  8
20
 10
53.8480
 20
-56.1340
 30
0.0000
  0
VERTEX
  8
20
 10
53.8480
 20
-25.4000
 30
0.0000
  0
SEQEND
  8
0
  0
POLYLINE
  8
20
 66
1
 10
0.0000
 20
0.0000
 30
0.0000
 40
0.0127
 41
0.0127
 70
0
  0
VERTEX
  8
20
 10
53.8544
 20
-25.4000
 30
0.0000
 42
1.0000
  0
VERTEX
  8
20
 10
53.8417
 20
-25.4000
 30
0.0000
  0
SEQEND
  8
0
  0
POLYLINE
  8
20
 66
1
 10
0.0000
 20
0.0000
 30
0.0000
 40
0.0127
 41
0.0127
 70
0
  0
VERTEX
  8
20
 10
53.8417
 20
-56.1340
 30
0.0000
 42
1.0000
  0
VERTEX
  8
20
 10
53.8544
 20
-56.1340
 30
0.0000
  0
SEQEND
  8
0
  0
POLYLINE
  8
20
 66
1
 10
0.0000
 20
0.0000
 30
0.0000
 40
0.0254
 41
0.0254
 70
0
  0
VERTEX
  8
20
 10
-28.4480
 20
-52.8320
 30
0.0000
  0
VERTEX
  8
20
 10
-28.4480
 20
-56.1340
 30
0.0000
  0
SEQEND
  8
0
  0
POLYLINE
  8
20
 66
1
 10
0.0000
 20
0.0000
 30
0.0000
 40
0.0127
 41
0.0127
 70
0
  0
VERTEX
  8
20
 10
-28.4544
 20
-56.1340
 30
0.0000
 42
1.0000
  0
VERTEX
  8
20
 10
-28.4416
 20
-56.1340
 30
0.0000
  0
SEQEND
  8
0
  0
POLYLINE
  8
20
 66
1
 10
0.0000
 20
0.0000
 30
0.0000
 40
0.0127
 41
0.0127
 70
0
  0
VERTEX
  8
20
 10
-28.4416
 20
-52.8320
 30
0.0000
 42
1.0000
  0
VERTEX
  8
20
 10
-28.4544
 20
-52.8320
 30
0.0000
  0
SEQEND
  8
0
  0
POLYLINE
  8
20
 66
1
 10
0.0000
 20
0.0000
 30
0.0000
 40
0.0254
 41
0.0254
 70
0
  0
VERTEX
  8
20
 10
42.6720
 20
-37.3380
 30
0.0000
  0
VERTEX
  8
20
 10
42.6720
 20
-56.1340
 30
0.0000
  0
SEQEND
  8
0
  0
POLYLINE
  8
20
 66
1
 10
0.0000
 20
0.0000
 30
0.0000
 40
0.0127
 41
0.0127
 70
0
  0
VERTEX
  8
20
 10
42.6657
 20
-56.1340
 30
0.0000
 42
1.0000
  0
VERTEX
  8
20
 10
42.6784
 20
-56.1340
 30
0.0000
  0
SEQEND
  8
0
  0
POLYLINE
  8
20
 66
1
 10
0.0000
 20
0.0000
 30
0.0000
 40
0.0127
 41
0.0127
 70
0
  0
VERTEX
  8
20
 10
42.6784
 20
-37.3380
 30
0.0000
 42
1.0000
  0
VERTEX
  8
20
 10
42.6657
 20
-37.3380
 30
0.0000
  0
SEQEND
  8
0
  0
POLYLINE
  8
20
 66
1
 10
0.0000
 20
0.0000
 30
0.0000
 40
0.0254
 41
0.0254
 70
0
  0
VERTEX
  8
20
 10
5.5880
 20
-25.4000
 30
0.0000
  0
VERTEX
  8
20
 10
19.8374
 20
-17.2212
 30
0.0000
  0
SEQEND
  8
0
  0
POLYLINE
  8
20
 66
1
 10
0.0000
 20
0.0000
 30
0.0000
 40
0.0127
 41
0.0127
 70
0
  0
VERTEX
  8
20
 10
19.8406
 20
-17.2267
 30
0.0000
 42
1.0000
  0
VERTEX
  8
20
 10
19.8342
 20
-17.2157
 30
0.0000
  0
SEQEND
  8
0
  0
POLYLINE
  8
20
 66
1
 10
0.0000
 20
0.0000
 30
0.0000
 40
0.0127
 41
0.0127
 70
0
  0
VERTEX
  8
20
 10
5.5848
 20
-25.3945
 30
0.0000
 42
1.0000
  0
VERTEX
  8
20
 10
5.5912
 20
-25.4055
 30
0.0000
  0
SEQEND
  8
0
  0
POLYLINE
  8
20
 66
1
 10
0.0000
 20
0.0000
 30
0.0000
 40
0.7620
 41
0.7620
 70
0
  0
VERTEX
  8
20
 10
-28.1940
 20
-49.0220
 30
0.0000
  0
VERTEX
  8
20
 10
-28.1940
 20
-51.8160
 30
0.0000
  0
SEQEND
  8
0
  0
POLYLINE
  8
20
 66
1
 10
0.0000
 20
0.0000
 30
0.0000
 40
0.3810
 41
0.3810
 70
0
  0
VERTEX
  8
20
 10
-28.3845
 20
-51.8160
 30
0.0000
 42
1.0000
  0
VERTEX
  8
20
 10
-28.0035
 20
-51.8160
 30
0.0000
  0
SEQEND
  8
0
  0
POLYLINE
  8
20
 66
1
 10
0.0000
 20
0.0000
 30
0.0000
 40
0.3810
 41
0.3810
 70
0
  0
VERTEX
  8
20
 10
-28.0035
 20
-49.0220
 30
0.0000
 42
1.0000
  0
VERTEX
  8
20
 10
-28.3845
 20
-49.0220
 30
0.0000
  0
SEQEND
  8
0
  0
POLYLINE
  8
20
 66
1
 10
0.0000
 20
0.0000
 30
0.0000
 40
0.7620
 41
0.7620
 70
0
  0
VERTEX
  8
20
 10
44.1960
 20
-37.0840
 30
0.0000
  0
VERTEX
  8
20
 10
46.7360
 20
-34.5440
 30
0.0000
  0
SEQEND
  8
0
  0
POLYLINE
  8
20
 66
1
 10
0.0000
 20
0.0000
 30
0.0000
 40
0.3810
 41
0.3810
 70
0
  0
VERTEX
  8
20
 10
46.8707
 20
-34.6787
 30
0.0000
 42
1.0000
  0
VERTEX
  8
20
 10
46.6013
 20
-34.4093
 30
0.0000
  0
SEQEND
  8
0
  0
POLYLINE
  8
20
 66
1
 10
0.0000
 20
0.0000
 30
0.0000
 40
0.3810
 41
0.3810
 70
0
  0
VERTEX
  8
20
 10
44.0613
 20
-36.9493
 30
0.0000
 42
1.0000
  0
VERTEX
  8
20
 10
44.3307
 20
-37.2187
 30
0.0000
  0
SEQEND
  8
0
  0
POLYLINE
  8
20
 66
1
 10
0.0000
 20
0.0000
 30
0.0000
 40
0.0254
 41
0.0254
 70
0
  0
VERTEX
  8
20
 10
48.2600
 20
-17.7800
 30
0.0000
  0
VERTEX
  8
20
 10
48.2600
 20
-13.4620
 30
0.0000
  0
SEQEND
  8
0
  0
POLYLINE
  8
20
 66
1
 10
0.0000
 20
0.0000
 30
0.0000
 40
0.0127
 41
0.0127
 70
0
  0
VERTEX
  8
20
 10
48.2664
 20
-13.4620
 30
0.0000
 42
1.0000
  0
VERTEX
  8
20
 10
48.2537
 20
-13.4620
 30
0.0000
  0
SEQEND
  8
0
  0
POLYLINE
  8
20
 66
1
 10
0.0000
 20
0.0000
 30
0.0000
 40
0.0127
 41
0.0127
 70
0
  0
VERTEX
  8
20
 10
48.2537
 20
-17.7800
 30
0.0000
 42
1.0000
  0
VERTEX
  8
20
 10
48.2664
 20
-17.7800
 30
0.0000
  0
SEQEND
  8
0
  0
POLYLINE
  8
20
 66
1
 10
0.0000
 20
0.0000
 30
0.0000
 40
0.0254
 41
0.0254
 70
0
  0
VERTEX
  8
20
 10
50.2920
 20
-17.7800
 30
0.0000
  0
VERTEX
  8
20
 10
48.2600
 20
-17.7800
 30
0.0000
  0
SEQEND
  8
0
  0
POLYLINE
  8
20
 66
1
 10
0.0000
 20
0.0000
 30
0.0000
 40
0.0127
 41
0.0127
 70
0
  0
VERTEX
  8
20
 10
48.2600
 20
-17.7736
 30
0.0000
 42
1.0000
  0
VERTEX
  8
20
 10
48.2600
 20
-17.7864
 30
0.0000
  0
SEQEND
  8
0
  0
POLYLINE
  8
20
 66
1
 10
0.0000
 20
0.0000
 30
0.0000
 40
0.0127
 41
0.0127
 70
0
  0
VERTEX
  8
20
 10
50.2920
 20
-17.7864
 30
0.0000
 42
1.0000
  0
VERTEX
  8
20
 10
50.2920
 20
-17.7736
 30
0.0000
  0
SEQEND
  8
0
  0
POLYLINE
  8
20
 66
1
 10
0.0000
 20
0.0000
 30
0.0000
 40
0.0254
 41
0.0254
 70
0
  0
VERTEX
  8
20
 10
50.2920
 20
-24.8920
 30
0.0000
  0
VERTEX
  8
20
 10
49.7840
 20
-24.8920
 30
0.0000
  0
SEQEND
  8
0
  0
POLYLINE
  8
20
 66
1
 10
0.0000
 20
0.0000
 30
0.0000
 40
0.0127
 41
0.0127
 70
0
  0
VERTEX
  8
20
 10
49.7840
 20
-24.8856
 30
0.0000
 42
1.0000
  0
VERTEX
  8
20
 10
49.7840
 20
-24.8984
 30
0.0000
  0
SEQEND
  8
0
  0
POLYLINE
  8
20
 66
1
 10
0.0000
 20
0.0000
 30
0.0000
 40
0.0127
 41
0.0127
 70
0
  0
VERTEX
  8
20
 10
50.2920
 20
-24.8984
 30
0.0000
 42
1.0000
  0
VERTEX
  8
20
 10
50.2920
 20
-24.8856
 30
0.0000
  0
SEQEND
  8
0
  0
POLYLINE
  8
20
 66
1
 10
0.0000
 20
0.0000
 30
0.0000
 40
0.0254
 41
0.0254
 70
0
  0
VERTEX
  8
20
 10
49.7840
 20
-24.8920
 30
0.0000
  0
VERTEX
  8
20
 10
49.7840
 20
-25.4000
 30
0.0000
  0
SEQEND
  8
0
  0
POLYLINE
  8
20
 66
1
 10
0.0000
 20
0.0000
 30
0.0000
 40
0.0127
 41
0.0127
 70
0
  0
VERTEX
  8
20
 10
49.7777
 20
-25.4000
 30
0.0000
 42
1.0000
  0
VERTEX
  8
20
 10
49.7903
 20
-25.4000
 30
0.0000
  0
SEQEND
  8
0
  0
POLYLINE
  8
20
 66
1
 10
0.0000
 20
0.0000
 30
0.0000
 40
0.0127
 41
0.0127
 70
0
  0
VERTEX
  8
20
 10
49.7903
 20
-24.8920
 30
0.0000
 42
1.0000
  0
VERTEX
  8
20
 10
49.7777
 20
-24.8920
 30
0.0000
  0
SEQEND
  8
0
  0
POLYLINE
  8
20
 66
1
 10
0.0000
 20
0.0000
 30
0.0000
 40
0.7620
 41
0.7620
 70
0
  0
VERTEX
  8
20
 10
48.0060
 20
-34.5440
 30
0.0000
  0
VERTEX
  8
20
 10
46.7360
 20
-34.5440
 30
0.0000
  0
SEQEND
  8
0
  0
POLYLINE
  8
20
 66
1
 10
0.0000
 20
0.0000
 30
0.0000
 40
0.3810
 41
0.3810
 70
0
  0
VERTEX
  8
20
 10
46.7360
 20
-34.3535
 30
0.0000
 42
1.0000
  0
VERTEX
  8
20
 10
46.7360
 20
-34.7345
 30
0.0000
  0
SEQEND
  8
0
  0
POLYLINE
  8
20
 66
1
 10
0.0000
 20
0.0000
 30
0.0000
 40
0.3810
 41
0.3810
 70
0
  0
VERTEX
  8
20
 10
48.0060
 20
-34.7345
 30
0.0000
 42
1.0000
  0
VERTEX
  8
20
 10
48.0060
 20
-34.3535
 30
0.0000
  0
SEQEND
  8
0
  0
POLYLINE
  8
20
 66
1
 10
0.0000
 20
0.0000
 30
0.0000
 40
0.7620
 41
0.7620
 70
0
  0
VERTEX
  8
20
 10
48.7680
 20
-32.7660
 30
0.0000
  0
VERTEX
  8
20
 10
48.7680
 20
-29.7180
 30
0.0000
  0
SEQEND
  8
0
  0
POLYLINE
  8
20
 66
1
 10
0.0000
 20
0.0000
 30
0.0000
 40
0.3810
 41
0.3810
 70
0
  0
VERTEX
  8
20
 10
48.9585
 20
-29.7180
 30
0.0000
 42
1.0000
  0
VERTEX
  8
20
 10
48.5775
 20
-29.7180
 30
0.0000
  0
SEQEND
  8
0
  0
POLYLINE
  8
20
 66
1
 10
0.0000
 20
0.0000
 30
0.0000
 40
0.3810
 41
0.3810
 70
0
  0
VERTEX
  8
20
 10
48.5775
 20
-32.7660
 30
0.0000
 42
1.0000
  0
VERTEX
  8
20
 10
48.9585
 20
-32.7660
 30
0.0000
  0
SEQEND
  8
0
  0
POLYLINE
  8
20
 66
1
 10
0.0000
 20
0.0000
 30
0.0000
 40
0.7620
 41
0.7620
 70
0
  0
VERTEX
  8
20
 10
48.7680
 20
-28.1940
 30
0.0000
  0
VERTEX
  8
20
 10
48.7680
 20
-25.6540
 30
0.0000
  0
SEQEND
  8
0
  0
POLYLINE
  8
20
 66
1
 10
0.0000
 20
0.0000
 30
0.0000
 40
0.3810
 41
0.3810
 70
0
  0
VERTEX
  8
20
 10
48.9585
 20
-25.6540
 30
0.0000
 42
1.0000
  0
VERTEX
  8
20
 10
48.5775
 20
-25.6540
 30
0.0000
  0
SEQEND
  8
0
  0
POLYLINE
  8
20
 66
1
 10
0.0000
 20
0.0000
 30
0.0000
 40
0.3810
 41
0.3810
 70
0
  0
VERTEX
  8
20
 10
48.5775
 20
-28.1940
 30
0.0000
 42
1.0000
  0
VERTEX
  8
20
 10
48.9585
 20
-28.1940
 30
0.0000
  0
SEQEND
  8
0
  0
POLYLINE
  8
20
 66
1
 10
0.0000
 20
0.0000
 30
0.0000
 40
0.7620
 41
0.7620
 70
0
  0
VERTEX
  8
20
 10
-33.7820
 20
-26.9240
 30
0.0000
  0
VERTEX
  8
20
 10
-33.7820
 20
-31.2420
 30
0.0000
  0
SEQEND
  8
0
  0
POLYLINE
  8
20
 66
1
 10
0.0000
 20
0.0000
 30
0.0000
 40
0.3810
 41
0.3810
 70
0
  0
VERTEX
  8
20
 10
-33.9725
 20
-31.2420
 30
0.0000
 42
1.0000
  0
VERTEX
  8
20
 10
-33.5915
 20
-31.2420
 30
0.0000
  0
SEQEND
  8
0
  0
POLYLINE
  8
20
 66
1
 10
0.0000
 20
0.0000
 30
0.0000
 40
0.3810
 41
0.3810
 70
0
  0
VERTEX
  8
20
 10
-33.5915
 20
-26.9240
 30
0.0000
 42
1.0000
  0
VERTEX
  8
20
 10
-33.9725
 20
-26.9240
 30
0.0000
  0
SEQEND
  8
0
  0
POLYLINE
  8
20
 66
1
 10
0.0000
 20
0.0000
 30
0.0000
 40
0.7620
 41
0.7620
 70
0
  0
VERTEX
  8
20
 10
-33.7820
 20
-33.0200
 30
0.0000
  0
VERTEX
  8
20
 10
-33.7820
 20
-37.3380
 30
0.0000
  0
SEQEND
  8
0
  0
POLYLINE
  8
20
 66
1
 10
0.0000
 20
0.0000
 30
0.0000
 40
0.3810
 41
0.3810
 70
0
  0
VERTEX
  8
20
 10
-33.9725
 20
-37.3380
 30
0.0000
 42
1.0000
  0
VERTEX
  8
20
 10
-33.5915
 20
-37.3380
 30
0.0000
  0
SEQEND
  8
0
  0
POLYLINE
  8
20
 66
1
 10
0.0000
 20
0.0000
 30
0.0000
 40
0.3810
 41
0.3810
 70
0
  0
VERTEX
  8
20
 10
-33.5915
 20
-33.0200
 30
0.0000
 42
1.0000
  0
VERTEX
  8
20
 10
-33.9725
 20
-33.0200
 30
0.0000
  0
SEQEND
  8
0
  0
POLYLINE
  8
20
 66
1
 10
0.0000
 20
0.0000
 30
0.0000
 40
0.7620
 41
0.7620
 70
0
  0
VERTEX
  8
20
 10
-33.7820
 20
-39.1160
 30
0.0000
  0
VERTEX
  8
20
 10
-33.7820
 20
-43.4340
 30
0.0000
  0
SEQEND
  8
0
  0
POLYLINE
  8
20
 66
1
 10
0.0000
 20
0.0000
 30
0.0000
 40
0.3810
 41
0.3810
 70
0
  0
VERTEX
  8
20
 10
-33.9725
 20
-43.4340
 30
0.0000
 42
1.0000
  0
VERTEX
  8
20
 10
-33.5915
 20
-43.4340
 30
0.0000
  0
SEQEND
  8
0
  0
POLYLINE
  8
20
 66
1
 10
0.0000
 20
0.0000
 30
0.0000
 40
0.3810
 41
0.3810
 70
0
  0
VERTEX
  8
20
 10
-33.5915
 20
-39.1160
 30
0.0000
 42
1.0000
  0
VERTEX
  8
20
 10
-33.9725
 20
-39.1160
 30
0.0000
  0
SEQEND
  8
0
  0
POLYLINE
  8
20
 66
1
 10
0.0000
 20
0.0000
 30
0.0000
 40
0.7620
 41
0.7620
 70
0
  0
VERTEX
  8
20
 10
-33.2740
 20
-45.2120
 30
0.0000
  0
VERTEX
  8
20
 10
-30.2260
 20
-48.0060
 30
0.0000
  0
SEQEND
  8
0
  0
POLYLINE
  8
20
 66
1
 10
0.0000
 20
0.0000
 30
0.0000
 40
0.3810
 41
0.3810
 70
0
  0
VERTEX
  8
20
 10
-30.3547
 20
-48.1464
 30
0.0000
 42
1.0000
  0
VERTEX
  8
20
 10
-30.0973
 20
-47.8656
 30
0.0000
  0
SEQEND
  8
0
  0
POLYLINE
  8
20
 66
1
 10
0.0000
 20
0.0000
 30
0.0000
 40
0.3810
 41
0.3810
 70
0
  0
VERTEX
  8
20
 10
-33.1453
 20
-45.0716
 30
0.0000
 42
1.0000
  0
VERTEX
  8
20
 10
-33.4027
 20
-45.3524
 30
0.0000
  0
SEQEND
  8
0
  0
POLYLINE
  8
20
 66
1
 10
0.0000
 20
0.0000
 30
0.0000
 40
0.7620
 41
0.7620
 70
0
  0
VERTEX
  8
20
 10
-30.2260
 20
-48.0060
 30
0.0000
  0
VERTEX
  8
20
 10
-29.2100
 20
-48.0060
 30
0.0000
  0
SEQEND
  8
0
  0
POLYLINE
  8
20
 66
1
 10
0.0000
 20
0.0000
 30
0.0000
 40
0.3810
 41
0.3810
 70
0
  0
VERTEX
  8
20
 10
-29.2100
 20
-48.1965
 30
0.0000
 42
1.0000
  0
VERTEX
  8
20
 10
-29.2100
 20
-47.8155
 30
0.0000
  0
SEQEND
  8
0
  0
POLYLINE
  8
20
 66
1
 10
0.0000
 20
0.0000
 30
0.0000
 40
0.3810
 41
0.3810
 70
0
  0
VERTEX
  8
20
 10
-30.2260
 20
-47.8155
 30
0.0000
 42
1.0000
  0
VERTEX
  8
20
 10
-30.2260
 20
-48.1965
 30
0.0000
  0
SEQEND
  8
0
  0
POLYLINE
  8
20
 66
1
 10
0.0000
 20
0.0000
 30
0.0000
 40
0.0254
 41
0.0254
 70
0
  0
VERTEX
  8
20
 10
-39.3700
 20
-11.1760
 30
0.0000
  0
VERTEX
  8
20
 10
69.3420
 20
-11.1760
 30
0.0000
  0
SEQEND
  8
0
  0
POLYLINE
  8
20
 66
1
 10
0.0000
 20
0.0000
 30
0.0000
 40
0.0127
 41
0.0127
 70
0
  0
VERTEX
  8
20
 10
69.3420
 20
-11.1823
 30
0.0000
 42
1.0000
  0
VERTEX
  8
20
 10
69.3420
 20
-11.1697
 30
0.0000
  0
SEQEND
  8
0
  0
POLYLINE
  8
20
 66
1
 10
0.0000
 20
0.0000
 30
0.0000
 40
0.0127
 41
0.0127
 70
0
  0
VERTEX
  8
20
 10
-39.3700
 20
-11.1697
 30
0.0000
 42
1.0000
  0
VERTEX
  8
20
 10
-39.3700
 20
-11.1823
 30
0.0000
  0
SEQEND
  8
0
  0
POLYLINE
  8
20
 66
1
 10
0.0000
 20
0.0000
 30
0.0000
 40
0.0254
 41
0.0254
 70
0
  0
VERTEX
  8
20
 10
69.3420
 20
-11.1760
 30
0.0000
  0
VERTEX
  8
20
 10
69.3420
 20
5.0800
 30
0.0000
  0
SEQEND
  8
0
  0
POLYLINE
  8
20
 66
1
 10
0.0000
 20
0.0000
 30
0.0000
 40
0.0127
 41
0.0127
 70
0
  0
VERTEX
  8
20
 10
69.3483
 20
5.0800
 30
0.0000
 42
1.0000
  0
VERTEX
  8
20
 10
69.3357
 20
5.0800
 30
0.0000
  0
SEQEND
  8
0
  0
POLYLINE
  8
20
 66
1
 10
0.0000
 20
0.0000
 30
0.0000
 40
0.0127
 41
0.0127
 70
0
  0
VERTEX
  8
20
 10
69.3357
 20
-11.1760
 30
0.0000
 42
1.0000
  0
VERTEX
  8
20
 10
69.3483
 20
-11.1760
 30
0.0000
  0
SEQEND
  8
0
  0
POLYLINE
  8
20
 66
1
 10
0.0000
 20
0.0000
 30
0.0000
 40
0.0254
 41
0.0254
 70
0
  0
VERTEX
  8
20
 10
69.3420
 20
5.0800
 30
0.0000
  0
VERTEX
  8
20
 10
-39.3700
 20
5.0800
 30
0.0000
  0
SEQEND
  8
0
  0
POLYLINE
  8
20
 66
1
 10
0.0000
 20
0.0000
 30
0.0000
 40
0.0127
 41
0.0127
 70
0
  0
VERTEX
  8
20
 10
-39.3700
 20
5.0864
 30
0.0000
 42
1.0000
  0
VERTEX
  8
20
 10
-39.3700
 20
5.0736
 30
0.0000
  0
SEQEND
  8
0
  0
POLYLINE
  8
20
 66
1
 10
0.0000
 20
0.0000
 30
0.0000
 40
0.0127
 41
0.0127
 70
0
  0
VERTEX
  8
20
 10
69.3420
 20
5.0736
 30
0.0000
 42
1.0000
  0
VERTEX
  8
20
 10
69.3420
 20
5.0864
 30
0.0000
  0
SEQEND
  8
0
  0
POLYLINE
  8
20
 66
1
 10
0.0000
 20
0.0000
 30
0.0000
 40
0.0254
 41
0.0254
 70
0
  0
VERTEX
  8
20
 10
-39.3700
 20
5.0800
 30
0.0000
  0
VERTEX
  8
20
 10
-39.3700
 20
-11.1760
 30
0.0000
  0
SEQEND
  8
0
  0
POLYLINE
  8
20
 66
1
 10
0.0000
 20
0.0000
 30
0.0000
 40
0.0127
 41
0.0127
 70
0
  0
VERTEX
  8
20
 10
-39.3764
 20
-11.1760
 30
0.0000
 42
1.0000
  0
VERTEX
  8
20
 10
-39.3637
 20
-11.1760
 30
0.0000
  0
SEQEND
  8
0
  0
POLYLINE
  8
20
 66
1
 10
0.0000
 20
0.0000
 30
0.0000
 40
0.0127
 41
0.0127
 70
0
  0
VERTEX
  8
20
 10
-39.3637
 20
5.0800
 30
0.0000
 42
1.0000
  0
VERTEX
  8
20
 10
-39.3764
 20
5.0800
 30
0.0000
  0
SEQEND
  8
0
  0
POLYLINE
  8
20
 66
1
 10
0.0000
 20
0.0000
 30
0.0000
 40
0.0254
 41
0.0254
 70
0
  0
VERTEX
  8
20
 10
55.3720
 20
-13.4620
 30
0.0000
  0
VERTEX
  8
20
 10
55.3720
 20
-56.1340
 30
0.0000
  0
SEQEND
  8
0
  0
POLYLINE
  8
20
 66
1
 10
0.0000
 20
0.0000
 30
0.0000
 40
0.0127
 41
0.0127
 70
0
  0
VERTEX
  8
20
 10
55.3657
 20
-56.1340
 30
0.0000
 42
1.0000
  0
VERTEX
  8
20
 10
55.3783
 20
-56.1340
 30
0.0000
  0
SEQEND
  8
0
  0
POLYLINE
  8
20
 66
1
 10
0.0000
 20
0.0000
 30
0.0000
 40
0.0127
 41
0.0127
 70
0
  0
VERTEX
  8
20
 10
55.3783
 20
-13.4620
 30
0.0000
 42
1.0000
  0
VERTEX
  8
20
 10
55.3657
 20
-13.4620
 30
0.0000
  0
SEQEND
  8
0
  0
POLYLINE
  8
20
 66
1
 10
0.0000
 20
0.0000
 30
0.0000
 40
0.0254
 41
0.0254
 70
0
  0
VERTEX
  8
20
 10
55.3720
 20
-56.1340
 30
0.0000
  0
VERTEX
  8
20
 10
69.3420
 20
-56.1340
 30
0.0000
  0
SEQEND
  8
0
  0
POLYLINE
  8
20
 66
1
 10
0.0000
 20
0.0000
 30
0.0000
 40
0.0127
 41
0.0127
 70
0
  0
VERTEX
  8
20
 10
69.3420
 20
-56.1403
 30
0.0000
 42
1.0000
  0
VERTEX
  8
20
 10
69.3420
 20
-56.1277
 30
0.0000
  0
SEQEND
  8
0
  0
POLYLINE
  8
20
 66
1
 10
0.0000
 20
0.0000
 30
0.0000
 40
0.0127
 41
0.0127
 70
0
  0
VERTEX
  8
20
 10
55.3720
 20
-56.1277
 30
0.0000
 42
1.0000
  0
VERTEX
  8
20
 10
55.3720
 20
-56.1403
 30
0.0000
  0
SEQEND
  8
0
  0
POLYLINE
  8
20
 66
1
 10
0.0000
 20
0.0000
 30
0.0000
 40
0.0254
 41
0.0254
 70
0
  0
VERTEX
  8
20
 10
69.3420
 20
-56.1340
 30
0.0000
  0
VERTEX
  8
20
 10
69.3420
 20
-13.4620
 30
0.0000
  0
SEQEND
  8
0
  0
POLYLINE
  8
20
 66
1
 10
0.0000
 20
0.0000
 30
0.0000
 40
0.0127
 41
0.0127
 70
0
  0
VERTEX
  8
20
 10
69.3483
 20
-13.4620
 30
0.0000
 42
1.0000
  0
VERTEX
  8
20
 10
69.3357
 20
-13.4620
 30
0.0000
  0
SEQEND
  8
0
  0
POLYLINE
  8
20
 66
1
 10
0.0000
 20
0.0000
 30
0.0000
 40
0.0127
 41
0.0127
 70
0
  0
VERTEX
  8
20
 10
69.3357
 20
-56.1340
 30
0.0000
 42
1.0000
  0
VERTEX
  8
20
 10
69.3483
 20
-56.1340
 30
0.0000
  0
SEQEND
  8
0
  0
POLYLINE
  8
20
 66
1
 10
0.0000
 20
0.0000
 30
0.0000
 40
0.0254
 41
0.0254
 70
0
  0
VERTEX
  8
20
 10
69.3420
 20
-13.4620
 30
0.0000
  0
VERTEX
  8
20
 10
55.3720
 20
-13.4620
 30
0.0000
  0
SEQEND
  8
0
  0
POLYLINE
  8
20
 66
1
 10
0.0000
 20
0.0000
 30
0.0000
 40
0.0127
 41
0.0127
 70
0
  0
VERTEX
  8
20
 10
55.3720
 20
-13.4557
 30
0.0000
 42
1.0000
  0
VERTEX
  8
20
 10
55.3720
 20
-13.4684
 30
0.0000
  0
SEQEND
  8
0
  0
POLYLINE
  8
20
 66
1
 10
0.0000
 20
0.0000
 30
0.0000
 40
0.0127
 41
0.0127
 70
0
  0
VERTEX
  8
20
 10
69.3420
 20
-13.4684
 30
0.0000
 42
1.0000
  0
VERTEX
  8
20
 10
69.3420
 20
-13.4557
 30
0.0000
  0
SEQEND
  8
0
  0
POLYLINE
  8
20
 66
1
 10
0.0000
 20
0.0000
 30
0.0000
 40
0.9000
 41
0.9000
 70
0
  0
VERTEX
  8
20
 10
43.8508
 20
-19.2110
 30
0.0000
  0
VERTEX
  8
20
 10
42.8508
 20
-19.2110
 30
0.0000
  0
SEQEND
  8
0
  0
POLYLINE
  8
20
 66
1
 10
0.0000
 20
0.0000
 30
0.0000
 40
0.4500
 41
0.4500
 70
0
  0
VERTEX
  8
20
 10
42.8508
 20
-18.9860
 30
0.0000
 42
1.0000
  0
VERTEX
  8
20
 10
42.8508
 20
-19.4360
 30
0.0000
  0
SEQEND
  8
0
  0
POLYLINE
  8
20
 66
1
 10
0.0000
 20
0.0000
 30
0.0000
 40
0.4500
 41
0.4500
 70
0
  0
VERTEX
  8
20
 10
43.8508
 20
-19.4360
 30
0.0000
 42
1.0000
  0
VERTEX
  8
20
 10
43.8508
 20
-18.9860
 30
0.0000
  0
SEQEND
  8
0
  0
CIRCLE
  8
20
 10
32.9508
 20
-19.2110
 30
0.0000
 40
0.4500
  0
POLYLINE
  8
20
 66
1
 10
0.0000
 20
0.0000
 30
0.0000
 40
0.9000
 41
0.9000
 70
0
  0
VERTEX
  8
20
 10
0.4656
 20
-50.3850
 30
0.0000
  0
VERTEX
  8
20
 10
1.4656
 20
-50.3850
 30
0.0000
  0
SEQEND
  8
0
  0
POLYLINE
  8
20
 66
1
 10
0.0000
 20
0.0000
 30
0.0000
 40
0.4500
 41
0.4500
 70
0
  0
VERTEX
  8
20
 10
1.4656
 20
-50.6100
 30
0.0000
 42
1.0000
  0
VERTEX
  8
20
 10
1.4656
 20
-50.1600
 30
0.0000
  0
SEQEND
  8
0
  0
POLYLINE
  8
20
 66
1
 10
0.0000
 20
0.0000
 30
0.0000
 40
0.4500
 41
0.4500
 70
0
  0
VERTEX
  8
20
 10
0.4656
 20
-50.1600
 30
0.0000
 42
1.0000
  0
VERTEX
  8
20
 10
0.4656
 20
-50.6100
 30
0.0000
  0
SEQEND
  8
0
  0
CIRCLE
  8
20
 10
7.3656
 20
-50.3850
 30
0.0000
 40
0.4500
  0
POLYLINE
  8
20
 66
1
 10
0.0000
 20
0.0000
 30
0.0000
 40
0.9000
 41
0.9000
 70
0
  0
VERTEX
  8
20
 10
4.5182
 20
-34.4458
 30
0.0000
  0
VERTEX
  8
20
 10
5.0182
 20
-35.3118
 30
0.0000
  0
SEQEND
  8
0
  0
POLYLINE
  8
20
 66
1
 10
0.0000
 20
0.0000
 30
0.0000
 40
0.4500
 41
0.4500
 70
0
  0
VERTEX
  8
20
 10
4.8234
 20
-35.4243
 30
0.0000
 42
1.0000
  0
VERTEX
  8
20
 10
5.2131
 20
-35.1993
 30
0.0000
  0
SEQEND
  8
0
  0
POLYLINE
  8
20
 66
1
 10
0.0000
 20
0.0000
 30
0.0000
 40
0.4500
 41
0.4500
 70
0
  0
VERTEX
  8
20
 10
4.7131
 20
-34.3333
 30
0.0000
 42
1.0000
  0
VERTEX
  8
20
 10
4.3234
 20
-34.5583
 30
0.0000
  0
SEQEND
  8
0
  0
CIRCLE
  8
20
 10
8.9682
 20
-42.1534
 30
0.0000
 40
0.4500
  0
POLYLINE
  8
20
 66
1
 10
0.0000
 20
0.0000
 30
0.0000
 40
0.9000
 41
0.9000
 70
0
  0
VERTEX
  8
20
 10
2.4720
 20
-38.4153
 30
0.0000
  0
VERTEX
  8
20
 10
2.9720
 20
-39.2813
 30
0.0000
  0
SEQEND
  8
0
  0
POLYLINE
  8
20
 66
1
 10
0.0000
 20
0.0000
 30
0.0000
 40
0.4500
 41
0.4500
 70
0
  0
VERTEX
  8
20
 10
2.7771
 20
-39.3938
 30
0.0000
 42
1.0000
  0
VERTEX
  8
20
 10
3.1668
 20
-39.1688
 30
0.0000
  0
SEQEND
  8
0
  0
POLYLINE
  8
20
 66
1
 10
0.0000
 20
0.0000
 30
0.0000
 40
0.4500
 41
0.4500
 70
0
  0
VERTEX
  8
20
 10
2.6668
 20
-38.3028
 30
0.0000
 42
1.0000
  0
VERTEX
  8
20
 10
2.2771
 20
-38.5278
 30
0.0000
  0
SEQEND
  8
0
  0
CIRCLE
  8
20
 10
6.9220
 20
-46.1229
 30
0.0000
 40
0.4500
  0
ENDSEC
  0
EOF
