  0
SECTION
  2
HEADER
  9
$ACADVER
  1
AC1009
  9
$FILLMODE
 70
0
  9
$EXTMIN
 10
-63.5125
 20
-57.2262
 30
0.0000
  9
$EXTMAX
 10
63.5127
 20
55.8925
 30
0.0000
  0
ENDSEC
  0
SECTION
  2
TABLES
  0
TABLE
  2
LTYPE
 70
1
  0
LTYPE
  2
CONTINUOUS
 70
64
  3
Solid line
 72
65
 73
0
 40
0
  0
ENDTAB
  0
TABLE
  2
LAYER
 70
255
  0
LAYER
  2
49
 70
64
 62
253
  6
CONTINUOUS
  0
ENDTAB
  0
ENDSEC
  0
SECTION
  2
BLOCKS
  0
BLOCK
  8
0
  2
RECT
 70
64
 10
0.0000
 20
0.0000
 30
0.0000
  3
RECT
  0
SOLID
  8
0
 10
-0.5000
 20
-0.5000
 30
0.0000
 11
0.5000
 21
-0.5000
 31
0.0000
 12
-0.5000
 22
0.5000
 32
0.0000
 13
0.5000
 23
0.5000
 33
0.0000
  0
ENDBLK
  8
0
  0
BLOCK
  8
0
  2
PIE
 70
64
 10
0.0000
 20
0.0000
 30
0.0000
  3
PIE
  0
CIRCLE
  8
0
 10
0.0000
 20
0.0000
 30
0.0000
 40
0.5000
  0
ENDBLK
  8
0
  0
BLOCK
  8
0
  2
OCTAGONP
 70
64
 10
0.0000
 20
0.0000
 30
0.0000
  3
OCTAGONP
  0
POLYLINE
  8
0
 66
1
 10
0.0000
 20
0.0000
 30
0.0000
 40
0.0000
 41
0.0000
 70
1
  0
VERTEX
  8
0
 10
-0.5000
 20
-0.2071
 30
0.0000
  0
VERTEX
  8
0
 10
-0.5000
 20
0.2071
 30
0.0000
  0
VERTEX
  8
0
 10
-0.2071
 20
0.5000
 30
0.0000
  0
VERTEX
  8
0
 10
0.2071
 20
0.5000
 30
0.0000
  0
VERTEX
  8
0
 10
0.5000
 20
0.2071
 30
0.0000
  0
VERTEX
  8
0
 10
0.5000
 20
-0.2071
 30
0.0000
  0
VERTEX
  8
0
 10
0.2071
 20
-0.5000
 30
0.0000
  0
VERTEX
  8
0
 10
-0.2071
 20
-0.5000
 30
0.0000
  0
SEQEND
  8
0
  0
ENDBLK
  8
0
  0
BLOCK
  8
0
  2
SQUAREP
 70
64
 10
0.0000
 20
0.0000
 30
0.0000
  3
SQUAREP
  0
SOLID
  8
0
 10
-0.5000
 20
-0.5000
 30
0.0000
 11
0.5000
 21
-0.5000
 31
0.0000
 12
-0.5000
 22
0.5000
 32
0.0000
 13
0.5000
 23
0.5000
 33
0.0000
  0
ENDBLK
  8
0
  0
BLOCK
  8
0
  2
ROUNDP
 70
64
 10
0.0000
 20
0.0000
 30
0.0000
  3
ROUNDP
  0
CIRCLE
  8
0
 10
0.0000
 20
0.0000
 30
0.0000
 40
0.5000
  0
ENDBLK
  8
0
  0
BLOCK
  8
0
  2
ANNULUSP
 70
64
 10
0.0000
 20
0.0000
 30
0.0000
  3
ANNULUSP
  0
CIRCLE
  8
0
 10
0.0000
 20
0.0000
 30
0.0000
 40
0.5000
  0
ENDBLK
  8
0
  0
BLOCK
  8
0
  2
THERMALP
 70
64
 10
0.0000
 20
0.0000
 30
0.0000
  3
THERMALP
  0
LINE
  8
0
 10
-0.2379
 20
0.4500
 30
0.0000
 11
0.2379
 21
0.4500
 31
0.0000
  0
LINE
  8
0
 10
0.4500
 20
0.2379
 30
0.0000
 11
0.4500
 21
-0.2379
 31
0.0000
  0
LINE
  8
0
 10
0.2379
 20
-0.4500
 30
0.0000
 11
-0.2379
 21
-0.4500
 31
0.0000
  0
LINE
  8
0
 10
-0.4500
 20
-0.2379
 30
0.0000
 11
-0.4500
 21
0.2379
 31
0.0000
  0
ENDBLK
  8
0
  0
BLOCK
  8
0
  2
OCTAGONV
 70
64
 10
0.0000
 20
0.0000
 30
0.0000
  3
OCTAGONV
  0
POLYLINE
  8
0
 66
1
 10
0.0000
 20
0.0000
 30
0.0000
 40
0.0000
 41
0.0000
 70
1
  0
VERTEX
  8
0
 10
-0.5000
 20
-0.2071
 30
0.0000
  0
VERTEX
  8
0
 10
-0.5000
 20
0.2071
 30
0.0000
  0
VERTEX
  8
0
 10
-0.2071
 20
0.5000
 30
0.0000
  0
VERTEX
  8
0
 10
0.2071
 20
0.5000
 30
0.0000
  0
VERTEX
  8
0
 10
0.5000
 20
0.2071
 30
0.0000
  0
VERTEX
  8
0
 10
0.5000
 20
-0.2071
 30
0.0000
  0
VERTEX
  8
0
 10
0.2071
 20
-0.5000
 30
0.0000
  0
VERTEX
  8
0
 10
-0.2071
 20
-0.5000
 30
0.0000
  0
SEQEND
  8
0
  0
ENDBLK
  8
0
  0
BLOCK
  8
0
  2
SQUAREV
 70
64
 10
0.0000
 20
0.0000
 30
0.0000
  3
SQUAREV
  0
SOLID
  8
0
 10
-0.5000
 20
-0.5000
 30
0.0000
 11
0.5000
 21
-0.5000
 31
0.0000
 12
-0.5000
 22
0.5000
 32
0.0000
 13
0.5000
 23
0.5000
 33
0.0000
  0
ENDBLK
  8
0
  0
BLOCK
  8
0
  2
ROUNDV
 70
64
 10
0.0000
 20
0.0000
 30
0.0000
  3
ROUNDV
  0
CIRCLE
  8
0
 10
0.0000
 20
0.0000
 30
0.0000
 40
0.5000
  0
ENDBLK
  8
0
  0
BLOCK
  8
0
  2
ANNULUSV
 70
64
 10
0.0000
 20
0.0000
 30
0.0000
  3
ANNULUSV
  0
CIRCLE
  8
0
 10
0.0000
 20
0.0000
 30
0.0000
 40
0.5000
  0
ENDBLK
  8
0
  0
BLOCK
  8
0
  2
THERMALV
 70
64
 10
0.0000
 20
0.0000
 30
0.0000
  3
THERMALV
  0
LINE
  8
0
 10
-0.2379
 20
0.4500
 30
0.0000
 11
0.2379
 21
0.4500
 31
0.0000
  0
LINE
  8
0
 10
0.4500
 20
0.2379
 30
0.0000
 11
0.4500
 21
-0.2379
 31
0.0000
  0
LINE
  8
0
 10
0.2379
 20
-0.4500
 30
0.0000
 11
-0.2379
 21
-0.4500
 31
0.0000
  0
LINE
  8
0
 10
-0.4500
 20
-0.2379
 30
0.0000
 11
-0.4500
 21
0.2379
 31
0.0000
  0
ENDBLK
  8
0
  0
BLOCK
  8
0
  2
LONGP100
 70
64
 10
0.0000
 20
0.0000
 30
0.0000
  3
LONGP100
  0
POLYLINE
  8
0
 66
1
 10
0.0000
 20
0.0000
 30
0.0000
 40
0.0000
 41
0.0000
 70
1
  0
VERTEX
  8
0
 10
-0.5000
 20
-0.5000
 30
0.0000
  0
VERTEX
  8
0
 10
0.5000
 20
-0.5000
 30
0.0000
 42
1.0000
  0
VERTEX
  8
0
 10
0.5000
 20
0.5000
 30
0.0000
  0
VERTEX
  8
0
 10
-0.5000
 20
0.5000
 30
0.0000
 42
1.0000
  0
SEQEND
  8
0
  0
ENDBLK
  8
0
  0
ENDSEC
  0
SECTION
  2
ENTITIES
  0
LINE
  8
49
 10
-26.4160
 20
-21.8440
 30
0.0000
 11
-29.2100
 21
-21.8440
 31
0.0000
  0
LINE
  8
49
 10
-29.2100
 20
-21.8440
 30
0.0000
 11
-30.2260
 21
-22.8600
 31
0.0000
  0
LINE
  8
49
 10
-30.2260
 20
-22.8600
 30
0.0000
 11
-30.2260
 21
-26.4160
 31
0.0000
  0
LINE
  8
49
 10
-30.2260
 20
-26.4160
 30
0.0000
 11
-27.1780
 21
-29.4640
 31
0.0000
  0
LINE
  8
49
 10
-27.1780
 20
-29.4640
 30
0.0000
 11
-27.1780
 21
-33.0200
 31
0.0000
  0
LINE
  8
49
 10
-27.1780
 20
-33.0200
 30
0.0000
 11
-30.2260
 21
-36.0680
 31
0.0000
  0
LINE
  8
49
 10
-30.2260
 20
-36.0680
 30
0.0000
 11
-30.2260
 21
-43.4340
 31
0.0000
  0
LINE
  8
49
 10
-30.2260
 20
-43.4340
 30
0.0000
 11
-27.4320
 21
-46.2280
 31
0.0000
  0
LINE
  8
49
 10
-27.4320
 20
-46.2280
 30
0.0000
 11
-27.4320
 21
-51.8160
 31
0.0000
  0
LINE
  8
49
 10
-27.4320
 20
-51.8160
 30
0.0000
 11
-26.4160
 21
-52.8320
 31
0.0000
  0
LINE
  8
49
 10
-26.4160
 20
-52.8320
 30
0.0000
 11
-17.0180
 21
-52.8320
 31
0.0000
  0
LINE
  8
49
 10
-17.0180
 20
-52.8320
 30
0.0000
 11
-16.2560
 21
-53.5940
 31
0.0000
  0
LINE
  8
49
 10
-16.2560
 20
-53.5940
 30
0.0000
 11
-2.7940
 21
-53.5940
 31
0.0000
  0
LINE
  8
49
 10
-2.7940
 20
-53.5940
 30
0.0000
 11
-2.0320
 21
-54.3560
 31
0.0000
  0
LINE
  8
49
 10
-2.0320
 20
-54.3560
 30
0.0000
 11
-2.0320
 21
-55.6260
 31
0.0000
  0
LINE
  8
49
 10
-2.0320
 20
-55.6260
 30
0.0000
 11
-0.5080
 21
-57.1500
 31
0.0000
  0
LINE
  8
49
 10
-0.5080
 20
-57.1500
 30
0.0000
 11
9.1440
 21
-57.1500
 31
0.0000
  0
LINE
  8
49
 10
9.1440
 20
-57.1500
 30
0.0000
 11
10.1600
 21
-56.1340
 31
0.0000
  0
LINE
  8
49
 10
10.1600
 20
-56.1340
 30
0.0000
 11
10.1600
 21
-48.7680
 31
0.0000
  0
LINE
  8
49
 10
10.1600
 20
-48.7680
 30
0.0000
 11
11.1760
 21
-47.7520
 31
0.0000
  0
LINE
  8
49
 10
11.1760
 20
-47.7520
 30
0.0000
 11
11.1760
 21
-46.9900
 31
0.0000
  0
LINE
  8
49
 10
11.1760
 20
-46.9900
 30
0.0000
 11
21.5900
 21
-46.9900
 31
0.0000
  0
LINE
  8
49
 10
21.5900
 20
-46.9900
 30
0.0000
 11
27.4320
 21
-41.1480
 31
0.0000
  0
LINE
  8
49
 10
27.4320
 20
-41.1480
 30
0.0000
 11
29.4640
 21
-41.1480
 31
0.0000
  0
LINE
  8
49
 10
29.4640
 20
-41.1480
 30
0.0000
 11
29.7180
 21
-40.8940
 31
0.0000
  0
LINE
  8
49
 10
29.7180
 20
-40.8940
 30
0.0000
 11
31.4960
 21
-40.8940
 31
0.0000
  0
LINE
  8
49
 10
31.4960
 20
-40.8940
 30
0.0000
 11
36.0680
 21
-45.4660
 31
0.0000
  0
LINE
  8
49
 10
36.0680
 20
-45.4660
 30
0.0000
 11
38.1000
 21
-45.4660
 31
0.0000
  0
LINE
  8
49
 10
38.1000
 20
-45.4660
 30
0.0000
 11
44.4500
 21
-39.1160
 31
0.0000
  0
LINE
  8
49
 10
44.4500
 20
-39.1160
 30
0.0000
 11
44.7040
 21
-39.1160
 31
0.0000
  0
LINE
  8
49
 10
44.7040
 20
-39.1160
 30
0.0000
 11
49.0220
 21
-34.7980
 31
0.0000
  0
LINE
  8
49
 10
49.0220
 20
-34.7980
 30
0.0000
 11
49.0220
 21
-12.7000
 31
0.0000
  0
LINE
  8
49
 10
49.0220
 20
-12.7000
 30
0.0000
 11
30.9880
 21
-12.7000
 31
0.0000
  0
LINE
  8
49
 10
30.9880
 20
-12.7000
 30
0.0000
 11
30.2260
 21
-13.4620
 31
0.0000
  0
LINE
  8
49
 10
30.2260
 20
-13.4620
 30
0.0000
 11
30.2260
 21
-19.3040
 31
0.0000
  0
LINE
  8
49
 10
30.2260
 20
-19.3040
 30
0.0000
 11
28.9560
 21
-20.5740
 31
0.0000
  0
LINE
  8
49
 10
28.9560
 20
-20.5740
 30
0.0000
 11
27.4320
 21
-20.5740
 31
0.0000
  0
LINE
  8
49
 10
27.4320
 20
-20.5740
 30
0.0000
 11
26.6700
 21
-21.3360
 31
0.0000
  0
LINE
  8
49
 10
26.6700
 20
-21.3360
 30
0.0000
 11
23.8760
 21
-21.3360
 31
0.0000
  0
LINE
  8
49
 10
23.8760
 20
-21.3360
 30
0.0000
 11
23.8760
 21
-20.5740
 31
0.0000
  0
LINE
  8
49
 10
23.8760
 20
-20.5740
 30
0.0000
 11
21.3360
 21
-18.0340
 31
0.0000
  0
LINE
  8
49
 10
21.3360
 20
-18.0340
 30
0.0000
 11
20.0660
 21
-19.3040
 31
0.0000
  0
LINE
  8
49
 10
20.0660
 20
-19.3040
 30
0.0000
 11
17.2720
 21
-19.3040
 31
0.0000
  0
LINE
  8
49
 10
17.2720
 20
-19.3040
 30
0.0000
 11
15.2400
 21
-21.3360
 31
0.0000
  0
LINE
  8
49
 10
15.2400
 20
-21.3360
 30
0.0000
 11
13.9700
 21
-21.3360
 31
0.0000
  0
LINE
  8
49
 10
13.9700
 20
-21.3360
 30
0.0000
 11
10.1600
 21
-25.1460
 31
0.0000
  0
LINE
  8
49
 10
10.1600
 20
-25.1460
 30
0.0000
 11
3.8100
 21
-25.1460
 31
0.0000
  0
LINE
  8
49
 10
3.8100
 20
-25.1460
 30
0.0000
 11
-4.5720
 21
-33.5280
 31
0.0000
  0
LINE
  8
49
 10
-4.5720
 20
-33.5280
 30
0.0000
 11
-8.6360
 21
-33.5280
 31
0.0000
  0
LINE
  8
49
 10
-8.6360
 20
-33.5280
 30
0.0000
 11
-9.9060
 21
-32.2580
 31
0.0000
  0
LINE
  8
49
 10
-9.9060
 20
-32.2580
 30
0.0000
 11
-9.9060
 21
-28.1940
 31
0.0000
  0
LINE
  8
49
 10
-9.9060
 20
-28.1940
 30
0.0000
 11
-6.8580
 21
-25.1460
 31
0.0000
  0
LINE
  8
49
 10
-6.8580
 20
-25.1460
 30
0.0000
 11
-6.8580
 21
-23.1140
 31
0.0000
  0
LINE
  8
49
 10
-6.8580
 20
-23.1140
 30
0.0000
 11
-8.1280
 21
-21.8440
 31
0.0000
  0
LINE
  8
49
 10
-8.1280
 20
-21.8440
 30
0.0000
 11
-9.6520
 21
-21.8440
 31
0.0000
  0
LINE
  8
49
 10
-9.6520
 20
-21.8440
 30
0.0000
 11
-11.1760
 21
-20.3200
 31
0.0000
  0
LINE
  8
49
 10
-11.1760
 20
-20.3200
 30
0.0000
 11
-24.8920
 21
-20.3200
 31
0.0000
  0
LINE
  8
49
 10
-24.8920
 20
-20.3200
 30
0.0000
 11
-26.4160
 21
-21.8440
 31
0.0000
  0
LINE
  8
49
 10
-39.6240
 20
-19.8120
 30
0.0000
 11
-41.4020
 21
-21.5900
 31
0.0000
  0
LINE
  8
49
 10
-41.4020
 20
-21.5900
 30
0.0000
 11
-41.4020
 21
-23.6220
 31
0.0000
  0
LINE
  8
49
 10
-41.4020
 20
-23.6220
 30
0.0000
 11
-41.1480
 21
-23.8760
 31
0.0000
  0
LINE
  8
49
 10
-41.1480
 20
-23.8760
 30
0.0000
 11
-37.8460
 21
-23.8760
 31
0.0000
  0
LINE
  8
49
 10
-37.8460
 20
-23.8760
 30
0.0000
 11
-39.6240
 21
-22.0980
 31
0.0000
  0
LINE
  8
49
 10
-39.6240
 20
-22.0980
 30
0.0000
 11
-39.6240
 21
-19.8120
 31
0.0000
  0
ENDSEC
  0
EOF
