G04 EAGLE Gerber RS-274X export*
G75*
%MOMM*%
%FSLAX34Y34*%
%LPD*%
%INSolderpaste Bottom*%
%IPPOS*%
%AMOC8*
5,1,8,0,0,1.08239X$1,22.5*%
G01*
%ADD10R,1.100000X1.000000*%
%ADD11R,1.000000X1.100000*%
%ADD12R,0.558800X2.794000*%
%ADD13R,1.600000X2.700000*%
%ADD14R,1.000000X1.400000*%
%ADD15R,3.500000X1.600000*%
%ADD16R,1.600000X3.500000*%
%ADD17R,0.610000X1.020000*%
%ADD18R,1.650000X3.810000*%
%ADD19R,0.610000X1.270000*%
%ADD20R,0.650000X1.100000*%
%ADD21R,0.650000X1.050000*%
%ADD22R,0.700000X0.200000*%
%ADD23R,0.200000X1.300000*%

G36*
X33956Y-297335D02*
X33956Y-297335D01*
X33960Y-297338D01*
X34151Y-297300D01*
X34160Y-297290D01*
X34169Y-297293D01*
X34331Y-297185D01*
X34335Y-297171D01*
X34345Y-297171D01*
X34453Y-297009D01*
X34452Y-296995D01*
X34460Y-296991D01*
X34498Y-296800D01*
X34495Y-296793D01*
X34499Y-296790D01*
X34499Y-282290D01*
X34495Y-282284D01*
X34498Y-282280D01*
X34460Y-282089D01*
X34450Y-282080D01*
X34453Y-282071D01*
X34345Y-281909D01*
X34331Y-281905D01*
X34331Y-281896D01*
X34169Y-281787D01*
X34155Y-281788D01*
X34151Y-281780D01*
X33960Y-281742D01*
X33953Y-281745D01*
X33950Y-281741D01*
X23450Y-281741D01*
X23444Y-281745D01*
X23440Y-281742D01*
X23249Y-281780D01*
X23240Y-281790D01*
X23231Y-281787D01*
X23069Y-281896D01*
X23065Y-281909D01*
X23056Y-281909D01*
X22947Y-282071D01*
X22948Y-282085D01*
X22940Y-282089D01*
X22902Y-282280D01*
X22905Y-282287D01*
X22901Y-282290D01*
X22901Y-296790D01*
X22905Y-296796D01*
X22902Y-296800D01*
X22940Y-296991D01*
X22950Y-297000D01*
X22947Y-297009D01*
X23056Y-297171D01*
X23069Y-297175D01*
X23069Y-297185D01*
X23231Y-297293D01*
X23245Y-297292D01*
X23249Y-297300D01*
X23440Y-297338D01*
X23447Y-297335D01*
X23450Y-297339D01*
X33950Y-297339D01*
X33956Y-297335D01*
G37*
G36*
X16456Y-297335D02*
X16456Y-297335D01*
X16460Y-297338D01*
X16651Y-297300D01*
X16660Y-297290D01*
X16669Y-297293D01*
X16831Y-297185D01*
X16835Y-297171D01*
X16845Y-297171D01*
X16953Y-297009D01*
X16952Y-296995D01*
X16960Y-296991D01*
X16998Y-296800D01*
X16995Y-296793D01*
X16999Y-296790D01*
X16999Y-282290D01*
X16995Y-282284D01*
X16998Y-282280D01*
X16960Y-282089D01*
X16950Y-282080D01*
X16953Y-282071D01*
X16845Y-281909D01*
X16831Y-281905D01*
X16831Y-281896D01*
X16669Y-281787D01*
X16655Y-281788D01*
X16651Y-281780D01*
X16460Y-281742D01*
X16453Y-281745D01*
X16450Y-281741D01*
X5950Y-281741D01*
X5944Y-281745D01*
X5940Y-281742D01*
X5749Y-281780D01*
X5740Y-281790D01*
X5731Y-281787D01*
X5569Y-281896D01*
X5565Y-281909D01*
X5556Y-281909D01*
X5447Y-282071D01*
X5448Y-282085D01*
X5440Y-282089D01*
X5402Y-282280D01*
X5405Y-282287D01*
X5401Y-282290D01*
X5401Y-296790D01*
X5405Y-296796D01*
X5402Y-296800D01*
X5440Y-296991D01*
X5450Y-297000D01*
X5447Y-297009D01*
X5556Y-297171D01*
X5569Y-297175D01*
X5569Y-297185D01*
X5731Y-297293D01*
X5745Y-297292D01*
X5749Y-297300D01*
X5940Y-297338D01*
X5947Y-297335D01*
X5950Y-297339D01*
X16450Y-297339D01*
X16456Y-297335D01*
G37*
G36*
X33956Y-315335D02*
X33956Y-315335D01*
X33960Y-315338D01*
X34151Y-315300D01*
X34160Y-315290D01*
X34169Y-315293D01*
X34331Y-315185D01*
X34335Y-315171D01*
X34345Y-315171D01*
X34453Y-315009D01*
X34452Y-314995D01*
X34460Y-314991D01*
X34498Y-314800D01*
X34495Y-314793D01*
X34499Y-314790D01*
X34499Y-300290D01*
X34495Y-300284D01*
X34498Y-300280D01*
X34460Y-300089D01*
X34450Y-300080D01*
X34453Y-300071D01*
X34345Y-299909D01*
X34331Y-299905D01*
X34331Y-299896D01*
X34169Y-299787D01*
X34155Y-299788D01*
X34151Y-299780D01*
X33960Y-299742D01*
X33953Y-299745D01*
X33950Y-299741D01*
X23450Y-299741D01*
X23444Y-299745D01*
X23440Y-299742D01*
X23249Y-299780D01*
X23240Y-299790D01*
X23231Y-299787D01*
X23069Y-299896D01*
X23065Y-299909D01*
X23056Y-299909D01*
X22947Y-300071D01*
X22948Y-300085D01*
X22940Y-300089D01*
X22902Y-300280D01*
X22905Y-300287D01*
X22901Y-300290D01*
X22901Y-314790D01*
X22905Y-314796D01*
X22902Y-314800D01*
X22940Y-314991D01*
X22950Y-315000D01*
X22947Y-315009D01*
X23056Y-315171D01*
X23069Y-315175D01*
X23069Y-315185D01*
X23231Y-315293D01*
X23245Y-315292D01*
X23249Y-315300D01*
X23440Y-315338D01*
X23447Y-315335D01*
X23450Y-315339D01*
X33950Y-315339D01*
X33956Y-315335D01*
G37*
G36*
X16456Y-315335D02*
X16456Y-315335D01*
X16460Y-315338D01*
X16651Y-315300D01*
X16660Y-315290D01*
X16669Y-315293D01*
X16831Y-315185D01*
X16835Y-315171D01*
X16845Y-315171D01*
X16953Y-315009D01*
X16952Y-314995D01*
X16960Y-314991D01*
X16998Y-314800D01*
X16995Y-314793D01*
X16999Y-314790D01*
X16999Y-300290D01*
X16995Y-300284D01*
X16998Y-300280D01*
X16960Y-300089D01*
X16950Y-300080D01*
X16953Y-300071D01*
X16845Y-299909D01*
X16831Y-299905D01*
X16831Y-299896D01*
X16669Y-299787D01*
X16655Y-299788D01*
X16651Y-299780D01*
X16460Y-299742D01*
X16453Y-299745D01*
X16450Y-299741D01*
X5950Y-299741D01*
X5944Y-299745D01*
X5940Y-299742D01*
X5749Y-299780D01*
X5740Y-299790D01*
X5731Y-299787D01*
X5569Y-299896D01*
X5565Y-299909D01*
X5556Y-299909D01*
X5447Y-300071D01*
X5448Y-300085D01*
X5440Y-300089D01*
X5402Y-300280D01*
X5405Y-300287D01*
X5401Y-300290D01*
X5401Y-314790D01*
X5405Y-314796D01*
X5402Y-314800D01*
X5440Y-314991D01*
X5450Y-315000D01*
X5447Y-315009D01*
X5556Y-315171D01*
X5569Y-315175D01*
X5569Y-315185D01*
X5731Y-315293D01*
X5745Y-315292D01*
X5749Y-315300D01*
X5940Y-315338D01*
X5947Y-315335D01*
X5950Y-315339D01*
X16450Y-315339D01*
X16456Y-315335D01*
G37*
G36*
X16456Y-340335D02*
X16456Y-340335D01*
X16460Y-340338D01*
X16651Y-340300D01*
X16660Y-340290D01*
X16669Y-340293D01*
X16831Y-340185D01*
X16835Y-340171D01*
X16845Y-340171D01*
X16953Y-340009D01*
X16952Y-339995D01*
X16960Y-339991D01*
X16998Y-339800D01*
X16995Y-339793D01*
X16999Y-339790D01*
X16999Y-325290D01*
X16995Y-325284D01*
X16998Y-325280D01*
X16960Y-325089D01*
X16950Y-325080D01*
X16953Y-325071D01*
X16845Y-324909D01*
X16831Y-324905D01*
X16831Y-324896D01*
X16669Y-324787D01*
X16655Y-324788D01*
X16651Y-324780D01*
X16460Y-324742D01*
X16453Y-324745D01*
X16450Y-324741D01*
X5950Y-324741D01*
X5944Y-324745D01*
X5940Y-324742D01*
X5749Y-324780D01*
X5740Y-324790D01*
X5731Y-324787D01*
X5569Y-324896D01*
X5565Y-324909D01*
X5556Y-324909D01*
X5447Y-325071D01*
X5448Y-325085D01*
X5440Y-325089D01*
X5402Y-325280D01*
X5405Y-325287D01*
X5401Y-325290D01*
X5401Y-339790D01*
X5405Y-339796D01*
X5402Y-339800D01*
X5440Y-339991D01*
X5450Y-340000D01*
X5447Y-340009D01*
X5556Y-340171D01*
X5569Y-340175D01*
X5569Y-340185D01*
X5731Y-340293D01*
X5745Y-340292D01*
X5749Y-340300D01*
X5940Y-340338D01*
X5947Y-340335D01*
X5950Y-340339D01*
X16450Y-340339D01*
X16456Y-340335D01*
G37*
G36*
X33956Y-340335D02*
X33956Y-340335D01*
X33960Y-340338D01*
X34151Y-340300D01*
X34160Y-340290D01*
X34169Y-340293D01*
X34331Y-340185D01*
X34335Y-340171D01*
X34345Y-340171D01*
X34453Y-340009D01*
X34452Y-339995D01*
X34460Y-339991D01*
X34498Y-339800D01*
X34495Y-339793D01*
X34499Y-339790D01*
X34499Y-325290D01*
X34495Y-325284D01*
X34498Y-325280D01*
X34460Y-325089D01*
X34450Y-325080D01*
X34453Y-325071D01*
X34345Y-324909D01*
X34331Y-324905D01*
X34331Y-324896D01*
X34169Y-324787D01*
X34155Y-324788D01*
X34151Y-324780D01*
X33960Y-324742D01*
X33953Y-324745D01*
X33950Y-324741D01*
X23450Y-324741D01*
X23444Y-324745D01*
X23440Y-324742D01*
X23249Y-324780D01*
X23240Y-324790D01*
X23231Y-324787D01*
X23069Y-324896D01*
X23065Y-324909D01*
X23056Y-324909D01*
X22947Y-325071D01*
X22948Y-325085D01*
X22940Y-325089D01*
X22902Y-325280D01*
X22905Y-325287D01*
X22901Y-325290D01*
X22901Y-339790D01*
X22905Y-339796D01*
X22902Y-339800D01*
X22940Y-339991D01*
X22950Y-340000D01*
X22947Y-340009D01*
X23056Y-340171D01*
X23069Y-340175D01*
X23069Y-340185D01*
X23231Y-340293D01*
X23245Y-340292D01*
X23249Y-340300D01*
X23440Y-340338D01*
X23447Y-340335D01*
X23450Y-340339D01*
X33950Y-340339D01*
X33956Y-340335D01*
G37*
G36*
X33956Y-358335D02*
X33956Y-358335D01*
X33960Y-358338D01*
X34151Y-358300D01*
X34160Y-358290D01*
X34169Y-358293D01*
X34331Y-358185D01*
X34335Y-358171D01*
X34345Y-358171D01*
X34453Y-358009D01*
X34452Y-357995D01*
X34460Y-357991D01*
X34498Y-357800D01*
X34495Y-357793D01*
X34499Y-357790D01*
X34499Y-343290D01*
X34495Y-343284D01*
X34498Y-343280D01*
X34460Y-343089D01*
X34450Y-343080D01*
X34453Y-343071D01*
X34345Y-342909D01*
X34331Y-342905D01*
X34331Y-342896D01*
X34169Y-342787D01*
X34155Y-342788D01*
X34151Y-342780D01*
X33960Y-342742D01*
X33953Y-342745D01*
X33950Y-342741D01*
X23450Y-342741D01*
X23444Y-342745D01*
X23440Y-342742D01*
X23249Y-342780D01*
X23240Y-342790D01*
X23231Y-342787D01*
X23069Y-342896D01*
X23065Y-342909D01*
X23056Y-342909D01*
X22947Y-343071D01*
X22948Y-343085D01*
X22940Y-343089D01*
X22902Y-343280D01*
X22905Y-343287D01*
X22901Y-343290D01*
X22901Y-357790D01*
X22905Y-357796D01*
X22902Y-357800D01*
X22940Y-357991D01*
X22950Y-358000D01*
X22947Y-358009D01*
X23056Y-358171D01*
X23069Y-358175D01*
X23069Y-358185D01*
X23231Y-358293D01*
X23245Y-358292D01*
X23249Y-358300D01*
X23440Y-358338D01*
X23447Y-358335D01*
X23450Y-358339D01*
X33950Y-358339D01*
X33956Y-358335D01*
G37*
G36*
X16456Y-358585D02*
X16456Y-358585D01*
X16460Y-358588D01*
X16651Y-358550D01*
X16660Y-358540D01*
X16669Y-358543D01*
X16831Y-358435D01*
X16835Y-358421D01*
X16845Y-358421D01*
X16953Y-358259D01*
X16952Y-358245D01*
X16960Y-358241D01*
X16998Y-358050D01*
X16995Y-358043D01*
X16999Y-358040D01*
X16999Y-343540D01*
X16995Y-343534D01*
X16998Y-343530D01*
X16960Y-343339D01*
X16950Y-343330D01*
X16953Y-343321D01*
X16845Y-343159D01*
X16831Y-343155D01*
X16831Y-343146D01*
X16669Y-343037D01*
X16655Y-343038D01*
X16651Y-343030D01*
X16460Y-342992D01*
X16453Y-342995D01*
X16450Y-342991D01*
X5950Y-342991D01*
X5944Y-342995D01*
X5940Y-342992D01*
X5749Y-343030D01*
X5740Y-343040D01*
X5731Y-343037D01*
X5569Y-343146D01*
X5565Y-343159D01*
X5556Y-343159D01*
X5447Y-343321D01*
X5448Y-343335D01*
X5440Y-343339D01*
X5402Y-343530D01*
X5405Y-343537D01*
X5401Y-343540D01*
X5401Y-358040D01*
X5405Y-358046D01*
X5402Y-358050D01*
X5440Y-358241D01*
X5450Y-358250D01*
X5447Y-358259D01*
X5556Y-358421D01*
X5569Y-358425D01*
X5569Y-358435D01*
X5731Y-358543D01*
X5745Y-358542D01*
X5749Y-358550D01*
X5940Y-358588D01*
X5947Y-358585D01*
X5950Y-358589D01*
X16450Y-358589D01*
X16456Y-358585D01*
G37*
G36*
X-25006Y-297312D02*
X-25006Y-297312D01*
X-25013Y-297298D01*
X-25001Y-297288D01*
X-25007Y-297089D01*
X-15550Y-297089D01*
X-15544Y-297085D01*
X-15540Y-297088D01*
X-15349Y-297050D01*
X-15340Y-297040D01*
X-15331Y-297043D01*
X-15169Y-296935D01*
X-15165Y-296921D01*
X-15156Y-296921D01*
X-15047Y-296759D01*
X-15048Y-296745D01*
X-15040Y-296741D01*
X-15002Y-296550D01*
X-15005Y-296543D01*
X-15001Y-296540D01*
X-15001Y-282040D01*
X-15005Y-282034D01*
X-15002Y-282030D01*
X-15040Y-281839D01*
X-15050Y-281830D01*
X-15047Y-281821D01*
X-15156Y-281659D01*
X-15169Y-281655D01*
X-15169Y-281646D01*
X-15331Y-281537D01*
X-15345Y-281538D01*
X-15349Y-281530D01*
X-15540Y-281492D01*
X-15547Y-281495D01*
X-15550Y-281491D01*
X-25050Y-281491D01*
X-25056Y-281495D01*
X-25060Y-281492D01*
X-25251Y-281530D01*
X-25260Y-281540D01*
X-25269Y-281537D01*
X-25431Y-281646D01*
X-25435Y-281659D01*
X-25445Y-281659D01*
X-25553Y-281821D01*
X-25552Y-281835D01*
X-25560Y-281839D01*
X-25598Y-282030D01*
X-25595Y-282037D01*
X-25599Y-282040D01*
X-25599Y-296790D01*
X-25595Y-296796D01*
X-25598Y-296800D01*
X-25560Y-296991D01*
X-25550Y-297000D01*
X-25553Y-297009D01*
X-25445Y-297171D01*
X-25431Y-297175D01*
X-25431Y-297185D01*
X-25269Y-297293D01*
X-25255Y-297292D01*
X-25251Y-297300D01*
X-25060Y-297338D01*
X-25006Y-297312D01*
G37*
G36*
X50456Y-297585D02*
X50456Y-297585D01*
X50460Y-297588D01*
X50651Y-297550D01*
X50660Y-297540D01*
X50669Y-297543D01*
X50831Y-297435D01*
X50835Y-297421D01*
X50845Y-297421D01*
X50953Y-297259D01*
X50952Y-297245D01*
X50960Y-297241D01*
X50998Y-297050D01*
X50995Y-297043D01*
X50999Y-297040D01*
X50999Y-282540D01*
X50995Y-282534D01*
X50998Y-282530D01*
X50960Y-282339D01*
X50950Y-282330D01*
X50953Y-282321D01*
X50845Y-282159D01*
X50831Y-282155D01*
X50831Y-282146D01*
X50669Y-282037D01*
X50655Y-282038D01*
X50651Y-282030D01*
X50460Y-281992D01*
X50453Y-281995D01*
X50450Y-281991D01*
X40950Y-281991D01*
X40944Y-281995D01*
X40940Y-281992D01*
X40749Y-282030D01*
X40740Y-282040D01*
X40731Y-282037D01*
X40569Y-282146D01*
X40565Y-282159D01*
X40556Y-282159D01*
X40447Y-282321D01*
X40448Y-282335D01*
X40440Y-282339D01*
X40402Y-282530D01*
X40405Y-282537D01*
X40401Y-282540D01*
X40401Y-297040D01*
X40405Y-297046D01*
X40402Y-297050D01*
X40440Y-297241D01*
X40450Y-297250D01*
X40447Y-297259D01*
X40556Y-297421D01*
X40569Y-297425D01*
X40569Y-297435D01*
X40731Y-297543D01*
X40745Y-297542D01*
X40749Y-297550D01*
X40940Y-297588D01*
X40947Y-297585D01*
X40950Y-297589D01*
X50450Y-297589D01*
X50456Y-297585D01*
G37*
G36*
X50456Y-358335D02*
X50456Y-358335D01*
X50460Y-358338D01*
X50651Y-358300D01*
X50660Y-358290D01*
X50669Y-358293D01*
X50831Y-358185D01*
X50835Y-358171D01*
X50845Y-358171D01*
X50953Y-358009D01*
X50952Y-357995D01*
X50960Y-357991D01*
X50998Y-357800D01*
X50995Y-357793D01*
X50999Y-357790D01*
X50999Y-343290D01*
X50995Y-343284D01*
X50998Y-343280D01*
X50960Y-343089D01*
X50950Y-343080D01*
X50953Y-343071D01*
X50845Y-342909D01*
X50831Y-342905D01*
X50831Y-342896D01*
X50669Y-342787D01*
X50655Y-342788D01*
X50651Y-342780D01*
X50460Y-342742D01*
X50453Y-342745D01*
X50450Y-342741D01*
X40950Y-342741D01*
X40944Y-342745D01*
X40940Y-342742D01*
X40749Y-342780D01*
X40740Y-342790D01*
X40731Y-342787D01*
X40569Y-342896D01*
X40565Y-342909D01*
X40556Y-342909D01*
X40447Y-343071D01*
X40448Y-343085D01*
X40440Y-343089D01*
X40402Y-343280D01*
X40405Y-343287D01*
X40401Y-343290D01*
X40401Y-357790D01*
X40405Y-357796D01*
X40402Y-357800D01*
X40440Y-357991D01*
X40450Y-358000D01*
X40447Y-358009D01*
X40556Y-358171D01*
X40569Y-358175D01*
X40569Y-358185D01*
X40731Y-358293D01*
X40745Y-358292D01*
X40749Y-358300D01*
X40940Y-358338D01*
X40947Y-358335D01*
X40950Y-358339D01*
X50450Y-358339D01*
X50456Y-358335D01*
G37*
G36*
X-15544Y-358335D02*
X-15544Y-358335D01*
X-15540Y-358338D01*
X-15349Y-358300D01*
X-15340Y-358290D01*
X-15331Y-358293D01*
X-15169Y-358185D01*
X-15165Y-358171D01*
X-15156Y-358171D01*
X-15047Y-358009D01*
X-15048Y-357995D01*
X-15040Y-357991D01*
X-15002Y-357800D01*
X-15005Y-357793D01*
X-15001Y-357790D01*
X-15001Y-343290D01*
X-15005Y-343284D01*
X-15002Y-343280D01*
X-15040Y-343089D01*
X-15050Y-343080D01*
X-15047Y-343071D01*
X-15156Y-342909D01*
X-15169Y-342905D01*
X-15169Y-342896D01*
X-15331Y-342787D01*
X-15345Y-342788D01*
X-15349Y-342780D01*
X-15540Y-342742D01*
X-15547Y-342745D01*
X-15550Y-342741D01*
X-25050Y-342741D01*
X-25056Y-342745D01*
X-25060Y-342742D01*
X-25251Y-342780D01*
X-25260Y-342790D01*
X-25269Y-342787D01*
X-25431Y-342896D01*
X-25435Y-342909D01*
X-25445Y-342909D01*
X-25553Y-343071D01*
X-25552Y-343085D01*
X-25560Y-343089D01*
X-25598Y-343280D01*
X-25595Y-343287D01*
X-25599Y-343290D01*
X-25599Y-357790D01*
X-25595Y-357796D01*
X-25598Y-357800D01*
X-25560Y-357991D01*
X-25550Y-358000D01*
X-25553Y-358009D01*
X-25445Y-358171D01*
X-25431Y-358175D01*
X-25431Y-358185D01*
X-25269Y-358293D01*
X-25255Y-358292D01*
X-25251Y-358300D01*
X-25060Y-358338D01*
X-25053Y-358335D01*
X-25050Y-358339D01*
X-15550Y-358339D01*
X-15544Y-358335D01*
G37*
G36*
X-7544Y-292585D02*
X-7544Y-292585D01*
X-7540Y-292588D01*
X-7349Y-292550D01*
X-7340Y-292540D01*
X-7331Y-292543D01*
X-7169Y-292435D01*
X-7165Y-292421D01*
X-7156Y-292421D01*
X-7047Y-292259D01*
X-7048Y-292245D01*
X-7040Y-292241D01*
X-7002Y-292050D01*
X-7005Y-292043D01*
X-7001Y-292040D01*
X-7001Y-282040D01*
X-7005Y-282034D01*
X-7002Y-282030D01*
X-7040Y-281839D01*
X-7050Y-281830D01*
X-7047Y-281821D01*
X-7156Y-281659D01*
X-7169Y-281655D01*
X-7169Y-281646D01*
X-7331Y-281537D01*
X-7345Y-281538D01*
X-7349Y-281530D01*
X-7540Y-281492D01*
X-7547Y-281495D01*
X-7550Y-281491D01*
X-8550Y-281491D01*
X-8556Y-281495D01*
X-8560Y-281492D01*
X-8751Y-281530D01*
X-8760Y-281540D01*
X-8769Y-281537D01*
X-8931Y-281646D01*
X-8935Y-281659D01*
X-8945Y-281659D01*
X-9053Y-281821D01*
X-9052Y-281833D01*
X-9059Y-281838D01*
X-9060Y-281839D01*
X-9098Y-282030D01*
X-9096Y-282035D01*
X-9097Y-282036D01*
X-9096Y-282038D01*
X-9099Y-282040D01*
X-9099Y-292040D01*
X-9095Y-292046D01*
X-9098Y-292050D01*
X-9060Y-292241D01*
X-9050Y-292250D01*
X-9053Y-292259D01*
X-8945Y-292421D01*
X-8931Y-292425D01*
X-8931Y-292435D01*
X-8769Y-292543D01*
X-8755Y-292542D01*
X-8751Y-292550D01*
X-8560Y-292588D01*
X-8553Y-292585D01*
X-8550Y-292589D01*
X-7550Y-292589D01*
X-7544Y-292585D01*
G37*
G36*
X-1044Y-292585D02*
X-1044Y-292585D01*
X-1040Y-292588D01*
X-849Y-292550D01*
X-840Y-292540D01*
X-831Y-292543D01*
X-669Y-292435D01*
X-665Y-292421D01*
X-656Y-292421D01*
X-547Y-292259D01*
X-548Y-292245D01*
X-540Y-292241D01*
X-502Y-292050D01*
X-505Y-292043D01*
X-501Y-292040D01*
X-501Y-282040D01*
X-505Y-282034D01*
X-502Y-282030D01*
X-540Y-281839D01*
X-550Y-281830D01*
X-547Y-281821D01*
X-656Y-281659D01*
X-669Y-281655D01*
X-669Y-281646D01*
X-831Y-281537D01*
X-845Y-281538D01*
X-849Y-281530D01*
X-1040Y-281492D01*
X-1047Y-281495D01*
X-1050Y-281491D01*
X-2050Y-281491D01*
X-2056Y-281495D01*
X-2060Y-281492D01*
X-2251Y-281530D01*
X-2260Y-281540D01*
X-2269Y-281537D01*
X-2431Y-281646D01*
X-2435Y-281659D01*
X-2445Y-281659D01*
X-2553Y-281821D01*
X-2552Y-281833D01*
X-2559Y-281838D01*
X-2560Y-281839D01*
X-2598Y-282030D01*
X-2596Y-282035D01*
X-2597Y-282036D01*
X-2596Y-282038D01*
X-2599Y-282040D01*
X-2599Y-292040D01*
X-2595Y-292046D01*
X-2598Y-292050D01*
X-2560Y-292241D01*
X-2550Y-292250D01*
X-2553Y-292259D01*
X-2445Y-292421D01*
X-2431Y-292425D01*
X-2431Y-292435D01*
X-2269Y-292543D01*
X-2255Y-292542D01*
X-2251Y-292550D01*
X-2060Y-292588D01*
X-2053Y-292585D01*
X-2050Y-292589D01*
X-1050Y-292589D01*
X-1044Y-292585D01*
G37*
G36*
X-1044Y-358585D02*
X-1044Y-358585D01*
X-1040Y-358588D01*
X-849Y-358550D01*
X-840Y-358540D01*
X-831Y-358543D01*
X-669Y-358435D01*
X-665Y-358421D01*
X-656Y-358421D01*
X-547Y-358259D01*
X-548Y-358245D01*
X-540Y-358241D01*
X-502Y-358050D01*
X-505Y-358043D01*
X-501Y-358040D01*
X-501Y-348040D01*
X-505Y-348034D01*
X-502Y-348030D01*
X-540Y-347839D01*
X-550Y-347830D01*
X-547Y-347821D01*
X-656Y-347659D01*
X-669Y-347655D01*
X-669Y-347646D01*
X-831Y-347537D01*
X-845Y-347538D01*
X-849Y-347530D01*
X-1040Y-347492D01*
X-1047Y-347495D01*
X-1050Y-347491D01*
X-2050Y-347491D01*
X-2056Y-347495D01*
X-2060Y-347492D01*
X-2251Y-347530D01*
X-2260Y-347540D01*
X-2269Y-347537D01*
X-2431Y-347646D01*
X-2435Y-347659D01*
X-2445Y-347659D01*
X-2553Y-347821D01*
X-2552Y-347833D01*
X-2559Y-347838D01*
X-2560Y-347839D01*
X-2598Y-348030D01*
X-2596Y-348035D01*
X-2597Y-348036D01*
X-2596Y-348038D01*
X-2599Y-348040D01*
X-2599Y-358040D01*
X-2595Y-358046D01*
X-2598Y-358050D01*
X-2560Y-358241D01*
X-2550Y-358250D01*
X-2553Y-358259D01*
X-2445Y-358421D01*
X-2431Y-358425D01*
X-2431Y-358435D01*
X-2269Y-358543D01*
X-2255Y-358542D01*
X-2251Y-358550D01*
X-2060Y-358588D01*
X-2053Y-358585D01*
X-2050Y-358589D01*
X-1050Y-358589D01*
X-1044Y-358585D01*
G37*
G36*
X-7544Y-358585D02*
X-7544Y-358585D01*
X-7540Y-358588D01*
X-7349Y-358550D01*
X-7340Y-358540D01*
X-7331Y-358543D01*
X-7169Y-358435D01*
X-7165Y-358421D01*
X-7156Y-358421D01*
X-7047Y-358259D01*
X-7048Y-358245D01*
X-7040Y-358241D01*
X-7002Y-358050D01*
X-7005Y-358043D01*
X-7001Y-358040D01*
X-7001Y-348040D01*
X-7005Y-348034D01*
X-7002Y-348030D01*
X-7040Y-347839D01*
X-7050Y-347830D01*
X-7047Y-347821D01*
X-7156Y-347659D01*
X-7169Y-347655D01*
X-7169Y-347646D01*
X-7331Y-347537D01*
X-7345Y-347538D01*
X-7349Y-347530D01*
X-7540Y-347492D01*
X-7547Y-347495D01*
X-7550Y-347491D01*
X-8550Y-347491D01*
X-8556Y-347495D01*
X-8560Y-347492D01*
X-8751Y-347530D01*
X-8760Y-347540D01*
X-8769Y-347537D01*
X-8931Y-347646D01*
X-8935Y-347659D01*
X-8945Y-347659D01*
X-9053Y-347821D01*
X-9052Y-347833D01*
X-9059Y-347838D01*
X-9060Y-347839D01*
X-9098Y-348030D01*
X-9096Y-348035D01*
X-9097Y-348036D01*
X-9096Y-348038D01*
X-9099Y-348040D01*
X-9099Y-358040D01*
X-9095Y-358046D01*
X-9098Y-358050D01*
X-9060Y-358241D01*
X-9050Y-358250D01*
X-9053Y-358259D01*
X-8945Y-358421D01*
X-8931Y-358425D01*
X-8931Y-358435D01*
X-8769Y-358543D01*
X-8755Y-358542D01*
X-8751Y-358550D01*
X-8560Y-358588D01*
X-8553Y-358585D01*
X-8550Y-358589D01*
X-7550Y-358589D01*
X-7544Y-358585D01*
G37*
G36*
X-15294Y-304835D02*
X-15294Y-304835D01*
X-15290Y-304838D01*
X-15099Y-304800D01*
X-15090Y-304790D01*
X-15081Y-304793D01*
X-14919Y-304685D01*
X-14915Y-304671D01*
X-14906Y-304671D01*
X-14797Y-304509D01*
X-14798Y-304495D01*
X-14790Y-304491D01*
X-14752Y-304300D01*
X-14755Y-304293D01*
X-14751Y-304290D01*
X-14751Y-303290D01*
X-14755Y-303284D01*
X-14752Y-303280D01*
X-14790Y-303089D01*
X-14800Y-303080D01*
X-14797Y-303071D01*
X-14906Y-302909D01*
X-14919Y-302905D01*
X-14919Y-302896D01*
X-15081Y-302787D01*
X-15095Y-302788D01*
X-15099Y-302780D01*
X-15290Y-302742D01*
X-15297Y-302745D01*
X-15300Y-302741D01*
X-25300Y-302741D01*
X-25306Y-302745D01*
X-25310Y-302742D01*
X-25501Y-302780D01*
X-25510Y-302790D01*
X-25519Y-302787D01*
X-25681Y-302896D01*
X-25685Y-302909D01*
X-25695Y-302909D01*
X-25803Y-303071D01*
X-25802Y-303085D01*
X-25810Y-303089D01*
X-25848Y-303280D01*
X-25845Y-303287D01*
X-25849Y-303290D01*
X-25849Y-304290D01*
X-25845Y-304296D01*
X-25848Y-304300D01*
X-25810Y-304491D01*
X-25800Y-304500D01*
X-25803Y-304509D01*
X-25695Y-304671D01*
X-25681Y-304675D01*
X-25681Y-304685D01*
X-25519Y-304793D01*
X-25505Y-304792D01*
X-25501Y-304800D01*
X-25310Y-304838D01*
X-25303Y-304835D01*
X-25300Y-304839D01*
X-15300Y-304839D01*
X-15294Y-304835D01*
G37*
G36*
X50706Y-304835D02*
X50706Y-304835D01*
X50710Y-304838D01*
X50901Y-304800D01*
X50910Y-304790D01*
X50919Y-304793D01*
X51081Y-304685D01*
X51085Y-304671D01*
X51095Y-304671D01*
X51203Y-304509D01*
X51202Y-304495D01*
X51210Y-304491D01*
X51248Y-304300D01*
X51245Y-304293D01*
X51249Y-304290D01*
X51249Y-303290D01*
X51245Y-303284D01*
X51248Y-303280D01*
X51210Y-303089D01*
X51200Y-303080D01*
X51203Y-303071D01*
X51095Y-302909D01*
X51081Y-302905D01*
X51081Y-302896D01*
X50919Y-302787D01*
X50905Y-302788D01*
X50901Y-302780D01*
X50710Y-302742D01*
X50703Y-302745D01*
X50700Y-302741D01*
X40700Y-302741D01*
X40694Y-302745D01*
X40690Y-302742D01*
X40499Y-302780D01*
X40490Y-302790D01*
X40481Y-302787D01*
X40319Y-302896D01*
X40315Y-302909D01*
X40306Y-302909D01*
X40197Y-303071D01*
X40198Y-303085D01*
X40190Y-303089D01*
X40152Y-303280D01*
X40155Y-303287D01*
X40151Y-303290D01*
X40151Y-304290D01*
X40155Y-304296D01*
X40152Y-304300D01*
X40190Y-304491D01*
X40200Y-304500D01*
X40197Y-304509D01*
X40306Y-304671D01*
X40319Y-304675D01*
X40319Y-304685D01*
X40481Y-304793D01*
X40495Y-304792D01*
X40499Y-304800D01*
X40690Y-304838D01*
X40697Y-304835D01*
X40700Y-304839D01*
X50700Y-304839D01*
X50706Y-304835D01*
G37*
G36*
X50706Y-311335D02*
X50706Y-311335D01*
X50710Y-311338D01*
X50901Y-311300D01*
X50910Y-311290D01*
X50919Y-311293D01*
X51081Y-311185D01*
X51085Y-311171D01*
X51095Y-311171D01*
X51203Y-311009D01*
X51202Y-310995D01*
X51210Y-310991D01*
X51248Y-310800D01*
X51245Y-310793D01*
X51249Y-310790D01*
X51249Y-309790D01*
X51245Y-309784D01*
X51248Y-309780D01*
X51210Y-309589D01*
X51200Y-309580D01*
X51203Y-309571D01*
X51095Y-309409D01*
X51081Y-309405D01*
X51081Y-309396D01*
X50919Y-309287D01*
X50905Y-309288D01*
X50901Y-309280D01*
X50710Y-309242D01*
X50703Y-309245D01*
X50700Y-309241D01*
X40700Y-309241D01*
X40694Y-309245D01*
X40690Y-309242D01*
X40499Y-309280D01*
X40490Y-309290D01*
X40481Y-309287D01*
X40319Y-309396D01*
X40315Y-309409D01*
X40306Y-309409D01*
X40197Y-309571D01*
X40198Y-309585D01*
X40190Y-309589D01*
X40152Y-309780D01*
X40155Y-309787D01*
X40151Y-309790D01*
X40151Y-310790D01*
X40155Y-310796D01*
X40152Y-310800D01*
X40190Y-310991D01*
X40200Y-311000D01*
X40197Y-311009D01*
X40306Y-311171D01*
X40319Y-311175D01*
X40319Y-311185D01*
X40481Y-311293D01*
X40495Y-311292D01*
X40499Y-311300D01*
X40690Y-311338D01*
X40697Y-311335D01*
X40700Y-311339D01*
X50700Y-311339D01*
X50706Y-311335D01*
G37*
G36*
X-15294Y-311335D02*
X-15294Y-311335D01*
X-15290Y-311338D01*
X-15099Y-311300D01*
X-15090Y-311290D01*
X-15081Y-311293D01*
X-14919Y-311185D01*
X-14915Y-311171D01*
X-14906Y-311171D01*
X-14797Y-311009D01*
X-14798Y-310995D01*
X-14790Y-310991D01*
X-14752Y-310800D01*
X-14755Y-310793D01*
X-14751Y-310790D01*
X-14751Y-309790D01*
X-14755Y-309784D01*
X-14752Y-309780D01*
X-14790Y-309589D01*
X-14800Y-309580D01*
X-14797Y-309571D01*
X-14906Y-309409D01*
X-14919Y-309405D01*
X-14919Y-309396D01*
X-15081Y-309287D01*
X-15095Y-309288D01*
X-15099Y-309280D01*
X-15290Y-309242D01*
X-15297Y-309245D01*
X-15300Y-309241D01*
X-25300Y-309241D01*
X-25306Y-309245D01*
X-25310Y-309242D01*
X-25501Y-309280D01*
X-25510Y-309290D01*
X-25519Y-309287D01*
X-25681Y-309396D01*
X-25685Y-309409D01*
X-25695Y-309409D01*
X-25803Y-309571D01*
X-25802Y-309585D01*
X-25810Y-309589D01*
X-25848Y-309780D01*
X-25845Y-309787D01*
X-25849Y-309790D01*
X-25849Y-310790D01*
X-25845Y-310796D01*
X-25848Y-310800D01*
X-25810Y-310991D01*
X-25800Y-311000D01*
X-25803Y-311009D01*
X-25695Y-311171D01*
X-25681Y-311175D01*
X-25681Y-311185D01*
X-25519Y-311293D01*
X-25505Y-311292D01*
X-25501Y-311300D01*
X-25310Y-311338D01*
X-25303Y-311335D01*
X-25300Y-311339D01*
X-15300Y-311339D01*
X-15294Y-311335D01*
G37*
G36*
X-15294Y-317835D02*
X-15294Y-317835D01*
X-15290Y-317838D01*
X-15099Y-317800D01*
X-15090Y-317790D01*
X-15081Y-317793D01*
X-14919Y-317685D01*
X-14915Y-317671D01*
X-14906Y-317671D01*
X-14797Y-317509D01*
X-14798Y-317495D01*
X-14790Y-317491D01*
X-14752Y-317300D01*
X-14755Y-317293D01*
X-14751Y-317290D01*
X-14751Y-316290D01*
X-14755Y-316284D01*
X-14752Y-316280D01*
X-14790Y-316089D01*
X-14800Y-316080D01*
X-14797Y-316071D01*
X-14906Y-315909D01*
X-14919Y-315905D01*
X-14919Y-315896D01*
X-15081Y-315787D01*
X-15095Y-315788D01*
X-15099Y-315780D01*
X-15290Y-315742D01*
X-15297Y-315745D01*
X-15300Y-315741D01*
X-25300Y-315741D01*
X-25306Y-315745D01*
X-25310Y-315742D01*
X-25501Y-315780D01*
X-25510Y-315790D01*
X-25519Y-315787D01*
X-25681Y-315896D01*
X-25685Y-315909D01*
X-25695Y-315909D01*
X-25803Y-316071D01*
X-25802Y-316085D01*
X-25810Y-316089D01*
X-25848Y-316280D01*
X-25845Y-316287D01*
X-25849Y-316290D01*
X-25849Y-317290D01*
X-25845Y-317296D01*
X-25848Y-317300D01*
X-25810Y-317491D01*
X-25800Y-317500D01*
X-25803Y-317509D01*
X-25695Y-317671D01*
X-25681Y-317675D01*
X-25681Y-317685D01*
X-25519Y-317793D01*
X-25505Y-317792D01*
X-25501Y-317800D01*
X-25310Y-317838D01*
X-25303Y-317835D01*
X-25300Y-317839D01*
X-15300Y-317839D01*
X-15294Y-317835D01*
G37*
G36*
X50706Y-317835D02*
X50706Y-317835D01*
X50710Y-317838D01*
X50901Y-317800D01*
X50910Y-317790D01*
X50919Y-317793D01*
X51081Y-317685D01*
X51085Y-317671D01*
X51095Y-317671D01*
X51203Y-317509D01*
X51202Y-317495D01*
X51210Y-317491D01*
X51248Y-317300D01*
X51245Y-317293D01*
X51249Y-317290D01*
X51249Y-316290D01*
X51245Y-316284D01*
X51248Y-316280D01*
X51210Y-316089D01*
X51200Y-316080D01*
X51203Y-316071D01*
X51095Y-315909D01*
X51081Y-315905D01*
X51081Y-315896D01*
X50919Y-315787D01*
X50905Y-315788D01*
X50901Y-315780D01*
X50710Y-315742D01*
X50703Y-315745D01*
X50700Y-315741D01*
X40700Y-315741D01*
X40694Y-315745D01*
X40690Y-315742D01*
X40499Y-315780D01*
X40490Y-315790D01*
X40481Y-315787D01*
X40319Y-315896D01*
X40315Y-315909D01*
X40306Y-315909D01*
X40197Y-316071D01*
X40198Y-316085D01*
X40190Y-316089D01*
X40152Y-316280D01*
X40155Y-316287D01*
X40151Y-316290D01*
X40151Y-317290D01*
X40155Y-317296D01*
X40152Y-317300D01*
X40190Y-317491D01*
X40200Y-317500D01*
X40197Y-317509D01*
X40306Y-317671D01*
X40319Y-317675D01*
X40319Y-317685D01*
X40481Y-317793D01*
X40495Y-317792D01*
X40499Y-317800D01*
X40690Y-317838D01*
X40697Y-317835D01*
X40700Y-317839D01*
X50700Y-317839D01*
X50706Y-317835D01*
G37*
G36*
X-15294Y-324335D02*
X-15294Y-324335D01*
X-15290Y-324338D01*
X-15099Y-324300D01*
X-15090Y-324290D01*
X-15081Y-324293D01*
X-14919Y-324185D01*
X-14915Y-324171D01*
X-14906Y-324171D01*
X-14797Y-324009D01*
X-14798Y-323995D01*
X-14790Y-323991D01*
X-14752Y-323800D01*
X-14755Y-323793D01*
X-14751Y-323790D01*
X-14751Y-322790D01*
X-14755Y-322784D01*
X-14752Y-322780D01*
X-14790Y-322589D01*
X-14800Y-322580D01*
X-14797Y-322571D01*
X-14906Y-322409D01*
X-14919Y-322405D01*
X-14919Y-322396D01*
X-15081Y-322287D01*
X-15095Y-322288D01*
X-15099Y-322280D01*
X-15290Y-322242D01*
X-15297Y-322245D01*
X-15300Y-322241D01*
X-25300Y-322241D01*
X-25306Y-322245D01*
X-25310Y-322242D01*
X-25501Y-322280D01*
X-25510Y-322290D01*
X-25519Y-322287D01*
X-25681Y-322396D01*
X-25685Y-322409D01*
X-25695Y-322409D01*
X-25803Y-322571D01*
X-25802Y-322585D01*
X-25810Y-322589D01*
X-25848Y-322780D01*
X-25845Y-322787D01*
X-25849Y-322790D01*
X-25849Y-323790D01*
X-25845Y-323796D01*
X-25848Y-323800D01*
X-25810Y-323991D01*
X-25800Y-324000D01*
X-25803Y-324009D01*
X-25695Y-324171D01*
X-25681Y-324175D01*
X-25681Y-324185D01*
X-25519Y-324293D01*
X-25505Y-324292D01*
X-25501Y-324300D01*
X-25310Y-324338D01*
X-25303Y-324335D01*
X-25300Y-324339D01*
X-15300Y-324339D01*
X-15294Y-324335D01*
G37*
G36*
X50706Y-324335D02*
X50706Y-324335D01*
X50710Y-324338D01*
X50901Y-324300D01*
X50910Y-324290D01*
X50919Y-324293D01*
X51081Y-324185D01*
X51085Y-324171D01*
X51095Y-324171D01*
X51203Y-324009D01*
X51202Y-323995D01*
X51210Y-323991D01*
X51248Y-323800D01*
X51245Y-323793D01*
X51249Y-323790D01*
X51249Y-322790D01*
X51245Y-322784D01*
X51248Y-322780D01*
X51210Y-322589D01*
X51200Y-322580D01*
X51203Y-322571D01*
X51095Y-322409D01*
X51081Y-322405D01*
X51081Y-322396D01*
X50919Y-322287D01*
X50905Y-322288D01*
X50901Y-322280D01*
X50710Y-322242D01*
X50703Y-322245D01*
X50700Y-322241D01*
X40700Y-322241D01*
X40694Y-322245D01*
X40690Y-322242D01*
X40499Y-322280D01*
X40490Y-322290D01*
X40481Y-322287D01*
X40319Y-322396D01*
X40315Y-322409D01*
X40306Y-322409D01*
X40197Y-322571D01*
X40198Y-322585D01*
X40190Y-322589D01*
X40152Y-322780D01*
X40155Y-322787D01*
X40151Y-322790D01*
X40151Y-323790D01*
X40155Y-323796D01*
X40152Y-323800D01*
X40190Y-323991D01*
X40200Y-324000D01*
X40197Y-324009D01*
X40306Y-324171D01*
X40319Y-324175D01*
X40319Y-324185D01*
X40481Y-324293D01*
X40495Y-324292D01*
X40499Y-324300D01*
X40690Y-324338D01*
X40697Y-324335D01*
X40700Y-324339D01*
X50700Y-324339D01*
X50706Y-324335D01*
G37*
G36*
X-15294Y-330835D02*
X-15294Y-330835D01*
X-15290Y-330838D01*
X-15099Y-330800D01*
X-15090Y-330790D01*
X-15081Y-330793D01*
X-14919Y-330685D01*
X-14915Y-330671D01*
X-14906Y-330671D01*
X-14797Y-330509D01*
X-14798Y-330495D01*
X-14790Y-330491D01*
X-14752Y-330300D01*
X-14755Y-330293D01*
X-14751Y-330290D01*
X-14751Y-329290D01*
X-14755Y-329284D01*
X-14752Y-329280D01*
X-14790Y-329089D01*
X-14800Y-329080D01*
X-14797Y-329071D01*
X-14906Y-328909D01*
X-14919Y-328905D01*
X-14919Y-328896D01*
X-15081Y-328787D01*
X-15095Y-328788D01*
X-15099Y-328780D01*
X-15290Y-328742D01*
X-15297Y-328745D01*
X-15300Y-328741D01*
X-25300Y-328741D01*
X-25306Y-328745D01*
X-25310Y-328742D01*
X-25501Y-328780D01*
X-25510Y-328790D01*
X-25519Y-328787D01*
X-25681Y-328896D01*
X-25685Y-328909D01*
X-25695Y-328909D01*
X-25803Y-329071D01*
X-25802Y-329085D01*
X-25810Y-329089D01*
X-25848Y-329280D01*
X-25845Y-329287D01*
X-25849Y-329290D01*
X-25849Y-330290D01*
X-25845Y-330296D01*
X-25848Y-330300D01*
X-25810Y-330491D01*
X-25800Y-330500D01*
X-25803Y-330509D01*
X-25695Y-330671D01*
X-25681Y-330675D01*
X-25681Y-330685D01*
X-25519Y-330793D01*
X-25505Y-330792D01*
X-25501Y-330800D01*
X-25310Y-330838D01*
X-25303Y-330835D01*
X-25300Y-330839D01*
X-15300Y-330839D01*
X-15294Y-330835D01*
G37*
G36*
X50706Y-330835D02*
X50706Y-330835D01*
X50710Y-330838D01*
X50901Y-330800D01*
X50910Y-330790D01*
X50919Y-330793D01*
X51081Y-330685D01*
X51085Y-330671D01*
X51095Y-330671D01*
X51203Y-330509D01*
X51202Y-330495D01*
X51210Y-330491D01*
X51248Y-330300D01*
X51245Y-330293D01*
X51249Y-330290D01*
X51249Y-329290D01*
X51245Y-329284D01*
X51248Y-329280D01*
X51210Y-329089D01*
X51200Y-329080D01*
X51203Y-329071D01*
X51095Y-328909D01*
X51081Y-328905D01*
X51081Y-328896D01*
X50919Y-328787D01*
X50905Y-328788D01*
X50901Y-328780D01*
X50710Y-328742D01*
X50703Y-328745D01*
X50700Y-328741D01*
X40700Y-328741D01*
X40694Y-328745D01*
X40690Y-328742D01*
X40499Y-328780D01*
X40490Y-328790D01*
X40481Y-328787D01*
X40319Y-328896D01*
X40315Y-328909D01*
X40306Y-328909D01*
X40197Y-329071D01*
X40198Y-329085D01*
X40190Y-329089D01*
X40152Y-329280D01*
X40155Y-329287D01*
X40151Y-329290D01*
X40151Y-330290D01*
X40155Y-330296D01*
X40152Y-330300D01*
X40190Y-330491D01*
X40200Y-330500D01*
X40197Y-330509D01*
X40306Y-330671D01*
X40319Y-330675D01*
X40319Y-330685D01*
X40481Y-330793D01*
X40495Y-330792D01*
X40499Y-330800D01*
X40690Y-330838D01*
X40697Y-330835D01*
X40700Y-330839D01*
X50700Y-330839D01*
X50706Y-330835D01*
G37*
G36*
X50706Y-337335D02*
X50706Y-337335D01*
X50710Y-337338D01*
X50901Y-337300D01*
X50910Y-337290D01*
X50919Y-337293D01*
X51081Y-337185D01*
X51085Y-337171D01*
X51095Y-337171D01*
X51203Y-337009D01*
X51202Y-336995D01*
X51210Y-336991D01*
X51248Y-336800D01*
X51245Y-336793D01*
X51249Y-336790D01*
X51249Y-335790D01*
X51245Y-335784D01*
X51248Y-335780D01*
X51210Y-335589D01*
X51200Y-335580D01*
X51203Y-335571D01*
X51095Y-335409D01*
X51081Y-335405D01*
X51081Y-335396D01*
X50919Y-335287D01*
X50905Y-335288D01*
X50901Y-335280D01*
X50710Y-335242D01*
X50703Y-335245D01*
X50700Y-335241D01*
X40700Y-335241D01*
X40694Y-335245D01*
X40690Y-335242D01*
X40499Y-335280D01*
X40490Y-335290D01*
X40481Y-335287D01*
X40319Y-335396D01*
X40315Y-335409D01*
X40306Y-335409D01*
X40197Y-335571D01*
X40198Y-335585D01*
X40190Y-335589D01*
X40152Y-335780D01*
X40155Y-335787D01*
X40151Y-335790D01*
X40151Y-336790D01*
X40155Y-336796D01*
X40152Y-336800D01*
X40190Y-336991D01*
X40200Y-337000D01*
X40197Y-337009D01*
X40306Y-337171D01*
X40319Y-337175D01*
X40319Y-337185D01*
X40481Y-337293D01*
X40495Y-337292D01*
X40499Y-337300D01*
X40690Y-337338D01*
X40697Y-337335D01*
X40700Y-337339D01*
X50700Y-337339D01*
X50706Y-337335D01*
G37*
G36*
X-15294Y-337335D02*
X-15294Y-337335D01*
X-15290Y-337338D01*
X-15099Y-337300D01*
X-15090Y-337290D01*
X-15081Y-337293D01*
X-14919Y-337185D01*
X-14915Y-337171D01*
X-14906Y-337171D01*
X-14797Y-337009D01*
X-14798Y-336995D01*
X-14790Y-336991D01*
X-14752Y-336800D01*
X-14755Y-336793D01*
X-14751Y-336790D01*
X-14751Y-335790D01*
X-14755Y-335784D01*
X-14752Y-335780D01*
X-14790Y-335589D01*
X-14800Y-335580D01*
X-14797Y-335571D01*
X-14906Y-335409D01*
X-14919Y-335405D01*
X-14919Y-335396D01*
X-15081Y-335287D01*
X-15095Y-335288D01*
X-15099Y-335280D01*
X-15290Y-335242D01*
X-15297Y-335245D01*
X-15300Y-335241D01*
X-25300Y-335241D01*
X-25306Y-335245D01*
X-25310Y-335242D01*
X-25501Y-335280D01*
X-25510Y-335290D01*
X-25519Y-335287D01*
X-25681Y-335396D01*
X-25685Y-335409D01*
X-25695Y-335409D01*
X-25803Y-335571D01*
X-25802Y-335585D01*
X-25810Y-335589D01*
X-25848Y-335780D01*
X-25845Y-335787D01*
X-25849Y-335790D01*
X-25849Y-336790D01*
X-25845Y-336796D01*
X-25848Y-336800D01*
X-25810Y-336991D01*
X-25800Y-337000D01*
X-25803Y-337009D01*
X-25695Y-337171D01*
X-25681Y-337175D01*
X-25681Y-337185D01*
X-25519Y-337293D01*
X-25505Y-337292D01*
X-25501Y-337300D01*
X-25310Y-337338D01*
X-25303Y-337335D01*
X-25300Y-337339D01*
X-15300Y-337339D01*
X-15294Y-337335D01*
G37*
D10*
X-260232Y-452120D03*
X-277232Y-452120D03*
D11*
X-303920Y-346964D03*
X-320920Y-346964D03*
X-304174Y-367792D03*
X-321174Y-367792D03*
D10*
X-320040Y-405520D03*
X-320040Y-422520D03*
D11*
X-304174Y-388366D03*
X-321174Y-388366D03*
D12*
X121158Y-364236D03*
X83566Y-364236D03*
X-36576Y-226060D03*
X1016Y-226060D03*
D13*
G36*
X-31569Y-404591D02*
X-42882Y-393278D01*
X-23791Y-374187D01*
X-12478Y-385500D01*
X-31569Y-404591D01*
G37*
G36*
X-11770Y-424389D02*
X-23083Y-413076D01*
X-3992Y-393985D01*
X7321Y-405298D01*
X-11770Y-424389D01*
G37*
D10*
X256404Y-408940D03*
X239404Y-408940D03*
D11*
X274066Y-421504D03*
X274066Y-404504D03*
X220726Y-414664D03*
X220726Y-431664D03*
D14*
X-319888Y-256208D03*
X-300888Y-256208D03*
X-310388Y-278208D03*
D15*
X71060Y-416560D03*
X127060Y-416560D03*
D16*
X27940Y-424120D03*
X27940Y-480120D03*
D11*
X19440Y-393700D03*
X36440Y-393700D03*
X-50800Y-379340D03*
X-50800Y-362340D03*
D10*
X309000Y-429260D03*
X326000Y-429260D03*
D17*
X255270Y-302270D03*
X267970Y-302270D03*
D18*
X250320Y-281220D03*
X272920Y-281220D03*
D19*
X242570Y-247620D03*
X280670Y-247620D03*
X255270Y-247620D03*
X267970Y-247620D03*
D20*
X280870Y-302320D03*
D21*
X242370Y-302070D03*
D22*
X-259820Y-419020D03*
X-259820Y-414020D03*
X-259820Y-409020D03*
X-259820Y-404020D03*
X-288820Y-424020D03*
X-288820Y-419020D03*
X-288820Y-414020D03*
X-288820Y-409020D03*
X-288820Y-404020D03*
X-259820Y-424020D03*
D23*
X-274320Y-425520D03*
X-269320Y-425520D03*
X-279320Y-425520D03*
X-279320Y-402520D03*
X-274320Y-402520D03*
X-269320Y-402520D03*
D10*
X-259080Y-366640D03*
X-259080Y-349640D03*
X-233544Y-432816D03*
X-216544Y-432816D03*
G36*
X-304731Y-446388D02*
X-296954Y-454165D01*
X-304025Y-461236D01*
X-311802Y-453459D01*
X-304731Y-446388D01*
G37*
G36*
X-316751Y-434368D02*
X-308974Y-442145D01*
X-316045Y-449216D01*
X-323822Y-441439D01*
X-316751Y-434368D01*
G37*
D11*
X-279400Y-349640D03*
X-279400Y-366640D03*
M02*
