G04 EAGLE Gerber RS-274X export*
G75*
%MOMM*%
%FSLAX34Y34*%
%LPD*%
%INSolderpaste Bottom*%
%IPPOS*%
%AMOC8*
5,1,8,0,0,1.08239X$1,22.5*%
G01*
%ADD10R,1.100000X1.000000*%
%ADD11R,1.000000X1.100000*%
%ADD12R,0.558800X2.794000*%
%ADD13R,1.600000X2.700000*%
%ADD14R,1.000000X1.400000*%
%ADD15R,3.500000X1.600000*%
%ADD16R,1.600000X3.500000*%
%ADD17R,0.610000X1.020000*%
%ADD18R,1.650000X3.810000*%
%ADD19R,0.610000X1.270000*%
%ADD20R,0.650000X1.100000*%
%ADD21R,0.650000X1.050000*%
%ADD22R,0.100000X1.300000*%
%ADD23R,0.700000X0.100000*%

G36*
X34206Y-297585D02*
X34206Y-297585D01*
X34210Y-297588D01*
X34401Y-297550D01*
X34410Y-297540D01*
X34419Y-297543D01*
X34581Y-297435D01*
X34585Y-297421D01*
X34595Y-297421D01*
X34703Y-297259D01*
X34702Y-297245D01*
X34710Y-297241D01*
X34748Y-297050D01*
X34745Y-297043D01*
X34749Y-297040D01*
X34749Y-282040D01*
X34745Y-282034D01*
X34748Y-282030D01*
X34710Y-281839D01*
X34700Y-281830D01*
X34703Y-281821D01*
X34595Y-281659D01*
X34581Y-281655D01*
X34581Y-281646D01*
X34419Y-281537D01*
X34405Y-281538D01*
X34401Y-281530D01*
X34210Y-281492D01*
X34203Y-281495D01*
X34200Y-281491D01*
X23200Y-281491D01*
X23194Y-281495D01*
X23190Y-281492D01*
X22999Y-281530D01*
X22990Y-281540D01*
X22981Y-281537D01*
X22819Y-281646D01*
X22815Y-281659D01*
X22806Y-281659D01*
X22697Y-281821D01*
X22698Y-281835D01*
X22690Y-281839D01*
X22652Y-282030D01*
X22655Y-282037D01*
X22651Y-282040D01*
X22651Y-297040D01*
X22655Y-297046D01*
X22652Y-297050D01*
X22690Y-297241D01*
X22700Y-297250D01*
X22697Y-297259D01*
X22806Y-297421D01*
X22819Y-297425D01*
X22819Y-297435D01*
X22981Y-297543D01*
X22995Y-297542D01*
X22999Y-297550D01*
X23190Y-297588D01*
X23197Y-297585D01*
X23200Y-297589D01*
X34200Y-297589D01*
X34206Y-297585D01*
G37*
G36*
X34206Y-315585D02*
X34206Y-315585D01*
X34210Y-315588D01*
X34401Y-315550D01*
X34410Y-315540D01*
X34419Y-315543D01*
X34581Y-315435D01*
X34585Y-315421D01*
X34595Y-315421D01*
X34703Y-315259D01*
X34702Y-315245D01*
X34710Y-315241D01*
X34748Y-315050D01*
X34745Y-315043D01*
X34749Y-315040D01*
X34749Y-300040D01*
X34745Y-300034D01*
X34748Y-300030D01*
X34710Y-299839D01*
X34700Y-299830D01*
X34703Y-299821D01*
X34595Y-299659D01*
X34581Y-299655D01*
X34581Y-299646D01*
X34419Y-299537D01*
X34405Y-299538D01*
X34401Y-299530D01*
X34210Y-299492D01*
X34203Y-299495D01*
X34200Y-299491D01*
X23200Y-299491D01*
X23194Y-299495D01*
X23190Y-299492D01*
X22999Y-299530D01*
X22990Y-299540D01*
X22981Y-299537D01*
X22819Y-299646D01*
X22815Y-299659D01*
X22806Y-299659D01*
X22697Y-299821D01*
X22698Y-299835D01*
X22690Y-299839D01*
X22652Y-300030D01*
X22655Y-300037D01*
X22651Y-300040D01*
X22651Y-315040D01*
X22655Y-315046D01*
X22652Y-315050D01*
X22690Y-315241D01*
X22700Y-315250D01*
X22697Y-315259D01*
X22806Y-315421D01*
X22819Y-315425D01*
X22819Y-315435D01*
X22981Y-315543D01*
X22995Y-315542D01*
X22999Y-315550D01*
X23190Y-315588D01*
X23197Y-315585D01*
X23200Y-315589D01*
X34200Y-315589D01*
X34206Y-315585D01*
G37*
G36*
X16456Y-297335D02*
X16456Y-297335D01*
X16460Y-297338D01*
X16651Y-297300D01*
X16660Y-297290D01*
X16669Y-297293D01*
X16831Y-297185D01*
X16835Y-297171D01*
X16845Y-297171D01*
X16953Y-297009D01*
X16952Y-296995D01*
X16960Y-296991D01*
X16998Y-296800D01*
X16995Y-296793D01*
X16999Y-296790D01*
X16999Y-282290D01*
X16995Y-282284D01*
X16998Y-282280D01*
X16960Y-282089D01*
X16950Y-282080D01*
X16953Y-282071D01*
X16845Y-281909D01*
X16831Y-281905D01*
X16831Y-281896D01*
X16669Y-281787D01*
X16655Y-281788D01*
X16651Y-281780D01*
X16460Y-281742D01*
X16453Y-281745D01*
X16450Y-281741D01*
X5950Y-281741D01*
X5944Y-281745D01*
X5940Y-281742D01*
X5749Y-281780D01*
X5740Y-281790D01*
X5731Y-281787D01*
X5569Y-281896D01*
X5565Y-281909D01*
X5556Y-281909D01*
X5447Y-282071D01*
X5448Y-282085D01*
X5440Y-282089D01*
X5402Y-282280D01*
X5405Y-282287D01*
X5401Y-282290D01*
X5401Y-296790D01*
X5405Y-296796D01*
X5402Y-296800D01*
X5440Y-296991D01*
X5450Y-297000D01*
X5447Y-297009D01*
X5556Y-297171D01*
X5569Y-297175D01*
X5569Y-297185D01*
X5731Y-297293D01*
X5745Y-297292D01*
X5749Y-297300D01*
X5940Y-297338D01*
X5947Y-297335D01*
X5950Y-297339D01*
X16450Y-297339D01*
X16456Y-297335D01*
G37*
G36*
X16456Y-315335D02*
X16456Y-315335D01*
X16460Y-315338D01*
X16651Y-315300D01*
X16660Y-315290D01*
X16669Y-315293D01*
X16831Y-315185D01*
X16835Y-315171D01*
X16845Y-315171D01*
X16953Y-315009D01*
X16952Y-314995D01*
X16960Y-314991D01*
X16998Y-314800D01*
X16995Y-314793D01*
X16999Y-314790D01*
X16999Y-300290D01*
X16995Y-300284D01*
X16998Y-300280D01*
X16960Y-300089D01*
X16950Y-300080D01*
X16953Y-300071D01*
X16845Y-299909D01*
X16831Y-299905D01*
X16831Y-299896D01*
X16669Y-299787D01*
X16655Y-299788D01*
X16651Y-299780D01*
X16460Y-299742D01*
X16453Y-299745D01*
X16450Y-299741D01*
X5950Y-299741D01*
X5944Y-299745D01*
X5940Y-299742D01*
X5749Y-299780D01*
X5740Y-299790D01*
X5731Y-299787D01*
X5569Y-299896D01*
X5565Y-299909D01*
X5556Y-299909D01*
X5447Y-300071D01*
X5448Y-300085D01*
X5440Y-300089D01*
X5402Y-300280D01*
X5405Y-300287D01*
X5401Y-300290D01*
X5401Y-314790D01*
X5405Y-314796D01*
X5402Y-314800D01*
X5440Y-314991D01*
X5450Y-315000D01*
X5447Y-315009D01*
X5556Y-315171D01*
X5569Y-315175D01*
X5569Y-315185D01*
X5731Y-315293D01*
X5745Y-315292D01*
X5749Y-315300D01*
X5940Y-315338D01*
X5947Y-315335D01*
X5950Y-315339D01*
X16450Y-315339D01*
X16456Y-315335D01*
G37*
G36*
X15706Y-339585D02*
X15706Y-339585D01*
X15710Y-339588D01*
X15901Y-339550D01*
X15910Y-339540D01*
X15919Y-339543D01*
X16081Y-339435D01*
X16085Y-339421D01*
X16095Y-339421D01*
X16203Y-339259D01*
X16202Y-339245D01*
X16210Y-339241D01*
X16248Y-339050D01*
X16245Y-339043D01*
X16249Y-339040D01*
X16249Y-326040D01*
X16245Y-326034D01*
X16248Y-326030D01*
X16210Y-325839D01*
X16200Y-325830D01*
X16203Y-325821D01*
X16095Y-325659D01*
X16081Y-325655D01*
X16081Y-325646D01*
X15919Y-325537D01*
X15905Y-325538D01*
X15901Y-325530D01*
X15710Y-325492D01*
X15703Y-325495D01*
X15700Y-325491D01*
X6700Y-325491D01*
X6694Y-325495D01*
X6690Y-325492D01*
X6499Y-325530D01*
X6490Y-325540D01*
X6481Y-325537D01*
X6319Y-325646D01*
X6315Y-325659D01*
X6306Y-325659D01*
X6197Y-325821D01*
X6198Y-325830D01*
X6191Y-325835D01*
X6193Y-325838D01*
X6190Y-325839D01*
X6152Y-326030D01*
X6155Y-326037D01*
X6151Y-326040D01*
X6151Y-339040D01*
X6155Y-339046D01*
X6152Y-339050D01*
X6190Y-339241D01*
X6200Y-339250D01*
X6197Y-339259D01*
X6306Y-339421D01*
X6319Y-339425D01*
X6319Y-339435D01*
X6481Y-339543D01*
X6495Y-339542D01*
X6499Y-339550D01*
X6690Y-339588D01*
X6697Y-339585D01*
X6700Y-339589D01*
X15700Y-339589D01*
X15706Y-339585D01*
G37*
G36*
X33206Y-339585D02*
X33206Y-339585D01*
X33210Y-339588D01*
X33401Y-339550D01*
X33410Y-339540D01*
X33419Y-339543D01*
X33581Y-339435D01*
X33585Y-339421D01*
X33595Y-339421D01*
X33703Y-339259D01*
X33702Y-339245D01*
X33710Y-339241D01*
X33748Y-339050D01*
X33745Y-339043D01*
X33749Y-339040D01*
X33749Y-326040D01*
X33745Y-326034D01*
X33748Y-326030D01*
X33710Y-325839D01*
X33700Y-325830D01*
X33703Y-325821D01*
X33595Y-325659D01*
X33581Y-325655D01*
X33581Y-325646D01*
X33419Y-325537D01*
X33405Y-325538D01*
X33401Y-325530D01*
X33210Y-325492D01*
X33203Y-325495D01*
X33200Y-325491D01*
X24200Y-325491D01*
X24194Y-325495D01*
X24190Y-325492D01*
X23999Y-325530D01*
X23990Y-325540D01*
X23981Y-325537D01*
X23819Y-325646D01*
X23815Y-325659D01*
X23806Y-325659D01*
X23697Y-325821D01*
X23698Y-325830D01*
X23691Y-325835D01*
X23693Y-325838D01*
X23690Y-325839D01*
X23652Y-326030D01*
X23655Y-326037D01*
X23651Y-326040D01*
X23651Y-339040D01*
X23655Y-339046D01*
X23652Y-339050D01*
X23690Y-339241D01*
X23700Y-339250D01*
X23697Y-339259D01*
X23806Y-339421D01*
X23819Y-339425D01*
X23819Y-339435D01*
X23981Y-339543D01*
X23995Y-339542D01*
X23999Y-339550D01*
X24190Y-339588D01*
X24197Y-339585D01*
X24200Y-339589D01*
X33200Y-339589D01*
X33206Y-339585D01*
G37*
G36*
X33206Y-357585D02*
X33206Y-357585D01*
X33210Y-357588D01*
X33401Y-357550D01*
X33410Y-357540D01*
X33419Y-357543D01*
X33581Y-357435D01*
X33585Y-357421D01*
X33595Y-357421D01*
X33703Y-357259D01*
X33702Y-357245D01*
X33710Y-357241D01*
X33748Y-357050D01*
X33745Y-357043D01*
X33749Y-357040D01*
X33749Y-344040D01*
X33745Y-344034D01*
X33748Y-344030D01*
X33710Y-343839D01*
X33700Y-343830D01*
X33703Y-343821D01*
X33595Y-343659D01*
X33581Y-343655D01*
X33581Y-343646D01*
X33419Y-343537D01*
X33405Y-343538D01*
X33401Y-343530D01*
X33210Y-343492D01*
X33203Y-343495D01*
X33200Y-343491D01*
X24200Y-343491D01*
X24194Y-343495D01*
X24190Y-343492D01*
X23999Y-343530D01*
X23990Y-343540D01*
X23981Y-343537D01*
X23819Y-343646D01*
X23815Y-343659D01*
X23806Y-343659D01*
X23697Y-343821D01*
X23698Y-343830D01*
X23691Y-343835D01*
X23693Y-343838D01*
X23690Y-343839D01*
X23652Y-344030D01*
X23655Y-344037D01*
X23651Y-344040D01*
X23651Y-357040D01*
X23655Y-357046D01*
X23652Y-357050D01*
X23690Y-357241D01*
X23700Y-357250D01*
X23697Y-357259D01*
X23806Y-357421D01*
X23819Y-357425D01*
X23819Y-357435D01*
X23981Y-357543D01*
X23995Y-357542D01*
X23999Y-357550D01*
X24190Y-357588D01*
X24197Y-357585D01*
X24200Y-357589D01*
X33200Y-357589D01*
X33206Y-357585D01*
G37*
G36*
X15706Y-357585D02*
X15706Y-357585D01*
X15710Y-357588D01*
X15901Y-357550D01*
X15910Y-357540D01*
X15919Y-357543D01*
X16081Y-357435D01*
X16085Y-357421D01*
X16095Y-357421D01*
X16203Y-357259D01*
X16202Y-357245D01*
X16210Y-357241D01*
X16248Y-357050D01*
X16245Y-357043D01*
X16249Y-357040D01*
X16249Y-344040D01*
X16245Y-344034D01*
X16248Y-344030D01*
X16210Y-343839D01*
X16200Y-343830D01*
X16203Y-343821D01*
X16095Y-343659D01*
X16081Y-343655D01*
X16081Y-343646D01*
X15919Y-343537D01*
X15905Y-343538D01*
X15901Y-343530D01*
X15710Y-343492D01*
X15703Y-343495D01*
X15700Y-343491D01*
X6700Y-343491D01*
X6694Y-343495D01*
X6690Y-343492D01*
X6499Y-343530D01*
X6490Y-343540D01*
X6481Y-343537D01*
X6319Y-343646D01*
X6315Y-343659D01*
X6306Y-343659D01*
X6197Y-343821D01*
X6198Y-343830D01*
X6191Y-343835D01*
X6193Y-343838D01*
X6190Y-343839D01*
X6152Y-344030D01*
X6155Y-344037D01*
X6151Y-344040D01*
X6151Y-357040D01*
X6155Y-357046D01*
X6152Y-357050D01*
X6190Y-357241D01*
X6200Y-357250D01*
X6197Y-357259D01*
X6306Y-357421D01*
X6319Y-357425D01*
X6319Y-357435D01*
X6481Y-357543D01*
X6495Y-357542D01*
X6499Y-357550D01*
X6690Y-357588D01*
X6697Y-357585D01*
X6700Y-357589D01*
X15700Y-357589D01*
X15706Y-357585D01*
G37*
G36*
X-16294Y-296335D02*
X-16294Y-296335D01*
X-16290Y-296338D01*
X-16099Y-296300D01*
X-16090Y-296290D01*
X-16081Y-296293D01*
X-15919Y-296185D01*
X-15915Y-296171D01*
X-15906Y-296171D01*
X-15797Y-296009D01*
X-15798Y-295995D01*
X-15790Y-295991D01*
X-15752Y-295800D01*
X-15755Y-295793D01*
X-15751Y-295790D01*
X-15751Y-282790D01*
X-15755Y-282784D01*
X-15752Y-282780D01*
X-15790Y-282589D01*
X-15800Y-282580D01*
X-15797Y-282571D01*
X-15906Y-282409D01*
X-15919Y-282405D01*
X-15919Y-282396D01*
X-16081Y-282287D01*
X-16095Y-282288D01*
X-16099Y-282280D01*
X-16290Y-282242D01*
X-16297Y-282245D01*
X-16300Y-282241D01*
X-24300Y-282241D01*
X-24306Y-282245D01*
X-24310Y-282242D01*
X-24501Y-282280D01*
X-24510Y-282290D01*
X-24519Y-282287D01*
X-24681Y-282396D01*
X-24685Y-282409D01*
X-24695Y-282409D01*
X-24803Y-282571D01*
X-24802Y-282580D01*
X-24809Y-282585D01*
X-24807Y-282588D01*
X-24810Y-282589D01*
X-24848Y-282780D01*
X-24845Y-282787D01*
X-24849Y-282790D01*
X-24849Y-295790D01*
X-24845Y-295796D01*
X-24848Y-295800D01*
X-24810Y-295991D01*
X-24800Y-296000D01*
X-24803Y-296009D01*
X-24695Y-296171D01*
X-24681Y-296175D01*
X-24681Y-296185D01*
X-24519Y-296293D01*
X-24505Y-296292D01*
X-24501Y-296300D01*
X-24310Y-296338D01*
X-24303Y-296335D01*
X-24300Y-296339D01*
X-16300Y-296339D01*
X-16294Y-296335D01*
G37*
G36*
X49706Y-296585D02*
X49706Y-296585D01*
X49710Y-296588D01*
X49901Y-296550D01*
X49910Y-296540D01*
X49919Y-296543D01*
X50081Y-296435D01*
X50085Y-296421D01*
X50095Y-296421D01*
X50203Y-296259D01*
X50202Y-296245D01*
X50210Y-296241D01*
X50248Y-296050D01*
X50245Y-296043D01*
X50249Y-296040D01*
X50249Y-283040D01*
X50245Y-283034D01*
X50248Y-283030D01*
X50210Y-282839D01*
X50200Y-282830D01*
X50203Y-282821D01*
X50095Y-282659D01*
X50081Y-282655D01*
X50081Y-282646D01*
X49919Y-282537D01*
X49905Y-282538D01*
X49901Y-282530D01*
X49710Y-282492D01*
X49703Y-282495D01*
X49700Y-282491D01*
X41700Y-282491D01*
X41694Y-282495D01*
X41690Y-282492D01*
X41499Y-282530D01*
X41490Y-282540D01*
X41481Y-282537D01*
X41319Y-282646D01*
X41315Y-282659D01*
X41306Y-282659D01*
X41197Y-282821D01*
X41198Y-282830D01*
X41191Y-282835D01*
X41193Y-282838D01*
X41190Y-282839D01*
X41152Y-283030D01*
X41155Y-283037D01*
X41151Y-283040D01*
X41151Y-296040D01*
X41155Y-296046D01*
X41152Y-296050D01*
X41190Y-296241D01*
X41200Y-296250D01*
X41197Y-296259D01*
X41306Y-296421D01*
X41319Y-296425D01*
X41319Y-296435D01*
X41481Y-296543D01*
X41495Y-296542D01*
X41499Y-296550D01*
X41690Y-296588D01*
X41697Y-296585D01*
X41700Y-296589D01*
X49700Y-296589D01*
X49706Y-296585D01*
G37*
G36*
X-16294Y-357585D02*
X-16294Y-357585D01*
X-16290Y-357588D01*
X-16099Y-357550D01*
X-16090Y-357540D01*
X-16081Y-357543D01*
X-15919Y-357435D01*
X-15915Y-357421D01*
X-15906Y-357421D01*
X-15797Y-357259D01*
X-15798Y-357245D01*
X-15790Y-357241D01*
X-15752Y-357050D01*
X-15755Y-357043D01*
X-15751Y-357040D01*
X-15751Y-344040D01*
X-15755Y-344034D01*
X-15752Y-344030D01*
X-15790Y-343839D01*
X-15800Y-343830D01*
X-15797Y-343821D01*
X-15906Y-343659D01*
X-15919Y-343655D01*
X-15919Y-343646D01*
X-16081Y-343537D01*
X-16095Y-343538D01*
X-16099Y-343530D01*
X-16290Y-343492D01*
X-16297Y-343495D01*
X-16300Y-343491D01*
X-24300Y-343491D01*
X-24306Y-343495D01*
X-24310Y-343492D01*
X-24501Y-343530D01*
X-24510Y-343540D01*
X-24519Y-343537D01*
X-24681Y-343646D01*
X-24685Y-343659D01*
X-24695Y-343659D01*
X-24803Y-343821D01*
X-24802Y-343830D01*
X-24809Y-343835D01*
X-24807Y-343838D01*
X-24810Y-343839D01*
X-24848Y-344030D01*
X-24845Y-344037D01*
X-24849Y-344040D01*
X-24849Y-357040D01*
X-24845Y-357046D01*
X-24848Y-357050D01*
X-24810Y-357241D01*
X-24800Y-357250D01*
X-24803Y-357259D01*
X-24695Y-357421D01*
X-24681Y-357425D01*
X-24681Y-357435D01*
X-24519Y-357543D01*
X-24505Y-357542D01*
X-24501Y-357550D01*
X-24310Y-357588D01*
X-24303Y-357585D01*
X-24300Y-357589D01*
X-16300Y-357589D01*
X-16294Y-357585D01*
G37*
G36*
X49706Y-357585D02*
X49706Y-357585D01*
X49710Y-357588D01*
X49901Y-357550D01*
X49910Y-357540D01*
X49919Y-357543D01*
X50081Y-357435D01*
X50085Y-357421D01*
X50095Y-357421D01*
X50203Y-357259D01*
X50202Y-357245D01*
X50210Y-357241D01*
X50248Y-357050D01*
X50245Y-357043D01*
X50249Y-357040D01*
X50249Y-344040D01*
X50245Y-344034D01*
X50248Y-344030D01*
X50210Y-343839D01*
X50200Y-343830D01*
X50203Y-343821D01*
X50095Y-343659D01*
X50081Y-343655D01*
X50081Y-343646D01*
X49919Y-343537D01*
X49905Y-343538D01*
X49901Y-343530D01*
X49710Y-343492D01*
X49703Y-343495D01*
X49700Y-343491D01*
X41700Y-343491D01*
X41694Y-343495D01*
X41690Y-343492D01*
X41499Y-343530D01*
X41490Y-343540D01*
X41481Y-343537D01*
X41319Y-343646D01*
X41315Y-343659D01*
X41306Y-343659D01*
X41197Y-343821D01*
X41198Y-343830D01*
X41191Y-343835D01*
X41193Y-343838D01*
X41190Y-343839D01*
X41152Y-344030D01*
X41155Y-344037D01*
X41151Y-344040D01*
X41151Y-357040D01*
X41155Y-357046D01*
X41152Y-357050D01*
X41190Y-357241D01*
X41200Y-357250D01*
X41197Y-357259D01*
X41306Y-357421D01*
X41319Y-357425D01*
X41319Y-357435D01*
X41481Y-357543D01*
X41495Y-357542D01*
X41499Y-357550D01*
X41690Y-357588D01*
X41697Y-357585D01*
X41700Y-357589D01*
X49700Y-357589D01*
X49706Y-357585D01*
G37*
G36*
X-7544Y-292585D02*
X-7544Y-292585D01*
X-7540Y-292588D01*
X-7349Y-292550D01*
X-7340Y-292540D01*
X-7331Y-292543D01*
X-7169Y-292435D01*
X-7165Y-292421D01*
X-7156Y-292421D01*
X-7047Y-292259D01*
X-7048Y-292245D01*
X-7040Y-292241D01*
X-7002Y-292050D01*
X-7005Y-292043D01*
X-7001Y-292040D01*
X-7001Y-282040D01*
X-7005Y-282034D01*
X-7002Y-282030D01*
X-7040Y-281839D01*
X-7050Y-281830D01*
X-7047Y-281821D01*
X-7156Y-281659D01*
X-7169Y-281655D01*
X-7169Y-281646D01*
X-7331Y-281537D01*
X-7345Y-281538D01*
X-7349Y-281530D01*
X-7540Y-281492D01*
X-7547Y-281495D01*
X-7550Y-281491D01*
X-8550Y-281491D01*
X-8556Y-281495D01*
X-8560Y-281492D01*
X-8751Y-281530D01*
X-8760Y-281540D01*
X-8769Y-281537D01*
X-8931Y-281646D01*
X-8935Y-281659D01*
X-8945Y-281659D01*
X-9053Y-281821D01*
X-9052Y-281833D01*
X-9059Y-281838D01*
X-9060Y-281839D01*
X-9098Y-282030D01*
X-9096Y-282035D01*
X-9097Y-282036D01*
X-9096Y-282038D01*
X-9099Y-282040D01*
X-9099Y-292040D01*
X-9095Y-292046D01*
X-9098Y-292050D01*
X-9060Y-292241D01*
X-9050Y-292250D01*
X-9053Y-292259D01*
X-8945Y-292421D01*
X-8931Y-292425D01*
X-8931Y-292435D01*
X-8769Y-292543D01*
X-8755Y-292542D01*
X-8751Y-292550D01*
X-8560Y-292588D01*
X-8553Y-292585D01*
X-8550Y-292589D01*
X-7550Y-292589D01*
X-7544Y-292585D01*
G37*
G36*
X-1044Y-292585D02*
X-1044Y-292585D01*
X-1040Y-292588D01*
X-849Y-292550D01*
X-840Y-292540D01*
X-831Y-292543D01*
X-669Y-292435D01*
X-665Y-292421D01*
X-656Y-292421D01*
X-547Y-292259D01*
X-548Y-292245D01*
X-540Y-292241D01*
X-502Y-292050D01*
X-505Y-292043D01*
X-501Y-292040D01*
X-501Y-282040D01*
X-505Y-282034D01*
X-502Y-282030D01*
X-540Y-281839D01*
X-550Y-281830D01*
X-547Y-281821D01*
X-656Y-281659D01*
X-669Y-281655D01*
X-669Y-281646D01*
X-831Y-281537D01*
X-845Y-281538D01*
X-849Y-281530D01*
X-1040Y-281492D01*
X-1047Y-281495D01*
X-1050Y-281491D01*
X-2050Y-281491D01*
X-2056Y-281495D01*
X-2060Y-281492D01*
X-2251Y-281530D01*
X-2260Y-281540D01*
X-2269Y-281537D01*
X-2431Y-281646D01*
X-2435Y-281659D01*
X-2445Y-281659D01*
X-2553Y-281821D01*
X-2552Y-281833D01*
X-2559Y-281838D01*
X-2560Y-281839D01*
X-2598Y-282030D01*
X-2596Y-282035D01*
X-2597Y-282036D01*
X-2596Y-282038D01*
X-2599Y-282040D01*
X-2599Y-292040D01*
X-2595Y-292046D01*
X-2598Y-292050D01*
X-2560Y-292241D01*
X-2550Y-292250D01*
X-2553Y-292259D01*
X-2445Y-292421D01*
X-2431Y-292425D01*
X-2431Y-292435D01*
X-2269Y-292543D01*
X-2255Y-292542D01*
X-2251Y-292550D01*
X-2060Y-292588D01*
X-2053Y-292585D01*
X-2050Y-292589D01*
X-1050Y-292589D01*
X-1044Y-292585D01*
G37*
G36*
X-7544Y-358585D02*
X-7544Y-358585D01*
X-7540Y-358588D01*
X-7349Y-358550D01*
X-7340Y-358540D01*
X-7331Y-358543D01*
X-7169Y-358435D01*
X-7165Y-358421D01*
X-7156Y-358421D01*
X-7047Y-358259D01*
X-7048Y-358245D01*
X-7040Y-358241D01*
X-7002Y-358050D01*
X-7005Y-358043D01*
X-7001Y-358040D01*
X-7001Y-348040D01*
X-7005Y-348034D01*
X-7002Y-348030D01*
X-7040Y-347839D01*
X-7050Y-347830D01*
X-7047Y-347821D01*
X-7156Y-347659D01*
X-7169Y-347655D01*
X-7169Y-347646D01*
X-7331Y-347537D01*
X-7345Y-347538D01*
X-7349Y-347530D01*
X-7540Y-347492D01*
X-7547Y-347495D01*
X-7550Y-347491D01*
X-8550Y-347491D01*
X-8556Y-347495D01*
X-8560Y-347492D01*
X-8751Y-347530D01*
X-8760Y-347540D01*
X-8769Y-347537D01*
X-8931Y-347646D01*
X-8935Y-347659D01*
X-8945Y-347659D01*
X-9053Y-347821D01*
X-9052Y-347833D01*
X-9059Y-347838D01*
X-9060Y-347839D01*
X-9098Y-348030D01*
X-9096Y-348035D01*
X-9097Y-348036D01*
X-9096Y-348038D01*
X-9099Y-348040D01*
X-9099Y-358040D01*
X-9095Y-358046D01*
X-9098Y-358050D01*
X-9060Y-358241D01*
X-9050Y-358250D01*
X-9053Y-358259D01*
X-8945Y-358421D01*
X-8931Y-358425D01*
X-8931Y-358435D01*
X-8769Y-358543D01*
X-8755Y-358542D01*
X-8751Y-358550D01*
X-8560Y-358588D01*
X-8553Y-358585D01*
X-8550Y-358589D01*
X-7550Y-358589D01*
X-7544Y-358585D01*
G37*
G36*
X-1044Y-358585D02*
X-1044Y-358585D01*
X-1040Y-358588D01*
X-849Y-358550D01*
X-840Y-358540D01*
X-831Y-358543D01*
X-669Y-358435D01*
X-665Y-358421D01*
X-656Y-358421D01*
X-547Y-358259D01*
X-548Y-358245D01*
X-540Y-358241D01*
X-502Y-358050D01*
X-505Y-358043D01*
X-501Y-358040D01*
X-501Y-348040D01*
X-505Y-348034D01*
X-502Y-348030D01*
X-540Y-347839D01*
X-550Y-347830D01*
X-547Y-347821D01*
X-656Y-347659D01*
X-669Y-347655D01*
X-669Y-347646D01*
X-831Y-347537D01*
X-845Y-347538D01*
X-849Y-347530D01*
X-1040Y-347492D01*
X-1047Y-347495D01*
X-1050Y-347491D01*
X-2050Y-347491D01*
X-2056Y-347495D01*
X-2060Y-347492D01*
X-2251Y-347530D01*
X-2260Y-347540D01*
X-2269Y-347537D01*
X-2431Y-347646D01*
X-2435Y-347659D01*
X-2445Y-347659D01*
X-2553Y-347821D01*
X-2552Y-347833D01*
X-2559Y-347838D01*
X-2560Y-347839D01*
X-2598Y-348030D01*
X-2596Y-348035D01*
X-2597Y-348036D01*
X-2596Y-348038D01*
X-2599Y-348040D01*
X-2599Y-358040D01*
X-2595Y-358046D01*
X-2598Y-358050D01*
X-2560Y-358241D01*
X-2550Y-358250D01*
X-2553Y-358259D01*
X-2445Y-358421D01*
X-2431Y-358425D01*
X-2431Y-358435D01*
X-2269Y-358543D01*
X-2255Y-358542D01*
X-2251Y-358550D01*
X-2060Y-358588D01*
X-2053Y-358585D01*
X-2050Y-358589D01*
X-1050Y-358589D01*
X-1044Y-358585D01*
G37*
G36*
X-15294Y-304835D02*
X-15294Y-304835D01*
X-15290Y-304838D01*
X-15099Y-304800D01*
X-15090Y-304790D01*
X-15081Y-304793D01*
X-14919Y-304685D01*
X-14915Y-304671D01*
X-14906Y-304671D01*
X-14797Y-304509D01*
X-14798Y-304495D01*
X-14790Y-304491D01*
X-14752Y-304300D01*
X-14755Y-304293D01*
X-14751Y-304290D01*
X-14751Y-303290D01*
X-14755Y-303284D01*
X-14752Y-303280D01*
X-14790Y-303089D01*
X-14800Y-303080D01*
X-14797Y-303071D01*
X-14906Y-302909D01*
X-14919Y-302905D01*
X-14919Y-302896D01*
X-15081Y-302787D01*
X-15095Y-302788D01*
X-15099Y-302780D01*
X-15290Y-302742D01*
X-15297Y-302745D01*
X-15300Y-302741D01*
X-25300Y-302741D01*
X-25306Y-302745D01*
X-25310Y-302742D01*
X-25501Y-302780D01*
X-25510Y-302790D01*
X-25519Y-302787D01*
X-25681Y-302896D01*
X-25685Y-302909D01*
X-25695Y-302909D01*
X-25803Y-303071D01*
X-25802Y-303085D01*
X-25810Y-303089D01*
X-25848Y-303280D01*
X-25845Y-303287D01*
X-25849Y-303290D01*
X-25849Y-304290D01*
X-25845Y-304296D01*
X-25848Y-304300D01*
X-25810Y-304491D01*
X-25800Y-304500D01*
X-25803Y-304509D01*
X-25695Y-304671D01*
X-25681Y-304675D01*
X-25681Y-304685D01*
X-25519Y-304793D01*
X-25505Y-304792D01*
X-25501Y-304800D01*
X-25310Y-304838D01*
X-25303Y-304835D01*
X-25300Y-304839D01*
X-15300Y-304839D01*
X-15294Y-304835D01*
G37*
G36*
X50706Y-304835D02*
X50706Y-304835D01*
X50710Y-304838D01*
X50901Y-304800D01*
X50910Y-304790D01*
X50919Y-304793D01*
X51081Y-304685D01*
X51085Y-304671D01*
X51095Y-304671D01*
X51203Y-304509D01*
X51202Y-304495D01*
X51210Y-304491D01*
X51248Y-304300D01*
X51245Y-304293D01*
X51249Y-304290D01*
X51249Y-303290D01*
X51245Y-303284D01*
X51248Y-303280D01*
X51210Y-303089D01*
X51200Y-303080D01*
X51203Y-303071D01*
X51095Y-302909D01*
X51081Y-302905D01*
X51081Y-302896D01*
X50919Y-302787D01*
X50905Y-302788D01*
X50901Y-302780D01*
X50710Y-302742D01*
X50703Y-302745D01*
X50700Y-302741D01*
X40700Y-302741D01*
X40694Y-302745D01*
X40690Y-302742D01*
X40499Y-302780D01*
X40490Y-302790D01*
X40481Y-302787D01*
X40319Y-302896D01*
X40315Y-302909D01*
X40306Y-302909D01*
X40197Y-303071D01*
X40198Y-303085D01*
X40190Y-303089D01*
X40152Y-303280D01*
X40155Y-303287D01*
X40151Y-303290D01*
X40151Y-304290D01*
X40155Y-304296D01*
X40152Y-304300D01*
X40190Y-304491D01*
X40200Y-304500D01*
X40197Y-304509D01*
X40306Y-304671D01*
X40319Y-304675D01*
X40319Y-304685D01*
X40481Y-304793D01*
X40495Y-304792D01*
X40499Y-304800D01*
X40690Y-304838D01*
X40697Y-304835D01*
X40700Y-304839D01*
X50700Y-304839D01*
X50706Y-304835D01*
G37*
G36*
X50706Y-311335D02*
X50706Y-311335D01*
X50710Y-311338D01*
X50901Y-311300D01*
X50910Y-311290D01*
X50919Y-311293D01*
X51081Y-311185D01*
X51085Y-311171D01*
X51095Y-311171D01*
X51203Y-311009D01*
X51202Y-310995D01*
X51210Y-310991D01*
X51248Y-310800D01*
X51245Y-310793D01*
X51249Y-310790D01*
X51249Y-309790D01*
X51245Y-309784D01*
X51248Y-309780D01*
X51210Y-309589D01*
X51200Y-309580D01*
X51203Y-309571D01*
X51095Y-309409D01*
X51081Y-309405D01*
X51081Y-309396D01*
X50919Y-309287D01*
X50905Y-309288D01*
X50901Y-309280D01*
X50710Y-309242D01*
X50703Y-309245D01*
X50700Y-309241D01*
X40700Y-309241D01*
X40694Y-309245D01*
X40690Y-309242D01*
X40499Y-309280D01*
X40490Y-309290D01*
X40481Y-309287D01*
X40319Y-309396D01*
X40315Y-309409D01*
X40306Y-309409D01*
X40197Y-309571D01*
X40198Y-309585D01*
X40190Y-309589D01*
X40152Y-309780D01*
X40155Y-309787D01*
X40151Y-309790D01*
X40151Y-310790D01*
X40155Y-310796D01*
X40152Y-310800D01*
X40190Y-310991D01*
X40200Y-311000D01*
X40197Y-311009D01*
X40306Y-311171D01*
X40319Y-311175D01*
X40319Y-311185D01*
X40481Y-311293D01*
X40495Y-311292D01*
X40499Y-311300D01*
X40690Y-311338D01*
X40697Y-311335D01*
X40700Y-311339D01*
X50700Y-311339D01*
X50706Y-311335D01*
G37*
G36*
X-15294Y-311335D02*
X-15294Y-311335D01*
X-15290Y-311338D01*
X-15099Y-311300D01*
X-15090Y-311290D01*
X-15081Y-311293D01*
X-14919Y-311185D01*
X-14915Y-311171D01*
X-14906Y-311171D01*
X-14797Y-311009D01*
X-14798Y-310995D01*
X-14790Y-310991D01*
X-14752Y-310800D01*
X-14755Y-310793D01*
X-14751Y-310790D01*
X-14751Y-309790D01*
X-14755Y-309784D01*
X-14752Y-309780D01*
X-14790Y-309589D01*
X-14800Y-309580D01*
X-14797Y-309571D01*
X-14906Y-309409D01*
X-14919Y-309405D01*
X-14919Y-309396D01*
X-15081Y-309287D01*
X-15095Y-309288D01*
X-15099Y-309280D01*
X-15290Y-309242D01*
X-15297Y-309245D01*
X-15300Y-309241D01*
X-25300Y-309241D01*
X-25306Y-309245D01*
X-25310Y-309242D01*
X-25501Y-309280D01*
X-25510Y-309290D01*
X-25519Y-309287D01*
X-25681Y-309396D01*
X-25685Y-309409D01*
X-25695Y-309409D01*
X-25803Y-309571D01*
X-25802Y-309585D01*
X-25810Y-309589D01*
X-25848Y-309780D01*
X-25845Y-309787D01*
X-25849Y-309790D01*
X-25849Y-310790D01*
X-25845Y-310796D01*
X-25848Y-310800D01*
X-25810Y-310991D01*
X-25800Y-311000D01*
X-25803Y-311009D01*
X-25695Y-311171D01*
X-25681Y-311175D01*
X-25681Y-311185D01*
X-25519Y-311293D01*
X-25505Y-311292D01*
X-25501Y-311300D01*
X-25310Y-311338D01*
X-25303Y-311335D01*
X-25300Y-311339D01*
X-15300Y-311339D01*
X-15294Y-311335D01*
G37*
G36*
X50706Y-317835D02*
X50706Y-317835D01*
X50710Y-317838D01*
X50901Y-317800D01*
X50910Y-317790D01*
X50919Y-317793D01*
X51081Y-317685D01*
X51085Y-317671D01*
X51095Y-317671D01*
X51203Y-317509D01*
X51202Y-317495D01*
X51210Y-317491D01*
X51248Y-317300D01*
X51245Y-317293D01*
X51249Y-317290D01*
X51249Y-316290D01*
X51245Y-316284D01*
X51248Y-316280D01*
X51210Y-316089D01*
X51200Y-316080D01*
X51203Y-316071D01*
X51095Y-315909D01*
X51081Y-315905D01*
X51081Y-315896D01*
X50919Y-315787D01*
X50905Y-315788D01*
X50901Y-315780D01*
X50710Y-315742D01*
X50703Y-315745D01*
X50700Y-315741D01*
X40700Y-315741D01*
X40694Y-315745D01*
X40690Y-315742D01*
X40499Y-315780D01*
X40490Y-315790D01*
X40481Y-315787D01*
X40319Y-315896D01*
X40315Y-315909D01*
X40306Y-315909D01*
X40197Y-316071D01*
X40198Y-316085D01*
X40190Y-316089D01*
X40152Y-316280D01*
X40155Y-316287D01*
X40151Y-316290D01*
X40151Y-317290D01*
X40155Y-317296D01*
X40152Y-317300D01*
X40190Y-317491D01*
X40200Y-317500D01*
X40197Y-317509D01*
X40306Y-317671D01*
X40319Y-317675D01*
X40319Y-317685D01*
X40481Y-317793D01*
X40495Y-317792D01*
X40499Y-317800D01*
X40690Y-317838D01*
X40697Y-317835D01*
X40700Y-317839D01*
X50700Y-317839D01*
X50706Y-317835D01*
G37*
G36*
X-15294Y-317835D02*
X-15294Y-317835D01*
X-15290Y-317838D01*
X-15099Y-317800D01*
X-15090Y-317790D01*
X-15081Y-317793D01*
X-14919Y-317685D01*
X-14915Y-317671D01*
X-14906Y-317671D01*
X-14797Y-317509D01*
X-14798Y-317495D01*
X-14790Y-317491D01*
X-14752Y-317300D01*
X-14755Y-317293D01*
X-14751Y-317290D01*
X-14751Y-316290D01*
X-14755Y-316284D01*
X-14752Y-316280D01*
X-14790Y-316089D01*
X-14800Y-316080D01*
X-14797Y-316071D01*
X-14906Y-315909D01*
X-14919Y-315905D01*
X-14919Y-315896D01*
X-15081Y-315787D01*
X-15095Y-315788D01*
X-15099Y-315780D01*
X-15290Y-315742D01*
X-15297Y-315745D01*
X-15300Y-315741D01*
X-25300Y-315741D01*
X-25306Y-315745D01*
X-25310Y-315742D01*
X-25501Y-315780D01*
X-25510Y-315790D01*
X-25519Y-315787D01*
X-25681Y-315896D01*
X-25685Y-315909D01*
X-25695Y-315909D01*
X-25803Y-316071D01*
X-25802Y-316085D01*
X-25810Y-316089D01*
X-25848Y-316280D01*
X-25845Y-316287D01*
X-25849Y-316290D01*
X-25849Y-317290D01*
X-25845Y-317296D01*
X-25848Y-317300D01*
X-25810Y-317491D01*
X-25800Y-317500D01*
X-25803Y-317509D01*
X-25695Y-317671D01*
X-25681Y-317675D01*
X-25681Y-317685D01*
X-25519Y-317793D01*
X-25505Y-317792D01*
X-25501Y-317800D01*
X-25310Y-317838D01*
X-25303Y-317835D01*
X-25300Y-317839D01*
X-15300Y-317839D01*
X-15294Y-317835D01*
G37*
G36*
X50706Y-324335D02*
X50706Y-324335D01*
X50710Y-324338D01*
X50901Y-324300D01*
X50910Y-324290D01*
X50919Y-324293D01*
X51081Y-324185D01*
X51085Y-324171D01*
X51095Y-324171D01*
X51203Y-324009D01*
X51202Y-323995D01*
X51210Y-323991D01*
X51248Y-323800D01*
X51245Y-323793D01*
X51249Y-323790D01*
X51249Y-322790D01*
X51245Y-322784D01*
X51248Y-322780D01*
X51210Y-322589D01*
X51200Y-322580D01*
X51203Y-322571D01*
X51095Y-322409D01*
X51081Y-322405D01*
X51081Y-322396D01*
X50919Y-322287D01*
X50905Y-322288D01*
X50901Y-322280D01*
X50710Y-322242D01*
X50703Y-322245D01*
X50700Y-322241D01*
X40700Y-322241D01*
X40694Y-322245D01*
X40690Y-322242D01*
X40499Y-322280D01*
X40490Y-322290D01*
X40481Y-322287D01*
X40319Y-322396D01*
X40315Y-322409D01*
X40306Y-322409D01*
X40197Y-322571D01*
X40198Y-322585D01*
X40190Y-322589D01*
X40152Y-322780D01*
X40155Y-322787D01*
X40151Y-322790D01*
X40151Y-323790D01*
X40155Y-323796D01*
X40152Y-323800D01*
X40190Y-323991D01*
X40200Y-324000D01*
X40197Y-324009D01*
X40306Y-324171D01*
X40319Y-324175D01*
X40319Y-324185D01*
X40481Y-324293D01*
X40495Y-324292D01*
X40499Y-324300D01*
X40690Y-324338D01*
X40697Y-324335D01*
X40700Y-324339D01*
X50700Y-324339D01*
X50706Y-324335D01*
G37*
G36*
X-15294Y-324335D02*
X-15294Y-324335D01*
X-15290Y-324338D01*
X-15099Y-324300D01*
X-15090Y-324290D01*
X-15081Y-324293D01*
X-14919Y-324185D01*
X-14915Y-324171D01*
X-14906Y-324171D01*
X-14797Y-324009D01*
X-14798Y-323995D01*
X-14790Y-323991D01*
X-14752Y-323800D01*
X-14755Y-323793D01*
X-14751Y-323790D01*
X-14751Y-322790D01*
X-14755Y-322784D01*
X-14752Y-322780D01*
X-14790Y-322589D01*
X-14800Y-322580D01*
X-14797Y-322571D01*
X-14906Y-322409D01*
X-14919Y-322405D01*
X-14919Y-322396D01*
X-15081Y-322287D01*
X-15095Y-322288D01*
X-15099Y-322280D01*
X-15290Y-322242D01*
X-15297Y-322245D01*
X-15300Y-322241D01*
X-25300Y-322241D01*
X-25306Y-322245D01*
X-25310Y-322242D01*
X-25501Y-322280D01*
X-25510Y-322290D01*
X-25519Y-322287D01*
X-25681Y-322396D01*
X-25685Y-322409D01*
X-25695Y-322409D01*
X-25803Y-322571D01*
X-25802Y-322585D01*
X-25810Y-322589D01*
X-25848Y-322780D01*
X-25845Y-322787D01*
X-25849Y-322790D01*
X-25849Y-323790D01*
X-25845Y-323796D01*
X-25848Y-323800D01*
X-25810Y-323991D01*
X-25800Y-324000D01*
X-25803Y-324009D01*
X-25695Y-324171D01*
X-25681Y-324175D01*
X-25681Y-324185D01*
X-25519Y-324293D01*
X-25505Y-324292D01*
X-25501Y-324300D01*
X-25310Y-324338D01*
X-25303Y-324335D01*
X-25300Y-324339D01*
X-15300Y-324339D01*
X-15294Y-324335D01*
G37*
G36*
X-15294Y-330835D02*
X-15294Y-330835D01*
X-15290Y-330838D01*
X-15099Y-330800D01*
X-15090Y-330790D01*
X-15081Y-330793D01*
X-14919Y-330685D01*
X-14915Y-330671D01*
X-14906Y-330671D01*
X-14797Y-330509D01*
X-14798Y-330495D01*
X-14790Y-330491D01*
X-14752Y-330300D01*
X-14755Y-330293D01*
X-14751Y-330290D01*
X-14751Y-329290D01*
X-14755Y-329284D01*
X-14752Y-329280D01*
X-14790Y-329089D01*
X-14800Y-329080D01*
X-14797Y-329071D01*
X-14906Y-328909D01*
X-14919Y-328905D01*
X-14919Y-328896D01*
X-15081Y-328787D01*
X-15095Y-328788D01*
X-15099Y-328780D01*
X-15290Y-328742D01*
X-15297Y-328745D01*
X-15300Y-328741D01*
X-25300Y-328741D01*
X-25306Y-328745D01*
X-25310Y-328742D01*
X-25501Y-328780D01*
X-25510Y-328790D01*
X-25519Y-328787D01*
X-25681Y-328896D01*
X-25685Y-328909D01*
X-25695Y-328909D01*
X-25803Y-329071D01*
X-25802Y-329085D01*
X-25810Y-329089D01*
X-25848Y-329280D01*
X-25845Y-329287D01*
X-25849Y-329290D01*
X-25849Y-330290D01*
X-25845Y-330296D01*
X-25848Y-330300D01*
X-25810Y-330491D01*
X-25800Y-330500D01*
X-25803Y-330509D01*
X-25695Y-330671D01*
X-25681Y-330675D01*
X-25681Y-330685D01*
X-25519Y-330793D01*
X-25505Y-330792D01*
X-25501Y-330800D01*
X-25310Y-330838D01*
X-25303Y-330835D01*
X-25300Y-330839D01*
X-15300Y-330839D01*
X-15294Y-330835D01*
G37*
G36*
X50706Y-330835D02*
X50706Y-330835D01*
X50710Y-330838D01*
X50901Y-330800D01*
X50910Y-330790D01*
X50919Y-330793D01*
X51081Y-330685D01*
X51085Y-330671D01*
X51095Y-330671D01*
X51203Y-330509D01*
X51202Y-330495D01*
X51210Y-330491D01*
X51248Y-330300D01*
X51245Y-330293D01*
X51249Y-330290D01*
X51249Y-329290D01*
X51245Y-329284D01*
X51248Y-329280D01*
X51210Y-329089D01*
X51200Y-329080D01*
X51203Y-329071D01*
X51095Y-328909D01*
X51081Y-328905D01*
X51081Y-328896D01*
X50919Y-328787D01*
X50905Y-328788D01*
X50901Y-328780D01*
X50710Y-328742D01*
X50703Y-328745D01*
X50700Y-328741D01*
X40700Y-328741D01*
X40694Y-328745D01*
X40690Y-328742D01*
X40499Y-328780D01*
X40490Y-328790D01*
X40481Y-328787D01*
X40319Y-328896D01*
X40315Y-328909D01*
X40306Y-328909D01*
X40197Y-329071D01*
X40198Y-329085D01*
X40190Y-329089D01*
X40152Y-329280D01*
X40155Y-329287D01*
X40151Y-329290D01*
X40151Y-330290D01*
X40155Y-330296D01*
X40152Y-330300D01*
X40190Y-330491D01*
X40200Y-330500D01*
X40197Y-330509D01*
X40306Y-330671D01*
X40319Y-330675D01*
X40319Y-330685D01*
X40481Y-330793D01*
X40495Y-330792D01*
X40499Y-330800D01*
X40690Y-330838D01*
X40697Y-330835D01*
X40700Y-330839D01*
X50700Y-330839D01*
X50706Y-330835D01*
G37*
G36*
X50706Y-337335D02*
X50706Y-337335D01*
X50710Y-337338D01*
X50901Y-337300D01*
X50910Y-337290D01*
X50919Y-337293D01*
X51081Y-337185D01*
X51085Y-337171D01*
X51095Y-337171D01*
X51203Y-337009D01*
X51202Y-336995D01*
X51210Y-336991D01*
X51248Y-336800D01*
X51245Y-336793D01*
X51249Y-336790D01*
X51249Y-335790D01*
X51245Y-335784D01*
X51248Y-335780D01*
X51210Y-335589D01*
X51200Y-335580D01*
X51203Y-335571D01*
X51095Y-335409D01*
X51081Y-335405D01*
X51081Y-335396D01*
X50919Y-335287D01*
X50905Y-335288D01*
X50901Y-335280D01*
X50710Y-335242D01*
X50703Y-335245D01*
X50700Y-335241D01*
X40700Y-335241D01*
X40694Y-335245D01*
X40690Y-335242D01*
X40499Y-335280D01*
X40490Y-335290D01*
X40481Y-335287D01*
X40319Y-335396D01*
X40315Y-335409D01*
X40306Y-335409D01*
X40197Y-335571D01*
X40198Y-335585D01*
X40190Y-335589D01*
X40152Y-335780D01*
X40155Y-335787D01*
X40151Y-335790D01*
X40151Y-336790D01*
X40155Y-336796D01*
X40152Y-336800D01*
X40190Y-336991D01*
X40200Y-337000D01*
X40197Y-337009D01*
X40306Y-337171D01*
X40319Y-337175D01*
X40319Y-337185D01*
X40481Y-337293D01*
X40495Y-337292D01*
X40499Y-337300D01*
X40690Y-337338D01*
X40697Y-337335D01*
X40700Y-337339D01*
X50700Y-337339D01*
X50706Y-337335D01*
G37*
G36*
X-15294Y-337335D02*
X-15294Y-337335D01*
X-15290Y-337338D01*
X-15099Y-337300D01*
X-15090Y-337290D01*
X-15081Y-337293D01*
X-14919Y-337185D01*
X-14915Y-337171D01*
X-14906Y-337171D01*
X-14797Y-337009D01*
X-14798Y-336995D01*
X-14790Y-336991D01*
X-14752Y-336800D01*
X-14755Y-336793D01*
X-14751Y-336790D01*
X-14751Y-335790D01*
X-14755Y-335784D01*
X-14752Y-335780D01*
X-14790Y-335589D01*
X-14800Y-335580D01*
X-14797Y-335571D01*
X-14906Y-335409D01*
X-14919Y-335405D01*
X-14919Y-335396D01*
X-15081Y-335287D01*
X-15095Y-335288D01*
X-15099Y-335280D01*
X-15290Y-335242D01*
X-15297Y-335245D01*
X-15300Y-335241D01*
X-25300Y-335241D01*
X-25306Y-335245D01*
X-25310Y-335242D01*
X-25501Y-335280D01*
X-25510Y-335290D01*
X-25519Y-335287D01*
X-25681Y-335396D01*
X-25685Y-335409D01*
X-25695Y-335409D01*
X-25803Y-335571D01*
X-25802Y-335585D01*
X-25810Y-335589D01*
X-25848Y-335780D01*
X-25845Y-335787D01*
X-25849Y-335790D01*
X-25849Y-336790D01*
X-25845Y-336796D01*
X-25848Y-336800D01*
X-25810Y-336991D01*
X-25800Y-337000D01*
X-25803Y-337009D01*
X-25695Y-337171D01*
X-25681Y-337175D01*
X-25681Y-337185D01*
X-25519Y-337293D01*
X-25505Y-337292D01*
X-25501Y-337300D01*
X-25310Y-337338D01*
X-25303Y-337335D01*
X-25300Y-337339D01*
X-15300Y-337339D01*
X-15294Y-337335D01*
G37*
G36*
X-25006Y-297312D02*
X-25006Y-297312D01*
X-25013Y-297298D01*
X-25001Y-297288D01*
X-25501Y-282288D01*
X-25519Y-282266D01*
X-25537Y-282243D01*
X-25538Y-282242D01*
X-25568Y-282267D01*
X-25599Y-282290D01*
X-25599Y-296790D01*
X-25595Y-296796D01*
X-25598Y-296800D01*
X-25560Y-296991D01*
X-25550Y-297000D01*
X-25553Y-297009D01*
X-25445Y-297171D01*
X-25431Y-297175D01*
X-25431Y-297185D01*
X-25269Y-297293D01*
X-25255Y-297292D01*
X-25251Y-297300D01*
X-25060Y-297338D01*
X-25006Y-297312D01*
G37*
D10*
X-260232Y-452120D03*
X-277232Y-452120D03*
D11*
X-303920Y-346964D03*
X-320920Y-346964D03*
X-304174Y-367792D03*
X-321174Y-367792D03*
D10*
X-320040Y-405520D03*
X-320040Y-422520D03*
D11*
X-304174Y-388366D03*
X-321174Y-388366D03*
D12*
X121158Y-364236D03*
X83566Y-364236D03*
X-36576Y-226060D03*
X1016Y-226060D03*
D13*
G36*
X-31569Y-404591D02*
X-42882Y-393278D01*
X-23791Y-374187D01*
X-12478Y-385500D01*
X-31569Y-404591D01*
G37*
G36*
X-11770Y-424389D02*
X-23083Y-413076D01*
X-3992Y-393985D01*
X7321Y-405298D01*
X-11770Y-424389D01*
G37*
D10*
X256404Y-408940D03*
X239404Y-408940D03*
D11*
X274066Y-421504D03*
X274066Y-404504D03*
X220726Y-414664D03*
X220726Y-431664D03*
D14*
X-319888Y-256208D03*
X-300888Y-256208D03*
X-310388Y-278208D03*
D15*
X71060Y-416560D03*
X127060Y-416560D03*
D16*
X27940Y-424120D03*
X27940Y-480120D03*
D11*
X19440Y-393700D03*
X36440Y-393700D03*
X-50800Y-379340D03*
X-50800Y-362340D03*
D10*
X309000Y-429260D03*
X326000Y-429260D03*
D17*
X255270Y-302270D03*
X267970Y-302270D03*
D18*
X250320Y-281220D03*
X272920Y-281220D03*
D19*
X242570Y-247620D03*
X280670Y-247620D03*
X255270Y-247620D03*
X267970Y-247620D03*
D20*
X280870Y-302320D03*
D21*
X242370Y-302070D03*
D22*
X-269320Y-402520D03*
D23*
X-259820Y-424020D03*
X-259820Y-419020D03*
X-259820Y-414020D03*
X-259820Y-409020D03*
X-259820Y-404020D03*
X-288820Y-424020D03*
X-288820Y-419020D03*
X-288820Y-414020D03*
X-288820Y-409020D03*
X-288820Y-404020D03*
D22*
X-274320Y-402520D03*
X-279320Y-402520D03*
X-279320Y-425520D03*
X-274320Y-425520D03*
X-269320Y-425520D03*
D10*
X-259080Y-366640D03*
X-259080Y-349640D03*
X-233544Y-432816D03*
X-216544Y-432816D03*
G36*
X-304731Y-446388D02*
X-296954Y-454165D01*
X-304025Y-461236D01*
X-311802Y-453459D01*
X-304731Y-446388D01*
G37*
G36*
X-316751Y-434368D02*
X-308974Y-442145D01*
X-316045Y-449216D01*
X-323822Y-441439D01*
X-316751Y-434368D01*
G37*
D11*
X-279400Y-349640D03*
X-279400Y-366640D03*
M02*
