<?xml version="1.0" encoding="UTF-8" standalone="no"?>
<!-- Created with Inkscape (http://www.inkscape.org/) -->

<svg
   xmlns:dc="http://purl.org/dc/elements/1.1/"
   xmlns:cc="http://creativecommons.org/ns#"
   xmlns:rdf="http://www.w3.org/1999/02/22-rdf-syntax-ns#"
   xmlns:svg="http://www.w3.org/2000/svg"
   xmlns="http://www.w3.org/2000/svg"
   xmlns:sodipodi="http://sodipodi.sourceforge.net/DTD/sodipodi-0.dtd"
   xmlns:inkscape="http://www.inkscape.org/namespaces/inkscape"
   width="6in"
   height="6in"
   viewBox="0 0 540.00001 539.99998"
   id="svg2"
   version="1.1"
   inkscape:version="0.91 r13725"
   sodipodi:docname="af_gen_pcb_as_path.svg">
  <defs
     id="defs4" />
  <sodipodi:namedview
     id="base"
     pagecolor="#ffffff"
     bordercolor="#666666"
     borderopacity="1.0"
     inkscape:pageopacity="0.0"
     inkscape:pageshadow="2"
     inkscape:zoom="1.7018519"
     inkscape:cx="270"
     inkscape:cy="218.23579"
     inkscape:document-units="px"
     inkscape:current-layer="layer2"
     showgrid="true"
     units="in"
     inkscape:window-width="1855"
     inkscape:window-height="1056"
     inkscape:window-x="65"
     inkscape:window-y="24"
     inkscape:window-maximized="1"
     guidetolerance="20"
     objecttolerance="20"
     showguides="true"
     gridtolerance="20"
     inkscape:snap-grids="true"
     inkscape:snap-center="true">
    <inkscape:grid
       type="xygrid"
       id="grid4243"
       units="in"
       spacingx="22.5"
       spacingy="22.499999" />
  </sodipodi:namedview>
  <metadata
     id="metadata7">
    <rdf:RDF>
      <cc:Work
         rdf:about="">
        <dc:format>image/svg+xml</dc:format>
        <dc:type
           rdf:resource="http://purl.org/dc/dcmitype/StillImage" />
        <dc:title></dc:title>
      </cc:Work>
    </rdf:RDF>
  </metadata>
  <g
     inkscape:label="outline"
     inkscape:groupmode="layer"
     id="layer1"
     transform="translate(0,-512.36208)"
     style="display:none">
    <circle
       style="fill:none;fill-opacity:1;stroke:#000000;stroke-width:1;stroke-miterlimit:4;stroke-dasharray:none;stroke-opacity:1"
       id="path3342"
       cx="225.12956"
       cy="827.23254"
       r="224.62956" />
    <circle
       style="fill:none;fill-opacity:1;stroke:#000000;stroke-width:1;stroke-miterlimit:4;stroke-dasharray:none;stroke-opacity:1"
       id="path3342-3"
       cx="225.41768"
       cy="826.9444"
       r="49.917683" />
  </g>
  <g
     inkscape:groupmode="layer"
     id="layer3"
     inkscape:label="bolt pattern"
     transform="translate(0,-512.36208)"
     style="display:none">
    <circle
       style="fill:none;fill-opacity:1;stroke:#000000;stroke-width:1;stroke-miterlimit:4;stroke-dasharray:none;stroke-opacity:1"
       id="path3342-3-6"
       cx="112.87604"
       cy="826.98602"
       r="12.376036"
       inkscape:tile-cx="112.87604"
       inkscape:tile-cy="314.62394"
       inkscape:tile-w="25.752071"
       inkscape:tile-h="25.752071"
       inkscape:tile-x0="100"
       inkscape:tile-y0="301.74791"
       inkscape:transform-center-x="112.12396"
       inkscape:transform-center-y="-0.37605872" />
    <circle
       inkscape:transform-center-y="96.914191"
       inkscape:transform-center-x="56.38766"
       inkscape:tile-y0="301.74791"
       inkscape:tile-x0="100"
       inkscape:tile-h="25.752071"
       inkscape:tile-w="25.752071"
       inkscape:tile-cy="314.62394"
       inkscape:tile-cx="112.87604"
       r="12.376036"
       cy="608.16071"
       cx="-716.14056"
       id="circle4362"
       style="fill:none;fill-opacity:1;stroke:#000000;stroke-width:1;stroke-miterlimit:4;stroke-dasharray:none;stroke-opacity:1"
       transform="matrix(0.5,-0.8660254,0.8660254,0.5,0,0)" />
    <circle
       transform="matrix(-0.5,-0.8660254,0.8660254,-0.5,0,0)"
       style="fill:none;fill-opacity:1;stroke:#000000;stroke-width:1;stroke-miterlimit:4;stroke-dasharray:none;stroke-opacity:1"
       id="circle4364"
       cx="-941.14056"
       cy="-219.20139"
       r="12.376036"
       inkscape:tile-cx="112.87604"
       inkscape:tile-cy="314.62394"
       inkscape:tile-w="25.752071"
       inkscape:tile-h="25.752071"
       inkscape:tile-x0="100"
       inkscape:tile-y0="301.74791"
       inkscape:transform-center-x="-55.73632"
       inkscape:transform-center-y="97.290246" />
    <circle
       inkscape:transform-center-y="0.37607727"
       inkscape:transform-center-x="-112.12397"
       inkscape:tile-y0="301.74791"
       inkscape:tile-x0="100"
       inkscape:tile-h="25.752071"
       inkscape:tile-w="25.752071"
       inkscape:tile-cy="314.62394"
       inkscape:tile-cx="112.87604"
       r="12.376036"
       cy="-827.73816"
       cx="-337.12396"
       id="circle4366"
       style="fill:none;fill-opacity:1;stroke:#000000;stroke-width:1;stroke-miterlimit:4;stroke-dasharray:none;stroke-opacity:1"
       transform="scale(-1,-1)" />
    <circle
       transform="matrix(-0.5,0.8660254,-0.8660254,-0.5,0,0)"
       style="fill:none;fill-opacity:1;stroke:#000000;stroke-width:1;stroke-miterlimit:4;stroke-dasharray:none;stroke-opacity:1"
       id="circle4368"
       cx="491.89261"
       cy="-608.91284"
       r="12.376036"
       inkscape:tile-cx="112.87604"
       inkscape:tile-cy="314.62394"
       inkscape:tile-w="25.752071"
       inkscape:tile-h="25.752071"
       inkscape:tile-x0="100"
       inkscape:tile-y0="301.74791"
       inkscape:transform-center-x="-56.38769"
       inkscape:transform-center-y="-96.91417" />
    <circle
       inkscape:transform-center-y="-97.290278"
       inkscape:transform-center-x="55.736305"
       inkscape:tile-y0="301.74791"
       inkscape:tile-x0="100"
       inkscape:tile-h="25.752071"
       inkscape:tile-w="25.752071"
       inkscape:tile-cy="314.62394"
       inkscape:tile-cx="112.87604"
       r="12.376036"
       cy="218.44925"
       cx="716.89258"
       id="circle4370"
       style="fill:none;fill-opacity:1;stroke:#000000;stroke-width:1;stroke-miterlimit:4;stroke-dasharray:none;stroke-opacity:1"
       transform="matrix(0.5,0.8660254,-0.8660254,0.5,0,0)" />
  </g>
  <g
     inkscape:groupmode="layer"
     id="layer2"
     inkscape:label="Cu"
     transform="translate(0,-512.36208)">
    <path
       transform="matrix(0.56985903,0,0,0.53115658,-48.561655,534.67867)"
       style="fill:none;fill-rule:evenodd;stroke:#000000;stroke-width:3.22020698;stroke-linecap:butt;stroke-linejoin:miter;stroke-miterlimit:4;stroke-dasharray:none;stroke-opacity:1"
       inkscape:transform-center-x="114.04845"
       inkscape:transform-center-y="0.82459573"
       d="m 273.48936,581.39297 c -17.36869,-3.99983 -28.10485,-22.04523 -24.10506,-39.26346 4.25267,-18.30679 23.29142,-29.616 41.44822,-25.36534 19.24489,4.5054 31.12723,24.53763 26.62561,43.63297 -4.75804,20.18302 -25.78387,32.63855 -45.81772,27.88589 -21.12117,-5.0106 -34.14994,-27.03012 -29.14617,-48.00247 5.2631,-22.05933 28.27639,-35.66138 50.18723,-30.40645 22.9975,5.51554 37.17286,29.52267 31.66672,52.37198 -5.76792,23.93568 -30.76896,38.6844 -54.55673,32.92701 -24.87387,-6.02027 -40.19598,-32.01528 -34.18729,-56.7415 6.27257,-25.81206 33.26159,-41.70758 58.92625,-35.44755 26.75028,6.52482 43.21923,34.50791 36.70784,61.11099 -6.77706,27.68849 -35.75424,44.73091 -63.29576,37.96812 -28.62671,-7.02926 -46.2426,-37.00058 -39.22839,-65.48051 7.28144,-29.56493 38.24693,-47.75432 67.66526,-40.48867 30.50317,7.53359 49.26607,39.49328 41.74895,69.85001 -7.78571,31.44141 -40.73963,50.77784 -72.03477,43.00923 -32.37964,-8.03782 -52.28962,-41.98599 -44.2695,-74.21952 8.28991,-33.31788 43.23236,-53.80141 76.40427,-45.52978 34.25613,8.54199 55.31323,44.47873 46.79006,78.58903 -8.79405,35.19438 -45.7251,56.82505 -80.77378,48.05034 -36.13263,-9.0461 -58.3369,-46.97148 -49.31062,-82.95854 9.29813,-37.07089 48.21786,-59.84875 85.14329,-50.57089 38.00916,9.55014 61.36062,49.46424 51.83118,87.32804 -9.80216,38.94741 -50.71063,62.87248 -89.5128,53.09145 -39.88568,-10.05416 -64.38437,-51.95702 -54.35173,-91.69755 10.30615,-40.82394 53.20341,-65.89626 93.8823,-55.61201 41.76222,10.55813 67.40816,54.4498 56.87229,96.06706 -10.8101,42.70048 -55.6962,68.92006 -98.25181,58.13256 -43.63875,-11.06207 -70.43198,-56.94259 -59.39284,-100.43656 11.31402,-44.57703 58.18899,-71.9439 102.62131,-60.65312 45.51531,11.56598 73.45583,59.4354 61.9134,104.80607 -11.81792,46.45358 -60.6818,74.96776 -106.99082,63.17368 -47.39186,-12.06986 -76.4797,-61.92821 -64.43396,-109.17558 12.3218,-48.33014 63.17461,-77.99164 111.36033,-65.69423 49.26842,12.57372 79.5036,64.42101 66.95452,113.54508 -12.82565,50.20669 -65.66743,81.01554 -115.72984,68.21479 -51.14498,-13.07756 -82.5275,-66.91384 -69.47507,-117.91459 13.32948,-52.08326 68.16025,-84.03947 120.09935,-70.73535 53.02154,13.58139 85.55143,69.40666 71.99562,122.2841 -13.83329,53.95983 -70.65307,87.0634 -124.46885,73.2559 -54.89812,-14.08519 -88.57537,-71.89948 -74.51618,-126.6536 6.05224,-23.57072 20.40108,-44.62424 40.08628,-58.92358"
       id="path4163" />
    <path
       transform="matrix(0.28492952,-0.4935124,0.45999509,0.26557829,-165.2521,917.93171)"
       style="fill:none;fill-rule:evenodd;stroke:#000000;stroke-width:3.22020698;stroke-linecap:butt;stroke-linejoin:miter;stroke-miterlimit:4;stroke-dasharray:none;stroke-opacity:1"
       inkscape:transform-center-x="57.619609"
       inkscape:transform-center-y="98.824103"
       d="m 273.48936,581.39297 c -17.36869,-3.99983 -28.10485,-22.04523 -24.10506,-39.26346 4.25267,-18.30679 23.29142,-29.616 41.44822,-25.36534 19.24489,4.5054 31.12723,24.53763 26.62561,43.63297 -4.75804,20.18302 -25.78387,32.63855 -45.81772,27.88589 -21.12117,-5.0106 -34.14994,-27.03012 -29.14617,-48.00247 5.2631,-22.05933 28.27639,-35.66138 50.18723,-30.40645 22.9975,5.51554 37.17286,29.52267 31.66672,52.37198 -5.76792,23.93568 -30.76896,38.6844 -54.55673,32.92701 -24.87387,-6.02027 -40.19598,-32.01528 -34.18729,-56.7415 6.27257,-25.81206 33.26159,-41.70758 58.92625,-35.44755 26.75028,6.52482 43.21923,34.50791 36.70784,61.11099 -6.77706,27.68849 -35.75424,44.73091 -63.29576,37.96812 -28.62671,-7.02926 -46.2426,-37.00058 -39.22839,-65.48051 7.28144,-29.56493 38.24693,-47.75432 67.66526,-40.48867 30.50317,7.53359 49.26607,39.49328 41.74895,69.85001 -7.78571,31.44141 -40.73963,50.77784 -72.03477,43.00923 -32.37964,-8.03782 -52.28962,-41.98599 -44.2695,-74.21952 8.28991,-33.31788 43.23236,-53.80141 76.40427,-45.52978 34.25613,8.54199 55.31323,44.47873 46.79006,78.58903 -8.79405,35.19438 -45.7251,56.82505 -80.77378,48.05034 -36.13263,-9.0461 -58.3369,-46.97148 -49.31062,-82.95854 9.29813,-37.07089 48.21786,-59.84875 85.14329,-50.57089 38.00916,9.55014 61.36062,49.46424 51.83118,87.32804 -9.80216,38.94741 -50.71063,62.87248 -89.5128,53.09145 -39.88568,-10.05416 -64.38437,-51.95702 -54.35173,-91.69755 10.30615,-40.82394 53.20341,-65.89626 93.8823,-55.61201 41.76222,10.55813 67.40816,54.4498 56.87229,96.06706 -10.8101,42.70048 -55.6962,68.92006 -98.25181,58.13256 -43.63875,-11.06207 -70.43198,-56.94259 -59.39284,-100.43656 11.31402,-44.57703 58.18899,-71.9439 102.62131,-60.65312 45.51531,11.56598 73.45583,59.4354 61.9134,104.80607 -11.81792,46.45358 -60.6818,74.96776 -106.99082,63.17368 -47.39186,-12.06986 -76.4797,-61.92821 -64.43396,-109.17558 12.3218,-48.33014 63.17461,-77.99164 111.36033,-65.69423 49.26842,12.57372 79.5036,64.42101 66.95452,113.54508 -12.82565,50.20669 -65.66743,81.01554 -115.72984,68.21479 -51.14498,-13.07756 -82.5275,-66.91384 -69.47507,-117.91459 13.32948,-52.08326 68.16025,-84.03947 120.09935,-70.73535 53.02154,13.58139 85.55143,69.40666 71.99562,122.2841 -13.83329,53.95983 -70.65307,87.0634 -124.46885,73.2559 -54.89812,-14.08519 -88.57537,-71.89948 -74.51618,-126.6536 6.05224,-23.57072 20.40108,-44.62424 40.08628,-58.92358"
       id="path4671" />
    <path
       transform="matrix(-0.28492952,-0.4935124,0.45999509,-0.26557829,108.30955,1210.6151)"
       style="fill:none;fill-rule:evenodd;stroke:#000000;stroke-width:3.22020698;stroke-linecap:butt;stroke-linejoin:miter;stroke-miterlimit:4;stroke-dasharray:none;stroke-opacity:1"
       inkscape:transform-center-x="-57.374963"
       inkscape:transform-center-y="98.96116"
       d="m 273.48936,581.39297 c -17.36869,-3.99983 -28.10485,-22.04523 -24.10506,-39.26346 4.25267,-18.30679 23.29142,-29.616 41.44822,-25.36534 19.24489,4.5054 31.12723,24.53763 26.62561,43.63297 -4.75804,20.18302 -25.78387,32.63855 -45.81772,27.88589 -21.12117,-5.0106 -34.14994,-27.03012 -29.14617,-48.00247 5.2631,-22.05933 28.27639,-35.66138 50.18723,-30.40645 22.9975,5.51554 37.17286,29.52267 31.66672,52.37198 -5.76792,23.93568 -30.76896,38.6844 -54.55673,32.92701 -24.87387,-6.02027 -40.19598,-32.01528 -34.18729,-56.7415 6.27257,-25.81206 33.26159,-41.70758 58.92625,-35.44755 26.75028,6.52482 43.21923,34.50791 36.70784,61.11099 -6.77706,27.68849 -35.75424,44.73091 -63.29576,37.96812 -28.62671,-7.02926 -46.2426,-37.00058 -39.22839,-65.48051 7.28144,-29.56493 38.24693,-47.75432 67.66526,-40.48867 30.50317,7.53359 49.26607,39.49328 41.74895,69.85001 -7.78571,31.44141 -40.73963,50.77784 -72.03477,43.00923 -32.37964,-8.03782 -52.28962,-41.98599 -44.2695,-74.21952 8.28991,-33.31788 43.23236,-53.80141 76.40427,-45.52978 34.25613,8.54199 55.31323,44.47873 46.79006,78.58903 -8.79405,35.19438 -45.7251,56.82505 -80.77378,48.05034 -36.13263,-9.0461 -58.3369,-46.97148 -49.31062,-82.95854 9.29813,-37.07089 48.21786,-59.84875 85.14329,-50.57089 38.00916,9.55014 61.36062,49.46424 51.83118,87.32804 -9.80216,38.94741 -50.71063,62.87248 -89.5128,53.09145 -39.88568,-10.05416 -64.38437,-51.95702 -54.35173,-91.69755 10.30615,-40.82394 53.20341,-65.89626 93.8823,-55.61201 41.76222,10.55813 67.40816,54.4498 56.87229,96.06706 -10.8101,42.70048 -55.6962,68.92006 -98.25181,58.13256 -43.63875,-11.06207 -70.43198,-56.94259 -59.39284,-100.43656 11.31402,-44.57703 58.18899,-71.9439 102.62131,-60.65312 45.51531,11.56598 73.45583,59.4354 61.9134,104.80607 -11.81792,46.45358 -60.6818,74.96776 -106.99082,63.17368 -47.39186,-12.06986 -76.4797,-61.92821 -64.43396,-109.17558 12.3218,-48.33014 63.17461,-77.99164 111.36033,-65.69423 49.26842,12.57372 79.5036,64.42101 66.95452,113.54508 -12.82565,50.20669 -65.66743,81.01554 -115.72984,68.21479 -51.14498,-13.07756 -82.5275,-66.91384 -69.47507,-117.91459 13.32948,-52.08326 68.16025,-84.03947 120.09935,-70.73535 53.02154,13.58139 85.55143,69.40666 71.99562,122.2841 -13.83329,53.95983 -70.65307,87.0634 -124.46885,73.2559 -54.89812,-14.08519 -88.57537,-71.89948 -74.51618,-126.6536 6.05224,-23.57072 20.40108,-44.62424 40.08628,-58.92358"
       id="path4673" />
    <path
       transform="matrix(-0.56985904,0,0,-0.53115658,498.56162,1120.0455)"
       style="fill:none;fill-rule:evenodd;stroke:#000000;stroke-width:3.22020698;stroke-linecap:butt;stroke-linejoin:miter;stroke-miterlimit:4;stroke-dasharray:none;stroke-opacity:1"
       inkscape:transform-center-x="-114.04842"
       inkscape:transform-center-y="-0.82458893"
       d="m 273.48936,581.39297 c -17.36869,-3.99983 -28.10485,-22.04523 -24.10506,-39.26346 4.25267,-18.30679 23.29142,-29.616 41.44822,-25.36534 19.24489,4.5054 31.12723,24.53763 26.62561,43.63297 -4.75804,20.18302 -25.78387,32.63855 -45.81772,27.88589 -21.12117,-5.0106 -34.14994,-27.03012 -29.14617,-48.00247 5.2631,-22.05933 28.27639,-35.66138 50.18723,-30.40645 22.9975,5.51554 37.17286,29.52267 31.66672,52.37198 -5.76792,23.93568 -30.76896,38.6844 -54.55673,32.92701 -24.87387,-6.02027 -40.19598,-32.01528 -34.18729,-56.7415 6.27257,-25.81206 33.26159,-41.70758 58.92625,-35.44755 26.75028,6.52482 43.21923,34.50791 36.70784,61.11099 -6.77706,27.68849 -35.75424,44.73091 -63.29576,37.96812 -28.62671,-7.02926 -46.2426,-37.00058 -39.22839,-65.48051 7.28144,-29.56493 38.24693,-47.75432 67.66526,-40.48867 30.50317,7.53359 49.26607,39.49328 41.74895,69.85001 -7.78571,31.44141 -40.73963,50.77784 -72.03477,43.00923 -32.37964,-8.03782 -52.28962,-41.98599 -44.2695,-74.21952 8.28991,-33.31788 43.23236,-53.80141 76.40427,-45.52978 34.25613,8.54199 55.31323,44.47873 46.79006,78.58903 -8.79405,35.19438 -45.7251,56.82505 -80.77378,48.05034 -36.13263,-9.0461 -58.3369,-46.97148 -49.31062,-82.95854 9.29813,-37.07089 48.21786,-59.84875 85.14329,-50.57089 38.00916,9.55014 61.36062,49.46424 51.83118,87.32804 -9.80216,38.94741 -50.71063,62.87248 -89.5128,53.09145 -39.88568,-10.05416 -64.38437,-51.95702 -54.35173,-91.69755 10.30615,-40.82394 53.20341,-65.89626 93.8823,-55.61201 41.76222,10.55813 67.40816,54.4498 56.87229,96.06706 -10.8101,42.70048 -55.6962,68.92006 -98.25181,58.13256 -43.63875,-11.06207 -70.43198,-56.94259 -59.39284,-100.43656 11.31402,-44.57703 58.18899,-71.9439 102.62131,-60.65312 45.51531,11.56598 73.45583,59.4354 61.9134,104.80607 -11.81792,46.45358 -60.6818,74.96776 -106.99082,63.17368 -47.39186,-12.06986 -76.4797,-61.92821 -64.43396,-109.17558 12.3218,-48.33014 63.17461,-77.99164 111.36033,-65.69423 49.26842,12.57372 79.5036,64.42101 66.95452,113.54508 -12.82565,50.20669 -65.66743,81.01554 -115.72984,68.21479 -51.14498,-13.07756 -82.5275,-66.91384 -69.47507,-117.91459 13.32948,-52.08326 68.16025,-84.03947 120.09935,-70.73535 53.02154,13.58139 85.55143,69.40666 71.99562,122.2841 -13.83329,53.95983 -70.65307,87.0634 -124.46885,73.2559 -54.89812,-14.08519 -88.57537,-71.89948 -74.51618,-126.6536 6.05224,-23.57072 20.40108,-44.62424 40.08628,-58.92358"
       id="path4675" />
    <path
       transform="matrix(-0.28492952,0.49351241,-0.45999509,-0.26557829,615.25208,736.79248)"
       style="fill:none;fill-rule:evenodd;stroke:#000000;stroke-width:3.22020698;stroke-linecap:butt;stroke-linejoin:miter;stroke-miterlimit:4;stroke-dasharray:none;stroke-opacity:1"
       inkscape:transform-center-x="-57.619597"
       inkscape:transform-center-y="-98.824073"
       d="m 273.48936,581.39297 c -17.36869,-3.99983 -28.10485,-22.04523 -24.10506,-39.26346 4.25267,-18.30679 23.29142,-29.616 41.44822,-25.36534 19.24489,4.5054 31.12723,24.53763 26.62561,43.63297 -4.75804,20.18302 -25.78387,32.63855 -45.81772,27.88589 -21.12117,-5.0106 -34.14994,-27.03012 -29.14617,-48.00247 5.2631,-22.05933 28.27639,-35.66138 50.18723,-30.40645 22.9975,5.51554 37.17286,29.52267 31.66672,52.37198 -5.76792,23.93568 -30.76896,38.6844 -54.55673,32.92701 -24.87387,-6.02027 -40.19598,-32.01528 -34.18729,-56.7415 6.27257,-25.81206 33.26159,-41.70758 58.92625,-35.44755 26.75028,6.52482 43.21923,34.50791 36.70784,61.11099 -6.77706,27.68849 -35.75424,44.73091 -63.29576,37.96812 -28.62671,-7.02926 -46.2426,-37.00058 -39.22839,-65.48051 7.28144,-29.56493 38.24693,-47.75432 67.66526,-40.48867 30.50317,7.53359 49.26607,39.49328 41.74895,69.85001 -7.78571,31.44141 -40.73963,50.77784 -72.03477,43.00923 -32.37964,-8.03782 -52.28962,-41.98599 -44.2695,-74.21952 8.28991,-33.31788 43.23236,-53.80141 76.40427,-45.52978 34.25613,8.54199 55.31323,44.47873 46.79006,78.58903 -8.79405,35.19438 -45.7251,56.82505 -80.77378,48.05034 -36.13263,-9.0461 -58.3369,-46.97148 -49.31062,-82.95854 9.29813,-37.07089 48.21786,-59.84875 85.14329,-50.57089 38.00916,9.55014 61.36062,49.46424 51.83118,87.32804 -9.80216,38.94741 -50.71063,62.87248 -89.5128,53.09145 -39.88568,-10.05416 -64.38437,-51.95702 -54.35173,-91.69755 10.30615,-40.82394 53.20341,-65.89626 93.8823,-55.61201 41.76222,10.55813 67.40816,54.4498 56.87229,96.06706 -10.8101,42.70048 -55.6962,68.92006 -98.25181,58.13256 -43.63875,-11.06207 -70.43198,-56.94259 -59.39284,-100.43656 11.31402,-44.57703 58.18899,-71.9439 102.62131,-60.65312 45.51531,11.56598 73.45583,59.4354 61.9134,104.80607 -11.81792,46.45358 -60.6818,74.96776 -106.99082,63.17368 -47.39186,-12.06986 -76.4797,-61.92821 -64.43396,-109.17558 12.3218,-48.33014 63.17461,-77.99164 111.36033,-65.69423 49.26842,12.57372 79.5036,64.42101 66.95452,113.54508 -12.82565,50.20669 -65.66743,81.01554 -115.72984,68.21479 -51.14498,-13.07756 -82.5275,-66.91384 -69.47507,-117.91459 13.32948,-52.08326 68.16025,-84.03947 120.09935,-70.73535 53.02154,13.58139 85.55143,69.40666 71.99562,122.2841 -13.83329,53.95983 -70.65307,87.0634 -124.46885,73.2559 -54.89812,-14.08519 -88.57537,-71.89948 -74.51618,-126.6536 6.05224,-23.57072 20.40108,-44.62424 40.08628,-58.92358"
       id="path4677" />
    <path
       transform="matrix(0.28492952,0.49351241,-0.45999509,0.26557829,341.69046,444.10906)"
       style="fill:none;fill-rule:evenodd;stroke:#000000;stroke-width:3.22020698;stroke-linecap:butt;stroke-linejoin:miter;stroke-miterlimit:4;stroke-dasharray:none;stroke-opacity:1"
       inkscape:transform-center-x="57.374945"
       inkscape:transform-center-y="-98.96116"
       d="m 273.48936,581.39297 c -17.36869,-3.99983 -28.10485,-22.04523 -24.10506,-39.26346 4.25267,-18.30679 23.29142,-29.616 41.44822,-25.36534 19.24489,4.5054 31.12723,24.53763 26.62561,43.63297 -4.75804,20.18302 -25.78387,32.63855 -45.81772,27.88589 -21.12117,-5.0106 -34.14994,-27.03012 -29.14617,-48.00247 5.2631,-22.05933 28.27639,-35.66138 50.18723,-30.40645 22.9975,5.51554 37.17286,29.52267 31.66672,52.37198 -5.76792,23.93568 -30.76896,38.6844 -54.55673,32.92701 -24.87387,-6.02027 -40.19598,-32.01528 -34.18729,-56.7415 6.27257,-25.81206 33.26159,-41.70758 58.92625,-35.44755 26.75028,6.52482 43.21923,34.50791 36.70784,61.11099 -6.77706,27.68849 -35.75424,44.73091 -63.29576,37.96812 -28.62671,-7.02926 -46.2426,-37.00058 -39.22839,-65.48051 7.28144,-29.56493 38.24693,-47.75432 67.66526,-40.48867 30.50317,7.53359 49.26607,39.49328 41.74895,69.85001 -7.78571,31.44141 -40.73963,50.77784 -72.03477,43.00923 -32.37964,-8.03782 -52.28962,-41.98599 -44.2695,-74.21952 8.28991,-33.31788 43.23236,-53.80141 76.40427,-45.52978 34.25613,8.54199 55.31323,44.47873 46.79006,78.58903 -8.79405,35.19438 -45.7251,56.82505 -80.77378,48.05034 -36.13263,-9.0461 -58.3369,-46.97148 -49.31062,-82.95854 9.29813,-37.07089 48.21786,-59.84875 85.14329,-50.57089 38.00916,9.55014 61.36062,49.46424 51.83118,87.32804 -9.80216,38.94741 -50.71063,62.87248 -89.5128,53.09145 -39.88568,-10.05416 -64.38437,-51.95702 -54.35173,-91.69755 10.30615,-40.82394 53.20341,-65.89626 93.8823,-55.61201 41.76222,10.55813 67.40816,54.4498 56.87229,96.06706 -10.8101,42.70048 -55.6962,68.92006 -98.25181,58.13256 -43.63875,-11.06207 -70.43198,-56.94259 -59.39284,-100.43656 11.31402,-44.57703 58.18899,-71.9439 102.62131,-60.65312 45.51531,11.56598 73.45583,59.4354 61.9134,104.80607 -11.81792,46.45358 -60.6818,74.96776 -106.99082,63.17368 -47.39186,-12.06986 -76.4797,-61.92821 -64.43396,-109.17558 12.3218,-48.33014 63.17461,-77.99164 111.36033,-65.69423 49.26842,12.57372 79.5036,64.42101 66.95452,113.54508 -12.82565,50.20669 -65.66743,81.01554 -115.72984,68.21479 -51.14498,-13.07756 -82.5275,-66.91384 -69.47507,-117.91459 13.32948,-52.08326 68.16025,-84.03947 120.09935,-70.73535 53.02154,13.58139 85.55143,69.40666 71.99562,122.2841 -13.83329,53.95983 -70.65307,87.0634 -124.46885,73.2559 -54.89812,-14.08519 -88.57537,-71.89948 -74.51618,-126.6536 6.05224,-23.57072 20.40108,-44.62424 40.08628,-58.92358"
       id="path4679" />
  </g>
</svg>
