  0
SECTION
  2
HEADER
  9
$ACADVER
  1
AC1014
  9
$HANDSEED
  5
FFFF
  9
$MEASUREMENT
 70
     1
  0
ENDSEC
  0
SECTION
  2
TABLES
  0
TABLE
  2
VPORT
  5
8
330
0
100
AcDbSymbolTable
 70
     4
  0
VPORT
  5
2E
330
8
100
AcDbSymbolTableRecord
100
AcDbViewportTableRecord
  2
*ACTIVE
 70
     0
 10
0.0
 20
0.0
 11
1.0
 21
1.0
 12
210.0
 22
148.5
 13
0.0
 23
0.0
 14
10.0
 24
10.0
 15
10.0
 25
10.0
 16
0.0
 26
0.0
 36
1.0
 17
0.0
 27
0.0
 37
0.0
 40
341.0
 41
1.24
 42
50.0
 43
0.0
 44
0.0
 50
0.0
 51
0.0
 71
     0
 72
   100
 73
     1
 74
     3
 75
     0
 76
     0
 77
     0
 78
     0
  0
ENDTAB
  0
TABLE
  2
LTYPE
  5
5
330
0
100
AcDbSymbolTable
 70
     1
  0
LTYPE
  5
14
330
5
100
AcDbSymbolTableRecord
100
AcDbLinetypeTableRecord
  2
BYBLOCK
 70
     0
  3

 72
    65
 73
     0
 40
0.0
  0
LTYPE
  5
15
330
5
100
AcDbSymbolTableRecord
100
AcDbLinetypeTableRecord
  2
BYLAYER
 70
     0
  3

 72
    65
 73
     0
 40
0.0
  0
LTYPE
  5
16
330
5
100
AcDbSymbolTableRecord
100
AcDbLinetypeTableRecord
  2
CONTINUOUS
 70
     0
  3
Solid line
 72
    65
 73
     0
 40
0.0
  0
ENDTAB
  0
TABLE
  2
LAYER
  5
2
100
AcDbSymbolTable
 70
4
  0
LAYER
  5
50
100
AcDbSymbolTableRecord
100
AcDbLayerTableRecord
  2
0
 70
0
  6
CONTINUOUS
  0
LAYER
  5
51
100
AcDbSymbolTableRecord
100
AcDbLayerTableRecord
  2
outline
 70
0
  6
CONTINUOUS
  0
LAYER
  5
52
100
AcDbSymbolTableRecord
100
AcDbLayerTableRecord
  2
bolt_pattern
 70
0
  6
CONTINUOUS
  0
LAYER
  5
53
100
AcDbSymbolTableRecord
100
AcDbLayerTableRecord
  2
coil
 70
0
  6
CONTINUOUS
  0
ENDTAB
  0
TABLE
  2
STYLE
  5
3
330
0
100
AcDbSymbolTable
 70
     1
  0
STYLE
  5
11
330
3
100
AcDbSymbolTableRecord
100
AcDbTextStyleTableRecord
  2
STANDARD
 70
     0
 40
0.0
 41
1.0
 50
0.0
 71
     0
 42
2.5
  3
txt
  4

  0
ENDTAB
  0
TABLE
  2
VIEW
  5
6
330
0
100
AcDbSymbolTable
 70
     0
  0
ENDTAB
  0
TABLE
  2
UCS
  5
7
330
0
100
AcDbSymbolTable
 70
     0
  0
ENDTAB
  0
TABLE
  2
APPID
  5
9
330
0
100
AcDbSymbolTable
 70
     2
  0
APPID
  5
12
330
9
100
AcDbSymbolTableRecord
100
AcDbRegAppTableRecord
  2
ACAD
 70
     0
  0
ENDTAB
  0
TABLE
  2
DIMSTYLE
  5
A
330
0
100
AcDbSymbolTable
 70
     1
  0
DIMSTYLE
105
27
330
A
100
AcDbSymbolTableRecord
100
AcDbDimStyleTableRecord
  2
ISO-25
 70
     0
  3

  4

  5

  6

  7

 40
1.0
 41
2.5
 42
0.625
 43
3.75
 44
1.25
 45
0.0
 46
0.0
 47
0.0
 48
0.0
140
2.5
141
2.5
142
0.0
143
0.03937007874016
144
1.0
145
0.0
146
1.0
147
0.625
 71
     0
 72
     0
 73
     0
 74
     0
 75
     0
 76
     0
 77
     1
 78
     8
170
     0
171
     3
172
     1
173
     0
174
     0
175
     0
176
     0
177
     0
178
     0
270
     2
271
     2
272
     2
273
     2
274
     3
340
11
275
     0
280
     0
281
     0
282
     0
283
     0
284
     8
285
     0
286
     0
287
     3
288
     0
  0
ENDTAB
  0
TABLE
  2
BLOCK_RECORD
  5
1
330
0
100
AcDbSymbolTable
 70
     1
  0
BLOCK_RECORD
  5
1F
330
1
100
AcDbSymbolTableRecord
100
AcDbBlockTableRecord
  2
*MODEL_SPACE
  0
BLOCK_RECORD
  5
1B
330
1
100
AcDbSymbolTableRecord
100
AcDbBlockTableRecord
  2
*PAPER_SPACE
  0
ENDTAB
  0
ENDSEC
  0
SECTION
  2
BLOCKS
  0
BLOCK
  5
20
330
1F
100
AcDbEntity
  8
0
100
AcDbBlockBegin
  2
*MODEL_SPACE
 70
     0
 10
0.0
 20
0.0
 30
0.0
  3
*MODEL_SPACE
  1

  0
ENDBLK
  5
21
330
1F
100
AcDbEntity
  8
0
100
AcDbBlockEnd
  0
BLOCK
  5
1C
330
1B
100
AcDbEntity
 67
     1
  8
0
100
AcDbBlockBegin
  2
*PAPER_SPACE
  1

  0
ENDBLK
  5
1D
330
1B
100
AcDbEntity
 67
     1
  8
0
100
AcDbBlockEnd
  0
ENDSEC
  0
SECTION
  2
ENTITIES
  0
SPLINE
  5
100
100
AcDbEntity
  8
coil
 62
7
100
AcDbSpline
 70
8
 71
3
 72
8
 73
4
 74
0
 40
0
 40
0
 40
0
 40
0
 40
1
 40
1
 40
1
 40
1
 10
85.830981
 20
167.098167
 30
0.0
 10
77.912817
 20
168.797796
 30
0.0
 10
73.018339
 20
176.465742
 30
0.0
 10
74.841792
 20
183.782203
 30
0.0
  0
SPLINE
  5
101
100
AcDbEntity
  8
coil
 62
7
100
AcDbSpline
 70
8
 71
3
 72
8
 73
4
 74
0
 40
0
 40
0
 40
0
 40
0
 40
1
 40
1
 40
1
 40
1
 10
74.841792
 20
183.782203
 30
0.0
 10
76.780530
 20
191.561220
 30
0.0
 10
85.460053
 20
196.366789
 30
0.0
 10
93.737506
 20
194.560577
 30
0.0
  0
SPLINE
  5
102
100
AcDbEntity
  8
coil
 62
7
100
AcDbSpline
 70
8
 71
3
 72
8
 73
4
 74
0
 40
0
 40
0
 40
0
 40
0
 40
1
 40
1
 40
1
 40
1
 10
93.737506
 20
194.560577
 30
0.0
 10
102.511006
 20
192.646118
 30
0.0
 10
107.928013
 20
184.133918
 30
0.0
 10
105.875782
 20
176.019825
 30
0.0
  0
SPLINE
  5
103
100
AcDbEntity
  8
coil
 62
7
100
AcDbSpline
 70
8
 71
3
 72
8
 73
4
 74
0
 40
0
 40
0
 40
0
 40
0
 40
1
 40
1
 40
1
 40
1
 10
105.875782
 20
176.019825
 30
0.0
 10
103.706652
 20
167.443550
 30
0.0
 10
94.121245
 20
162.150881
 30
0.0
 10
84.988068
 20
164.170406
 30
0.0
  0
SPLINE
  5
104
100
AcDbEntity
  8
coil
 62
7
100
AcDbSpline
 70
8
 71
3
 72
8
 73
4
 74
0
 40
0
 40
0
 40
0
 40
0
 40
1
 40
1
 40
1
 40
1
 10
84.988068
 20
164.170406
 30
0.0
 10
75.359197
 20
166.299537
 30
0.0
 10
69.419547
 20
175.656187
 30
0.0
 10
71.700702
 20
184.567868
 30
0.0
  0
SPLINE
  5
105
100
AcDbEntity
  8
coil
 62
7
100
AcDbSpline
 70
8
 71
3
 72
8
 73
4
 74
0
 40
0
 40
0
 40
0
 40
0
 40
1
 40
1
 40
1
 40
1
 10
71.700702
 20
184.567868
 30
0.0
 10
74.100082
 20
193.941435
 30
0.0
 10
84.591547
 20
199.721290
 30
0.0
 10
94.580419
 20
197.488337
 30
0.0
  0
SPLINE
  5
106
100
AcDbEntity
  8
coil
 62
7
100
AcDbSpline
 70
8
 71
3
 72
8
 73
4
 74
0
 40
0
 40
0
 40
0
 40
0
 40
1
 40
1
 40
1
 40
1
 10
94.580419
 20
197.488337
 30
0.0
 10
105.064685
 20
195.144645
 30
0.0
 10
111.527051
 20
184.943409
 30
0.0
 10
109.016872
 20
175.234160
 30
0.0
  0
SPLINE
  5
107
100
AcDbEntity
  8
coil
 62
7
100
AcDbSpline
 70
8
 71
3
 72
8
 73
4
 74
0
 40
0
 40
0
 40
0
 40
0
 40
1
 40
1
 40
1
 40
1
 10
109.016872
 20
175.234160
 30
0.0
 10
106.387351
 20
165.063285
 30
0.0
 10
94.989696
 20
158.796181
 30
0.0
 10
84.145156
 20
161.242641
 30
0.0
  0
SPLINE
  5
108
100
AcDbEntity
  8
coil
 62
7
100
AcDbSpline
 70
8
 71
3
 72
8
 73
4
 74
0
 40
0
 40
0
 40
0
 40
0
 40
1
 40
1
 40
1
 40
1
 10
84.145156
 20
161.242641
 30
0.0
 10
72.805476
 20
163.800806
 30
0.0
 10
65.820322
 20
174.846743
 30
0.0
 10
68.559607
 20
185.353538
 30
0.0
  0
SPLINE
  5
109
100
AcDbEntity
  8
coil
 62
7
100
AcDbSpline
 70
8
 71
3
 72
8
 73
4
 74
0
 40
0
 40
0
 40
0
 40
0
 40
1
 40
1
 40
1
 40
1
 10
68.559607
 20
185.353538
 30
0.0
 10
71.419192
 20
196.321735
 30
0.0
 10
83.723141
 20
203.076143
 30
0.0
 10
95.423332
 20
200.416098
 30
0.0
  0
SPLINE
  5
10a
100
AcDbEntity
  8
coil
 62
7
100
AcDbSpline
 70
8
 71
3
 72
8
 73
4
 74
0
 40
0
 40
0
 40
0
 40
0
 40
1
 40
1
 40
1
 40
1
 10
95.423332
 20
200.416098
 30
0.0
 10
107.618442
 20
197.643537
 30
0.0
 10
115.126426
 20
185.752815
 30
0.0
 10
112.157967
 20
174.448494
 30
0.0
  0
SPLINE
  5
10b
100
AcDbEntity
  8
coil
 62
7
100
AcDbSpline
 70
8
 71
3
 72
8
 73
4
 74
0
 40
0
 40
0
 40
0
 40
0
 40
1
 40
1
 40
1
 40
1
 10
112.157967
 20
174.448494
 30
0.0
 10
109.068392
 20
162.682955
 30
0.0
 10
95.858066
 20
155.441200
 30
0.0
 10
83.302239
 20
158.314881
 30
0.0
  0
SPLINE
  5
10c
100
AcDbEntity
  8
coil
 62
7
100
AcDbSpline
 70
8
 71
3
 72
8
 73
4
 74
0
 40
0
 40
0
 40
0
 40
0
 40
1
 40
1
 40
1
 40
1
 10
83.302239
 20
158.314881
 30
0.0
 10
70.251687
 20
161.301791
 30
0.0
 10
62.220828
 20
174.037362
 30
0.0
 10
65.418517
 20
186.139204
 30
0.0
  0
SPLINE
  5
10d
100
AcDbEntity
  8
coil
 62
7
100
AcDbSpline
 70
8
 71
3
 72
8
 73
4
 74
0
 40
0
 40
0
 40
0
 40
0
 40
1
 40
1
 40
1
 40
1
 10
65.418517
 20
186.139204
 30
0.0
 10
68.738032
 20
198.702089
 30
0.0
 10
82.854803
 20
206.431221
 30
0.0
 10
96.266244
 20
203.343863
 30
0.0
  0
SPLINE
  5
10e
100
AcDbEntity
  8
coil
 62
7
100
AcDbSpline
 70
8
 71
3
 72
8
 73
4
 74
0
 40
0
 40
0
 40
0
 40
0
 40
1
 40
1
 40
1
 40
1
 10
96.266244
 20
203.343863
 30
0.0
 10
110.172250
 20
200.142650
 30
0.0
 10
118.726016
 20
186.562170
 30
0.0
 10
115.299057
 20
173.662829
 30
0.0
  0
SPLINE
  5
10f
100
AcDbEntity
  8
coil
 62
7
100
AcDbSpline
 70
8
 71
3
 72
8
 73
4
 74
0
 40
0
 40
0
 40
0
 40
0
 40
1
 40
1
 40
1
 40
1
 10
115.299057
 20
173.662829
 30
0.0
 10
111.749651
 20
160.302579
 30
0.0
 10
96.726380
 20
152.086042
 30
0.0
 10
82.459326
 20
155.387120
 30
0.0
  0
SPLINE
  5
110
100
AcDbEntity
  8
coil
 62
7
100
AcDbSpline
 70
8
 71
3
 72
8
 73
4
 74
0
 40
0
 40
0
 40
0
 40
0
 40
1
 40
1
 40
1
 40
1
 10
82.459326
 20
155.387120
 30
0.0
 10
67.697862
 20
158.802593
 30
0.0
 10
58.621156
 20
173.228028
 30
0.0
 10
62.277426
 20
186.924869
 30
0.0
  0
SPLINE
  5
111
100
AcDbEntity
  8
coil
 62
7
100
AcDbSpline
 70
8
 71
3
 72
8
 73
4
 74
0
 40
0
 40
0
 40
0
 40
0
 40
1
 40
1
 40
1
 40
1
 10
62.277426
 20
186.924869
 30
0.0
 10
66.056690
 20
201.082478
 30
0.0
 10
81.986507
 20
209.786448
 30
0.0
 10
97.109157
 20
206.271623
 30
0.0
  0
SPLINE
  5
112
100
AcDbEntity
  8
coil
 62
7
100
AcDbSpline
 70
8
 71
3
 72
8
 73
4
 74
0
 40
0
 40
0
 40
0
 40
0
 40
1
 40
1
 40
1
 40
1
 10
97.109157
 20
206.271623
 30
0.0
 10
112.726089
 20
202.641916
 30
0.0
 10
122.325752
 20
187.371487
 30
0.0
 10
118.440147
 20
172.877159
 30
0.0
  0
SPLINE
  5
113
100
AcDbEntity
  8
coil
 62
7
100
AcDbSpline
 70
8
 71
3
 72
8
 73
4
 74
0
 40
0
 40
0
 40
0
 40
0
 40
1
 40
1
 40
1
 40
1
 10
118.440147
 20
172.877159
 30
0.0
 10
114.431052
 20
157.922178
 30
0.0
 10
97.594659
 20
148.730759
 30
0.0
 10
81.616413
 20
152.459355
 30
0.0
  0
SPLINE
  5
114
100
AcDbEntity
  8
coil
 62
7
100
AcDbSpline
 70
8
 71
3
 72
8
 73
4
 74
0
 40
0
 40
0
 40
0
 40
0
 40
1
 40
1
 40
1
 40
1
 10
81.616413
 20
152.459355
 30
0.0
 10
65.144009
 20
156.303272
 30
0.0
 10
55.021366
 20
172.418724
 30
0.0
 10
59.136331
 20
187.710535
 30
0.0
  0
SPLINE
  5
115
100
AcDbEntity
  8
coil
 62
7
100
AcDbSpline
 70
8
 71
3
 72
8
 73
4
 74
0
 40
0
 40
0
 40
0
 40
0
 40
1
 40
1
 40
1
 40
1
 10
59.136331
 20
187.710535
 30
0.0
 10
63.375230
 20
203.462893
 30
0.0
 10
81.118238
 20
213.141781
 30
0.0
 10
97.952070
 20
209.199384
 30
0.0
  0
SPLINE
  5
116
100
AcDbEntity
  8
coil
 62
7
100
AcDbSpline
 70
8
 71
3
 72
8
 73
4
 74
0
 40
0
 40
0
 40
0
 40
0
 40
1
 40
1
 40
1
 40
1
 10
97.952070
 20
209.199384
 30
0.0
 10
115.279960
 20
205.141288
 30
0.0
 10
125.925592
 20
188.180778
 30
0.0
 10
121.581242
 20
172.091493
 30
0.0
  0
SPLINE
  5
117
100
AcDbEntity
  8
coil
 62
7
100
AcDbSpline
 70
8
 71
3
 72
8
 73
4
 74
0
 40
0
 40
0
 40
0
 40
0
 40
1
 40
1
 40
1
 40
1
 10
121.581242
 20
172.091493
 30
0.0
 10
117.112563
 20
155.541755
 30
0.0
 10
98.462914
 20
145.375388
 30
0.0
 10
80.773500
 20
149.531595
 30
0.0
  0
SPLINE
  5
118
100
AcDbEntity
  8
coil
 62
7
100
AcDbSpline
 70
8
 71
3
 72
8
 73
4
 74
0
 40
0
 40
0
 40
0
 40
0
 40
1
 40
1
 40
1
 40
1
 10
80.773500
 20
149.531595
 30
0.0
 10
62.590129
 20
153.803861
 30
0.0
 10
51.421489
 20
171.609445
 30
0.0
 10
55.995241
 20
188.496200
 30
0.0
  0
SPLINE
  5
119
100
AcDbEntity
  8
coil
 62
7
100
AcDbSpline
 70
8
 71
3
 72
8
 73
4
 74
0
 40
0
 40
0
 40
0
 40
0
 40
1
 40
1
 40
1
 40
1
 10
55.995241
 20
188.496200
 30
0.0
 10
60.693683
 20
205.843324
 30
0.0
 10
80.249996
 20
216.497186
 30
0.0
 10
98.794982
 20
212.127149
 30
0.0
  0
SPLINE
  5
11a
100
AcDbEntity
  8
coil
 62
7
100
AcDbSpline
 70
8
 71
3
 72
8
 73
4
 74
0
 40
0
 40
0
 40
0
 40
0
 40
1
 40
1
 40
1
 40
1
 10
98.794982
 20
212.127149
 30
0.0
 10
117.833845
 20
207.640732
 30
0.0
 10
129.525501
 20
188.990053
 30
0.0
 10
124.722333
 20
171.305828
 30
0.0
  0
SPLINE
  5
11b
100
AcDbEntity
  8
coil
 62
7
100
AcDbSpline
 70
8
 71
3
 72
8
 73
4
 74
0
 40
0
 40
0
 40
0
 40
0
 40
1
 40
1
 40
1
 40
1
 10
124.722333
 20
171.305828
 30
0.0
 10
119.794146
 20
153.161315
 30
0.0
 10
99.331147
 20
142.019953
 30
0.0
 10
79.930588
 20
146.603834
 30
0.0
  0
SPLINE
  5
11c
100
AcDbEntity
  8
coil
 62
7
100
AcDbSpline
 70
8
 71
3
 72
8
 73
4
 74
0
 40
0
 40
0
 40
0
 40
0
 40
1
 40
1
 40
1
 40
1
 10
79.930588
 20
146.603834
 30
0.0
 10
60.036239
 20
151.304387
 30
0.0
 10
47.821548
 20
170.800179
 30
0.0
 10
52.854151
 20
189.281866
 30
0.0
  0
SPLINE
  5
11d
100
AcDbEntity
  8
coil
 62
7
100
AcDbSpline
 70
8
 71
3
 72
8
 73
4
 74
0
 40
0
 40
0
 40
0
 40
0
 40
1
 40
1
 40
1
 40
1
 10
52.854151
 20
189.281866
 30
0.0
 10
58.012068
 20
208.223772
 30
0.0
 10
79.381768
 20
219.852647
 30
0.0
 10
99.637895
 20
215.054909
 30
0.0
  0
SPLINE
  5
11e
100
AcDbEntity
  8
coil
 62
7
100
AcDbSpline
 70
8
 71
3
 72
8
 73
4
 74
0
 40
0
 40
0
 40
0
 40
0
 40
1
 40
1
 40
1
 40
1
 10
99.637895
 20
215.054909
 30
0.0
 10
120.387743
 20
210.140232
 30
0.0
 10
133.125469
 20
189.799306
 30
0.0
 10
127.863423
 20
170.520162
 30
0.0
  0
SPLINE
  5
11f
100
AcDbEntity
  8
coil
 62
7
100
AcDbSpline
 70
8
 71
3
 72
8
 73
4
 74
0
 40
0
 40
0
 40
0
 40
0
 40
1
 40
1
 40
1
 40
1
 10
127.863423
 20
170.520162
 30
0.0
 10
122.475784
 20
150.780862
 30
0.0
 10
100.199366
 20
138.664467
 30
0.0
 10
79.087675
 20
143.676069
 30
0.0
  0
SPLINE
  5
120
100
AcDbEntity
  8
coil
 62
7
100
AcDbSpline
 70
8
 71
3
 72
8
 73
4
 74
0
 40
0
 40
0
 40
0
 40
0
 40
1
 40
1
 40
1
 40
1
 10
79.087675
 20
143.676069
 30
0.0
 10
57.482332
 20
148.804858
 30
0.0
 10
44.221557
 20
169.990930
 30
0.0
 10
49.713056
 20
190.067532
 30
0.0
  0
SPLINE
  5
121
100
AcDbEntity
  8
coil
 62
7
100
AcDbSpline
 70
8
 71
3
 72
8
 73
4
 74
0
 40
0
 40
0
 40
0
 40
0
 40
1
 40
1
 40
1
 40
1
 10
49.713056
 20
190.067532
 30
0.0
 10
55.330407
 20
210.604229
 30
0.0
 10
78.513554
 20
223.208150
 30
0.0
 10
100.480808
 20
217.982670
 30
0.0
  0
SPLINE
  5
122
100
AcDbEntity
  8
coil
 62
7
100
AcDbSpline
 70
8
 71
3
 72
8
 73
4
 74
0
 40
0
 40
0
 40
0
 40
0
 40
1
 40
1
 40
1
 40
1
 10
100.480808
 20
217.982670
 30
0.0
 10
122.941651
 20
212.639778
 30
0.0
 10
136.725483
 20
190.608555
 30
0.0
 10
131.004518
 20
169.734497
 30
0.0
  0
SPLINE
  5
123
100
AcDbEntity
  8
coil
 62
7
100
AcDbSpline
 70
8
 71
3
 72
8
 73
4
 74
0
 40
0
 40
0
 40
0
 40
0
 40
1
 40
1
 40
1
 40
1
 10
131.004518
 20
169.734497
 30
0.0
 10
125.157468
 20
148.400406
 30
0.0
 10
101.067576
 20
135.308947
 30
0.0
 10
78.244762
 20
140.748309
 30
0.0
  0
SPLINE
  5
124
100
AcDbEntity
  8
coil
 62
7
100
AcDbSpline
 70
8
 71
3
 72
8
 73
4
 74
0
 40
0
 40
0
 40
0
 40
0
 40
1
 40
1
 40
1
 40
1
 10
78.244762
 20
140.748309
 30
0.0
 10
54.928419
 20
146.305295
 30
0.0
 10
40.621530
 20
169.181690
 30
0.0
 10
46.571966
 20
190.853197
 30
0.0
  0
SPLINE
  5
125
100
AcDbEntity
  8
coil
 62
7
100
AcDbSpline
 70
8
 71
3
 72
8
 73
4
 74
0
 40
0
 40
0
 40
0
 40
0
 40
1
 40
1
 40
1
 40
1
 10
46.571966
 20
190.853197
 30
0.0
 10
52.648705
 20
212.984690
 30
0.0
 10
77.645353
 20
226.563691
 30
0.0
 10
101.323725
 20
220.910434
 30
0.0
  0
SPLINE
  5
126
100
AcDbEntity
  8
coil
 62
7
100
AcDbSpline
 70
8
 71
3
 72
8
 73
4
 74
0
 40
0
 40
0
 40
0
 40
0
 40
1
 40
1
 40
1
 40
1
 10
101.323725
 20
220.910434
 30
0.0
 10
125.495568
 20
215.139359
 30
0.0
 10
140.325529
 20
191.417791
 30
0.0
 10
134.145608
 20
168.948831
 30
0.0
  0
SPLINE
  5
127
100
AcDbEntity
  8
coil
 62
7
100
AcDbSpline
 70
8
 71
3
 72
8
 73
4
 74
0
 40
0
 40
0
 40
0
 40
0
 40
1
 40
1
 40
1
 40
1
 10
134.145608
 20
168.948831
 30
0.0
 10
127.839188
 20
146.019936
 30
0.0
 10
101.935776
 20
131.953393
 30
0.0
 10
77.401850
 20
137.820548
 30
0.0
  0
SPLINE
  5
128
100
AcDbEntity
  8
coil
 62
7
100
AcDbSpline
 70
8
 71
3
 72
8
 73
4
 74
0
 40
0
 40
0
 40
0
 40
0
 40
1
 40
1
 40
1
 40
1
 10
77.401850
 20
137.820548
 30
0.0
 10
52.374498
 20
143.805701
 30
0.0
 10
37.021470
 20
168.372454
 30
0.0
 10
43.430875
 20
191.638863
 30
0.0
  0
SPLINE
  5
129
100
AcDbEntity
  8
coil
 62
7
100
AcDbSpline
 70
8
 71
3
 72
8
 73
4
 74
0
 40
0
 40
0
 40
0
 40
0
 40
1
 40
1
 40
1
 40
1
 10
43.430875
 20
191.638863
 30
0.0
 10
46.190014
 20
201.654657
 30
0.0
 10
52.731467
 20
210.600830
 30
0.0
 10
61.705698
 20
216.676981
 30
0.0
  0
SPLINE
  5
12a
100
AcDbEntity
  8
coil
 62
7
100
AcDbSpline
 70
8
 71
3
 72
8
 73
4
 74
0
 40
0
 40
0
 40
0
 40
0
 40
1
 40
1
 40
1
 40
1
 10
144.088803
 20
91.996328
 30
0.0
 10
138.657799
 20
85.988811
 30
0.0
 10
129.569924
 20
85.584042
 30
0.0
 10
124.145409
 20
90.821429
 30
0.0
  0
SPLINE
  5
12b
100
AcDbEntity
  8
coil
 62
7
100
AcDbSpline
 70
8
 71
3
 72
8
 73
4
 74
0
 40
0
 40
0
 40
0
 40
0
 40
1
 40
1
 40
1
 40
1
 10
124.145409
 20
90.821429
 30
0.0
 10
118.377951
 20
96.389934
 30
0.0
 10
118.555968
 20
106.309406
 30
0.0
 10
124.258921
 20
112.574784
 30
0.0
  0
SPLINE
  5
12c
100
AcDbEntity
  8
coil
 62
7
100
AcDbSpline
 70
8
 71
3
 72
8
 73
4
 74
0
 40
0
 40
0
 40
0
 40
0
 40
1
 40
1
 40
1
 40
1
 10
124.258921
 20
112.574784
 30
0.0
 10
130.303640
 20
119.215629
 30
0.0
 10
140.383926
 20
119.650794
 30
0.0
 10
146.384820
 20
113.816464
 30
0.0
  0
SPLINE
  5
12d
100
AcDbEntity
  8
coil
 62
7
100
AcDbSpline
 70
8
 71
3
 72
8
 73
4
 74
0
 40
0
 40
0
 40
0
 40
0
 40
1
 40
1
 40
1
 40
1
 10
146.384820
 20
113.816464
 30
0.0
 10
152.727528
 20
107.649805
 30
0.0
 10
152.518410
 20
96.702264
 30
0.0
 10
146.202862
 20
89.802464
 30
0.0
  0
SPLINE
  5
12e
100
AcDbEntity
  8
coil
 62
7
100
AcDbSpline
 70
8
 71
3
 72
8
 73
4
 74
0
 40
0
 40
0
 40
0
 40
0
 40
1
 40
1
 40
1
 40
1
 10
146.202862
 20
89.802464
 30
0.0
 10
139.544545
 20
82.528181
 30
0.0
 10
128.471623
 20
82.062619
 30
0.0
 10
121.894458
 20
88.493998
 30
0.0
  0
SPLINE
  5
12f
100
AcDbEntity
  8
coil
 62
7
100
AcDbSpline
 70
8
 71
3
 72
8
 73
4
 74
0
 40
0
 40
0
 40
0
 40
0
 40
1
 40
1
 40
1
 40
1
 10
121.894458
 20
88.493998
 30
0.0
 10
114.976401
 20
95.258705
 30
0.0
 10
115.216633
 20
107.234508
 30
0.0
 10
122.144862
 20
114.768648
 30
0.0
  0
SPLINE
  5
130
100
AcDbEntity
  8
coil
 62
7
100
AcDbSpline
 70
8
 71
3
 72
8
 73
4
 74
0
 40
0
 40
0
 40
0
 40
0
 40
1
 40
1
 40
1
 40
1
 10
122.144862
 20
114.768648
 30
0.0
 10
129.416693
 20
122.676443
 30
0.0
 10
141.482405
 20
123.172398
 30
0.0
 10
148.635772
 20
116.143895
 30
0.0
  0
SPLINE
  5
131
100
AcDbEntity
  8
coil
 62
7
100
AcDbSpline
 70
8
 71
3
 72
8
 73
4
 74
0
 40
0
 40
0
 40
0
 40
0
 40
1
 40
1
 40
1
 40
1
 10
148.635772
 20
116.143895
 30
0.0
 10
156.129248
 20
108.781225
 30
0.0
 10
155.857891
 20
95.777015
 30
0.0
 10
148.316924
 20
87.608597
 30
0.0
  0
SPLINE
  5
132
100
AcDbEntity
  8
coil
 62
7
100
AcDbSpline
 70
8
 71
3
 72
8
 73
4
 74
0
 40
0
 40
0
 40
0
 40
0
 40
1
 40
1
 40
1
 40
1
 10
148.316924
 20
87.608597
 30
0.0
 10
140.431648
 20
79.067229
 30
0.0
 10
127.373010
 20
78.540876
 30
0.0
 10
119.643500
 20
86.166565
 30
0.0
  0
SPLINE
  5
133
100
AcDbEntity
  8
coil
 62
7
100
AcDbSpline
 70
8
 71
3
 72
8
 73
4
 74
0
 40
0
 40
0
 40
0
 40
0
 40
1
 40
1
 40
1
 40
1
 10
119.643500
 20
86.166565
 30
0.0
 10
111.574556
 20
94.127136
 30
0.0
 10
111.877042
 20
108.159873
 30
0.0
 10
120.030804
 20
116.962512
 30
0.0
  0
SPLINE
  5
134
100
AcDbEntity
  8
coil
 62
7
100
AcDbSpline
 70
8
 71
3
 72
8
 73
4
 74
0
 40
0
 40
0
 40
0
 40
0
 40
1
 40
1
 40
1
 40
1
 10
120.030804
 20
116.962512
 30
0.0
 10
128.529467
 20
126.137508
 30
0.0
 10
142.581127
 20
126.694252
 30
0.0
 10
150.886726
 20
118.471330
 30
0.0
  0
SPLINE
  5
135
100
AcDbEntity
  8
coil
 62
7
100
AcDbSpline
 70
8
 71
3
 72
8
 73
4
 74
0
 40
0
 40
0
 40
0
 40
0
 40
1
 40
1
 40
1
 40
1
 10
150.886726
 20
118.471330
 30
0.0
 10
159.531194
 20
109.912910
 30
0.0
 10
159.197574
 20
94.851555
 30
0.0
 10
150.430980
 20
85.414729
 30
0.0
  0
SPLINE
  5
136
100
AcDbEntity
  8
coil
 62
7
100
AcDbSpline
 70
8
 71
3
 72
8
 73
4
 74
0
 40
0
 40
0
 40
0
 40
0
 40
1
 40
1
 40
1
 40
1
 10
150.430980
 20
85.414729
 30
0.0
 10
141.318964
 20
75.606075
 30
0.0
 10
126.274207
 20
75.018933
 30
0.0
 10
117.392549
 20
83.839133
 30
0.0
  0
SPLINE
  5
137
100
AcDbEntity
  8
coil
 62
7
100
AcDbSpline
 70
8
 71
3
 72
8
 73
4
 74
0
 40
0
 40
0
 40
0
 40
0
 40
1
 40
1
 40
1
 40
1
 10
117.392549
 20
83.839133
 30
0.0
 10
108.172528
 20
92.995361
 30
0.0
 10
108.537290
 20
109.085409
 30
0.0
 10
117.916741
 20
119.156379
 30
0.0
  0
SPLINE
  5
138
100
AcDbEntity
  8
coil
 62
7
100
AcDbSpline
 70
8
 71
3
 72
8
 73
4
 74
0
 40
0
 40
0
 40
0
 40
0
 40
1
 40
1
 40
1
 40
1
 10
117.916741
 20
119.156379
 30
0.0
 10
127.642076
 20
129.598726
 30
0.0
 10
143.679999
 20
130.216266
 30
0.0
 10
153.137677
 20
120.798761
 30
0.0
  0
SPLINE
  5
139
100
AcDbEntity
  8
coil
 62
7
100
AcDbSpline
 70
8
 71
3
 72
8
 73
4
 74
0
 40
0
 40
0
 40
0
 40
0
 40
1
 40
1
 40
1
 40
1
 10
153.137677
 20
120.798761
 30
0.0
 10
162.933290
 20
111.044761
 30
0.0
 10
162.537384
 20
93.925958
 30
0.0
 10
152.545039
 20
83.220865
 30
0.0
  0
SPLINE
  5
13a
100
AcDbEntity
  8
coil
 62
7
100
AcDbSpline
 70
8
 71
3
 72
8
 73
4
 74
0
 40
0
 40
0
 40
0
 40
0
 40
1
 40
1
 40
1
 40
1
 10
152.545039
 20
83.220865
 30
0.0
 10
142.206421
 20
72.144799
 30
0.0
 10
125.175275
 20
71.496859
 30
0.0
 10
115.141597
 20
81.511702
 30
0.0
  0
SPLINE
  5
13b
100
AcDbEntity
  8
coil
 62
7
100
AcDbSpline
 70
8
 71
3
 72
8
 73
4
 74
0
 40
0
 40
0
 40
0
 40
0
 40
1
 40
1
 40
1
 40
1
 10
115.141597
 20
81.511702
 30
0.0
 10
104.770380
 20
91.863445
 30
0.0
 10
105.197430
 20
110.011056
 30
0.0
 10
115.802683
 20
121.350243
 30
0.0
  0
SPLINE
  5
13c
100
AcDbEntity
  8
coil
 62
7
100
AcDbSpline
 70
8
 71
3
 72
8
 73
4
 74
0
 40
0
 40
0
 40
0
 40
0
 40
1
 40
1
 40
1
 40
1
 10
115.802683
 20
121.350243
 30
0.0
 10
126.754568
 20
133.060049
 30
0.0
 10
144.778978
 20
133.738387
 30
0.0
 10
155.388632
 20
123.126190
 30
0.0
  0
SPLINE
  5
13d
100
AcDbEntity
  8
coil
 62
7
100
AcDbSpline
 70
8
 71
3
 72
8
 73
4
 74
0
 40
0
 40
0
 40
0
 40
0
 40
1
 40
1
 40
1
 40
1
 10
155.388632
 20
123.126190
 30
0.0
 10
166.335478
 20
112.176722
 30
0.0
 10
165.877283
 20
93.000268
 30
0.0
 10
154.659101
 20
81.026999
 30
0.0
  0
SPLINE
  5
13e
100
AcDbEntity
  8
coil
 62
7
100
AcDbSpline
 70
8
 71
3
 72
8
 73
4
 74
0
 40
0
 40
0
 40
0
 40
0
 40
1
 40
1
 40
1
 40
1
 10
154.659101
 20
81.026999
 30
0.0
 10
143.093970
 20
68.683437
 30
0.0
 10
124.076257
 20
67.974697
 30
0.0
 10
112.890643
 20
79.184267
 30
0.0
  0
SPLINE
  5
13f
100
AcDbEntity
  8
coil
 62
7
100
AcDbSpline
 70
8
 71
3
 72
8
 73
4
 74
0
 40
0
 40
0
 40
0
 40
0
 40
1
 40
1
 40
1
 40
1
 10
112.890643
 20
79.184267
 30
0.0
 10
101.368151
 20
90.731440
 30
0.0
 10
101.857492
 20
110.936779
 30
0.0
 10
113.688624
 20
123.544107
 30
0.0
  0
SPLINE
  5
140
100
AcDbEntity
  8
coil
 62
7
100
AcDbSpline
 70
8
 71
3
 72
8
 73
4
 74
0
 40
0
 40
0
 40
0
 40
0
 40
1
 40
1
 40
1
 40
1
 10
113.688624
 20
123.544107
 30
0.0
 10
125.866983
 20
136.521452
 30
0.0
 10
145.878032
 20
137.260586
 30
0.0
 10
157.639586
 20
125.453626
 30
0.0
  0
SPLINE
  5
141
100
AcDbEntity
  8
coil
 62
7
100
AcDbSpline
 70
8
 71
3
 72
8
 73
4
 74
0
 40
0
 40
0
 40
0
 40
0
 40
1
 40
1
 40
1
 40
1
 10
157.639586
 20
125.453626
 30
0.0
 10
169.737740
 20
113.308766
 30
0.0
 10
169.217248
 20
92.074513
 30
0.0
 10
156.773160
 20
78.833135
 30
0.0
  0
SPLINE
  5
142
100
AcDbEntity
  8
coil
 62
7
100
AcDbSpline
 70
8
 71
3
 72
8
 73
4
 74
0
 40
0
 40
0
 40
0
 40
0
 40
1
 40
1
 40
1
 40
1
 10
156.773160
 20
78.833135
 30
0.0
 10
143.981582
 20
65.222006
 30
0.0
 10
122.977175
 20
64.452472
 30
0.0
 10
110.639692
 20
76.856836
 30
0.0
  0
SPLINE
  5
143
100
AcDbEntity
  8
coil
 62
7
100
AcDbSpline
 70
8
 71
3
 72
8
 73
4
 74
0
 40
0
 40
0
 40
0
 40
0
 40
1
 40
1
 40
1
 40
1
 10
110.639692
 20
76.856836
 30
0.0
 10
97.965863
 20
89.599368
 30
0.0
 10
98.517505
 20
111.862563
 30
0.0
 10
111.574562
 20
125.737973
 30
0.0
  0
SPLINE
  5
144
100
AcDbEntity
  8
coil
 62
7
100
AcDbSpline
 70
8
 71
3
 72
8
 73
4
 74
0
 40
0
 40
0
 40
0
 40
0
 40
1
 40
1
 40
1
 40
1
 10
111.574562
 20
125.737973
 30
0.0
 10
124.979343
 20
139.982904
 30
0.0
 10
146.977134
 20
140.782835
 30
0.0
 10
159.890538
 20
127.781057
 30
0.0
  0
SPLINE
  5
145
100
AcDbEntity
  8
coil
 62
7
100
AcDbSpline
 70
8
 71
3
 72
8
 73
4
 74
0
 40
0
 40
0
 40
0
 40
0
 40
1
 40
1
 40
1
 40
1
 10
159.890538
 20
127.781057
 30
0.0
 10
173.140053
 20
114.440866
 30
0.0
 10
172.557256
 20
91.148707
 30
0.0
 10
158.887219
 20
76.639271
 30
0.0
  0
SPLINE
  5
146
100
AcDbEntity
  8
coil
 62
7
100
AcDbSpline
 70
8
 71
3
 72
8
 73
4
 74
0
 40
0
 40
0
 40
0
 40
0
 40
1
 40
1
 40
1
 40
1
 10
158.887219
 20
76.639271
 30
0.0
 10
144.869246
 20
61.760536
 30
0.0
 10
121.878049
 20
60.930199
 30
0.0
 10
108.388740
 20
74.529404
 30
0.0
  0
SPLINE
  5
147
100
AcDbEntity
  8
coil
 62
7
100
AcDbSpline
 70
8
 71
3
 72
8
 73
4
 74
0
 40
0
 40
0
 40
0
 40
0
 40
1
 40
1
 40
1
 40
1
 10
108.388740
 20
74.529404
 30
0.0
 10
94.563527
 20
88.467245
 30
0.0
 10
95.177477
 20
112.788385
 30
0.0
 10
109.460503
 20
127.931837
 30
0.0
  0
SPLINE
  5
148
100
AcDbEntity
  8
coil
 62
7
100
AcDbSpline
 70
8
 71
3
 72
8
 73
4
 74
0
 40
0
 40
0
 40
0
 40
0
 40
1
 40
1
 40
1
 40
1
 10
109.460503
 20
127.931837
 30
0.0
 10
124.091662
 20
143.444394
 30
0.0
 10
148.076284
 20
144.305126
 30
0.0
 10
162.141489
 20
130.108488
 30
0.0
  0
SPLINE
  5
149
100
AcDbEntity
  8
coil
 62
7
100
AcDbSpline
 70
8
 71
3
 72
8
 73
4
 74
0
 40
0
 40
0
 40
0
 40
0
 40
1
 40
1
 40
1
 40
1
 10
162.141489
 20
130.108488
 30
0.0
 10
176.542405
 20
115.573006
 30
0.0
 10
175.897302
 20
90.222864
 30
0.0
 10
161.001281
 20
74.445405
 30
0.0
  0
SPLINE
  5
14a
100
AcDbEntity
  8
coil
 62
7
100
AcDbSpline
 70
8
 71
3
 72
8
 73
4
 74
0
 40
0
 40
0
 40
0
 40
0
 40
1
 40
1
 40
1
 40
1
 10
161.001281
 20
74.445405
 30
0.0
 10
145.756948
 20
58.299022
 30
0.0
 10
120.778884
 20
57.407891
 30
0.0
 10
106.137787
 20
72.201969
 30
0.0
  0
SPLINE
  5
14b
100
AcDbEntity
  8
coil
 62
7
100
AcDbSpline
 70
8
 71
3
 72
8
 73
4
 74
0
 40
0
 40
0
 40
0
 40
0
 40
1
 40
1
 40
1
 40
1
 10
106.137787
 20
72.201969
 30
0.0
 10
91.161161
 20
87.335087
 30
0.0
 10
91.837418
 20
113.714241
 30
0.0
 10
107.346444
 20
130.125701
 30
0.0
  0
SPLINE
  5
14c
100
AcDbEntity
  8
coil
 62
7
100
AcDbSpline
 70
8
 71
3
 72
8
 73
4
 74
0
 40
0
 40
0
 40
0
 40
0
 40
1
 40
1
 40
1
 40
1
 10
107.346444
 20
130.125701
 30
0.0
 10
123.203946
 20
146.905917
 30
0.0
 10
149.175461
 20
147.827454
 30
0.0
 10
164.392443
 20
132.435923
 30
0.0
  0
SPLINE
  5
14d
100
AcDbEntity
  8
coil
 62
7
100
AcDbSpline
 70
8
 71
3
 72
8
 73
4
 74
0
 40
0
 40
0
 40
0
 40
0
 40
1
 40
1
 40
1
 40
1
 10
164.392443
 20
132.435923
 30
0.0
 10
179.944783
 20
116.705184
 30
0.0
 10
179.237372
 20
89.296996
 30
0.0
 10
163.115340
 20
72.251541
 30
0.0
  0
SPLINE
  5
14e
100
AcDbEntity
  8
coil
 62
7
100
AcDbSpline
 70
8
 71
3
 72
8
 73
4
 74
0
 40
0
 40
0
 40
0
 40
0
 40
1
 40
1
 40
1
 40
1
 10
163.115340
 20
72.251541
 30
0.0
 10
146.644677
 20
54.837488
 30
0.0
 10
119.679693
 20
53.885556
 30
0.0
 10
103.886835
 20
69.874538
 30
0.0
  0
SPLINE
  5
14f
100
AcDbEntity
  8
coil
 62
7
100
AcDbSpline
 70
8
 71
3
 72
8
 73
4
 74
0
 40
0
 40
0
 40
0
 40
0
 40
1
 40
1
 40
1
 40
1
 10
103.886835
 20
69.874538
 30
0.0
 10
87.758770
 20
86.202895
 30
0.0
 10
88.497334
 20
114.640128
 30
0.0
 10
105.232384
 20
132.319571
 30
0.0
  0
SPLINE
  5
150
100
AcDbEntity
  8
coil
 62
7
100
AcDbSpline
 70
8
 71
3
 72
8
 73
4
 74
0
 40
0
 40
0
 40
0
 40
0
 40
1
 40
1
 40
1
 40
1
 10
105.232384
 20
132.319571
 30
0.0
 10
122.316204
 20
150.367463
 30
0.0
 10
150.274665
 20
151.349803
 30
0.0
 10
166.643395
 20
134.763355
 30
0.0
  0
SPLINE
  5
151
100
AcDbEntity
  8
coil
 62
7
100
AcDbSpline
 70
8
 71
3
 72
8
 73
4
 74
0
 40
0
 40
0
 40
0
 40
0
 40
1
 40
1
 40
1
 40
1
 10
166.643395
 20
134.763355
 30
0.0
 10
183.347190
 20
117.837387
 30
0.0
 10
182.577468
 20
88.371103
 30
0.0
 10
165.229398
 20
70.057677
 30
0.0
  0
SPLINE
  5
152
100
AcDbEntity
  8
coil
 62
7
100
AcDbSpline
 70
8
 71
3
 72
8
 73
4
 74
0
 40
0
 40
0
 40
0
 40
0
 40
1
 40
1
 40
1
 40
1
 10
165.229398
 20
70.057677
 30
0.0
 10
147.532428
 20
51.375931
 30
0.0
 10
118.580482
 20
50.363195
 30
0.0
 10
101.635884
 20
67.547107
 30
0.0
  0
SPLINE
  5
153
100
AcDbEntity
  8
coil
 62
7
100
AcDbSpline
 70
8
 71
3
 72
8
 73
4
 74
0
 40
0
 40
0
 40
0
 40
0
 40
1
 40
1
 40
1
 40
1
 10
101.635884
 20
67.547107
 30
0.0
 10
94.341521
 20
74.944488
 30
0.0
 10
89.864634
 20
85.082639
 30
0.0
 10
89.089649
 20
95.892627
 30
0.0
  0
SPLINE
  5
154
100
AcDbEntity
  8
coil
 62
7
100
AcDbSpline
 70
8
 71
3
 72
8
 73
4
 74
0
 40
0
 40
0
 40
0
 40
0
 40
1
 40
1
 40
1
 40
1
 10
238.257816
 20
104.898177
 30
0.0
 10
240.744976
 20
97.191031
 30
0.0
 10
236.551579
 20
89.118316
 30
0.0
 10
229.303611
 20
87.039242
 30
0.0
  0
SPLINE
  5
155
100
AcDbEntity
  8
coil
 62
7
100
AcDbSpline
 70
8
 71
3
 72
8
 73
4
 74
0
 40
0
 40
0
 40
0
 40
0
 40
1
 40
1
 40
1
 40
1
 10
229.303611
 20
87.039242
 30
0.0
 10
221.597415
 20
84.828730
 30
0.0
 10
213.095909
 20
89.942632
 30
0.0
 10
210.521408
 20
98.014224
 30
0.0
  0
SPLINE
  5
156
100
AcDbEntity
  8
coil
 62
7
100
AcDbSpline
 70
8
 71
3
 72
8
 73
4
 74
0
 40
0
 40
0
 40
0
 40
0
 40
1
 40
1
 40
1
 40
1
 10
210.521408
 20
98.014224
 30
0.0
 10
207.792628
 20
106.569526
 30
0.0
 10
212.455907
 20
115.516892
 30
0.0
 10
220.509032
 20
117.796654
 30
0.0
  0
SPLINE
  5
157
100
AcDbEntity
  8
coil
 62
7
100
AcDbSpline
 70
8
 71
3
 72
8
 73
4
 74
0
 40
0
 40
0
 40
0
 40
0
 40
1
 40
1
 40
1
 40
1
 10
220.509032
 20
117.796654
 30
0.0
 10
229.020869
 20
120.206270
 30
0.0
 10
238.397159
 20
114.551399
 30
0.0
 10
241.214787
 20
105.632073
 30
0.0
  0
SPLINE
  5
158
100
AcDbEntity
  8
coil
 62
7
100
AcDbSpline
 70
8
 71
3
 72
8
 73
4
 74
0
 40
0
 40
0
 40
0
 40
0
 40
1
 40
1
 40
1
 40
1
 10
241.214787
 20
105.632073
 30
0.0
 10
244.185342
 20
96.228661
 30
0.0
 10
239.052070
 20
86.406448
 30
0.0
 10
230.193750
 20
83.926145
 30
0.0
  0
SPLINE
  5
159
100
AcDbEntity
  8
coil
 62
7
100
AcDbSpline
 70
8
 71
3
 72
8
 73
4
 74
0
 40
0
 40
0
 40
0
 40
0
 40
1
 40
1
 40
1
 40
1
 10
230.193750
 20
83.926145
 30
0.0
 10
220.876313
 20
81.317286
 30
0.0
 10
210.625080
 20
87.513234
 30
0.0
 10
207.564437
 20
97.280327
 30
0.0
  0
SPLINE
  5
15a
100
AcDbEntity
  8
coil
 62
7
100
AcDbSpline
 70
8
 71
3
 72
8
 73
4
 74
0
 40
0
 40
0
 40
0
 40
0
 40
1
 40
1
 40
1
 40
1
 10
207.564437
 20
97.280327
 30
0.0
 10
204.352001
 20
107.531814
 30
0.0
 10
209.955348
 20
118.229005
 30
0.0
 10
219.618893
 20
120.909751
 30
0.0
  0
SPLINE
  5
15b
100
AcDbEntity
  8
coil
 62
7
100
AcDbSpline
 70
8
 71
3
 72
8
 73
4
 74
0
 40
0
 40
0
 40
0
 40
0
 40
1
 40
1
 40
1
 40
1
 10
219.618893
 20
120.909751
 30
0.0
 10
229.741890
 20
123.717957
 30
0.0
 10
240.868189
 20
116.980850
 30
0.0
 10
244.171762
 20
106.365972
 30
0.0
  0
SPLINE
  5
15c
100
AcDbEntity
  8
coil
 62
7
100
AcDbSpline
 70
8
 71
3
 72
8
 73
4
 74
0
 40
0
 40
0
 40
0
 40
0
 40
1
 40
1
 40
1
 40
1
 10
244.171762
 20
106.365972
 30
0.0
 10
247.626166
 20
95.266439
 30
0.0
 10
241.552682
 20
83.694150
 30
0.0
 10
231.083887
 20
80.813042
 30
0.0
  0
SPLINE
  5
15d
100
AcDbEntity
  8
coil
 62
7
100
AcDbSpline
 70
8
 71
3
 72
8
 73
4
 74
0
 40
0
 40
0
 40
0
 40
0
 40
1
 40
1
 40
1
 40
1
 10
231.083887
 20
80.813042
 30
0.0
 10
220.155358
 20
77.805417
 30
0.0
 10
208.153895
 20
85.083746
 30
0.0
 10
204.607466
 20
96.546431
 30
0.0
  0
SPLINE
  5
15e
100
AcDbEntity
  8
coil
 62
7
100
AcDbSpline
 70
8
 71
3
 72
8
 73
4
 74
0
 40
0
 40
0
 40
0
 40
0
 40
1
 40
1
 40
1
 40
1
 10
204.607466
 20
96.546431
 30
0.0
 10
200.911018
 20
108.493987
 30
0.0
 10
207.454693
 20
120.941453
 30
0.0
 10
218.728752
 20
124.022852
 30
0.0
  0
SPLINE
  5
15f
100
AcDbEntity
  8
coil
 62
7
100
AcDbSpline
 70
8
 71
3
 72
8
 73
4
 74
0
 40
0
 40
0
 40
0
 40
0
 40
1
 40
1
 40
1
 40
1
 10
218.728752
 20
124.022852
 30
0.0
 10
230.462795
 20
127.229971
 30
0.0
 10
243.339502
 20
119.410370
 30
0.0
 10
247.128736
 20
107.099865
 30
0.0
  0
SPLINE
  5
160
100
AcDbEntity
  8
coil
 62
7
100
AcDbSpline
 70
8
 71
3
 72
8
 73
4
 74
0
 40
0
 40
0
 40
0
 40
0
 40
1
 40
1
 40
1
 40
1
 10
247.128736
 20
107.099865
 30
0.0
 10
251.067271
 20
94.304300
 30
0.0
 10
244.053373
 20
80.981587
 30
0.0
 10
231.974026
 20
77.699946
 30
0.0
  0
SPLINE
  5
161
100
AcDbEntity
  8
coil
 62
7
100
AcDbSpline
 70
8
 71
3
 72
8
 73
4
 74
0
 40
0
 40
0
 40
0
 40
0
 40
1
 40
1
 40
1
 40
1
 10
231.974026
 20
77.699946
 30
0.0
 10
219.434490
 20
74.293287
 30
0.0
 10
205.682481
 20
82.654204
 30
0.0
 10
201.650491
 20
95.812532
 30
0.0
  0
SPLINE
  5
162
100
AcDbEntity
  8
coil
 62
7
100
AcDbSpline
 70
8
 71
3
 72
8
 73
4
 74
0
 40
0
 40
0
 40
0
 40
0
 40
1
 40
1
 40
1
 40
1
 10
201.650491
 20
95.812532
 30
0.0
 10
197.469819
 20
109.456093
 30
0.0
 10
204.953976
 20
123.654111
 30
0.0
 10
217.838613
 20
127.135949
 30
0.0
  0
SPLINE
  5
163
100
AcDbEntity
  8
coil
 62
7
100
AcDbSpline
 70
8
 71
3
 72
8
 73
4
 74
0
 40
0
 40
0
 40
0
 40
0
 40
1
 40
1
 40
1
 40
1
 10
217.838613
 20
127.135949
 30
0.0
 10
231.183632
 20
130.742198
 30
0.0
 10
245.810998
 20
121.839932
 30
0.0
 10
250.085707
 20
107.833761
 30
0.0
  0
SPLINE
  5
164
100
AcDbEntity
  8
coil
 62
7
100
AcDbSpline
 70
8
 71
3
 72
8
 73
4
 74
0
 40
0
 40
0
 40
0
 40
0
 40
1
 40
1
 40
1
 40
1
 10
250.085707
 20
107.833761
 30
0.0
 10
254.508553
 20
93.342222
 30
0.0
 10
246.554113
 20
78.268846
 30
0.0
 10
232.864165
 20
74.586849
 30
0.0
  0
SPLINE
  5
165
100
AcDbEntity
  8
coil
 62
7
100
AcDbSpline
 70
8
 71
3
 72
8
 73
4
 74
0
 40
0
 40
0
 40
0
 40
0
 40
1
 40
1
 40
1
 40
1
 10
232.864165
 20
74.586849
 30
0.0
 10
218.713684
 20
70.780983
 30
0.0
 10
203.210917
 20
80.224624
 30
0.0
 10
198.693519
 20
95.078636
 30
0.0
  0
SPLINE
  5
166
100
AcDbEntity
  8
coil
 62
7
100
AcDbSpline
 70
8
 71
3
 72
8
 73
4
 74
0
 40
0
 40
0
 40
0
 40
0
 40
1
 40
1
 40
1
 40
1
 10
198.693519
 20
95.078636
 30
0.0
 10
194.028472
 20
110.418149
 30
0.0
 10
202.453220
 20
126.366916
 30
0.0
 10
216.948478
 20
130.249048
 30
0.0
  0
SPLINE
  5
167
100
AcDbEntity
  8
coil
 62
7
100
AcDbSpline
 70
8
 71
3
 72
8
 73
4
 74
0
 40
0
 40
0
 40
0
 40
0
 40
1
 40
1
 40
1
 40
1
 10
216.948478
 20
130.249048
 30
0.0
 10
231.904419
 20
134.254560
 30
0.0
 10
248.282618
 20
124.269524
 30
0.0
 10
253.042682
 20
108.567660
 30
0.0
  0
SPLINE
  5
168
100
AcDbEntity
  8
coil
 62
7
100
AcDbSpline
 70
8
 71
3
 72
8
 73
4
 74
0
 40
0
 40
0
 40
0
 40
0
 40
1
 40
1
 40
1
 40
1
 10
253.042682
 20
108.567660
 30
0.0
 10
257.949955
 20
92.380181
 30
0.0
 10
249.054886
 20
75.555989
 30
0.0
 10
233.754306
 20
71.473748
 30
0.0
  0
SPLINE
  5
169
100
AcDbEntity
  8
coil
 62
7
100
AcDbSpline
 70
8
 71
3
 72
8
 73
4
 74
0
 40
0
 40
0
 40
0
 40
0
 40
1
 40
1
 40
1
 40
1
 10
233.754306
 20
71.473748
 30
0.0
 10
217.992915
 20
67.268563
 30
0.0
 10
200.739248
 20
77.795014
 30
0.0
 10
195.736548
 20
94.344739
 30
0.0
  0
SPLINE
  5
16a
100
AcDbEntity
  8
coil
 62
7
100
AcDbSpline
 70
8
 71
3
 72
8
 73
4
 74
0
 40
0
 40
0
 40
0
 40
0
 40
1
 40
1
 40
1
 40
1
 10
195.736548
 20
94.344739
 30
0.0
 10
190.587017
 20
111.380180
 30
0.0
 10
199.952432
 20
129.079823
 30
0.0
 10
216.058337
 20
133.362148
 30
0.0
  0
SPLINE
  5
16b
100
AcDbEntity
  8
coil
 62
7
100
AcDbSpline
 70
8
 71
3
 72
8
 73
4
 74
0
 40
0
 40
0
 40
0
 40
0
 40
1
 40
1
 40
1
 40
1
 10
216.058337
 20
133.362148
 30
0.0
 10
232.625171
 20
137.767028
 30
0.0
 10
250.754327
 20
126.699141
 30
0.0
 10
255.999653
 20
109.301556
 30
0.0
  0
SPLINE
  5
16c
100
AcDbEntity
  8
coil
 62
7
100
AcDbSpline
 70
8
 71
3
 72
8
 73
4
 74
0
 40
0
 40
0
 40
0
 40
0
 40
1
 40
1
 40
1
 40
1
 10
255.999653
 20
109.301556
 30
0.0
 10
261.391448
 20
91.418161
 30
0.0
 10
251.555680
 20
72.843043
 30
0.0
 10
234.644445
 20
68.360651
 30
0.0
  0
SPLINE
  5
16d
100
AcDbEntity
  8
coil
 62
7
100
AcDbSpline
 70
8
 71
3
 72
8
 73
4
 74
0
 40
0
 40
0
 40
0
 40
0
 40
1
 40
1
 40
1
 40
1
 10
234.644445
 20
68.360651
 30
0.0
 10
217.272174
 20
63.756060
 30
0.0
 10
198.267503
 20
75.365392
 30
0.0
 10
192.779573
 20
93.610841
 30
0.0
  0
SPLINE
  5
16e
100
AcDbEntity
  8
coil
 62
7
100
AcDbSpline
 70
8
 71
3
 72
8
 73
4
 74
0
 40
0
 40
0
 40
0
 40
0
 40
1
 40
1
 40
1
 40
1
 10
192.779573
 20
93.610841
 30
0.0
 10
187.145492
 20
112.342187
 30
0.0
 10
197.451626
 20
131.792799
 30
0.0
 10
215.168198
 20
136.475245
 30
0.0
  0
SPLINE
  5
16f
100
AcDbEntity
  8
coil
 62
7
100
AcDbSpline
 70
8
 71
3
 72
8
 73
4
 74
0
 40
0
 40
0
 40
0
 40
0
 40
1
 40
1
 40
1
 40
1
 10
215.168198
 20
136.475245
 30
0.0
 10
233.345900
 20
141.279567
 30
0.0
 10
253.226103
 20
129.128770
 30
0.0
 10
258.956625
 20
110.035453
 30
0.0
  0
SPLINE
  5
170
100
AcDbEntity
  8
coil
 62
7
100
AcDbSpline
 70
8
 71
3
 72
8
 73
4
 74
0
 40
0
 40
0
 40
0
 40
0
 40
1
 40
1
 40
1
 40
1
 10
258.956625
 20
110.035453
 30
0.0
 10
264.833001
 20
90.456165
 30
0.0
 10
254.056496
 20
70.130036
 30
0.0
 10
235.534584
 20
65.247554
 30
0.0
  0
SPLINE
  5
171
100
AcDbEntity
  8
coil
 62
7
100
AcDbSpline
 70
8
 71
3
 72
8
 73
4
 74
0
 40
0
 40
0
 40
0
 40
0
 40
1
 40
1
 40
1
 40
1
 10
235.534584
 20
65.247554
 30
0.0
 10
216.551453
 20
60.243489
 30
0.0
 10
195.795703
 20
72.935754
 30
0.0
 10
189.822602
 20
92.876944
 30
0.0
  0
SPLINE
  5
172
100
AcDbEntity
  8
coil
 62
7
100
AcDbSpline
 70
8
 71
3
 72
8
 73
4
 74
0
 40
0
 40
0
 40
0
 40
0
 40
1
 40
1
 40
1
 40
1
 10
189.822602
 20
92.876944
 30
0.0
 10
183.703912
 20
113.304178
 30
0.0
 10
194.950808
 20
134.505836
 30
0.0
 10
214.278059
 20
139.588342
 30
0.0
  0
SPLINE
  5
173
100
AcDbEntity
  8
coil
 62
7
100
AcDbSpline
 70
8
 71
3
 72
8
 73
4
 74
0
 40
0
 40
0
 40
0
 40
0
 40
1
 40
1
 40
1
 40
1
 10
214.278059
 20
139.588342
 30
0.0
 10
234.066614
 20
144.792160
 30
0.0
 10
255.697929
 20
131.558413
 30
0.0
 10
261.913600
 20
110.769351
 30
0.0
  0
SPLINE
  5
174
100
AcDbEntity
  8
coil
 62
7
100
AcDbSpline
 70
8
 71
3
 72
8
 73
4
 74
0
 40
0
 40
0
 40
0
 40
0
 40
1
 40
1
 40
1
 40
1
 10
261.913600
 20
110.769351
 30
0.0
 10
268.274611
 20
89.494181
 30
0.0
 10
256.557321
 20
67.416977
 30
0.0
 10
236.424725
 20
62.134454
 30
0.0
  0
SPLINE
  5
175
100
AcDbEntity
  8
coil
 62
7
100
AcDbSpline
 70
8
 71
3
 72
8
 73
4
 74
0
 40
0
 40
0
 40
0
 40
0
 40
1
 40
1
 40
1
 40
1
 10
236.424725
 20
62.134454
 30
0.0
 10
215.830748
 20
56.730874
 30
0.0
 10
193.323859
 20
70.506107
 30
0.0
 10
186.865630
 20
92.143048
 30
0.0
  0
SPLINE
  5
176
100
AcDbEntity
  8
coil
 62
7
100
AcDbSpline
 70
8
 71
3
 72
8
 73
4
 74
0
 40
0
 40
0
 40
0
 40
0
 40
1
 40
1
 40
1
 40
1
 10
186.865630
 20
92.143048
 30
0.0
 10
180.262288
 20
114.266154
 30
0.0
 10
192.449971
 20
137.218915
 30
0.0
 10
213.387918
 20
142.701443
 30
0.0
  0
SPLINE
  5
177
100
AcDbEntity
  8
coil
 62
7
100
AcDbSpline
 70
8
 71
3
 72
8
 73
4
 74
0
 40
0
 40
0
 40
0
 40
0
 40
1
 40
1
 40
1
 40
1
 10
213.387918
 20
142.701443
 30
0.0
 10
234.787308
 20
148.304794
 30
0.0
 10
258.169790
 20
133.988065
 30
0.0
 10
264.870571
 20
111.503248
 30
0.0
  0
SPLINE
  5
178
100
AcDbEntity
  8
coil
 62
7
100
AcDbSpline
 70
8
 71
3
 72
8
 73
4
 74
0
 40
0
 40
0
 40
0
 40
0
 40
1
 40
1
 40
1
 40
1
 10
264.870571
 20
111.503248
 30
0.0
 10
271.716252
 20
88.532209
 30
0.0
 10
259.058158
 20
64.703881
 30
0.0
 10
237.314864
 20
59.021357
 30
0.0
  0
SPLINE
  5
179
100
AcDbEntity
  8
coil
 62
7
100
AcDbSpline
 70
8
 71
3
 72
8
 73
4
 74
0
 40
0
 40
0
 40
0
 40
0
 40
1
 40
1
 40
1
 40
1
 10
237.314864
 20
59.021357
 30
0.0
 10
215.110059
 20
53.218221
 30
0.0
 10
190.851975
 20
68.076453
 30
0.0
 10
183.908653
 20
91.409153
 30
0.0
  0
SPLINE
  5
17a
100
AcDbEntity
  8
coil
 62
7
100
AcDbSpline
 70
8
 71
3
 72
8
 73
4
 74
0
 40
0
 40
0
 40
0
 40
0
 40
1
 40
1
 40
1
 40
1
 10
183.908653
 20
91.409153
 30
0.0
 10
176.820629
 20
115.228121
 30
0.0
 10
189.949129
 20
139.932028
 30
0.0
 10
212.497779
 20
145.814540
 30
0.0
  0
SPLINE
  5
17b
100
AcDbEntity
  8
coil
 62
7
100
AcDbSpline
 70
8
 71
3
 72
8
 73
4
 74
0
 40
0
 40
0
 40
0
 40
0
 40
1
 40
1
 40
1
 40
1
 10
212.497779
 20
145.814540
 30
0.0
 10
235.507995
 20
151.817467
 30
0.0
 10
260.641685
 20
136.417726
 30
0.0
 10
267.827543
 20
112.237144
 30
0.0
  0
SPLINE
  5
17c
100
AcDbEntity
  8
coil
 62
7
100
AcDbSpline
 70
8
 71
3
 72
8
 73
4
 74
0
 40
0
 40
0
 40
0
 40
0
 40
1
 40
1
 40
1
 40
1
 10
267.827543
 20
112.237144
 30
0.0
 10
275.157924
 20
87.570245
 30
0.0
 10
261.559006
 20
61.990757
 30
0.0
 10
238.205003
 20
55.908260
 30
0.0
  0
SPLINE
  5
17d
100
AcDbEntity
  8
coil
 62
7
100
AcDbSpline
 70
8
 71
3
 72
8
 73
4
 74
0
 40
0
 40
0
 40
0
 40
0
 40
1
 40
1
 40
1
 40
1
 10
238.205003
 20
55.908260
 30
0.0
 10
228.151501
 20
53.289847
 30
0.0
 10
217.133162
 20
54.481825
 30
0.0
 10
207.383945
 20
59.215662
 30
0.0
  0
SPLINE
  5
17e
100
AcDbEntity
  8
coil
 62
7
100
AcDbSpline
 70
8
 71
3
 72
8
 73
4
 74
0
 40
0
 40
0
 40
0
 40
0
 40
1
 40
1
 40
1
 40
1
 10
274.168989
 20
192.901825
 30
0.0
 10
282.087153
 20
191.202196
 30
0.0
 10
286.981631
 20
183.534250
 30
0.0
 10
285.158178
 20
176.217789
 30
0.0
  0
SPLINE
  5
17f
100
AcDbEntity
  8
coil
 62
7
100
AcDbSpline
 70
8
 71
3
 72
8
 73
4
 74
0
 40
0
 40
0
 40
0
 40
0
 40
1
 40
1
 40
1
 40
1
 10
285.158178
 20
176.217789
 30
0.0
 10
283.219440
 20
168.438772
 30
0.0
 10
274.539917
 20
163.633203
 30
0.0
 10
266.262463
 20
165.439415
 30
0.0
  0
SPLINE
  5
180
100
AcDbEntity
  8
coil
 62
7
100
AcDbSpline
 70
8
 71
3
 72
8
 73
4
 74
0
 40
0
 40
0
 40
0
 40
0
 40
1
 40
1
 40
1
 40
1
 10
266.262463
 20
165.439415
 30
0.0
 10
257.488964
 20
167.353874
 30
0.0
 10
252.071957
 20
175.866074
 30
0.0
 10
254.124188
 20
183.980167
 30
0.0
  0
SPLINE
  5
181
100
AcDbEntity
  8
coil
 62
7
100
AcDbSpline
 70
8
 71
3
 72
8
 73
4
 74
0
 40
0
 40
0
 40
0
 40
0
 40
1
 40
1
 40
1
 40
1
 10
254.124188
 20
183.980167
 30
0.0
 10
256.293318
 20
192.556442
 30
0.0
 10
265.878725
 20
197.849111
 30
0.0
 10
275.011901
 20
195.829586
 30
0.0
  0
SPLINE
  5
182
100
AcDbEntity
  8
coil
 62
7
100
AcDbSpline
 70
8
 71
3
 72
8
 73
4
 74
0
 40
0
 40
0
 40
0
 40
0
 40
1
 40
1
 40
1
 40
1
 10
275.011901
 20
195.829586
 30
0.0
 10
284.640773
 20
193.700455
 30
0.0
 10
290.580423
 20
184.343805
 30
0.0
 10
288.299268
 20
175.432124
 30
0.0
  0
SPLINE
  5
183
100
AcDbEntity
  8
coil
 62
7
100
AcDbSpline
 70
8
 71
3
 72
8
 73
4
 74
0
 40
0
 40
0
 40
0
 40
0
 40
1
 40
1
 40
1
 40
1
 10
288.299268
 20
175.432124
 30
0.0
 10
285.899888
 20
166.058557
 30
0.0
 10
275.408423
 20
160.278702
 30
0.0
 10
265.419551
 20
162.511655
 30
0.0
  0
SPLINE
  5
184
100
AcDbEntity
  8
coil
 62
7
100
AcDbSpline
 70
8
 71
3
 72
8
 73
4
 74
0
 40
0
 40
0
 40
0
 40
0
 40
1
 40
1
 40
1
 40
1
 10
265.419551
 20
162.511655
 30
0.0
 10
254.935284
 20
164.855347
 30
0.0
 10
248.472919
 20
175.056583
 30
0.0
 10
250.983097
 20
184.765832
 30
0.0
  0
SPLINE
  5
185
100
AcDbEntity
  8
coil
 62
7
100
AcDbSpline
 70
8
 71
3
 72
8
 73
4
 74
0
 40
0
 40
0
 40
0
 40
0
 40
1
 40
1
 40
1
 40
1
 10
250.983097
 20
184.765832
 30
0.0
 10
253.612619
 20
194.936707
 30
0.0
 10
265.010273
 20
201.203811
 30
0.0
 10
275.854814
 20
198.757351
 30
0.0
  0
SPLINE
  5
186
100
AcDbEntity
  8
coil
 62
7
100
AcDbSpline
 70
8
 71
3
 72
8
 73
4
 74
0
 40
0
 40
0
 40
0
 40
0
 40
1
 40
1
 40
1
 40
1
 10
275.854814
 20
198.757351
 30
0.0
 10
287.194494
 20
196.199186
 30
0.0
 10
294.179648
 20
185.153249
 30
0.0
 10
291.440363
 20
174.646454
 30
0.0
  0
SPLINE
  5
187
100
AcDbEntity
  8
coil
 62
7
100
AcDbSpline
 70
8
 71
3
 72
8
 73
4
 74
0
 40
0
 40
0
 40
0
 40
0
 40
1
 40
1
 40
1
 40
1
 10
291.440363
 20
174.646454
 30
0.0
 10
288.580779
 20
163.678257
 30
0.0
 10
276.276829
 20
156.923849
 30
0.0
 10
264.576638
 20
159.583894
 30
0.0
  0
SPLINE
  5
188
100
AcDbEntity
  8
coil
 62
7
100
AcDbSpline
 70
8
 71
3
 72
8
 73
4
 74
0
 40
0
 40
0
 40
0
 40
0
 40
1
 40
1
 40
1
 40
1
 10
264.576638
 20
159.583894
 30
0.0
 10
252.381527
 20
162.356455
 30
0.0
 10
244.873543
 20
174.247177
 30
0.0
 10
247.842003
 20
185.551498
 30
0.0
  0
SPLINE
  5
189
100
AcDbEntity
  8
coil
 62
7
100
AcDbSpline
 70
8
 71
3
 72
8
 73
4
 74
0
 40
0
 40
0
 40
0
 40
0
 40
1
 40
1
 40
1
 40
1
 10
247.842003
 20
185.551498
 30
0.0
 10
250.931578
 20
197.317037
 30
0.0
 10
264.141904
 20
204.558792
 30
0.0
 10
276.697731
 20
201.685111
 30
0.0
  0
SPLINE
  5
18a
100
AcDbEntity
  8
coil
 62
7
100
AcDbSpline
 70
8
 71
3
 72
8
 73
4
 74
0
 40
0
 40
0
 40
0
 40
0
 40
1
 40
1
 40
1
 40
1
 10
276.697731
 20
201.685111
 30
0.0
 10
289.748283
 20
198.698201
 30
0.0
 10
297.779142
 20
185.962630
 30
0.0
 10
294.581453
 20
173.860788
 30
0.0
  0
SPLINE
  5
18b
100
AcDbEntity
  8
coil
 62
7
100
AcDbSpline
 70
8
 71
3
 72
8
 73
4
 74
0
 40
0
 40
0
 40
0
 40
0
 40
1
 40
1
 40
1
 40
1
 10
294.581453
 20
173.860788
 30
0.0
 10
291.261938
 20
161.297903
 30
0.0
 10
277.145166
 20
153.568771
 30
0.0
 10
263.733725
 20
156.656129
 30
0.0
  0
SPLINE
  5
18c
100
AcDbEntity
  8
coil
 62
7
100
AcDbSpline
 70
8
 71
3
 72
8
 73
4
 74
0
 40
0
 40
0
 40
0
 40
0
 40
1
 40
1
 40
1
 40
1
 10
263.733725
 20
156.656129
 30
0.0
 10
249.827720
 20
159.857342
 30
0.0
 10
241.273953
 20
173.437822
 30
0.0
 10
244.700912
 20
186.337163
 30
0.0
  0
SPLINE
  5
18d
100
AcDbEntity
  8
coil
 62
7
100
AcDbSpline
 70
8
 71
3
 72
8
 73
4
 74
0
 40
0
 40
0
 40
0
 40
0
 40
1
 40
1
 40
1
 40
1
 10
244.700912
 20
186.337163
 30
0.0
 10
248.250318
 20
199.697413
 30
0.0
 10
263.273589
 20
207.913950
 30
0.0
 10
277.540644
 20
204.612872
 30
0.0
  0
SPLINE
  5
18e
100
AcDbEntity
  8
coil
 62
7
100
AcDbSpline
 70
8
 71
3
 72
8
 73
4
 74
0
 40
0
 40
0
 40
0
 40
0
 40
1
 40
1
 40
1
 40
1
 10
277.540644
 20
204.612872
 30
0.0
 10
292.302108
 20
201.197399
 30
0.0
 10
301.378814
 20
186.771964
 30
0.0
 10
297.722544
 20
173.075123
 30
0.0
  0
SPLINE
  5
18f
100
AcDbEntity
  8
coil
 62
7
100
AcDbSpline
 70
8
 71
3
 72
8
 73
4
 74
0
 40
0
 40
0
 40
0
 40
0
 40
1
 40
1
 40
1
 40
1
 10
297.722544
 20
173.075123
 30
0.0
 10
293.943280
 20
158.917514
 30
0.0
 10
278.013463
 20
150.213544
 30
0.0
 10
262.890813
 20
153.728369
 30
0.0
  0
SPLINE
  5
190
100
AcDbEntity
  8
coil
 62
7
100
AcDbSpline
 70
8
 71
3
 72
8
 73
4
 74
0
 40
0
 40
0
 40
0
 40
0
 40
1
 40
1
 40
1
 40
1
 10
262.890813
 20
153.728369
 30
0.0
 10
247.273880
 20
157.358076
 30
0.0
 10
237.674217
 20
172.628505
 30
0.0
 10
241.559822
 20
187.122833
 30
0.0
  0
SPLINE
  5
191
100
AcDbEntity
  8
coil
 62
7
100
AcDbSpline
 70
8
 71
3
 72
8
 73
4
 74
0
 40
0
 40
0
 40
0
 40
0
 40
1
 40
1
 40
1
 40
1
 10
241.559822
 20
187.122833
 30
0.0
 10
245.568917
 20
202.077814
 30
0.0
 10
262.405311
 20
211.269233
 30
0.0
 10
278.383557
 20
207.540637
 30
0.0
  0
SPLINE
  5
192
100
AcDbEntity
  8
coil
 62
7
100
AcDbSpline
 70
8
 71
3
 72
8
 73
4
 74
0
 40
0
 40
0
 40
0
 40
0
 40
1
 40
1
 40
1
 40
1
 10
278.383557
 20
207.540637
 30
0.0
 10
294.855961
 20
203.696720
 30
0.0
 10
304.978605
 20
187.581268
 30
0.0
 10
300.863639
 20
172.289457
 30
0.0
  0
SPLINE
  5
193
100
AcDbEntity
  8
coil
 62
7
100
AcDbSpline
 70
8
 71
3
 72
8
 73
4
 74
0
 40
0
 40
0
 40
0
 40
0
 40
1
 40
1
 40
1
 40
1
 10
300.863639
 20
172.289457
 30
0.0
 10
296.624740
 20
156.537099
 30
0.0
 10
278.881732
 20
146.858211
 30
0.0
 10
262.047900
 20
150.800608
 30
0.0
  0
SPLINE
  5
194
100
AcDbEntity
  8
coil
 62
7
100
AcDbSpline
 70
8
 71
3
 72
8
 73
4
 74
0
 40
0
 40
0
 40
0
 40
0
 40
1
 40
1
 40
1
 40
1
 10
262.047900
 20
150.800608
 30
0.0
 10
244.720009
 20
154.858704
 30
0.0
 10
234.074377
 20
171.819214
 30
0.0
 10
238.418727
 20
187.908499
 30
0.0
  0
SPLINE
  5
195
100
AcDbEntity
  8
coil
 62
7
100
AcDbSpline
 70
8
 71
3
 72
8
 73
4
 74
0
 40
0
 40
0
 40
0
 40
0
 40
1
 40
1
 40
1
 40
1
 10
238.418727
 20
187.908499
 30
0.0
 10
242.887406
 20
204.458237
 30
0.0
 10
261.537056
 20
214.624604
 30
0.0
 10
279.226469
 20
210.468397
 30
0.0
  0
SPLINE
  5
196
100
AcDbEntity
  8
coil
 62
7
100
AcDbSpline
 70
8
 71
3
 72
8
 73
4
 74
0
 40
0
 40
0
 40
0
 40
0
 40
1
 40
1
 40
1
 40
1
 10
279.226469
 20
210.468397
 30
0.0
 10
297.409842
 20
206.196131
 30
0.0
 10
308.578482
 20
188.390547
 30
0.0
 10
304.004729
 20
171.503792
 30
0.0
  0
SPLINE
  5
197
100
AcDbEntity
  8
coil
 62
7
100
AcDbSpline
 70
8
 71
3
 72
8
 73
4
 74
0
 40
0
 40
0
 40
0
 40
0
 40
1
 40
1
 40
1
 40
1
 10
304.004729
 20
171.503792
 30
0.0
 10
299.306287
 20
154.156668
 30
0.0
 10
279.749974
 20
143.502806
 30
0.0
 10
261.204987
 20
147.872843
 30
0.0
  0
SPLINE
  5
198
100
AcDbEntity
  8
coil
 62
7
100
AcDbSpline
 70
8
 71
3
 72
8
 73
4
 74
0
 40
0
 40
0
 40
0
 40
0
 40
1
 40
1
 40
1
 40
1
 10
261.204987
 20
147.872843
 30
0.0
 10
242.166124
 20
152.359260
 30
0.0
 10
230.474468
 20
171.009939
 30
0.0
 10
235.277636
 20
188.694164
 30
0.0
  0
SPLINE
  5
199
100
AcDbEntity
  8
coil
 62
7
100
AcDbSpline
 70
8
 71
3
 72
8
 73
4
 74
0
 40
0
 40
0
 40
0
 40
0
 40
1
 40
1
 40
1
 40
1
 10
235.277636
 20
188.694164
 30
0.0
 10
240.205823
 20
206.838677
 30
0.0
 10
260.668823
 20
217.980039
 30
0.0
 10
280.069382
 20
213.396158
 30
0.0
  0
SPLINE
  5
19a
100
AcDbEntity
  8
coil
 62
7
100
AcDbSpline
 70
8
 71
3
 72
8
 73
4
 74
0
 40
0
 40
0
 40
0
 40
0
 40
1
 40
1
 40
1
 40
1
 10
280.069382
 20
213.396158
 30
0.0
 10
299.963731
 20
208.695605
 30
0.0
 10
312.178423
 20
189.199813
 30
0.0
 10
307.145820
 20
170.718126
 30
0.0
  0
SPLINE
  5
19b
100
AcDbEntity
  8
coil
 62
7
100
AcDbSpline
 70
8
 71
3
 72
8
 73
4
 74
0
 40
0
 40
0
 40
0
 40
0
 40
1
 40
1
 40
1
 40
1
 10
307.145820
 20
170.718126
 30
0.0
 10
301.987902
 20
151.776220
 30
0.0
 10
280.618202
 20
140.147345
 30
0.0
 10
260.362075
 20
144.945083
 30
0.0
  0
SPLINE
  5
19c
100
AcDbEntity
  8
coil
 62
7
100
AcDbSpline
 70
8
 71
3
 72
8
 73
4
 74
0
 40
0
 40
0
 40
0
 40
0
 40
1
 40
1
 40
1
 40
1
 10
260.362075
 20
144.945083
 30
0.0
 10
239.612226
 20
149.859760
 30
0.0
 10
226.874500
 20
170.200686
 30
0.0
 10
232.136546
 20
189.479830
 30
0.0
  0
SPLINE
  5
19d
100
AcDbEntity
  8
coil
 62
7
100
AcDbSpline
 70
8
 71
3
 72
8
 73
4
 74
0
 40
0
 40
0
 40
0
 40
0
 40
1
 40
1
 40
1
 40
1
 10
232.136546
 20
189.479830
 30
0.0
 10
237.524185
 20
209.219130
 30
0.0
 10
259.800604
 20
221.335525
 30
0.0
 10
280.912295
 20
216.323923
 30
0.0
  0
SPLINE
  5
19e
100
AcDbEntity
  8
coil
 62
7
100
AcDbSpline
 70
8
 71
3
 72
8
 73
4
 74
0
 40
0
 40
0
 40
0
 40
0
 40
1
 40
1
 40
1
 40
1
 10
280.912295
 20
216.323923
 30
0.0
 10
302.517639
 20
211.195134
 30
0.0
 10
315.778414
 20
190.009062
 30
0.0
 10
310.286914
 20
169.932460
 30
0.0
  0
SPLINE
  5
19f
100
AcDbEntity
  8
coil
 62
7
100
AcDbSpline
 70
8
 71
3
 72
8
 73
4
 74
0
 40
0
 40
0
 40
0
 40
0
 40
1
 40
1
 40
1
 40
1
 10
310.286914
 20
169.932460
 30
0.0
 10
304.669563
 20
149.395763
 30
0.0
 10
281.486416
 20
136.791842
 30
0.0
 10
259.519162
 20
142.017322
 30
0.0
  0
SPLINE
  5
1a0
100
AcDbEntity
  8
coil
 62
7
100
AcDbSpline
 70
8
 71
3
 72
8
 73
4
 74
0
 40
0
 40
0
 40
0
 40
0
 40
1
 40
1
 40
1
 40
1
 10
259.519162
 20
142.017322
 30
0.0
 10
237.058318
 20
147.360214
 30
0.0
 10
223.274486
 20
169.391437
 30
0.0
 10
228.995451
 20
190.265495
 30
0.0
  0
SPLINE
  5
1a1
100
AcDbEntity
  8
coil
 62
7
100
AcDbSpline
 70
8
 71
3
 72
8
 73
4
 74
0
 40
0
 40
0
 40
0
 40
0
 40
1
 40
1
 40
1
 40
1
 10
228.995451
 20
190.265495
 30
0.0
 10
234.842501
 20
211.599586
 30
0.0
 10
258.932394
 20
224.691045
 30
0.0
 10
281.755208
 20
219.251683
 30
0.0
  0
SPLINE
  5
1a2
100
AcDbEntity
  8
coil
 62
7
100
AcDbSpline
 70
8
 71
3
 72
8
 73
4
 74
0
 40
0
 40
0
 40
0
 40
0
 40
1
 40
1
 40
1
 40
1
 10
281.755208
 20
219.251683
 30
0.0
 10
305.071551
 20
213.694697
 30
0.0
 10
319.378441
 20
190.818302
 30
0.0
 10
313.428005
 20
169.146795
 30
0.0
  0
SPLINE
  5
1a3
100
AcDbEntity
  8
coil
 62
7
100
AcDbSpline
 70
8
 71
3
 72
8
 73
4
 74
0
 40
0
 40
0
 40
0
 40
0
 40
1
 40
1
 40
1
 40
1
 10
313.428005
 20
169.146795
 30
0.0
 10
307.351265
 20
147.015302
 30
0.0
 10
282.354617
 20
133.436301
 30
0.0
 10
258.676245
 20
139.089558
 30
0.0
  0
SPLINE
  5
1a4
100
AcDbEntity
  8
coil
 62
7
100
AcDbSpline
 70
8
 71
3
 72
8
 73
4
 74
0
 40
0
 40
0
 40
0
 40
0
 40
1
 40
1
 40
1
 40
1
 10
258.676245
 20
139.089558
 30
0.0
 10
234.504402
 20
144.860633
 30
0.0
 10
219.674440
 20
168.582201
 30
0.0
 10
225.854361
 20
191.051161
 30
0.0
  0
SPLINE
  5
1a5
100
AcDbEntity
  8
coil
 62
7
100
AcDbSpline
 70
8
 71
3
 72
8
 73
4
 74
0
 40
0
 40
0
 40
0
 40
0
 40
1
 40
1
 40
1
 40
1
 10
225.854361
 20
191.051161
 30
0.0
 10
232.160781
 20
213.980056
 30
0.0
 10
258.064193
 20
228.046599
 30
0.0
 10
282.598120
 20
222.179444
 30
0.0
  0
SPLINE
  5
1a6
100
AcDbEntity
  8
coil
 62
7
100
AcDbSpline
 70
8
 71
3
 72
8
 73
4
 74
0
 40
0
 40
0
 40
0
 40
0
 40
1
 40
1
 40
1
 40
1
 10
282.598120
 20
222.179444
 30
0.0
 10
307.625472
 20
216.194291
 30
0.0
 10
322.978500
 20
191.627538
 30
0.0
 10
316.569095
 20
168.361129
 30
0.0
  0
SPLINE
  5
1a7
100
AcDbEntity
  8
coil
 62
7
100
AcDbSpline
 70
8
 71
3
 72
8
 73
4
 74
0
 40
0
 40
0
 40
0
 40
0
 40
1
 40
1
 40
1
 40
1
 10
316.569095
 20
168.361129
 30
0.0
 10
313.809956
 20
158.345335
 30
0.0
 10
307.268503
 20
149.399162
 30
0.0
 10
298.294272
 20
143.323011
 30
0.0
  0
SPLINE
  5
1a8
100
AcDbEntity
  8
coil
 62
7
100
AcDbSpline
 70
8
 71
3
 72
8
 73
4
 74
0
 40
0
 40
0
 40
0
 40
0
 40
1
 40
1
 40
1
 40
1
 10
215.911181
 20
268.003646
 30
0.0
 10
221.342185
 20
274.011163
 30
0.0
 10
230.430060
 20
274.415932
 30
0.0
 10
235.854575
 20
269.178545
 30
0.0
  0
SPLINE
  5
1a9
100
AcDbEntity
  8
coil
 62
7
100
AcDbSpline
 70
8
 71
3
 72
8
 73
4
 74
0
 40
0
 40
0
 40
0
 40
0
 40
1
 40
1
 40
1
 40
1
 10
235.854575
 20
269.178545
 30
0.0
 10
241.622033
 20
263.610040
 30
0.0
 10
241.444016
 20
253.690568
 30
0.0
 10
235.741063
 20
247.425189
 30
0.0
  0
SPLINE
  5
1aa
100
AcDbEntity
  8
coil
 62
7
100
AcDbSpline
 70
8
 71
3
 72
8
 73
4
 74
0
 40
0
 40
0
 40
0
 40
0
 40
1
 40
1
 40
1
 40
1
 10
235.741063
 20
247.425189
 30
0.0
 10
229.696344
 20
240.784345
 30
0.0
 10
219.616058
 20
240.349179
 30
0.0
 10
213.615164
 20
246.183510
 30
0.0
  0
SPLINE
  5
1ab
100
AcDbEntity
  8
coil
 62
7
100
AcDbSpline
 70
8
 71
3
 72
8
 73
4
 74
0
 40
0
 40
0
 40
0
 40
0
 40
1
 40
1
 40
1
 40
1
 10
213.615164
 20
246.183510
 30
0.0
 10
207.272456
 20
252.350169
 30
0.0
 10
207.481574
 20
263.297710
 30
0.0
 10
213.797122
 20
270.197510
 30
0.0
  0
SPLINE
  5
1ac
100
AcDbEntity
  8
coil
 62
7
100
AcDbSpline
 70
8
 71
3
 72
8
 73
4
 74
0
 40
0
 40
0
 40
0
 40
0
 40
1
 40
1
 40
1
 40
1
 10
213.797122
 20
270.197510
 30
0.0
 10
220.455439
 20
277.471793
 30
0.0
 10
231.528361
 20
277.937355
 30
0.0
 10
238.105526
 20
271.505976
 30
0.0
  0
SPLINE
  5
1ad
100
AcDbEntity
  8
coil
 62
7
100
AcDbSpline
 70
8
 71
3
 72
8
 73
4
 74
0
 40
0
 40
0
 40
0
 40
0
 40
1
 40
1
 40
1
 40
1
 10
238.105526
 20
271.505976
 30
0.0
 10
245.023583
 20
264.741269
 30
0.0
 10
244.783351
 20
252.765466
 30
0.0
 10
237.855122
 20
245.231325
 30
0.0
  0
SPLINE
  5
1ae
100
AcDbEntity
  8
coil
 62
7
100
AcDbSpline
 70
8
 71
3
 72
8
 73
4
 74
0
 40
0
 40
0
 40
0
 40
0
 40
1
 40
1
 40
1
 40
1
 10
237.855122
 20
245.231325
 30
0.0
 10
230.583291
 20
237.323530
 30
0.0
 10
218.517579
 20
236.827575
 30
0.0
 10
211.364212
 20
243.856079
 30
0.0
  0
SPLINE
  5
1af
100
AcDbEntity
  8
coil
 62
7
100
AcDbSpline
 70
8
 71
3
 72
8
 73
4
 74
0
 40
0
 40
0
 40
0
 40
0
 40
1
 40
1
 40
1
 40
1
 10
211.364212
 20
243.856079
 30
0.0
 10
203.870736
 20
251.218748
 30
0.0
 10
204.142093
 20
264.222959
 30
0.0
 10
211.683060
 20
272.391376
 30
0.0
  0
SPLINE
  5
1b0
100
AcDbEntity
  8
coil
 62
7
100
AcDbSpline
 70
8
 71
3
 72
8
 73
4
 74
0
 40
0
 40
0
 40
0
 40
0
 40
1
 40
1
 40
1
 40
1
 10
211.683060
 20
272.391376
 30
0.0
 10
219.568336
 20
280.932745
 30
0.0
 10
232.626974
 20
281.459098
 30
0.0
 10
240.356484
 20
273.833409
 30
0.0
  0
SPLINE
  5
1b1
100
AcDbEntity
  8
coil
 62
7
100
AcDbSpline
 70
8
 71
3
 72
8
 73
4
 74
0
 40
0
 40
0
 40
0
 40
0
 40
1
 40
1
 40
1
 40
1
 10
240.356484
 20
273.833409
 30
0.0
 10
248.425428
 20
265.872838
 30
0.0
 10
248.122942
 20
251.840101
 30
0.0
 10
239.969180
 20
243.037461
 30
0.0
  0
SPLINE
  5
1b2
100
AcDbEntity
  8
coil
 62
7
100
AcDbSpline
 70
8
 71
3
 72
8
 73
4
 74
0
 40
0
 40
0
 40
0
 40
0
 40
1
 40
1
 40
1
 40
1
 10
239.969180
 20
243.037461
 30
0.0
 10
231.470517
 20
233.862466
 30
0.0
 10
217.418857
 20
233.305722
 30
0.0
 10
209.113258
 20
241.528643
 30
0.0
  0
SPLINE
  5
1b3
100
AcDbEntity
  8
coil
 62
7
100
AcDbSpline
 70
8
 71
3
 72
8
 73
4
 74
0
 40
0
 40
0
 40
0
 40
0
 40
1
 40
1
 40
1
 40
1
 10
209.113258
 20
241.528643
 30
0.0
 10
200.468790
 20
250.087063
 30
0.0
 10
200.802410
 20
265.148419
 30
0.0
 10
209.569004
 20
274.585244
 30
0.0
  0
SPLINE
  5
1b4
100
AcDbEntity
  8
coil
 62
7
100
AcDbSpline
 70
8
 71
3
 72
8
 73
4
 74
0
 40
0
 40
0
 40
0
 40
0
 40
1
 40
1
 40
1
 40
1
 10
209.569004
 20
274.585244
 30
0.0
 10
218.681020
 20
284.393899
 30
0.0
 10
233.725777
 20
284.981041
 30
0.0
 10
242.607435
 20
276.160841
 30
0.0
  0
SPLINE
  5
1b5
100
AcDbEntity
  8
coil
 62
7
100
AcDbSpline
 70
8
 71
3
 72
8
 73
4
 74
0
 40
0
 40
0
 40
0
 40
0
 40
1
 40
1
 40
1
 40
1
 10
242.607435
 20
276.160841
 30
0.0
 10
251.827456
 20
267.004613
 30
0.0
 10
251.462694
 20
250.914565
 30
0.0
 10
242.083243
 20
240.843595
 30
0.0
  0
SPLINE
  5
1b6
100
AcDbEntity
  8
coil
 62
7
100
AcDbSpline
 70
8
 71
3
 72
8
 73
4
 74
0
 40
0
 40
0
 40
0
 40
0
 40
1
 40
1
 40
1
 40
1
 10
242.083243
 20
240.843595
 30
0.0
 10
232.357908
 20
230.401247
 30
0.0
 10
216.319985
 20
229.783708
 30
0.0
 10
206.862307
 20
239.201212
 30
0.0
  0
SPLINE
  5
1b7
100
AcDbEntity
  8
coil
 62
7
100
AcDbSpline
 70
8
 71
3
 72
8
 73
4
 74
0
 40
0
 40
0
 40
0
 40
0
 40
1
 40
1
 40
1
 40
1
 10
206.862307
 20
239.201212
 30
0.0
 10
197.066694
 20
248.955212
 30
0.0
 10
197.462600
 20
266.074016
 30
0.0
 10
207.454945
 20
276.779109
 30
0.0
  0
SPLINE
  5
1b8
100
AcDbEntity
  8
coil
 62
7
100
AcDbSpline
 70
8
 71
3
 72
8
 73
4
 74
0
 40
0
 40
0
 40
0
 40
0
 40
1
 40
1
 40
1
 40
1
 10
207.454945
 20
276.779109
 30
0.0
 10
217.793563
 20
287.855176
 30
0.0
 10
234.824709
 20
288.503116
 30
0.0
 10
244.858387
 20
278.488272
 30
0.0
  0
SPLINE
  5
1b9
100
AcDbEntity
  8
coil
 62
7
100
AcDbSpline
 70
8
 71
3
 72
8
 73
4
 74
0
 40
0
 40
0
 40
0
 40
0
 40
1
 40
1
 40
1
 40
1
 10
244.858387
 20
278.488272
 30
0.0
 10
255.229604
 20
268.136529
 30
0.0
 10
254.802554
 20
249.988918
 30
0.0
 10
244.197301
 20
238.649731
 30
0.0
  0
SPLINE
  5
1ba
100
AcDbEntity
  8
coil
 62
7
100
AcDbSpline
 70
8
 71
3
 72
8
 73
4
 74
0
 40
0
 40
0
 40
0
 40
0
 40
1
 40
1
 40
1
 40
1
 10
244.197301
 20
238.649731
 30
0.0
 10
233.245416
 20
226.939924
 30
0.0
 10
215.221006
 20
226.261587
 30
0.0
 10
204.611352
 20
236.873783
 30
0.0
  0
SPLINE
  5
1bb
100
AcDbEntity
  8
coil
 62
7
100
AcDbSpline
 70
8
 71
3
 72
8
 73
4
 74
0
 40
0
 40
0
 40
0
 40
0
 40
1
 40
1
 40
1
 40
1
 10
204.611352
 20
236.873783
 30
0.0
 10
193.664506
 20
247.823252
 30
0.0
 10
194.122701
 20
266.999706
 30
0.0
 10
205.340883
 20
278.972975
 30
0.0
  0
SPLINE
  5
1bc
100
AcDbEntity
  8
coil
 62
7
100
AcDbSpline
 70
8
 71
3
 72
8
 73
4
 74
0
 40
0
 40
0
 40
0
 40
0
 40
1
 40
1
 40
1
 40
1
 10
205.340883
 20
278.972975
 30
0.0
 10
216.906014
 20
291.316538
 30
0.0
 10
235.923727
 20
292.025278
 30
0.0
 10
247.109341
 20
280.815707
 30
0.0
  0
SPLINE
  5
1bd
100
AcDbEntity
  8
coil
 62
7
100
AcDbSpline
 70
8
 71
3
 72
8
 73
4
 74
0
 40
0
 40
0
 40
0
 40
0
 40
1
 40
1
 40
1
 40
1
 10
247.109341
 20
280.815707
 30
0.0
 10
258.631833
 20
269.268534
 30
0.0
 10
258.142492
 20
249.063195
 30
0.0
 10
246.311360
 20
236.455867
 30
0.0
  0
SPLINE
  5
1be
100
AcDbEntity
  8
coil
 62
7
100
AcDbSpline
 70
8
 71
3
 72
8
 73
4
 74
0
 40
0
 40
0
 40
0
 40
0
 40
1
 40
1
 40
1
 40
1
 10
246.311360
 20
236.455867
 30
0.0
 10
234.133001
 20
223.478521
 30
0.0
 10
214.121952
 20
222.739387
 30
0.0
 10
202.360398
 20
234.546348
 30
0.0
  0
SPLINE
  5
1bf
100
AcDbEntity
  8
coil
 62
7
100
AcDbSpline
 70
8
 71
3
 72
8
 73
4
 74
0
 40
0
 40
0
 40
0
 40
0
 40
1
 40
1
 40
1
 40
1
 10
202.360398
 20
234.546348
 30
0.0
 10
190.262244
 20
246.691207
 30
0.0
 10
190.782736
 20
267.925460
 30
0.0
 10
203.226824
 20
281.166839
 30
0.0
  0
SPLINE
  5
1c0
100
AcDbEntity
  8
coil
 62
7
100
AcDbSpline
 70
8
 71
3
 72
8
 73
4
 74
0
 40
0
 40
0
 40
0
 40
0
 40
1
 40
1
 40
1
 40
1
 10
203.226824
 20
281.166839
 30
0.0
 10
216.018402
 20
294.777968
 30
0.0
 10
237.022809
 20
295.547502
 30
0.0
 10
249.360292
 20
283.143139
 30
0.0
  0
SPLINE
  5
1c1
100
AcDbEntity
  8
coil
 62
7
100
AcDbSpline
 70
8
 71
3
 72
8
 73
4
 74
0
 40
0
 40
0
 40
0
 40
0
 40
1
 40
1
 40
1
 40
1
 10
249.360292
 20
283.143139
 30
0.0
 10
262.034121
 20
270.400607
 30
0.0
 10
261.482479
 20
248.137411
 30
0.0
 10
248.425422
 20
234.262001
 30
0.0
  0
SPLINE
  5
1c2
100
AcDbEntity
  8
coil
 62
7
100
AcDbSpline
 70
8
 71
3
 72
8
 73
4
 74
0
 40
0
 40
0
 40
0
 40
0
 40
1
 40
1
 40
1
 40
1
 10
248.425422
 20
234.262001
 30
0.0
 10
235.020641
 20
220.017070
 30
0.0
 10
213.022850
 20
219.217138
 30
0.0
 10
200.109446
 20
232.218916
 30
0.0
  0
SPLINE
  5
1c3
100
AcDbEntity
  8
coil
 62
7
100
AcDbSpline
 70
8
 71
3
 72
8
 73
4
 74
0
 40
0
 40
0
 40
0
 40
0
 40
1
 40
1
 40
1
 40
1
 10
200.109446
 20
232.218916
 30
0.0
 10
186.859931
 20
245.559107
 30
0.0
 10
187.442728
 20
268.851266
 30
0.0
 10
201.112765
 20
283.360703
 30
0.0
  0
SPLINE
  5
1c4
100
AcDbEntity
  8
coil
 62
7
100
AcDbSpline
 70
8
 71
3
 72
8
 73
4
 74
0
 40
0
 40
0
 40
0
 40
0
 40
1
 40
1
 40
1
 40
1
 10
201.112765
 20
283.360703
 30
0.0
 10
215.130738
 20
298.239438
 30
0.0
 10
238.121935
 20
299.069775
 30
0.0
 10
251.611244
 20
285.470570
 30
0.0
  0
SPLINE
  5
1c5
100
AcDbEntity
  8
coil
 62
7
100
AcDbSpline
 70
8
 71
3
 72
8
 73
4
 74
0
 40
0
 40
0
 40
0
 40
0
 40
1
 40
1
 40
1
 40
1
 10
251.611244
 20
285.470570
 30
0.0
 10
265.436457
 20
271.532729
 30
0.0
 10
264.822507
 20
247.211589
 30
0.0
 10
250.539481
 20
232.068136
 30
0.0
  0
SPLINE
  5
1c6
100
AcDbEntity
  8
coil
 62
7
100
AcDbSpline
 70
8
 71
3
 72
8
 73
4
 74
0
 40
0
 40
0
 40
0
 40
0
 40
1
 40
1
 40
1
 40
1
 10
250.539481
 20
232.068136
 30
0.0
 10
235.908322
 20
216.555579
 30
0.0
 10
211.923700
 20
215.694847
 30
0.0
 10
197.858495
 20
229.891485
 30
0.0
  0
SPLINE
  5
1c7
100
AcDbEntity
  8
coil
 62
7
100
AcDbSpline
 70
8
 71
3
 72
8
 73
4
 74
0
 40
0
 40
0
 40
0
 40
0
 40
1
 40
1
 40
1
 40
1
 10
197.858495
 20
229.891485
 30
0.0
 10
183.457579
 20
244.426967
 30
0.0
 10
184.102682
 20
269.777110
 30
0.0
 10
198.998703
 20
285.554569
 30
0.0
  0
SPLINE
  5
1c8
100
AcDbEntity
  8
coil
 62
7
100
AcDbSpline
 70
8
 71
3
 72
8
 73
4
 74
0
 40
0
 40
0
 40
0
 40
0
 40
1
 40
1
 40
1
 40
1
 10
198.998703
 20
285.554569
 30
0.0
 10
214.243036
 20
301.700952
 30
0.0
 10
239.221100
 20
302.592084
 30
0.0
 10
253.862197
 20
287.798005
 30
0.0
  0
SPLINE
  5
1c9
100
AcDbEntity
  8
coil
 62
7
100
AcDbSpline
 70
8
 71
3
 72
8
 73
4
 74
0
 40
0
 40
0
 40
0
 40
0
 40
1
 40
1
 40
1
 40
1
 10
253.862197
 20
287.798005
 30
0.0
 10
268.838823
 20
272.664888
 30
0.0
 10
268.162566
 20
246.285733
 30
0.0
 10
252.653540
 20
229.874272
 30
0.0
  0
SPLINE
  5
1ca
100
AcDbEntity
  8
coil
 62
7
100
AcDbSpline
 70
8
 71
3
 72
8
 73
4
 74
0
 40
0
 40
0
 40
0
 40
0
 40
1
 40
1
 40
1
 40
1
 10
252.653540
 20
229.874272
 30
0.0
 10
236.796038
 20
213.094057
 30
0.0
 10
210.824523
 20
212.172519
 30
0.0
 10
195.607541
 20
227.564050
 30
0.0
  0
SPLINE
  5
1cb
100
AcDbEntity
  8
coil
 62
7
100
AcDbSpline
 70
8
 71
3
 72
8
 73
4
 74
0
 40
0
 40
0
 40
0
 40
0
 40
1
 40
1
 40
1
 40
1
 10
195.607541
 20
227.564050
 30
0.0
 10
180.055201
 20
243.294789
 30
0.0
 10
180.762612
 20
270.702978
 30
0.0
 10
196.884644
 20
287.748433
 30
0.0
  0
SPLINE
  5
1cc
100
AcDbEntity
  8
coil
 62
7
100
AcDbSpline
 70
8
 71
3
 72
8
 73
4
 74
0
 40
0
 40
0
 40
0
 40
0
 40
1
 40
1
 40
1
 40
1
 10
196.884644
 20
287.748433
 30
0.0
 10
213.355307
 20
305.162486
 30
0.0
 10
240.320291
 20
306.114419
 30
0.0
 10
256.113149
 20
290.125437
 30
0.0
  0
SPLINE
  5
1cd
100
AcDbEntity
  8
coil
 62
7
100
AcDbSpline
 70
8
 71
3
 72
8
 73
4
 74
0
 40
0
 40
0
 40
0
 40
0
 40
1
 40
1
 40
1
 40
1
 10
256.113149
 20
290.125437
 30
0.0
 10
272.241214
 20
273.797079
 30
0.0
 10
271.502650
 20
245.359846
 30
0.0
 10
254.767600
 20
227.680402
 30
0.0
  0
SPLINE
  5
1ce
100
AcDbEntity
  8
coil
 62
7
100
AcDbSpline
 70
8
 71
3
 72
8
 73
4
 74
0
 40
0
 40
0
 40
0
 40
0
 40
1
 40
1
 40
1
 40
1
 10
254.767600
 20
227.680402
 30
0.0
 10
237.683780
 20
209.632510
 30
0.0
 10
209.725319
 20
208.650170
 30
0.0
 10
193.356589
 20
225.236618
 30
0.0
  0
SPLINE
  5
1cf
100
AcDbEntity
  8
coil
 62
7
100
AcDbSpline
 70
8
 71
3
 72
8
 73
4
 74
0
 40
0
 40
0
 40
0
 40
0
 40
1
 40
1
 40
1
 40
1
 10
193.356589
 20
225.236618
 30
0.0
 10
176.652794
 20
242.162586
 30
0.0
 10
177.422516
 20
271.628871
 30
0.0
 10
194.770586
 20
289.942297
 30
0.0
  0
SPLINE
  5
1d0
100
AcDbEntity
  8
coil
 62
7
100
AcDbSpline
 70
8
 71
3
 72
8
 73
4
 74
0
 40
0
 40
0
 40
0
 40
0
 40
1
 40
1
 40
1
 40
1
 10
194.770586
 20
289.942297
 30
0.0
 10
212.467556
 20
308.624044
 30
0.0
 10
241.419502
 20
309.636780
 30
0.0
 10
258.364100
 20
292.452868
 30
0.0
  0
SPLINE
  5
1d1
100
AcDbEntity
  8
coil
 62
7
100
AcDbSpline
 70
8
 71
3
 72
8
 73
4
 74
0
 40
0
 40
0
 40
0
 40
0
 40
1
 40
1
 40
1
 40
1
 10
258.364100
 20
292.452868
 30
0.0
 10
265.658463
 20
285.055486
 30
0.0
 10
270.135350
 20
274.917335
 30
0.0
 10
270.910335
 20
264.107348
 30
0.0
  0
SPLINE
  5
1d2
100
AcDbEntity
  8
coil
 62
7
100
AcDbSpline
 70
8
 71
3
 72
8
 73
4
 74
0
 40
0
 40
0
 40
0
 40
0
 40
1
 40
1
 40
1
 40
1
 10
121.742192
 20
255.101821
 30
0.0
 10
119.255032
 20
262.808966
 30
0.0
 10
123.448429
 20
270.881682
 30
0.0
 10
130.696397
 20
272.960756
 30
0.0
  0
SPLINE
  5
1d3
100
AcDbEntity
  8
coil
 62
7
100
AcDbSpline
 70
8
 71
3
 72
8
 73
4
 74
0
 40
0
 40
0
 40
0
 40
0
 40
1
 40
1
 40
1
 40
1
 10
130.696397
 20
272.960756
 30
0.0
 10
138.402593
 20
275.171268
 30
0.0
 10
146.904099
 20
270.057365
 30
0.0
 10
149.478600
 20
261.985774
 30
0.0
  0
SPLINE
  5
1d4
100
AcDbEntity
  8
coil
 62
7
100
AcDbSpline
 70
8
 71
3
 72
8
 73
4
 74
0
 40
0
 40
0
 40
0
 40
0
 40
1
 40
1
 40
1
 40
1
 10
149.478600
 20
261.985774
 30
0.0
 10
152.207380
 20
253.430471
 30
0.0
 10
147.544101
 20
244.483105
 30
0.0
 10
139.490976
 20
242.203343
 30
0.0
  0
SPLINE
  5
1d5
100
AcDbEntity
  8
coil
 62
7
100
AcDbSpline
 70
8
 71
3
 72
8
 73
4
 74
0
 40
0
 40
0
 40
0
 40
0
 40
1
 40
1
 40
1
 40
1
 10
139.490976
 20
242.203343
 30
0.0
 10
130.979139
 20
239.793727
 30
0.0
 10
121.602849
 20
245.448599
 30
0.0
 10
118.785221
 20
254.367924
 30
0.0
  0
SPLINE
  5
1d6
100
AcDbEntity
  8
coil
 62
7
100
AcDbSpline
 70
8
 71
3
 72
8
 73
4
 74
0
 40
0
 40
0
 40
0
 40
0
 40
1
 40
1
 40
1
 40
1
 10
118.785221
 20
254.367924
 30
0.0
 10
115.814666
 20
263.771337
 30
0.0
 10
120.947938
 20
273.593550
 30
0.0
 10
129.806258
 20
276.073853
 30
0.0
  0
SPLINE
  5
1d7
100
AcDbEntity
  8
coil
 62
7
100
AcDbSpline
 70
8
 71
3
 72
8
 73
4
 74
0
 40
0
 40
0
 40
0
 40
0
 40
1
 40
1
 40
1
 40
1
 10
129.806258
 20
276.073853
 30
0.0
 10
139.123695
 20
278.682712
 30
0.0
 10
149.374928
 20
272.486764
 30
0.0
 10
152.435571
 20
262.719671
 30
0.0
  0
SPLINE
  5
1d8
100
AcDbEntity
  8
coil
 62
7
100
AcDbSpline
 70
8
 71
3
 72
8
 73
4
 74
0
 40
0
 40
0
 40
0
 40
0
 40
1
 40
1
 40
1
 40
1
 10
152.435571
 20
262.719671
 30
0.0
 10
155.648007
 20
252.468183
 30
0.0
 10
150.044660
 20
241.770992
 30
0.0
 10
140.381115
 20
239.090246
 30
0.0
  0
SPLINE
  5
1d9
100
AcDbEntity
  8
coil
 62
7
100
AcDbSpline
 70
8
 71
3
 72
8
 73
4
 74
0
 40
0
 40
0
 40
0
 40
0
 40
1
 40
1
 40
1
 40
1
 10
140.381115
 20
239.090246
 30
0.0
 10
130.258118
 20
236.282041
 30
0.0
 10
119.131819
 20
243.019148
 30
0.0
 10
115.828246
 20
253.634026
 30
0.0
  0
SPLINE
  5
1da
100
AcDbEntity
  8
coil
 62
7
100
AcDbSpline
 70
8
 71
3
 72
8
 73
4
 74
0
 40
0
 40
0
 40
0
 40
0
 40
1
 40
1
 40
1
 40
1
 10
115.828246
 20
253.634026
 30
0.0
 10
112.373842
 20
264.733559
 30
0.0
 10
118.447326
 20
276.305848
 30
0.0
 10
128.916121
 20
279.186956
 30
0.0
  0
SPLINE
  5
1db
100
AcDbEntity
  8
coil
 62
7
100
AcDbSpline
 70
8
 71
3
 72
8
 73
4
 74
0
 40
0
 40
0
 40
0
 40
0
 40
1
 40
1
 40
1
 40
1
 10
128.916121
 20
279.186956
 30
0.0
 10
139.844650
 20
282.194581
 30
0.0
 10
151.846113
 20
274.916252
 30
0.0
 10
155.392542
 20
263.453567
 30
0.0
  0
SPLINE
  5
1dc
100
AcDbEntity
  8
coil
 62
7
100
AcDbSpline
 70
8
 71
3
 72
8
 73
4
 74
0
 40
0
 40
0
 40
0
 40
0
 40
1
 40
1
 40
1
 40
1
 10
155.392542
 20
263.453567
 30
0.0
 10
159.088990
 20
251.506010
 30
0.0
 10
152.545315
 20
239.058545
 30
0.0
 10
141.271256
 20
235.977146
 30
0.0
  0
SPLINE
  5
1dd
100
AcDbEntity
  8
coil
 62
7
100
AcDbSpline
 70
8
 71
3
 72
8
 73
4
 74
0
 40
0
 40
0
 40
0
 40
0
 40
1
 40
1
 40
1
 40
1
 10
141.271256
 20
235.977146
 30
0.0
 10
129.537213
 20
232.770027
 30
0.0
 10
116.660506
 20
240.589628
 30
0.0
 10
112.871272
 20
252.900133
 30
0.0
  0
SPLINE
  5
1de
100
AcDbEntity
  8
coil
 62
7
100
AcDbSpline
 70
8
 71
3
 72
8
 73
4
 74
0
 40
0
 40
0
 40
0
 40
0
 40
1
 40
1
 40
1
 40
1
 10
112.871272
 20
252.900133
 30
0.0
 10
108.932737
 20
265.695698
 30
0.0
 10
115.946635
 20
279.018411
 30
0.0
 10
128.025982
 20
282.300053
 30
0.0
  0
SPLINE
  5
1df
100
AcDbEntity
  8
coil
 62
7
100
AcDbSpline
 70
8
 71
3
 72
8
 73
4
 74
0
 40
0
 40
0
 40
0
 40
0
 40
1
 40
1
 40
1
 40
1
 10
128.025982
 20
282.300053
 30
0.0
 10
140.565518
 20
285.706711
 30
0.0
 10
154.317527
 20
277.345793
 30
0.0
 10
158.349517
 20
264.187466
 30
0.0
  0
SPLINE
  5
1e0
100
AcDbEntity
  8
coil
 62
7
100
AcDbSpline
 70
8
 71
3
 72
8
 73
4
 74
0
 40
0
 40
0
 40
0
 40
0
 40
1
 40
1
 40
1
 40
1
 10
158.349517
 20
264.187466
 30
0.0
 10
162.530189
 20
250.543905
 30
0.0
 10
155.046032
 20
236.345886
 30
0.0
 10
142.161395
 20
232.864049
 30
0.0
  0
SPLINE
  5
1e1
100
AcDbEntity
  8
coil
 62
7
100
AcDbSpline
 70
8
 71
3
 72
8
 73
4
 74
0
 40
0
 40
0
 40
0
 40
0
 40
1
 40
1
 40
1
 40
1
 10
142.161395
 20
232.864049
 30
0.0
 10
128.816376
 20
229.257800
 30
0.0
 10
114.189010
 20
238.160065
 30
0.0
 10
109.914301
 20
252.166237
 30
0.0
  0
SPLINE
  5
1e2
100
AcDbEntity
  8
coil
 62
7
100
AcDbSpline
 70
8
 71
3
 72
8
 73
4
 74
0
 40
0
 40
0
 40
0
 40
0
 40
1
 40
1
 40
1
 40
1
 10
109.914301
 20
252.166237
 30
0.0
 10
105.491455
 20
266.657777
 30
0.0
 10
113.445895
 20
281.731152
 30
0.0
 10
127.135843
 20
285.413149
 30
0.0
  0
SPLINE
  5
1e3
100
AcDbEntity
  8
coil
 62
7
100
AcDbSpline
 70
8
 71
3
 72
8
 73
4
 74
0
 40
0
 40
0
 40
0
 40
0
 40
1
 40
1
 40
1
 40
1
 10
127.135843
 20
285.413149
 30
0.0
 10
141.286324
 20
289.219015
 30
0.0
 10
156.789091
 20
279.775374
 30
0.0
 10
161.306489
 20
264.921362
 30
0.0
  0
SPLINE
  5
1e4
100
AcDbEntity
  8
coil
 62
7
100
AcDbSpline
 70
8
 71
3
 72
8
 73
4
 74
0
 40
0
 40
0
 40
0
 40
0
 40
1
 40
1
 40
1
 40
1
 10
161.306489
 20
264.921362
 30
0.0
 10
165.971536
 20
249.581848
 30
0.0
 10
157.546788
 20
233.633082
 30
0.0
 10
143.051530
 20
229.750950
 30
0.0
  0
SPLINE
  5
1e5
100
AcDbEntity
  8
coil
 62
7
100
AcDbSpline
 70
8
 71
3
 72
8
 73
4
 74
0
 40
0
 40
0
 40
0
 40
0
 40
1
 40
1
 40
1
 40
1
 10
143.051530
 20
229.750950
 30
0.0
 10
128.095589
 20
225.745437
 30
0.0
 10
111.717390
 20
235.730473
 30
0.0
 10
106.957326
 20
251.432338
 30
0.0
  0
SPLINE
  5
1e6
100
AcDbEntity
  8
coil
 62
7
100
AcDbSpline
 70
8
 71
3
 72
8
 73
4
 74
0
 40
0
 40
0
 40
0
 40
0
 40
1
 40
1
 40
1
 40
1
 10
106.957326
 20
251.432338
 30
0.0
 10
102.050053
 20
267.619817
 30
0.0
 10
110.945122
 20
284.444010
 30
0.0
 10
126.245702
 20
288.526250
 30
0.0
  0
SPLINE
  5
1e7
100
AcDbEntity
  8
coil
 62
7
100
AcDbSpline
 70
8
 71
3
 72
8
 73
4
 74
0
 40
0
 40
0
 40
0
 40
0
 40
1
 40
1
 40
1
 40
1
 10
126.245702
 20
288.526250
 30
0.0
 10
142.007093
 20
292.731435
 30
0.0
 10
159.260760
 20
282.204983
 30
0.0
 10
164.263460
 20
265.655258
 30
0.0
  0
SPLINE
  5
1e8
100
AcDbEntity
  8
coil
 62
7
100
AcDbSpline
 70
8
 71
3
 72
8
 73
4
 74
0
 40
0
 40
0
 40
0
 40
0
 40
1
 40
1
 40
1
 40
1
 10
164.263460
 20
265.655258
 30
0.0
 10
169.412991
 20
248.619817
 30
0.0
 10
160.047576
 20
230.920174
 30
0.0
 10
143.941671
 20
226.637849
 30
0.0
  0
SPLINE
  5
1e9
100
AcDbEntity
  8
coil
 62
7
100
AcDbSpline
 70
8
 71
3
 72
8
 73
4
 74
0
 40
0
 40
0
 40
0
 40
0
 40
1
 40
1
 40
1
 40
1
 10
143.941671
 20
226.637849
 30
0.0
 10
127.374837
 20
222.232970
 30
0.0
 10
109.245681
 20
233.300856
 30
0.0
 10
104.000355
 20
250.698442
 30
0.0
  0
SPLINE
  5
1ea
100
AcDbEntity
  8
coil
 62
7
100
AcDbSpline
 70
8
 71
3
 72
8
 73
4
 74
0
 40
0
 40
0
 40
0
 40
0
 40
1
 40
1
 40
1
 40
1
 10
104.000355
 20
250.698442
 30
0.0
 10
98.608560
 20
268.581837
 30
0.0
 10
108.444328
 20
287.156955
 30
0.0
 10
125.355563
 20
291.639347
 30
0.0
  0
SPLINE
  5
1eb
100
AcDbEntity
  8
coil
 62
7
100
AcDbSpline
 70
8
 71
3
 72
8
 73
4
 74
0
 40
0
 40
0
 40
0
 40
0
 40
1
 40
1
 40
1
 40
1
 10
125.355563
 20
291.639347
 30
0.0
 10
142.727834
 20
296.243939
 30
0.0
 10
161.732505
 20
284.634606
 30
0.0
 10
167.220435
 20
266.389157
 30
0.0
  0
SPLINE
  5
1ec
100
AcDbEntity
  8
coil
 62
7
100
AcDbSpline
 70
8
 71
3
 72
8
 73
4
 74
0
 40
0
 40
0
 40
0
 40
0
 40
1
 40
1
 40
1
 40
1
 10
167.220435
 20
266.389157
 30
0.0
 10
172.854516
 20
247.657810
 30
0.0
 10
162.548382
 20
228.207198
 30
0.0
 10
144.831810
 20
223.524752
 30
0.0
  0
SPLINE
  5
1ed
100
AcDbEntity
  8
coil
 62
7
100
AcDbSpline
 70
8
 71
3
 72
8
 73
4
 74
0
 40
0
 40
0
 40
0
 40
0
 40
1
 40
1
 40
1
 40
1
 10
144.831810
 20
223.524752
 30
0.0
 10
126.654108
 20
218.720430
 30
0.0
 10
106.773905
 20
230.871227
 30
0.0
 10
101.043383
 20
249.964545
 30
0.0
  0
SPLINE
  5
1ee
100
AcDbEntity
  8
coil
 62
7
100
AcDbSpline
 70
8
 71
3
 72
8
 73
4
 74
0
 40
0
 40
0
 40
0
 40
0
 40
1
 40
1
 40
1
 40
1
 10
101.043383
 20
249.964545
 30
0.0
 10
95.167007
 20
269.543834
 30
0.0
 10
105.943512
 20
289.869963
 30
0.0
 10
124.465424
 20
294.752444
 30
0.0
  0
SPLINE
  5
1ef
100
AcDbEntity
  8
coil
 62
7
100
AcDbSpline
 70
8
 71
3
 72
8
 73
4
 74
0
 40
0
 40
0
 40
0
 40
0
 40
1
 40
1
 40
1
 40
1
 10
124.465424
 20
294.752444
 30
0.0
 10
143.448555
 20
299.756510
 30
0.0
 10
164.204305
 20
287.064243
 30
0.0
 10
170.177406
 20
267.123054
 30
0.0
  0
SPLINE
  5
1f0
100
AcDbEntity
  8
coil
 62
7
100
AcDbSpline
 70
8
 71
3
 72
8
 73
4
 74
0
 40
0
 40
0
 40
0
 40
0
 40
1
 40
1
 40
1
 40
1
 10
170.177406
 20
267.123054
 30
0.0
 10
176.296096
 20
246.695819
 30
0.0
 10
165.049200
 20
225.494161
 30
0.0
 10
145.721949
 20
220.411655
 30
0.0
  0
SPLINE
  5
1f1
100
AcDbEntity
  8
coil
 62
7
100
AcDbSpline
 70
8
 71
3
 72
8
 73
4
 74
0
 40
0
 40
0
 40
0
 40
0
 40
1
 40
1
 40
1
 40
1
 10
145.721949
 20
220.411655
 30
0.0
 10
125.933394
 20
215.207837
 30
0.0
 10
104.302079
 20
228.441585
 30
0.0
 10
98.086408
 20
249.230647
 30
0.0
  0
SPLINE
  5
1f2
100
AcDbEntity
  8
coil
 62
7
100
AcDbSpline
 70
8
 71
3
 72
8
 73
4
 74
0
 40
0
 40
0
 40
0
 40
0
 40
1
 40
1
 40
1
 40
1
 10
98.086408
 20
249.230647
 30
0.0
 10
91.725397
 20
270.505818
 30
0.0
 10
103.442687
 20
292.583022
 30
0.0
 10
123.575283
 20
297.865545
 30
0.0
  0
SPLINE
  5
1f3
100
AcDbEntity
  8
coil
 62
7
100
AcDbSpline
 70
8
 71
3
 72
8
 73
4
 74
0
 40
0
 40
0
 40
0
 40
0
 40
1
 40
1
 40
1
 40
1
 10
123.575283
 20
297.865545
 30
0.0
 10
144.169260
 20
303.269125
 30
0.0
 10
166.676149
 20
289.493891
 30
0.0
 10
173.134378
 20
267.856950
 30
0.0
  0
SPLINE
  5
1f4
100
AcDbEntity
  8
coil
 62
7
100
AcDbSpline
 70
8
 71
3
 72
8
 73
4
 74
0
 40
0
 40
0
 40
0
 40
0
 40
1
 40
1
 40
1
 40
1
 10
173.134378
 20
267.856950
 30
0.0
 10
179.737720
 20
245.733843
 30
0.0
 10
167.550037
 20
222.781082
 30
0.0
 10
146.612090
 20
217.298554
 30
0.0
  0
SPLINE
  5
1f5
100
AcDbEntity
  8
coil
 62
7
100
AcDbSpline
 70
8
 71
3
 72
8
 73
4
 74
0
 40
0
 40
0
 40
0
 40
0
 40
1
 40
1
 40
1
 40
1
 10
146.612090
 20
217.298554
 30
0.0
 10
125.212700
 20
211.695203
 30
0.0
 10
101.830218
 20
226.011933
 30
0.0
 10
95.129437
 20
248.496750
 30
0.0
  0
SPLINE
  5
1f6
100
AcDbEntity
  8
coil
 62
7
100
AcDbSpline
 70
8
 71
3
 72
8
 73
4
 74
0
 40
0
 40
0
 40
0
 40
0
 40
1
 40
1
 40
1
 40
1
 10
95.129437
 20
248.496750
 30
0.0
 10
88.283756
 20
271.467789
 30
0.0
 10
100.941850
 20
295.296117
 30
0.0
 10
122.685144
 20
300.978642
 30
0.0
  0
SPLINE
  5
1f7
100
AcDbEntity
  8
coil
 62
7
100
AcDbSpline
 70
8
 71
3
 72
8
 73
4
 74
0
 40
0
 40
0
 40
0
 40
0
 40
1
 40
1
 40
1
 40
1
 10
122.685144
 20
300.978642
 30
0.0
 10
144.889949
 20
306.781777
 30
0.0
 10
169.148033
 20
291.923545
 30
0.0
 10
176.091355
 20
268.590845
 30
0.0
  0
SPLINE
  5
1f8
100
AcDbEntity
  8
coil
 62
7
100
AcDbSpline
 70
8
 71
3
 72
8
 73
4
 74
0
 40
0
 40
0
 40
0
 40
0
 40
1
 40
1
 40
1
 40
1
 10
176.091355
 20
268.590845
 30
0.0
 10
183.179379
 20
244.771876
 30
0.0
 10
170.050879
 20
220.067969
 30
0.0
 10
147.502229
 20
214.185457
 30
0.0
  0
SPLINE
  5
1f9
100
AcDbEntity
  8
coil
 62
7
100
AcDbSpline
 70
8
 71
3
 72
8
 73
4
 74
0
 40
0
 40
0
 40
0
 40
0
 40
1
 40
1
 40
1
 40
1
 10
147.502229
 20
214.185457
 30
0.0
 10
124.492013
 20
208.182530
 30
0.0
 10
99.358323
 20
223.582272
 30
0.0
 10
92.172465
 20
247.762854
 30
0.0
  0
SPLINE
  5
1fa
100
AcDbEntity
  8
coil
 62
7
100
AcDbSpline
 70
8
 71
3
 72
8
 73
4
 74
0
 40
0
 40
0
 40
0
 40
0
 40
1
 40
1
 40
1
 40
1
 10
92.172465
 20
247.762854
 30
0.0
 10
84.842084
 20
272.429753
 30
0.0
 10
98.441002
 20
298.009242
 30
0.0
 10
121.795005
 20
304.091739
 30
0.0
  0
SPLINE
  5
1fb
100
AcDbEntity
  8
coil
 62
7
100
AcDbSpline
 70
8
 71
3
 72
8
 73
4
 74
0
 40
0
 40
0
 40
0
 40
0
 40
1
 40
1
 40
1
 40
1
 10
121.795005
 20
304.091739
 30
0.0
 10
131.848507
 20
306.710151
 30
0.0
 10
142.866846
 20
305.518173
 30
0.0
 10
152.616063
 20
300.784336
 30
0.0
  0
ENDSEC
  0
SECTION
  2
OBJECTS
  0
DICTIONARY
  5
C
330
0
100
AcDbDictionary
  3
ACAD_GROUP
350
D
  3
ACAD_MLINESTYLE
350
17
  0
DICTIONARY
  5
D
330
C
100
AcDbDictionary
  0
DICTIONARY
  5
1A
330
C
100
AcDbDictionary
  0
DICTIONARY
  5
17
330
C
100
AcDbDictionary
  3
STANDARD
350
18
  0
DICTIONARY
  5
19
330
C
100
AcDbDictionary
  0
ENDSEC
  0
EOF
